<svg width="32" height="33" viewBox="0 0 32 33" fill="none" xmlns="http://www.w3.org/2000/svg">
<path fill-rule="evenodd" clip-rule="evenodd" d="M21.3703 29.5263C21.3706 30.4027 21.0295 31.2468 20.4153 31.8894C19.8012 32.532 18.9594 32.9256 18.0587 32.9913L17.7902 33H14.2101C13.3069 33.0003 12.4369 32.6693 11.7746 32.0734C11.1123 31.4775 10.7067 30.6607 10.6389 29.7868L10.63 29.5263H21.3703ZM16.0001 1.65706e-09C19.2491 -5.20098e-05 22.371 1.22429 24.7074 3.41476C27.0438 5.60523 28.412 8.59057 28.5234 11.7411L28.5306 12.1579V18.6954L31.7921 25.0244C31.9344 25.3006 32.0056 25.6061 31.9997 25.9148C31.9937 26.2235 31.9107 26.5262 31.7578 26.797C31.6049 27.0678 31.3866 27.2986 31.1216 27.4696C30.8567 27.6406 30.553 27.7468 30.2365 27.7791L30.0306 27.7895H1.96965C1.65131 27.7896 1.3377 27.7148 1.05568 27.5715C0.773665 27.4282 0.531655 27.2207 0.35039 26.9668C0.169125 26.7129 0.0540106 26.4201 0.0149101 26.1136C-0.0241904 25.8071 0.0138894 25.4959 0.125886 25.2068L0.208229 25.0244L3.46972 18.6954V12.1579C3.46972 8.93342 4.78988 5.84101 7.13979 3.56096C9.4897 1.28092 12.6769 1.65707e-09 16.0001 1.65706e-09ZM16.0001 3.47368C13.6937 3.47381 11.4764 4.33784 9.81051 5.88557C8.14465 7.4333 7.15889 9.54525 7.05879 11.781L7.04984 12.1579V18.6954C7.04986 19.1261 6.9673 19.5531 6.80639 19.9546L6.67214 20.2498L4.57777 24.3158H27.4243L25.3299 20.2481C25.1313 19.863 25.008 19.4455 24.9666 19.0167L24.9504 18.6954V12.1579C24.9504 9.8547 24.0075 7.64584 22.329 6.01723C20.6505 4.38863 18.3739 3.47368 16.0001 3.47368Z" fill="#3E8F9C"/>
</svg>
