<svg width="49" height="61" viewBox="0 0 49 61" fill="none" xmlns="http://www.w3.org/2000/svg">
<path d="M45.6488 60.1066H2.64456C1.19139 60.1066 0 58.9186 0 57.4621V2.64456C0 1.18804 1.18804 0 2.64456 0H45.6488C47.102 0 48.2934 1.18804 48.2934 2.64456V57.4654C48.2934 58.9186 47.1054 60.11 45.6488 60.11V60.1066Z" fill="#3E8F9C"/>
<path d="M41.1215 19.3985H6.98391C5.53075 19.3985 4.33936 18.2105 4.33936 16.7539V7.65237C4.33936 6.19921 5.52739 5.00781 6.98391 5.00781H41.1215C42.5747 5.00781 43.7661 6.19585 43.7661 7.65237V16.7539C43.7661 18.2071 42.5781 19.3985 41.1215 19.3985Z" fill="#E5F3F6"/>
<path d="M42.8633 26.0432H5.24213C4.74544 26.0432 4.34271 25.6371 4.34271 25.1438V24.5732C4.34271 24.0766 4.74879 23.6738 5.24213 23.6738H42.8633C43.36 23.6738 43.7627 24.0799 43.7627 24.5732V25.1438C43.7627 25.6405 43.3567 26.0432 42.8633 26.0432Z" fill="#E5F3F6"/>
<path d="M42.8633 32.133H5.24213C4.74544 32.133 4.34271 31.727 4.34271 31.2336V30.6631C4.34271 30.1664 4.74879 29.7637 5.24213 29.7637H42.8633C43.36 29.7637 43.7627 30.1698 43.7627 30.6631V31.2336C43.7627 31.7303 43.3567 32.133 42.8633 32.133Z" fill="#E5F3F6"/>
<path d="M42.8633 38.2268H5.24213C4.74544 38.2268 4.34271 37.8207 4.34271 37.3274V36.7568C4.34271 36.2601 4.74879 35.8574 5.24213 35.8574H42.8633C43.36 35.8574 43.7627 36.2635 43.7627 36.7568V37.3274C43.7627 37.8241 43.3567 38.2268 42.8633 38.2268Z" fill="#E5F3F6"/>
<path d="M42.3968 53.3117H26.3516C25.5998 53.3117 24.9823 52.6942 24.9823 51.9425V43.5255C24.9823 42.7738 25.5998 42.1562 26.3516 42.1562H42.3968C43.1486 42.1562 43.7661 42.7738 43.7661 43.5255V51.9425C43.7661 52.6942 43.1486 53.3117 42.3968 53.3117Z" fill="#E5F3F6"/>
<path d="M22.2237 44.5256H5.24213C4.74544 44.5256 4.34271 44.1195 4.34271 43.6262V43.0557C4.34271 42.559 4.74879 42.1562 5.24213 42.1562H22.2237C22.7204 42.1562 23.1231 42.5623 23.1231 43.0557V43.6262C23.1231 44.1229 22.717 44.5256 22.2237 44.5256Z" fill="#E5F3F6"/>
<path d="M22.2237 50.8772H5.24213C4.74544 50.8772 4.34271 50.4711 4.34271 49.9778V49.4072C4.34271 48.9105 4.74879 48.5078 5.24213 48.5078H22.2237C22.7204 48.5078 23.1231 48.9139 23.1231 49.4072V49.9778C23.1231 50.4745 22.717 50.8772 22.2237 50.8772Z" fill="#E5F3F6"/>
</svg>
