<svg width="33" height="33" viewBox="0 0 33 33" fill="none" xmlns="http://www.w3.org/2000/svg">
<path d="M9.90001 14.8462C9.90001 14.4086 10.0738 13.9889 10.3833 13.6795C10.6927 13.3701 11.1124 13.1962 11.55 13.1962H21.45C21.8876 13.1962 22.3073 13.3701 22.6167 13.6795C22.9262 13.9889 23.1 14.4086 23.1 14.8462C23.1 15.2838 22.9262 15.7035 22.6167 16.0129C22.3073 16.3224 21.8876 16.4962 21.45 16.4962H11.55C11.1124 16.4962 10.6927 16.3224 10.3833 16.0129C10.0738 15.7035 9.90001 15.2838 9.90001 14.8462ZM11.55 19.7962C11.1124 19.7962 10.6927 19.9701 10.3833 20.2795C10.0738 20.5889 9.90001 21.0086 9.90001 21.4462C9.90001 21.8838 10.0738 22.3035 10.3833 22.6129C10.6927 22.9224 11.1124 23.0962 11.55 23.0962H18.15C18.5876 23.0962 19.0073 22.9224 19.3167 22.6129C19.6262 22.3035 19.8 21.8838 19.8 21.4462C19.8 21.0086 19.6262 20.5889 19.3167 20.2795C19.0073 19.9701 18.5876 19.7962 18.15 19.7962H11.55ZM1.85661e-05 16.4962C0.00084613 12.8788 1.19046 9.36182 3.38579 6.48666C5.58111 3.61149 8.66047 1.53746 12.1499 0.583754C15.6394 -0.369952 19.3456 -0.150474 22.6981 1.20841C26.0507 2.56729 28.8637 4.99027 30.7044 8.10444C32.545 11.2186 33.3112 14.8514 32.8851 18.4436C32.459 22.0359 30.8641 25.3886 28.346 27.9857C25.8279 30.5828 22.526 32.2804 18.9486 32.8173C15.3712 33.3541 11.7165 32.7004 8.54701 30.9568L2.13182 32.9104C1.84568 32.9976 1.54122 33.0053 1.25102 32.9328C0.960825 32.8603 0.695796 32.7103 0.484285 32.4987C0.272774 32.2872 0.122739 32.0222 0.050227 31.732C-0.0222848 31.4418 -0.0145451 31.1373 0.0726183 30.8512L2.02622 24.4261C0.692868 21.996 -0.00414748 19.2681 1.85661e-05 16.4962ZM16.5 3.29623C14.1568 3.29603 11.8558 3.91958 9.83328 5.10283C7.81078 6.28608 6.1397 7.98638 4.99168 10.0291C3.84367 12.0718 3.2601 14.3833 3.30091 16.7261C3.34172 19.069 4.00545 21.3587 5.22391 23.3602C5.34486 23.559 5.42239 23.7812 5.45139 24.0121C5.4804 24.243 5.46023 24.4774 5.39221 24.7L4.12831 28.8547L8.27641 27.5908C8.49968 27.5228 8.73485 27.5029 8.96637 27.5325C9.19789 27.5621 9.42051 27.6404 9.61951 27.7624C11.3592 28.8246 13.3212 29.4694 15.3518 29.6464C17.3824 29.8233 19.4264 29.5276 21.3236 28.7825C23.2208 28.0373 24.9197 26.8629 26.2871 25.3513C27.6544 23.8397 28.6532 22.0319 29.205 20.0698C29.7568 18.1076 29.8467 16.0443 29.4677 14.0415C29.0886 12.0388 28.2509 10.151 27.0202 8.52619C25.7895 6.90137 24.1992 5.58364 22.374 4.67627C20.5488 3.7689 18.5383 3.29655 16.5 3.29623Z" fill="#3E8F9C"/>
</svg>
