<svg width="100" height="100" viewBox="0 0 100 100" fill="none" xmlns="http://www.w3.org/2000/svg">
<g clip-path="url(#clip0_2122_3990)">
<path d="M50 100C77.6142 100 100 77.6142 100 50C100 22.3858 77.6142 0 50 0C22.3858 0 0 22.3858 0 50C0 77.6142 22.3858 100 50 100Z" fill="#3E8F9C"/>
<path d="M43.6667 19.1667H18.3333C17.4935 19.1667 16.688 19.5003 16.0942 20.0942C15.5003 20.688 15.1667 21.4935 15.1667 22.3333V50.8333L21.5 44.5H43.6667C44.5065 44.5 45.312 44.1664 45.9058 43.5725C46.4997 42.9786 46.8333 42.1732 46.8333 41.3333V22.3333C46.8333 21.4935 46.4997 20.688 45.9058 20.0942C45.312 19.5003 44.5065 19.1667 43.6667 19.1667Z" fill="#E5F3F6"/>
<path d="M53.3333 48.1667H78.6666C79.5065 48.1667 80.312 48.5003 80.9058 49.0942C81.4997 49.688 81.8333 50.4935 81.8333 51.3333V79.8333L75.5 73.5H53.3333C52.4935 73.5 51.688 73.1664 51.0941 72.5725C50.5003 71.9786 50.1666 71.1732 50.1666 70.3333V51.3333C50.1666 50.4935 50.5003 49.688 51.0941 49.0942C51.688 48.5003 52.4935 48.1667 53.3333 48.1667Z" fill="#E5F3F6"/>
</g>
<defs>
<clipPath id="clip0_2122_3990">
<rect width="100" height="100" fill="white"/>
</clipPath>
</defs>
</svg>
