<svg width="100" height="100" viewBox="0 0 100 100" fill="none" xmlns="http://www.w3.org/2000/svg">
<g clip-path="url(#clip0_2119_2899)">
<path d="M50 100C77.6142 100 100 77.6142 100 50C100 22.3858 77.6142 0 50 0C22.3858 0 0 22.3858 0 50C0 77.6142 22.3858 100 50 100Z" fill="#E5F3F6"/>
<mask id="mask0_2119_2899" style="mask-type:luminance" maskUnits="userSpaceOnUse" x="0" y="0" width="100" height="100">
<path d="M50 100C77.6142 100 100 77.6142 100 50C100 22.3858 77.6142 0 50 0C22.3858 0 0 22.3858 0 50C0 77.6142 22.3858 100 50 100Z" fill="white"/>
</mask>
<g mask="url(#mask0_2119_2899)">
<path d="M10.2459 93.8749C4.85584 92.1345 -0.0731437 89.3687 -4.31553 85.822C-4.50357 85.6714 -4.70115 85.5021 -4.88931 85.3422C-6.18739 84.2227 -7.41027 83.0279 -8.56724 81.7673C-8.71778 81.6073 -8.8589 81.4475 -9.00001 81.2781C-4.5789 68.3991 2.76765 58.1355 11.2336 58.1638C21.7971 58.2484 16.2942 78.0983 10.2459 93.8749Z" fill="#3E8F9C"/>
<path d="M29.2941 32.1141C29.2941 32.1141 41.8424 28.7368 51.1832 40.1764C60.5239 51.616 54.72 65.6897 39.9235 65.2851C25.127 64.8806 21.6936 49.7627 21.6936 49.7627L29.2941 32.1141Z" fill="black"/>
<path d="M47.5711 88.9819C45.3605 90.4118 43.0089 91.6537 40.5444 92.6791C39.8954 92.9425 39.2463 93.1965 38.5878 93.4317C33.9598 95.0968 28.9743 96 23.7725 96C23.4339 96 23.0858 96 22.7378 95.9906C12.4565 95.7554 3.04046 91.9735 -4.31552 85.821C-3.43123 75.9431 -2.23665 68.003 -0.646903 65.717C2.69245 60.9097 6.61489 59.1411 11.2336 58.1628C13.6981 57.6547 16.3037 57.3819 19.1256 56.9774C23.2645 56.4035 28.2501 56.5258 32.7087 57.0339H32.7651C37.1298 57.5419 40.9959 58.4356 43.0466 59.4421C44.7491 60.27 46.3858 73.4971 47.5711 88.9819Z" fill="#3E8F9C"/>
<path d="M13.1431 48.9723C12.6163 51.371 11.1771 53.0925 9.92609 52.8197C8.67493 52.5469 8.08241 50.3834 8.60915 47.9846C9.13588 45.586 10.5751 43.8646 11.8261 44.1374C13.0773 44.4102 13.6698 46.5737 13.1431 48.9723Z" fill="#92B4EA"/>
<path d="M58.2945 79.1986C55.5855 82.6417 52.3778 85.671 48.7751 88.1734C46.2165 89.9514 43.4604 91.4661 40.5444 92.6796C39.8953 92.9431 39.2463 93.197 38.5877 93.4322L30.517 57.0344C30.517 57.0344 31.3165 56.9685 32.7087 57.0344H32.7651C37.1768 57.2789 49.5652 57.1096 58.2945 79.1986Z" fill="#3E8F9C"/>
<path d="M10.4528 41.5316C10.4528 41.5316 6.88768 37.7403 7.77197 31.7289C8.37392 27.6553 10.1611 26.3101 10.1611 26.3101C10.1611 26.3101 7.30159 20.8256 15.4947 21.0043C23.6878 21.183 30.404 20.4869 34.0538 27.5331C36.2079 31.6818 35.3519 40.7037 35.3519 40.7037L10.4622 41.5316H10.4528Z" fill="black"/>
<path d="M28.5509 47.9273L28.4946 57.9275C28.4946 57.9275 26.6791 60.7874 20.8188 61.2296C16.4635 61.5588 15.0902 59.3104 15.0902 59.3104L16.2002 50.5709L26.7731 48.313L28.5509 47.9273Z" fill="#F48462"/>
<path d="M28.5416 47.3167C28.5134 47.5895 28.4099 47.9093 28.25 48.2762C25.9831 53.2616 18.1003 55.2935 15.5794 55.5004L16.2096 50.562L28.5511 47.3073L28.5416 47.3167Z" fill="black"/>
<path d="M14.112 27.7689C14.112 27.7689 8.78785 40.2717 10.8197 47.252C12.8515 54.2324 19.2103 53.0659 23.0106 51.6735C26.8108 50.2813 28.5604 47.9294 28.5604 47.9294C28.5604 47.9294 32.1349 49.1053 34.4866 45.7657C36.8381 42.426 35.3332 38.6348 33.2919 37.7881C31.2507 36.932 28.8426 38.4278 28.8426 38.4278L30.7051 34.787C30.7051 34.787 22.5496 16.4705 14.112 27.7596V27.7689Z" fill="#F48462"/>
<path d="M28.8332 38.4271C28.8332 38.4271 23.4997 39.6125 19.6618 33.7233C15.824 27.8342 16.125 25.3789 16.125 25.3789L12.5411 31.5972C12.5411 31.5972 11.6286 27.3451 13.2842 24.598C14.9397 21.8511 16.7176 22.3778 16.7176 22.3778L28.5792 25.0967L31.8716 34.5042L28.8332 38.4271Z" fill="black"/>
<path d="M14.8269 43.6555C14.6293 43.6555 14.4411 43.5333 14.3753 43.3357C13.5005 40.6549 15.3442 37.8893 15.4288 37.767C15.5794 37.5507 15.871 37.4942 16.0779 37.6448C16.2942 37.7859 16.3507 38.0869 16.2002 38.2938C16.1814 38.3221 14.5259 40.796 15.2595 43.0347C15.3442 43.2792 15.2031 43.5427 14.9585 43.6274C14.9115 43.6461 14.8645 43.6461 14.808 43.6461L14.8269 43.6555Z" fill="black"/>
<path d="M29.4541 44.3348C29.3412 44.3348 29.2283 44.2972 29.1343 44.2125C28.9461 44.0338 28.9272 43.7421 29.106 43.5447L32.4266 39.9043C32.6053 39.7162 32.8968 39.6973 33.0944 39.8761C33.2826 40.0548 33.3013 40.3464 33.1226 40.5439L29.8021 44.1843C29.708 44.2877 29.5858 44.3348 29.4541 44.3348Z" fill="black"/>
<path d="M33.0191 43.3197C33.0191 43.3197 32.9815 43.3197 32.9533 43.3197L30.6111 42.9999C30.3571 42.9622 30.169 42.7271 30.2066 42.4731C30.2442 42.2192 30.4794 42.031 30.7333 42.0686L33.0756 42.3885C33.3295 42.4261 33.5176 42.6613 33.48 42.9152C33.4519 43.1504 33.2448 43.3197 33.0191 43.3197Z" fill="black"/>
<path d="M12.2306 33.5071C12.0143 33.5071 11.8168 33.3471 11.7698 33.1308C11.7227 32.8769 11.8826 32.6323 12.146 32.5759L14.3471 32.1526C14.5917 32.1055 14.8456 32.2654 14.9021 32.5289C14.9491 32.7828 14.7893 33.0274 14.5258 33.0838L12.3247 33.5071C12.3247 33.5071 12.2683 33.5071 12.2306 33.5071Z" fill="black"/>
<path d="M21.4584 34.7855C21.3927 34.7855 21.3173 34.7667 21.2516 34.7385L17.5924 32.9701C17.3573 32.8571 17.2632 32.575 17.376 32.3398C17.489 32.1046 17.7711 32.0106 18.0063 32.1235L21.6655 33.8919C21.9006 34.0048 21.9946 34.287 21.8818 34.5221C21.7971 34.6915 21.6372 34.7855 21.4584 34.7855Z" fill="black"/>
<path d="M12.3341 38.6237C12.3341 38.6237 12.2494 38.6237 12.2024 38.6048C11.9485 38.5296 11.8074 38.2757 11.8826 38.0216L12.4563 35.9992L11.9109 35.3596C11.7415 35.1621 11.7697 34.8611 11.9672 34.7011C12.1648 34.5319 12.4658 34.56 12.6351 34.7576L13.3406 35.5853C13.444 35.7077 13.4817 35.8675 13.4347 36.0181L12.7856 38.2757C12.7291 38.4826 12.5411 38.6143 12.3341 38.6143V38.6237Z" fill="black"/>
<path d="M18.6365 39.104C18.6365 39.104 18.5518 39.104 18.5048 39.0852C18.2509 39.01 18.1098 38.7559 18.185 38.502L18.7587 36.489L17.9592 35.586C17.7899 35.3884 17.7994 35.0968 17.9968 34.9181C18.1944 34.7487 18.4859 34.7582 18.6647 34.9557L19.643 36.0469C19.7464 36.1692 19.7935 36.3385 19.7464 36.489L19.0974 38.7466C19.041 38.9535 18.8528 39.0852 18.6459 39.0852L18.6365 39.104Z" fill="black"/>
<path d="M16.633 46.9023C16.3319 46.9023 16.0403 46.8365 15.7581 46.6954C15.5229 46.5732 15.4383 46.291 15.5606 46.0652C15.6829 45.8394 15.9651 45.7454 16.1909 45.8676C17.1597 46.3756 18.9375 44.8329 19.4831 44.2497C19.6618 44.0615 19.9629 44.0522 20.1509 44.2309C20.3391 44.4097 20.3485 44.7106 20.1698 44.8988C19.944 45.134 18.2226 46.9118 16.6235 46.9118L16.633 46.9023Z" fill="black"/>
<path d="M15.3348 57.4114L10.3493 58.2864C10.3493 58.2864 10.4528 64.9657 19.8312 65.8124C29.2095 66.6591 35.5119 57.308 35.5119 57.308L25.6632 56.1132L15.3348 57.4114Z" fill="#F48462"/>
<path d="M33.433 49.5258C33.5835 51.981 32.671 54.0316 31.3917 54.1069C30.1125 54.1821 28.9555 52.2632 28.805 49.8175C28.6544 47.3623 29.5669 45.3117 30.8462 45.2365C32.1255 45.1612 33.2824 47.0802 33.433 49.5258Z" fill="#92B4EA"/>
<path d="M6.02227 91.1937C5.90002 91.1937 5.76833 91.1467 5.68369 91.0432C-2.96095 81.8708 4.30095 72.5668 4.37617 72.4727C4.53603 72.2751 4.83712 72.2375 5.03459 72.3974C5.2416 72.5573 5.26978 72.8583 5.10991 73.0559C4.82769 73.4134 -1.7099 81.8332 6.36097 90.3941C6.53969 90.5822 6.53026 90.8832 6.34211 91.0619C6.24803 91.1467 6.1352 91.1937 6.02227 91.1937Z" fill="#92B4EA"/>
<path d="M106.825 112.806C106.366 113.151 105.895 113.484 105.412 113.806C104.423 114.473 103.412 115.116 102.378 115.714C96.5398 119.127 90.0007 121.46 83.0135 122.46C82.6801 122.506 82.3468 122.552 82.0021 122.586C80.2208 122.816 78.4051 122.943 76.5548 122.977H76.4514C76.0951 123 75.7388 123 75.3825 123C71.0614 123 66.8438 122.483 62.8216 121.518C56.949 120.104 51.4442 117.725 46.5026 114.553C44.7098 113.415 42.9974 112.163 41.3655 110.795C39.0555 108.911 36.9066 106.819 34.9413 104.555C34.5046 104.049 34.0794 103.544 33.6657 103.027C32.9877 93.8443 41.6298 84.9953 43.1698 83.1909C48.1229 77.3299 62.0515 74.0661 75.7273 74.4568C75.7273 74.4568 94.3562 74.3878 102.113 82.6738C105.527 86.3169 106.664 99.3031 106.825 112.806Z" fill="#7E6CFB"/>
<path d="M44.7901 81.6168L44.0891 112.91C43.1583 112.244 42.2503 111.543 41.3655 110.796C39.0555 108.911 36.9064 106.819 34.9413 104.555C34.5046 104.05 34.0794 103.544 33.6657 103.027C33.2175 102.475 32.7808 101.912 32.3556 101.338C32.1717 101.096 31.9993 100.866 31.8269 100.625C30.4134 98.6599 29.1377 96.5913 28 94.4307C34.8379 87.8686 44.7901 81.6168 44.7901 81.6168Z" fill="#7E6CFB"/>
<path d="M116.088 104.244C114.031 106.658 111.755 108.876 109.308 110.898C108.503 111.553 107.676 112.197 106.825 112.806C106.366 113.151 105.894 113.484 105.412 113.806C105.193 113.955 104.964 114.105 104.745 114.242C104.469 114.426 104.194 114.61 103.918 114.771C103.412 115.104 102.895 115.415 102.378 115.713C100.505 116.817 98.5509 117.794 96.5398 118.655L89.8858 113.174L102.573 83.1904L116.088 104.244Z" fill="#7E6CFB"/>
<path d="M65.5107 64.7681L64.6373 75.5133C64.6373 75.5133 65.3727 78.7771 72.4061 79.9263C77.6465 80.7883 80.5081 77.6165 80.5081 77.6165L80.4161 75.295L80.1748 69.2616L67.6137 65.4117L65.5107 64.7681Z" fill="#F48462"/>
<path d="M67.6253 65.413C67.6253 65.7463 67.7287 66.1485 67.8782 66.6082C70.0961 72.8715 77.3937 74.7792 80.4161 75.2964L80.1749 69.2629L67.6138 65.413H67.6253Z" fill="black"/>
<path d="M85.1165 41.8991C85.1165 41.8991 90.2421 57.586 87.0472 65.8143C83.8639 74.0428 76.2789 71.9628 71.8315 69.8827C67.3839 67.8026 65.5107 64.7686 65.5107 64.7686C65.5107 64.7686 61.0632 65.8143 58.5694 61.5278C56.0756 57.2412 58.2935 52.8167 60.8564 52.0007C63.4191 51.1848 66.1657 53.2419 66.1657 53.2419L64.2925 48.645C64.2925 48.645 76.0836 27.3498 85.105 41.8876L85.1165 41.8991Z" fill="#F48462"/>
<path d="M82.6226 61.0444C82.5421 61.0444 82.4733 61.0329 82.3928 60.9983C82.1055 60.872 81.9675 60.5386 82.094 60.2399C83.2203 57.6081 81.4734 54.4363 81.4619 54.4018C81.3125 54.126 81.4044 53.7697 81.6802 53.6204C81.9561 53.4709 82.3123 53.5629 82.4618 53.8387C82.5421 53.988 84.4958 57.5277 83.1513 60.6881C83.0593 60.9064 82.841 61.0329 82.6226 61.0329V61.0444Z" fill="black"/>
<path d="M64.8556 60.2064C64.7177 60.2064 64.5798 60.149 64.4878 60.0225L60.8448 55.2648C60.6954 55.0694 60.7299 54.7821 60.9252 54.6212C61.1206 54.4603 61.4079 54.5063 61.5688 54.7017L65.2119 59.4595C65.3612 59.6547 65.3268 59.942 65.1314 60.103C65.051 60.1719 64.9475 60.1949 64.8556 60.1949V60.2064Z" fill="black"/>
<path d="M60.6494 58.5977C60.4082 58.5977 60.2013 58.4024 60.1899 58.161C60.1784 57.9081 60.3736 57.6898 60.6265 57.6783L63.4996 57.5404C63.7639 57.5174 63.9708 57.7242 63.9823 57.9771C63.9937 58.23 63.7984 58.4483 63.5455 58.4598L60.6725 58.5977C60.6725 58.5977 60.661 58.5977 60.6494 58.5977Z" fill="black"/>
<path d="M76.3823 54.7352C76.072 54.7352 75.8192 54.4823 75.8077 54.1721L75.7388 51.3334C75.7388 51.0117 75.98 50.7588 76.3019 50.7473C76.6121 50.7473 76.8765 50.9887 76.888 51.3105L76.9569 54.149C76.9569 54.4709 76.7156 54.7236 76.3938 54.7352H76.3823Z" fill="black"/>
<path d="M84.7717 54.9211C84.4614 54.9211 84.2085 54.6797 84.1971 54.3694L84.0707 51.5309C84.0592 51.209 84.3005 50.9447 84.6223 50.9332C84.944 50.9103 85.2084 51.1631 85.2199 51.4849L85.3463 54.3234C85.3577 54.6453 85.1165 54.9096 84.7946 54.9211C84.7946 54.9211 84.7831 54.9211 84.7717 54.9211Z" fill="black"/>
<path d="M74.9918 49.4031C74.8769 49.4031 74.762 49.3686 74.67 49.2997C74.4057 49.1158 74.3482 48.7595 74.5206 48.4952C75.8422 46.599 78.3361 47.4609 78.4395 47.5068C78.7383 47.6102 78.8877 47.9436 78.7843 48.2423C78.6809 48.5411 78.3475 48.702 78.0488 48.5871C77.9798 48.5642 76.2675 47.9781 75.4515 49.1503C75.3366 49.3112 75.1642 49.4031 74.9803 49.4031H74.9918Z" fill="black"/>
<path d="M85.9554 49.3913C85.7601 49.3913 85.5762 49.2994 85.4613 49.1155C85.3349 48.9085 84.8867 48.357 84.358 48.2536C84.0707 48.1961 83.7719 48.2765 83.4617 48.4949C83.2088 48.6787 82.841 48.6099 82.6572 48.357C82.4733 48.0927 82.5308 47.7364 82.7951 47.5525C83.3697 47.1503 83.9902 47.0009 84.5879 47.1273C85.7027 47.3571 86.3576 48.3914 86.4381 48.5178C86.599 48.7936 86.5185 49.1384 86.2427 49.3108C86.1508 49.3682 86.0474 49.3913 85.9439 49.3913H85.9554Z" fill="black"/>
<path d="M85.1165 41.8988L84.1511 40.4853C84.1511 40.4853 82.9559 41.3012 80.3127 41.8644C76.2445 42.7492 71.4637 42.4965 71.4637 42.4965C71.4637 42.4965 72.2681 43.6571 72.0842 47.8633C71.9003 52.0694 67.5333 54.4138 67.5333 54.4138C65.9933 53.3336 64.7063 52.7245 63.6145 52.3912C63.1433 52.2533 62.7296 52.1728 62.3389 52.1269C59.8221 51.874 58.8797 53.437 58.8797 53.437C58.8797 53.437 53.0761 44.1973 59.7875 37.5547C64.4878 32.9233 70.7856 33.2106 74.1299 33.8197C75.2676 34.0266 76.049 34.268 76.3363 34.3484C76.4168 34.3714 76.4513 34.3829 76.4513 34.3829C76.4513 34.3829 86.4956 32.004 88.162 33.4864C89.8283 34.9575 86.3346 41.9563 85.1279 41.8988H85.1165Z" fill="black"/>
<path d="M79.3014 65.3556C78.9107 65.3556 78.4854 65.2866 78.0488 65.1142C77.4742 64.8728 77.0604 64.4821 76.8535 63.9765C76.4973 63.0802 76.8996 62.1608 76.9455 62.0572C77.0145 61.9194 77.1294 61.8045 77.2787 61.7586C77.4281 61.7011 77.5891 61.7125 77.7269 61.7815L81.4734 63.6433C81.6458 63.7351 81.7722 63.9075 81.7838 64.1029C81.8067 64.2984 81.7148 64.4937 81.5539 64.6201C81.508 64.6545 80.5425 65.3671 79.2899 65.3671L79.3014 65.3556ZM77.8649 63.1261C77.8649 63.2639 77.8649 63.4134 77.9339 63.5512C78.0257 63.7697 78.1981 63.9306 78.4854 64.0455C78.9911 64.2523 79.4853 64.2294 79.8989 64.1374L77.8649 63.1261Z" fill="black"/>
<path d="M82.0021 122.586C80.2208 122.815 78.4049 122.942 76.5548 122.976L72.5669 80.4435L76.4858 81.4664L82.0021 122.586Z" fill="#A2C5F9"/>
<path d="M80.6805 74.9628C80.6805 74.9628 85.2428 87.6504 83.9098 87.4665C82.5767 87.2826 74.3713 80.7435 74.3713 80.7435C74.3713 80.7435 69.0043 88.133 67.131 88.2709C65.2578 88.4089 64.6488 75.0549 64.6488 75.0549C64.6488 75.0549 66.0623 78.8358 73.061 79.4679C80.0599 80.0999 80.6805 74.9628 80.6805 74.9628Z" fill="#E5F3F6"/>
<path d="M102.884 115.405C102.723 115.52 102.55 115.612 102.378 115.715C102.205 115.819 102.022 115.922 101.838 116.026L97.2524 94.5467C97.1949 94.2363 97.3902 93.9375 97.7005 93.8686C98.0107 93.7997 98.3096 93.9949 98.3785 94.3053L102.884 115.405Z" fill="#E5F3F6"/>
</g>
</g>
<defs>
<clipPath id="clip0_2119_2899">
<rect width="100" height="100" fill="white"/>
</clipPath>
</defs>
</svg>
