<svg width="98" height="98" viewBox="0 0 98 98" fill="none" xmlns="http://www.w3.org/2000/svg">
<g clip-path="url(#clip0_1311_894)">
<path d="M97.53 48.76C97.53 58.07 94.92 66.77 90.4 74.18C89.62 75.47 88.77 76.7 87.88 77.9C87.34 78.62 86.78 79.33 86.19 80.01C86.07 80.16 85.95 80.3 85.82 80.45C83.95 82.65 81.88 84.67 79.65 86.51C79.33 86.77 79 87.03 78.68 87.28C78.26 87.6 77.83 87.93 77.39 88.24C76.97 88.55 76.54 88.86 76.1 89.15C75.35 89.65 74.58 90.14 73.8 90.6C73.65 90.7 73.5 90.79 73.34 90.88L73.28 90.91C73.14 90.99 73 91.08 72.85 91.16C72.74 91.23 72.61 91.3 72.48 91.36C71.5 91.91 70.49 92.44 69.46 92.91C68.99 93.14 68.51 93.35 68.03 93.56C67.21 93.91 66.4 94.24 65.56 94.53C65.02 94.74 64.47 94.93 63.93 95.11C61.68 95.84 59.37 96.42 57 96.81C56.57 96.89 56.15 96.96 55.72 97.02C54.63 97.18 53.53 97.29 52.43 97.38C52.31 97.39 52.2 97.4 52.08 97.4C51.32 97.45 50.53 97.48 49.75 97.49C49.43 97.51 49.1 97.51 48.78 97.51C46.52 97.51 44.29 97.35 42.12 97.05C40.5 96.84 38.91 96.54 37.35 96.16C36.59 95.98 35.83 95.78 35.09 95.56C32.91 94.92 30.8 94.13 28.76 93.2C27.64 92.71 26.53 92.16 25.47 91.58C25.12 91.39 24.79 91.19 24.46 91C23.8 90.62 23.14 90.23 22.5 89.82C21.76 89.35 21.03 88.85 20.3 88.32C19.45 87.71 18.63 87.08 17.82 86.4C15.72 84.68 13.76 82.78 11.97 80.72C11.57 80.26 11.19 79.8 10.81 79.33C10.4 78.83 10 78.32 9.62 77.79C9.45 77.57 9.3 77.36 9.14 77.14C8.95 76.89 8.77 76.63 8.61 76.37C7.53 74.82 6.55 73.19 5.66 71.51C5.24 70.74 4.85 69.94 4.49 69.15C1.59 62.95 0 56.03 0 48.76C0 21.83 21.83 0 48.76 0C75.69 0 97.52 21.83 97.52 48.76H97.53Z" fill="#3E8F9C"/>
<path d="M86.18 80.0194C86.06 80.1694 85.94 80.3094 85.81 80.4594C83.94 82.6594 81.87 84.6794 79.64 86.5194C79.32 86.7794 78.99 87.0394 78.67 87.2894C78.25 87.6094 77.82 87.9394 77.38 88.2494C76.96 88.5594 76.53 88.8694 76.09 89.1594C75.34 89.6594 74.57 90.1494 73.79 90.6094C73.64 90.7094 73.49 90.7994 73.33 90.8894L73.27 90.9194C73.13 90.9994 72.99 91.0894 72.84 91.1694C72.73 91.2394 72.6 91.3094 72.47 91.3694L67.79 61.8594C67.79 61.8594 77.58 71.4594 86.17 80.0094L86.18 80.0194Z" fill="#F6F5F7"/>
<path d="M78.6701 87.2891C78.2501 87.6091 77.8201 87.9391 77.3801 88.2491C76.9601 88.5591 76.5301 88.8691 76.0901 89.1591C75.3401 89.6591 74.5701 90.1491 73.7901 90.6091C73.6401 90.7091 73.4901 90.7991 73.3301 90.8891L73.2701 90.9191C73.1301 90.9991 72.9901 91.0891 72.8401 91.1691C71.7401 91.7991 70.6101 92.3791 69.4501 92.9191C68.9801 93.1491 68.5001 93.3591 68.0201 93.5691C67.2001 93.9191 66.3901 94.2491 65.5501 94.5391L55.1101 56.5391C55.1101 56.5391 61.9101 57.9991 65.6201 60.2391C68.8201 62.1591 72.7001 65.5791 78.6601 87.2791L78.6701 87.2891Z" fill="#F6F5F7"/>
<path d="M69.4499 92.9195C68.9799 93.1495 68.4999 93.3595 68.0199 93.5695C64.5399 95.0795 60.8299 96.1695 56.9899 96.8195C56.5599 96.8995 56.1399 96.9695 55.7099 97.0295C54.6199 97.1895 53.5199 97.2995 52.4199 97.3895C52.2999 97.3995 52.1899 97.4095 52.0699 97.4095C51.3099 97.4595 50.5199 97.4895 49.7399 97.4995C49.4199 97.5195 49.0899 97.5195 48.7699 97.5195C44.8399 97.5195 40.9999 97.0495 37.3399 96.1695C36.5799 95.9895 35.8199 95.7895 35.0799 95.5695C32.8999 94.9295 30.7899 94.1395 28.7499 93.2095C27.2799 92.5595 25.8299 91.8195 24.4399 91.0095C25.1899 75.7295 26.0999 62.2595 27.0199 60.9495C29.2199 57.8095 37.5599 54.9695 45.5699 55.2295C53.5699 55.4795 63.5599 59.8295 63.5599 59.8295L69.4599 92.9095L69.4499 92.9195Z" fill="#D3CDFF"/>
<path d="M59.57 27.6398C59.57 27.6398 66.02 17.0698 60.81 14.7198C55.6 12.3698 49.27 18.1298 49.27 18.1298C49.27 18.1298 37.54 19.0198 33.01 25.2398C28.48 31.4598 39.29 42.5898 39.29 42.5898L59.57 27.6398Z" fill="black"/>
<path d="M41.34 45.0002L40.54 55.7902C40.54 55.7902 42.25 59.0402 48.53 60.0202C53.2 60.7502 54.93 59.8102 54.93 59.8102L54.68 54.3002L54.43 48.9202L43.22 45.5602L41.34 44.9902V45.0002Z" fill="#F48462"/>
<path d="M43.22 45.5608C43.22 45.8608 43.31 46.2108 43.46 46.6208C45.47 52.1908 51.98 53.8408 54.68 54.2908L54.43 48.9108L43.22 45.5508V45.5608Z" fill="black"/>
<path d="M58.6601 24.5109C58.6601 24.5109 63.3101 38.4609 60.5201 45.8009C57.7301 53.1509 50.9701 51.3409 46.9901 49.5109C43.0101 47.6809 41.3301 44.9909 41.3301 44.9909C41.3301 44.9909 37.3701 45.9509 35.1301 42.1409C32.8801 38.3409 34.8301 34.3809 37.1101 33.6409C39.3901 32.9009 41.8501 34.7209 41.8501 34.7209L40.1601 30.6409C40.1601 30.6409 50.5401 11.6009 58.6601 24.5009V24.5109Z" fill="#F48462"/>
<path d="M41.0501 40.4904C40.9601 40.4904 40.8701 40.4604 40.8001 40.4004L36.2001 36.5404C36.0301 36.4004 36.0101 36.1504 36.1501 35.9904C36.2901 35.8204 36.5401 35.8004 36.7001 35.9404L41.3001 39.8004C41.4701 39.9404 41.4901 40.1904 41.3501 40.3504C41.2701 40.4404 41.1601 40.4904 41.0501 40.4904Z" fill="black"/>
<path d="M36.63 40.0995C36.44 40.0995 36.28 39.9695 36.24 39.7795C36.2 39.5695 36.34 39.3595 36.56 39.3195L39.82 38.7295C40.04 38.6895 40.24 38.8295 40.28 39.0495C40.32 39.2595 40.18 39.4695 39.96 39.5095L36.7 40.0995C36.7 40.0995 36.65 40.0995 36.63 40.0995Z" fill="black"/>
<path d="M49.24 30.3205C49.09 30.3205 48.95 30.2405 48.89 30.1005C48.8 29.9105 48.88 29.6705 49.07 29.5805C50.98 28.6505 52.86 28.2805 52.94 28.2705C53.15 28.2305 53.36 28.3705 53.4 28.5805C53.44 28.7905 53.3 29.0005 53.09 29.0405C53.07 29.0405 51.23 29.4005 49.42 30.2905C49.36 30.3205 49.31 30.3305 49.25 30.3305L49.24 30.3205Z" fill="black"/>
<path d="M59.73 29.7603C59.62 29.7603 59.51 29.7103 59.43 29.6203C59.18 29.3303 58.15 28.9303 57.49 28.7403C57.28 28.6803 57.16 28.4603 57.22 28.2503C57.28 28.0403 57.49 27.9203 57.71 27.9803C58.01 28.0703 59.54 28.5303 60.03 29.1003C60.17 29.2603 60.15 29.5103 59.99 29.6503C59.92 29.7103 59.83 29.7403 59.74 29.7403L59.73 29.7603Z" fill="black"/>
<path d="M57.15 39.8899C57.15 39.8899 57.06 39.8899 57.01 39.8599C56.81 39.7799 56.71 39.5599 56.78 39.3499C58.18 35.6599 55.68 34.3499 55.58 34.2899C55.39 34.1899 55.31 33.9599 55.41 33.7599C55.51 33.5699 55.74 33.4899 55.93 33.5799C55.96 33.5999 59.18 35.2499 57.52 39.6199C57.46 39.7799 57.31 39.8699 57.15 39.8699V39.8899Z" fill="black"/>
<path d="M59.2999 34.9396C59.1199 34.9396 58.9499 34.8096 58.9199 34.6196L58.4299 32.0996C58.3899 31.8896 58.5299 31.6796 58.7399 31.6396C58.9499 31.5996 59.1599 31.7396 59.1999 31.9496L59.6899 34.4696C59.7299 34.6796 59.5899 34.8896 59.3799 34.9296C59.3599 34.9296 59.3299 34.9296 59.2999 34.9296V34.9396Z" fill="black"/>
<path d="M52.7101 34.9396C52.5301 34.9396 52.3601 34.8096 52.3301 34.6196L51.8401 32.0996C51.8001 31.8896 51.9401 31.6796 52.1501 31.6396C52.3601 31.5996 52.5701 31.7396 52.6101 31.9496L53.1001 34.4696C53.1401 34.6796 53.0001 34.8896 52.7901 34.9296C52.7701 34.9296 52.7401 34.9296 52.7101 34.9296V34.9396Z" fill="black"/>
<path d="M59.5701 27.6391C59.5701 27.6391 58.5601 25.3791 55.8701 25.1691C53.1801 24.9591 51.4701 26.7291 51.4701 26.7291C51.4701 26.7291 52.3101 31.3491 48.4701 33.4791C44.6301 35.6091 41.8501 34.7291 41.8501 34.7291L39.2701 33.5891L37.6101 29.5691L45.9001 21.8691L56.2301 17.3691L60.9501 22.3391L59.5601 27.6491L59.5701 27.6391Z" fill="black"/>
<path d="M53.09 44.1999C52.88 44.1999 52.66 44.1699 52.43 44.0999C51.49 43.8099 50.8 42.9099 50.37 41.4299C50.33 41.2799 50.37 41.1299 50.49 41.0299C50.6 40.9299 50.77 40.9099 50.9 40.9599L55.06 42.7399C55.19 42.7899 55.27 42.9099 55.29 43.0399C55.31 43.1799 55.26 43.3099 55.15 43.3999C55.1 43.4399 54.17 44.1999 53.07 44.1999H53.09ZM51.43 42.0299C51.75 42.7499 52.17 43.1899 52.67 43.3499C53.17 43.5099 53.7 43.3499 54.08 43.1599L51.43 42.0299Z" fill="black"/>
<path d="M42.0999 97.0691C40.4799 96.8591 38.89 96.5591 37.33 96.1791C36.57 95.9991 35.81 95.7991 35.07 95.5791C32.89 94.9391 30.78 94.1491 28.74 93.2191C27.62 92.7291 26.51 92.1791 25.45 91.5991L40.5299 55.7891C40.5299 55.7891 41.7199 77.7291 42.0999 97.0691Z" fill="#F6F5F7"/>
<path d="M73.2701 90.9308C73.1301 91.0108 72.9901 91.1008 72.8401 91.1808C71.7401 91.8108 70.6101 92.3908 69.4501 92.9308C68.9801 93.1608 68.5001 93.3708 68.0201 93.5808C66.6801 94.1608 65.3101 94.6808 63.9201 95.1308L55.1101 56.5508C62.5901 57.5908 67.8001 61.8708 67.8001 61.8708L73.2701 90.9308Z" fill="#F6F5F7"/>
<path d="M40.6201 55.2204L35.0801 95.5804C32.9001 94.9404 30.7901 94.1504 28.7501 93.2204C26.5701 92.2604 24.4801 91.1204 22.4801 89.8404C21.7401 89.3704 21.0101 88.8704 20.2801 88.3404C19.4301 87.7304 18.6101 87.1004 17.8001 86.4204C15.7001 84.7004 13.7401 82.8004 11.9501 80.7404C11.5501 80.2804 11.1701 79.8204 10.7901 79.3504C10.3801 78.8504 9.98009 78.3404 9.60009 77.8104C9.43009 77.5904 9.28009 77.3804 9.12009 77.1604C8.93009 76.9104 8.75009 76.6504 8.59009 76.3904C9.49009 75.1604 10.4501 73.9304 11.4901 72.7104C28.3401 52.7904 40.6201 55.2204 40.6201 55.2204Z" fill="#F6F5F7"/>
<path d="M37.3186 71.2046L26.3127 71.5043C25.2913 71.5321 24.4859 72.3827 24.5137 73.404L24.5802 75.8431C24.608 76.8644 25.4585 77.6699 26.4798 77.642L37.4858 77.3423C38.5071 77.3145 39.3125 76.464 39.2847 75.4426L39.2183 73.0035C39.1905 71.9822 38.34 71.1768 37.3186 71.2046Z" fill="#6876AA"/>
<path d="M50.57 61.0393C44.37 61.0393 40.28 56.0893 40.23 56.0293C40.09 55.8593 40.12 55.6193 40.29 55.4793C40.46 55.3393 40.7 55.3693 40.84 55.5393C40.9 55.6093 46.68 62.5793 54.78 59.4393C54.98 59.3593 55.21 59.4593 55.29 59.6593C55.37 59.8593 55.27 60.0893 55.07 60.1693C53.48 60.7893 51.97 61.0393 50.58 61.0393H50.57Z" fill="white"/>
</g>
<defs>
<clipPath id="clip0_1311_894">
<rect width="97.53" height="97.53" fill="white"/>
</clipPath>
</defs>
</svg>
