<svg width="98" height="98" viewBox="0 0 98 98" fill="none" xmlns="http://www.w3.org/2000/svg">
<g clip-path="url(#clip0_1311_919)">
<path d="M-0.000938416 48.76C-0.000938416 55.31 1.28906 61.56 3.62906 67.26C4.72906 69.92 6.05907 72.47 7.58907 74.88C8.44907 76.24 9.38906 77.56 10.3791 78.82C12.8591 81.99 15.7191 84.84 18.8991 87.3C20.1791 88.3 21.5191 89.23 22.8991 90.09C26.8091 92.56 31.0991 94.47 35.6491 95.74C39.4591 96.81 43.4491 97.42 47.5691 97.51C47.9691 97.53 48.3591 97.53 48.7591 97.53C50.4891 97.53 52.1891 97.44 53.8791 97.26C54.9791 97.15 56.0591 96.99 57.1391 96.8C57.5091 96.74 57.8791 96.67 58.2491 96.6C59.0591 96.43 59.8691 96.25 60.6691 96.05C60.8891 96 61.1191 95.95 61.3391 95.88C63.1991 95.39 65.0291 94.79 66.7991 94.07C67.1691 93.92 67.5391 93.77 67.8991 93.62C70.1891 92.65 72.3891 91.49 74.4891 90.19C74.8791 89.95 75.2691 89.7 75.6491 89.45C76.4991 88.89 77.3491 88.29 78.1691 87.67C79.7991 86.44 81.3491 85.11 82.8091 83.68C84.4491 82.09 85.9691 80.38 87.3591 78.57C88.9391 76.54 90.3591 74.37 91.5991 72.1C95.3791 65.16 97.5391 57.21 97.5391 48.76C97.5391 21.83 75.6991 0 48.7591 0C21.8191 0 -0.000938416 21.83 -0.000938416 48.76Z" fill="#3E8F9C"/>
<path d="M35.279 24.9495C35.279 24.9495 24.229 26.3395 20.209 36.9395C16.189 47.5495 18.569 61.2695 18.569 61.2695L38.959 56.5795L38.069 37.7395L35.269 24.9395L35.279 24.9495Z" fill="black"/>
<path d="M44.7092 44.9905C44.7092 44.9905 38.4092 45.2705 34.7892 36.4805C31.1592 27.6905 35.6992 20.8105 35.6992 20.8105L43.6092 24.9505L47.9092 40.6505L44.7192 44.9805L44.7092 44.9905Z" fill="black"/>
<path d="M22.899 90.0906C26.809 92.5606 31.099 94.4706 35.649 95.7406C39.459 96.8106 43.449 97.4206 47.569 97.5106C47.969 97.5306 48.359 97.5306 48.759 97.5306C50.489 97.5306 52.189 97.4406 53.879 97.2606C54.979 97.1506 56.059 96.9906 57.139 96.8006C57.509 96.7406 57.879 96.6706 58.249 96.6006C59.059 96.4306 59.869 96.2506 60.669 96.0506C60.889 96.0006 61.119 95.9506 61.339 95.8806C63.199 95.3906 65.029 94.7906 66.799 94.0706C69.479 93.0106 72.059 91.7006 74.489 90.1906C73.599 75.7906 72.199 59.6106 70.299 56.2806C66.719 50.0406 47.759 48.8606 47.759 48.8606C47.759 48.8606 33.919 48.4006 26.779 54.8706C23.099 58.2006 22.559 74.7906 22.899 90.0906Z" fill="#D3CDFF"/>
<path d="M44.9291 41.1895L44.0491 51.5395C44.0491 51.5395 45.6591 54.6695 51.6791 55.6795C56.1591 56.4295 57.8291 55.5395 57.8291 55.5395L57.6491 50.2495L57.4591 45.0895L46.7291 41.7595L44.9291 41.1995V41.1895Z" fill="#DD857A"/>
<path d="M46.7292 41.75C46.7292 42.03 46.8092 42.38 46.9492 42.77C48.8292 48.14 55.0592 49.79 57.6492 50.24L57.4592 45.08L46.7292 41.75Z" fill="black"/>
<path d="M61.7591 21.6905C61.7591 21.6905 66.0891 35.1305 63.3391 42.1505C60.5891 49.1805 54.1091 47.3805 50.3091 45.5805C46.5091 43.7905 44.9191 41.1905 44.9191 41.1905C44.9191 41.1905 41.1091 42.0705 38.9891 38.4005C36.8691 34.7305 38.7791 30.9505 40.9691 30.2605C43.1591 29.5705 45.5091 31.3405 45.5091 31.3405L43.9291 27.4005C43.9291 27.4005 54.0791 9.22049 61.7491 21.6905H61.7591Z" fill="#DD857A"/>
<path d="M44.7092 36.8696C44.8192 36.8696 44.9292 36.8196 45.0092 36.7296C45.1492 36.5696 45.1292 36.3196 44.9692 36.1796L40.5892 32.4296C40.4292 32.2896 40.1792 32.3096 40.0392 32.4696C39.8992 32.6296 39.9192 32.8796 40.0792 33.0196L44.4592 36.7696C44.5292 36.8296 44.6192 36.8596 44.7092 36.8596V36.8696Z" fill="black"/>
<path d="M40.4591 36.4491C40.4591 36.4491 40.4991 36.4491 40.5291 36.4491L43.6691 35.9191C43.8791 35.8791 44.0291 35.6791 43.9891 35.4691C43.9491 35.2591 43.7491 35.1091 43.5391 35.1491L40.3991 35.6791C40.1891 35.7191 40.0391 35.9191 40.0791 36.1291C40.1091 36.3191 40.2791 36.4591 40.4691 36.4591L40.4591 36.4491Z" fill="black"/>
<path d="M52.6692 26.3893C52.7792 26.3893 52.8792 26.3493 52.9592 26.2593C54.4392 24.6493 56.0192 25.6393 56.0792 25.6793C56.2592 25.7993 56.4992 25.7493 56.6192 25.5593C56.7392 25.3793 56.6892 25.1393 56.5092 25.0193C55.7592 24.5293 53.9292 24.0393 52.3792 25.7293C52.2292 25.8893 52.2392 26.1393 52.3992 26.2793C52.4792 26.3493 52.5692 26.3793 52.6592 26.3793L52.6692 26.3893Z" fill="black"/>
<path d="M62.7491 26.759C62.8491 26.759 62.9491 26.719 63.0291 26.639C63.1791 26.489 63.1791 26.239 63.0291 26.089C61.6491 24.739 60.6091 25.069 60.4891 25.109C60.2891 25.189 60.1791 25.409 60.2591 25.609C60.3291 25.809 60.5491 25.909 60.7591 25.839C60.7991 25.829 61.4691 25.649 62.4791 26.639C62.5591 26.709 62.6591 26.749 62.7491 26.749V26.759Z" fill="black"/>
<path d="M18.8991 87.3002C23.8191 91.1302 29.4891 94.0202 35.6491 95.7402C39.4591 96.8102 43.4491 97.4202 47.5691 97.5102C45.7991 70.7002 44.2991 48.6602 44.2991 48.6602C31.1591 50.5502 24.4191 54.0302 24.4191 54.0302L18.8991 87.3002Z" fill="#F6F5F7"/>
<path d="M42.1591 77.7793H29.9191C28.8691 77.7793 28.0291 78.6293 28.0291 79.6693V81.7793C28.0291 82.8293 28.8791 83.6693 29.9191 83.6693H42.1591C43.2091 83.6693 44.0491 82.8193 44.0491 81.7793V79.6693C44.0491 78.6193 43.1991 77.7793 42.1591 77.7793Z" fill="#92B4EA"/>
<path d="M60.379 37.3407C60.559 37.3407 60.719 37.2207 60.759 37.0407C61.799 32.6307 59.229 30.5107 59.129 30.4207C58.959 30.2807 58.709 30.3107 58.579 30.4807C58.439 30.6507 58.469 30.8907 58.639 31.0307C58.729 31.1107 60.929 32.9607 59.999 36.8607C59.949 37.0707 60.079 37.2807 60.289 37.3307C60.319 37.3307 60.349 37.3407 60.379 37.3407Z" fill="black"/>
<path d="M62.2792 31.7202C62.2792 31.7202 62.3292 31.7202 62.3492 31.7202C62.5592 31.6802 62.6992 31.4802 62.6592 31.2602L62.2492 29.0102L62.9292 28.1602C63.0592 27.9902 63.0392 27.7402 62.8692 27.6102C62.6992 27.4702 62.4592 27.5002 62.3192 27.6702L61.5292 28.6602C61.4592 28.7502 61.4292 28.8602 61.4492 28.9802L61.8992 31.4102C61.9392 31.6002 62.0992 31.7302 62.2892 31.7302L62.2792 31.7202Z" fill="black"/>
<path d="M56.1791 40.5708C56.8491 40.5708 57.3791 40.3408 57.4191 40.3208C57.5491 40.2608 57.6391 40.1408 57.6491 40.0008C57.6591 39.8608 57.5991 39.7208 57.4791 39.6408L54.2291 37.4308C54.0991 37.3408 53.9291 37.3408 53.7991 37.4308C53.6691 37.5108 53.5991 37.6608 53.6191 37.8208C53.7891 39.0408 54.2491 39.8708 54.9991 40.2908C55.3891 40.5108 55.8091 40.5808 56.1791 40.5808V40.5708ZM56.2891 39.7808C56.0091 39.7908 55.6791 39.7608 55.3791 39.5908C55.0591 39.4108 54.8091 39.0908 54.6291 38.6508L56.2891 39.7808Z" fill="black"/>
<path d="M55.719 31.3009C55.719 31.3009 55.769 31.3009 55.789 31.3009C55.999 31.2609 56.139 31.0609 56.099 30.8409L55.689 28.6009L56.579 27.6409C56.729 27.4809 56.719 27.2309 56.559 27.0909C56.399 26.9409 56.149 26.9509 56.009 27.1109L54.989 28.2109C54.909 28.3009 54.869 28.4309 54.889 28.5509L55.339 30.9809C55.379 31.1709 55.539 31.3009 55.729 31.3009H55.719Z" fill="black"/>
<path d="M45.529 31.3408L46.7289 32.7308L46.129 30.7208C46.129 30.7208 48.959 30.7008 52.669 28.3608C56.379 26.0208 57.259 20.3308 57.259 20.3308C57.259 20.3308 58.869 21.0808 60.619 22.4508C62.369 23.8208 62.7489 25.2808 62.7489 25.2808C62.7489 25.2808 67.399 12.4008 57.649 10.7308C47.899 9.06076 40.9789 17.3208 40.9789 17.3208C40.9789 17.3208 35.3989 18.0908 34.8389 23.5608C34.2789 29.0308 38.099 33.2708 38.099 33.2708C38.099 33.2708 40.589 28.7308 45.529 31.3408Z" fill="black"/>
<path d="M57.6291 49.8105C57.6291 49.8105 63.4591 74.6005 67.8991 93.6205C70.1891 92.6505 72.3891 91.4905 74.4891 90.1905C74.8791 89.9505 75.2691 89.7005 75.6491 89.4505C76.4991 88.8905 77.3491 88.2905 78.1691 87.6705C79.7991 86.4405 81.3491 85.1105 82.8091 83.6805C84.4491 82.0905 85.9691 80.3805 87.3591 78.5705C84.0091 67.9305 78.1891 55.6105 68.7091 52.2405C61.0191 49.5105 57.6291 49.8105 57.6291 49.8105Z" fill="#F6F5F7"/>
<path d="M57.8292 55.5406L58.4092 60.1906C58.4092 60.1906 45.5592 54.8106 44.6992 52.3906C43.8392 49.9706 57.2492 53.7406 57.2492 53.7406L57.8192 55.5306L57.8292 55.5406Z" fill="#DD857A"/>
<path d="M58.409 60.5891C58.489 60.5891 58.569 60.5691 58.639 60.5191C58.749 60.4391 58.809 60.3091 58.799 60.1791L58.299 51.8091C58.289 51.5891 58.109 51.4191 57.889 51.4391C57.669 51.4491 57.509 51.6391 57.519 51.8491L57.979 59.5891C55.609 58.5791 46.709 54.6791 45.029 52.1791C44.909 51.9991 44.659 51.9491 44.489 52.0791C44.309 52.1991 44.259 52.4391 44.379 52.6191C46.449 55.6791 57.779 60.3591 58.259 60.5591C58.309 60.5791 58.359 60.5891 58.409 60.5891Z" fill="white"/>
<path d="M7.58895 74.8793C8.44895 76.2393 9.38894 77.5593 10.3789 78.8193C12.8589 81.9893 15.7189 84.8393 18.8989 87.2993C23.8189 91.1293 23.6089 88.9693 23.6089 88.9693L24.4189 54.0293C24.4189 54.0293 14.739 60.2693 7.58895 74.8793Z" fill="#F6F5F7"/>
<path d="M40.3391 61.8695C40.3391 61.8695 40.4191 61.8695 40.4591 61.8595C40.7291 61.7995 40.8891 61.5295 40.8291 61.2595C39.7791 56.7995 39.9491 53.2895 41.3291 51.0995C42.3991 49.4095 43.8091 49.0895 43.8691 49.0795C44.1391 49.0195 44.3091 48.7595 44.2591 48.4895C44.1991 48.2195 43.9391 48.0395 43.6691 48.0995C43.5891 48.1195 41.8191 48.4895 40.5091 50.5295C38.9391 52.9795 38.7191 56.6695 39.8591 61.4895C39.9091 61.7195 40.1191 61.8695 40.3491 61.8695H40.3391Z" fill="#40507F"/>
<path d="M64.7689 73.3899C65.0389 73.3899 65.2689 73.1699 65.2689 72.8899C65.2689 72.1099 65.3789 53.6999 58.4689 48.6699C58.2489 48.5099 57.9289 48.5599 57.7689 48.7799C57.6089 48.9999 57.6589 49.3199 57.8789 49.4799C64.3789 54.2099 64.2689 72.6999 64.2689 72.8899C64.2689 73.1699 64.4889 73.3899 64.7689 73.3899Z" fill="#40507F"/>
<path d="M41.3091 78.4199C41.3791 78.4199 41.4491 78.4099 41.5091 78.3799C41.7591 78.2699 41.8791 77.9699 41.7691 77.7199C41.7191 77.6099 36.8591 66.3599 40.4491 62.4799C40.8991 61.9899 41.4291 61.7799 42.0791 61.8399C45.3491 62.1299 50.4391 68.9899 52.1291 71.6199C52.2791 71.8499 52.5891 71.9199 52.8191 71.7699C53.0491 71.6199 53.1191 71.3099 52.9691 71.0799C52.7091 70.6799 46.5991 61.2399 42.1691 60.8499C41.2091 60.7699 40.3891 61.0899 39.7191 61.8099C35.6791 66.1799 40.6391 77.6499 40.8491 78.1299C40.9291 78.3199 41.1191 78.4299 41.3091 78.4299V78.4199Z" fill="#40507F"/>
<path d="M64.769 76.8691C63.1122 76.8691 61.769 75.526 61.769 73.8691C61.769 72.2123 63.1122 70.8691 64.769 70.8691C66.4259 70.8691 67.769 72.2123 67.769 73.8691C67.769 75.526 66.4259 76.8691 64.769 76.8691Z" fill="#40507F"/>
<path d="M64.769 75.0392C64.1228 75.0392 63.599 74.5154 63.599 73.8692C63.599 73.2231 64.1228 72.6992 64.769 72.6992C65.4151 72.6992 65.939 73.2231 65.939 73.8692C65.939 74.5154 65.4151 75.0392 64.769 75.0392Z" fill="#FFBF69"/>
<path d="M50.299 72.3496H54.179C54.459 72.3496 54.679 72.1296 54.679 71.8496C54.679 71.5696 54.459 71.3496 54.179 71.3496H50.299C50.019 71.3496 49.799 71.5696 49.799 71.8496C49.799 72.1296 50.019 72.3496 50.299 72.3496Z" fill="#40507F"/>
<path d="M40.739 80.0696C40.909 80.0696 41.069 79.9896 41.169 79.8296L43.199 76.5296C43.339 76.2896 43.269 75.9895 43.039 75.8395C42.799 75.6995 42.499 75.7696 42.349 75.9996L40.319 79.2996C40.179 79.5396 40.249 79.8396 40.479 79.9896C40.559 80.0396 40.649 80.0596 40.739 80.0596V80.0696Z" fill="#40507F"/>
</g>
<defs>
<clipPath id="clip0_1311_919">
<rect width="97.54" height="97.53" fill="white" transform="matrix(-1 0 0 1 97.5391 0)"/>
</clipPath>
</defs>
</svg>
