<svg width="100" height="100" viewBox="0 0 100 100" fill="none" xmlns="http://www.w3.org/2000/svg">
<g clip-path="url(#clip0_2119_2839)">
<path d="M50 100C77.6142 100 100 77.6142 100 50C100 22.3858 77.6142 0 50 0C22.3858 0 0 22.3858 0 50C0 77.6142 22.3858 100 50 100Z" fill="#E5F3F6"/>
<mask id="mask0_2119_2839" style="mask-type:luminance" maskUnits="userSpaceOnUse" x="0" y="0" width="100" height="100">
<path d="M50 100C77.6142 100 100 77.6142 100 50C100 22.3858 77.6142 0 50 0C22.3858 0 0 22.3858 0 50C0 77.6142 22.3858 100 50 100Z" fill="white"/>
</mask>
<g mask="url(#mask0_2119_2839)">
<path d="M-18.5005 47.505C-18.5005 56.3826 -16.0117 64.6786 -11.7016 71.7444C-10.9578 72.9745 -10.1473 74.1474 -9.29865 75.2917C-8.78373 75.9782 -8.24974 76.6553 -7.68714 77.3037C-7.57271 77.4467 -7.45828 77.5802 -7.33432 77.7232C-5.55117 79.8211 -3.5773 81.7473 -1.45087 83.5018C-1.14573 83.7497 -0.831052 83.9977 -0.525913 84.236C-0.125419 84.5412 0.284612 84.8559 0.704178 85.1515C1.10467 85.4471 1.5147 85.7427 1.93427 86.0192C2.64944 86.496 3.38367 86.9632 4.12745 87.4019C4.27048 87.4972 4.41352 87.583 4.56609 87.6688L4.6233 87.6975C4.7568 87.7737 4.8903 87.8596 5.03333 87.9359C5.13823 88.0026 5.26218 88.0693 5.38615 88.1266C6.32063 88.651 7.28373 89.1564 8.2659 89.6046C8.71407 89.8239 9.17178 90.0241 9.62949 90.2244C10.4114 90.5581 11.1838 90.8728 11.9848 91.1493C12.4997 91.3496 13.0242 91.5308 13.5391 91.7024C15.6846 92.3985 17.8873 92.9516 20.1472 93.3235C20.5573 93.3997 20.9578 93.4665 21.3678 93.5237C22.4072 93.6763 23.4561 93.7812 24.505 93.867C24.6194 93.8765 24.7243 93.8861 24.8387 93.8861C25.5634 93.9337 26.3168 93.9623 27.0605 93.9719C27.3657 93.9909 27.6803 93.9909 27.9855 93.9909C30.1405 93.9909 32.267 93.8384 34.3362 93.5523C35.8809 93.3521 37.3971 93.066 38.8847 92.7036C39.6094 92.532 40.3341 92.3413 41.0397 92.1315C43.1185 91.5212 45.1305 90.7679 47.0757 89.8811C48.1437 89.4139 49.2022 88.8894 50.2129 88.3363C50.5467 88.1552 50.8613 87.9645 51.176 87.7833C51.8054 87.4209 52.4347 87.049 53.045 86.6581C53.7506 86.2099 54.4467 85.7331 55.1428 85.2277C55.9534 84.6461 56.7353 84.0453 57.5077 83.3969C59.5101 81.7568 61.3791 79.945 63.086 77.9807C63.4674 77.5421 63.8297 77.1034 64.1921 76.6553C64.5831 76.1785 64.9645 75.6922 65.3268 75.1868C65.4889 74.977 65.632 74.7767 65.7845 74.567C65.9657 74.3286 66.1374 74.0806 66.2899 73.8327C67.3198 72.3547 68.2543 70.8004 69.1029 69.1984C69.5034 68.4642 69.8753 67.7013 70.2186 66.948C72.9839 61.036 74.5001 54.4373 74.5001 47.505C74.5001 21.8256 53.6839 1.00946 28.0046 1.00946C2.32523 1.00946 -18.4909 21.8256 -18.4909 47.505H-18.5005Z" fill="#E5F3F6"/>
<path d="M-7.67763 77.3126C-7.5632 77.4557 -7.44877 77.5892 -7.32481 77.7322C-5.54166 79.83 -3.56779 81.7562 -1.44136 83.5108C-1.13622 83.7587 -0.821544 84.0066 -0.516406 84.245C-0.115911 84.5501 0.29412 84.8648 0.713685 85.1604C1.11418 85.456 1.52421 85.7516 1.94378 86.0281C2.65895 86.5049 3.39318 86.9722 4.13696 87.4108C4.27999 87.5062 4.42302 87.592 4.57559 87.6778L4.63281 87.7064C4.76631 87.7827 4.89981 87.8685 5.04284 87.9448C5.14773 88.0116 5.27169 88.0783 5.39565 88.1355L9.85831 59.996C9.85831 59.996 0.522973 69.1502 -7.66809 77.3031L-7.67763 77.3126Z" fill="#3E8F9C"/>
<path d="M-0.516491 84.2447C-0.115997 84.5498 0.294034 84.8645 0.7136 85.1601C1.11409 85.4557 1.52412 85.7513 1.94368 86.0279C2.65885 86.5046 3.3931 86.9719 4.13687 87.4105C4.2799 87.5059 4.42294 87.5917 4.57551 87.6775L4.63272 87.7061C4.76622 87.7824 4.89971 87.8682 5.04275 87.9445C6.09166 88.5453 7.16918 89.0983 8.27531 89.6132C8.72348 89.8326 9.18119 90.0328 9.6389 90.2331C10.4208 90.5668 11.1932 90.8815 11.9942 91.158L21.9493 54.9228C21.9493 54.9228 15.4651 56.315 11.9274 58.451C8.87605 60.2818 5.17625 63.543 -0.506961 84.2352L-0.516491 84.2447Z" fill="#3E8F9C"/>
<path d="M8.27553 89.6136C8.7237 89.833 9.18141 90.0332 9.63912 90.2334C12.9575 91.6733 16.4952 92.7127 20.1569 93.3325C20.5669 93.4088 20.9674 93.4755 21.3774 93.5328C22.4168 93.6853 23.4657 93.7902 24.5146 93.876C24.6291 93.8856 24.7339 93.8951 24.8484 93.8951C25.5731 93.9428 26.3264 93.9714 27.0702 93.9809C27.3753 94 27.69 94 27.9951 94C31.7426 94 35.4043 93.5518 38.8943 92.7127C39.619 92.5411 40.3437 92.3503 41.0493 92.1406C43.1281 91.5303 45.1401 90.777 47.0854 89.8902C48.4871 89.2704 49.8697 88.5647 51.1952 87.7923C50.48 73.222 49.6123 60.3775 48.735 59.1284C46.6372 56.1342 38.6845 53.4261 31.0465 53.674C23.418 53.9124 13.892 58.0604 13.892 58.0604L8.26599 89.6041L8.27553 89.6136Z" fill="#7E6CFB"/>
<path d="M17.6966 27.3656C17.6966 27.3656 11.5462 17.2865 16.5142 15.0456C21.4822 12.8048 27.5183 18.2973 27.5183 18.2973C27.5183 18.2973 38.7035 19.1459 43.0231 25.0771C47.3427 31.0082 37.0348 41.6213 37.0348 41.6213L17.6966 27.3656Z" fill="black"/>
<path d="M35.08 43.9198L35.8428 54.2087C35.8428 54.2087 34.2123 57.3077 28.2239 58.2422C23.7708 58.9383 22.1211 58.042 22.1211 58.042L22.3595 52.7879L22.5979 47.6577L33.2873 44.4538L35.08 43.9102V43.9198Z" fill="#F48462"/>
<path d="M33.2873 44.4544C33.2873 44.7404 33.2014 45.0742 33.0584 45.4651C31.1418 50.7765 24.9341 52.3498 22.3595 52.7789L22.5979 47.6488L33.2873 44.4448V44.4544Z" fill="black"/>
<path d="M18.5642 24.382C18.5642 24.382 14.1302 37.6842 16.7906 44.6833C19.451 51.692 25.8971 49.966 29.6922 48.221C33.4874 46.476 35.0894 43.9109 35.0894 43.9109C35.0894 43.9109 38.8655 44.8263 41.0014 41.1933C43.1469 37.5698 41.2875 33.7937 39.1134 33.088C36.9393 32.3824 34.5935 34.1179 34.5935 34.1179L36.205 30.2274C36.205 30.2274 26.3071 12.0716 18.5642 24.3725V24.382Z" fill="#F48462"/>
<path d="M35.3564 39.6194C35.4422 39.6194 35.528 39.5908 35.5948 39.5336L39.9811 35.8529C40.1433 35.7194 40.1623 35.481 40.0288 35.3284C39.8953 35.1663 39.6569 35.1472 39.5044 35.2807L35.118 38.9615C34.9559 39.095 34.9368 39.3334 35.0703 39.4859C35.1466 39.5718 35.2515 39.6194 35.3564 39.6194Z" fill="black"/>
<path d="M39.5712 39.2467C39.7524 39.2467 39.905 39.1227 39.9431 38.9415C39.9813 38.7413 39.8478 38.541 39.638 38.5029L36.5294 37.9403C36.3196 37.9022 36.1289 38.0357 36.0907 38.2454C36.0526 38.4457 36.1861 38.6459 36.3959 38.6841L39.5045 39.2467C39.5045 39.2467 39.5522 39.2467 39.5712 39.2467Z" fill="black"/>
<path d="M27.5468 29.9218C27.6899 29.9218 27.8234 29.8455 27.8806 29.712C27.9664 29.5309 27.8901 29.302 27.7089 29.2162C25.8876 28.3294 24.095 27.9766 24.0187 27.967C23.8184 27.9289 23.6182 28.0624 23.58 28.2626C23.5419 28.4629 23.6754 28.6631 23.8756 28.7013C23.8947 28.7013 25.6493 29.0445 27.3752 29.8932C27.4324 29.9218 27.4801 29.9313 27.5373 29.9313L27.5468 29.9218Z" fill="black"/>
<path d="M17.544 29.3876C17.6489 29.3876 17.7538 29.34 17.8301 29.2541C18.0685 28.9776 19.0506 28.5962 19.68 28.415C19.8802 28.3578 19.9947 28.148 19.9375 27.9478C19.8802 27.7475 19.68 27.6331 19.4702 27.6903C19.1841 27.7761 17.7252 28.2148 17.258 28.7583C17.1245 28.9109 17.1435 29.1493 17.2961 29.2828C17.3628 29.34 17.4487 29.3686 17.5345 29.3686L17.544 29.3876Z" fill="black"/>
<path d="M20.0042 39.0468C20.0042 39.0468 20.09 39.0468 20.1377 39.0182C20.3284 38.9419 20.4238 38.7321 20.357 38.5319C19.022 35.0133 21.4059 33.7641 21.5013 33.7069C21.6825 33.6115 21.7587 33.3922 21.6634 33.2015C21.568 33.0203 21.3487 32.944 21.1675 33.0299C21.1389 33.0489 18.0685 34.6223 19.6514 38.7894C19.7086 38.9419 19.8516 39.0277 20.0042 39.0277V39.0468Z" fill="black"/>
<path d="M17.9541 34.3264C18.1258 34.3264 18.2879 34.2025 18.3165 34.0213L18.7837 31.6183C18.8219 31.4181 18.6884 31.2178 18.4881 31.1797C18.2879 31.1415 18.0876 31.275 18.0495 31.4753L17.5823 33.8783C17.5441 34.0785 17.6776 34.2787 17.8779 34.3169C17.8969 34.3169 17.9255 34.3169 17.9541 34.3169V34.3264Z" fill="black"/>
<path d="M24.2379 34.3264C24.4095 34.3264 24.5716 34.2025 24.6003 34.0213L25.0675 31.6183C25.1056 31.4181 24.9721 31.2178 24.7719 31.1797C24.5716 31.1415 24.3714 31.275 24.3333 31.4753L23.866 33.8783C23.8279 34.0785 23.9614 34.2787 24.1616 34.3169C24.1807 34.3169 24.2093 34.3169 24.2379 34.3169V34.3264Z" fill="black"/>
<path d="M17.6965 27.3649C17.6965 27.3649 18.6596 25.2099 21.2247 25.0097C23.7897 24.8094 25.4203 26.4972 25.4203 26.4972C25.4203 26.4972 24.6193 30.9026 28.281 32.9337C31.9426 34.9648 34.5935 34.1257 34.5935 34.1257L37.0537 33.0386L38.6366 29.2053L30.7316 21.8629L20.8814 17.5719L16.3806 22.3111L17.706 27.3745L17.6965 27.3649Z" fill="black"/>
<path d="M23.8757 43.1566C24.0759 43.1566 24.2857 43.128 24.505 43.0613C25.4014 42.7848 26.0593 41.9266 26.4693 40.5153C26.5075 40.3723 26.4693 40.2292 26.3549 40.1339C26.25 40.0385 26.0879 40.0194 25.964 40.0671L21.9971 41.7644C21.8732 41.8121 21.7969 41.9266 21.7778 42.0505C21.7588 42.184 21.8064 42.308 21.9113 42.3938C21.959 42.4319 22.8458 43.1566 23.8947 43.1566H23.8757ZM25.4586 41.0874C25.1534 41.774 24.7529 42.1936 24.2762 42.3461C23.7994 42.4987 23.294 42.3461 22.9316 42.1649L25.4586 41.0874Z" fill="black"/>
<path d="M34.3553 93.5705C35.9001 93.3703 37.4162 93.0842 38.9037 92.7218C39.6284 92.5502 40.3531 92.3595 41.0588 92.1497C43.1375 91.5394 45.1495 90.7861 47.0948 89.8993C48.1628 89.4321 49.2212 88.9076 50.232 88.3545L35.8524 54.2076C35.8524 54.2076 34.7177 75.1287 34.3553 93.5705Z" fill="#3E8F9C"/>
<path d="M4.63272 87.7173C4.76622 87.7936 4.89972 87.8794 5.04275 87.9557C6.09166 88.5564 7.16918 89.1095 8.27531 89.6244C8.72348 89.8437 9.18119 90.044 9.6389 90.2442C10.9167 90.7973 12.223 91.2931 13.5485 91.7222L21.9493 54.934C14.8167 55.9257 9.84868 60.0069 9.84868 60.0069L4.63272 87.7173Z" fill="#3E8F9C"/>
<path d="M35.7664 53.6653L41.0491 92.1509C43.1279 91.5407 45.1399 90.7874 47.0852 89.9006C49.1639 88.9851 51.1568 87.8981 53.064 86.6775C53.7696 86.2294 54.4657 85.7526 55.1618 85.2472C55.9723 84.6655 56.7542 84.0648 57.5266 83.4164C59.5291 81.7762 61.3981 79.9645 63.1049 78.0001C63.4864 77.5615 63.8487 77.1229 64.2111 76.6747C64.602 76.1979 64.9835 75.7116 65.3458 75.2062C65.5079 74.9964 65.6509 74.7962 65.8035 74.5864C65.9847 74.348 66.1563 74.1001 66.3089 73.8522C65.4507 72.6793 64.5353 71.5064 63.5436 70.3431C47.4761 51.3482 35.7664 53.6653 35.7664 53.6653Z" fill="#3E8F9C"/>
<path d="M38.9146 68.9072L49.4094 69.193C50.3833 69.2195 51.1513 70.0306 51.1248 71.0044L51.0614 73.3303C51.0349 74.3041 50.2239 75.0722 49.25 75.0456L38.7552 74.7598C37.7813 74.7333 37.0133 73.9223 37.0398 72.9484L37.1031 70.6226C37.1296 69.6487 37.9406 68.8807 38.9146 68.9072Z" fill="#6876AA"/>
<path d="M26.2786 59.214C32.1907 59.214 36.0907 54.4939 36.1384 54.4367C36.2719 54.2746 36.2433 54.0457 36.0812 53.9122C35.9191 53.7787 35.6903 53.8073 35.5568 53.9694C35.4995 54.0362 29.988 60.6825 22.2641 57.6883C22.0734 57.612 21.8541 57.7074 21.7778 57.8981C21.7015 58.0888 21.7969 58.3081 21.9876 58.3844C23.5038 58.9756 24.9436 59.214 26.2691 59.214H26.2786Z" fill="white"/>
<path d="M53.0918 47.6081C53.0918 47.6081 42.6796 48.9179 38.8917 58.9061C35.1037 68.9037 37.3463 81.8318 37.3463 81.8318L56.5594 77.4125L55.7208 59.6599L53.0824 47.5987L53.0918 47.6081Z" fill="black"/>
<path d="M61.9778 66.4924C61.9778 66.4924 56.0414 66.7562 52.6303 58.4736C49.2098 50.1909 53.4878 43.708 53.4878 43.708L60.9412 47.6091L64.9931 62.4029L61.9872 66.483L61.9778 66.4924Z" fill="black"/>
<path d="M41.4264 108.989C45.1107 111.317 49.1531 113.117 53.4405 114.313C57.0306 115.322 60.7903 115.896 64.6725 115.981C65.0494 116 65.4169 116 65.7938 116C67.424 116 69.0259 115.915 70.6183 115.746C71.6548 115.642 72.6725 115.491 73.6902 115.312C74.0388 115.256 74.3874 115.19 74.7361 115.124C75.4993 114.964 76.2626 114.794 77.0164 114.605C77.2237 114.558 77.4404 114.511 77.6477 114.445C79.4004 113.984 81.1248 113.418 82.7926 112.74C85.3179 111.741 87.749 110.507 90.0387 109.084C89.2001 95.5148 87.8809 80.2687 86.0906 77.1309C82.7172 71.251 64.8515 70.1391 64.8515 70.1391C64.8515 70.1391 51.8104 69.7057 45.0825 75.8023C41.6149 78.9401 41.106 94.5725 41.4264 108.989Z" fill="#7E6CFB"/>
<path d="M62.185 62.9108L61.3557 72.6634C61.3557 72.6634 62.8728 75.6128 68.5454 76.5645C72.7668 77.2712 74.3404 76.4325 74.3404 76.4325L74.1708 71.4479L73.9917 66.5857L63.8811 63.4479L62.185 62.9202V62.9108Z" fill="#DD857A"/>
<path d="M63.8812 63.4389C63.8812 63.7028 63.9565 64.0326 64.0885 64.4001C65.86 69.4601 71.7304 71.0149 74.1709 71.4389L73.9919 66.5767L63.8812 63.4389Z" fill="black"/>
<path d="M78.0436 44.5372C78.0436 44.5372 82.1236 57.2015 79.5324 63.8163C76.9411 70.4406 70.8351 68.7445 67.2544 67.0484C63.6737 65.3617 62.1755 62.9117 62.1755 62.9117C62.1755 62.9117 58.5854 63.7409 56.5878 60.2828C54.5901 56.8246 56.3899 53.2628 58.4535 52.6126C60.5171 51.9624 62.7315 53.6302 62.7315 53.6302L61.2427 49.9177C61.2427 49.9177 70.8068 32.787 78.0341 44.5372H78.0436Z" fill="#DD857A"/>
<path d="M61.9778 58.8402C62.0814 58.8402 62.1851 58.7931 62.2604 58.7083C62.3924 58.5575 62.3735 58.322 62.2227 58.19L58.0955 54.6565C57.9448 54.5246 57.7092 54.5434 57.5773 54.6942C57.4454 54.8449 57.4642 55.0805 57.615 55.2124L61.7422 58.746C61.8081 58.8025 61.8929 58.8308 61.9778 58.8308V58.8402Z" fill="black"/>
<path d="M57.973 58.444C57.973 58.444 58.0107 58.444 58.0389 58.444L60.9977 57.9446C61.1956 57.9069 61.3369 57.7184 61.2992 57.5206C61.2615 57.3227 61.0731 57.1813 60.8752 57.219L57.9164 57.7184C57.7185 57.7561 57.5772 57.9446 57.6149 58.1425C57.6432 58.3215 57.8034 58.4534 57.9824 58.4534L57.973 58.444Z" fill="black"/>
<path d="M69.4783 48.9648C69.582 48.9648 69.6762 48.9271 69.7516 48.8423C71.1462 47.3252 72.635 48.2581 72.6915 48.2958C72.8611 48.4089 73.0873 48.3618 73.2003 48.1827C73.3134 48.0131 73.2663 47.787 73.0967 47.6739C72.39 47.2122 70.6656 46.7504 69.205 48.3429C69.0637 48.4937 69.0731 48.7292 69.2239 48.8612C69.2993 48.9271 69.3841 48.9554 69.4689 48.9554L69.4783 48.9648Z" fill="black"/>
<path d="M78.9764 49.3132C79.0707 49.3132 79.1649 49.2755 79.2403 49.2001C79.3816 49.0588 79.3816 48.8232 79.2403 48.6819C77.9399 47.4098 76.9599 47.7207 76.8469 47.7584C76.6584 47.8338 76.5548 48.0411 76.6301 48.2296C76.6961 48.418 76.9034 48.5123 77.1013 48.4463C77.139 48.4369 77.7703 48.2673 78.722 49.2001C78.7974 49.2661 78.8916 49.3038 78.9764 49.3038V49.3132Z" fill="black"/>
<path d="M37.6574 106.36C42.2934 109.969 47.6362 112.692 53.4406 114.313C57.0307 115.321 60.7904 115.896 64.6726 115.981C63.0048 90.7182 61.5913 69.9503 61.5913 69.9503C49.2098 71.7312 42.8588 75.0103 42.8588 75.0103L37.6574 106.36Z" fill="#3E8F9C"/>
<path d="M59.5748 97.3887H48.0413C47.0519 97.3887 46.2604 98.1896 46.2604 99.1696V101.158C46.2604 102.147 47.0613 102.939 48.0413 102.939H59.5748C60.5642 102.939 61.3557 102.138 61.3557 101.158V99.1696C61.3557 98.1802 60.5548 97.3887 59.5748 97.3887Z" fill="#92B4EA"/>
<path d="M76.7431 59.2841C76.9127 59.2841 77.0635 59.1711 77.1012 59.0014C78.0812 54.846 75.6595 52.8483 75.5653 52.7635C75.4051 52.6316 75.1695 52.6599 75.047 52.8201C74.9151 52.9803 74.9434 53.2064 75.1035 53.3383C75.1884 53.4137 77.2614 55.1569 76.3851 58.8318C76.3379 59.0297 76.4604 59.2276 76.6583 59.2747C76.6866 59.2747 76.7149 59.2841 76.7431 59.2841Z" fill="black"/>
<path d="M78.5337 53.988C78.5337 53.988 78.5808 53.988 78.5996 53.988C78.7975 53.9503 78.9294 53.7619 78.8917 53.5546L78.5054 51.4344L79.1462 50.6335C79.2687 50.4733 79.2498 50.2377 79.0896 50.1152C78.9294 49.9833 78.7033 50.0116 78.5714 50.1718L77.827 51.1046C77.761 51.1894 77.7327 51.2931 77.7516 51.4062L78.1756 53.6959C78.2133 53.875 78.3641 53.9974 78.5431 53.9974L78.5337 53.988Z" fill="black"/>
<path d="M72.7856 62.3278C73.417 62.3278 73.9164 62.111 73.9541 62.0922C74.0766 62.0357 74.1614 61.9226 74.1708 61.7907C74.1802 61.6588 74.1237 61.5268 74.0106 61.4515L70.9482 59.369C70.8257 59.2842 70.6655 59.2842 70.543 59.369C70.4205 59.4444 70.3545 59.5857 70.3734 59.7365C70.5336 60.8861 70.967 61.6682 71.6737 62.0639C72.0412 62.2712 72.437 62.3372 72.7856 62.3372V62.3278ZM72.8893 61.5834C72.6254 61.5928 72.3145 61.5645 72.0318 61.4043C71.7303 61.2347 71.4947 60.9332 71.3251 60.5186L72.8893 61.5834Z" fill="black"/>
<path d="M72.3521 53.5929C72.3521 53.5929 72.3992 53.5929 72.418 53.5929C72.6159 53.5552 72.7478 53.3668 72.7101 53.1595L72.3238 51.0488L73.1624 50.1442C73.3038 49.9934 73.2944 49.7578 73.1436 49.6259C72.9928 49.4846 72.7573 49.494 72.6253 49.6448L71.6642 50.6813C71.5888 50.7661 71.5511 50.8886 71.57 51.0016L71.994 53.2914C72.0317 53.4704 72.1825 53.5929 72.3615 53.5929H72.3521Z" fill="black"/>
<path d="M62.7502 53.6305L63.8809 54.9403L63.3156 53.0463C63.3156 53.0463 65.9823 53.0275 69.4781 50.8225C72.974 48.6176 73.8032 43.256 73.8032 43.256C73.8032 43.256 75.3203 43.9627 76.9693 45.2536C78.6183 46.5446 78.9762 47.9203 78.9762 47.9203C78.9762 47.9203 83.358 35.7837 74.1707 34.2101C64.9834 32.6364 58.4628 40.4197 58.4628 40.4197C58.4628 40.4197 53.2048 41.1453 52.6772 46.2996C52.1495 51.4538 55.7491 55.4491 55.7491 55.4491C55.7491 55.4491 58.0954 51.1712 62.7502 53.6305Z" fill="black"/>
<path d="M74.1519 71.0342C74.1519 71.0342 79.6455 94.3934 83.8292 112.316C85.987 111.402 88.06 110.309 90.0388 109.084C90.4063 108.857 90.7738 108.622 91.1319 108.386C91.9328 107.859 92.7338 107.293 93.5064 106.709C95.0423 105.55 96.5029 104.297 97.8786 102.949C99.424 101.451 100.856 99.8398 102.166 98.1343C99.0094 88.1084 93.5253 76.4995 84.5924 73.324C77.3463 70.7515 74.1519 71.0342 74.1519 71.0342Z" fill="#3E8F9C"/>
<path d="M74.3405 76.4336L74.887 80.8152C74.887 80.8152 62.7787 75.7457 61.9683 73.4654C61.158 71.1851 73.794 74.7375 73.794 74.7375L74.3311 76.4242L74.3405 76.4336Z" fill="#DD857A"/>
<path d="M74.8868 81.1907C74.9622 81.1907 75.0376 81.1718 75.1036 81.1247C75.2072 81.0493 75.2637 80.9268 75.2543 80.8043L74.7832 72.9174C74.7738 72.7101 74.6041 72.55 74.3968 72.5688C74.1895 72.5782 74.0388 72.7573 74.0482 72.9551L74.4817 80.2484C72.2484 79.2967 63.8621 75.6218 62.2791 73.2661C62.166 73.0965 61.9304 73.0494 61.7703 73.1719C61.6007 73.2849 61.5535 73.5111 61.6666 73.6807C63.6171 76.5641 74.2932 80.974 74.7455 81.1624C74.7926 81.1813 74.8397 81.1907 74.8868 81.1907Z" fill="white"/>
<path d="M27 94.6561C27.8104 95.9376 28.6961 97.1814 29.6289 98.3687C31.9658 101.356 34.6607 104.041 37.6572 106.359C42.2932 109.968 42.0953 107.933 42.0953 107.933L42.8586 75.0095C42.8586 75.0095 33.7374 80.8893 27 94.6561Z" fill="#3E8F9C"/>
<path d="M57.8599 82.3972C57.8599 82.3972 57.9353 82.3972 57.973 82.3878C58.2274 82.3312 58.3781 82.0768 58.3216 81.8224C57.3322 77.6198 57.4924 74.3124 58.7927 72.2488C59.801 70.6563 61.1296 70.3548 61.1861 70.3454C61.4406 70.2889 61.6007 70.0439 61.5536 69.7894C61.4971 69.535 61.2521 69.3654 60.9977 69.422C60.9223 69.4408 59.2545 69.7894 58.0201 71.7117C56.5407 74.0203 56.3334 77.4973 57.4076 82.0391C57.4547 82.2558 57.6526 82.3972 57.8693 82.3972H57.8599Z" fill="#40507F"/>
<path d="M80.8797 93.2526C81.1341 93.2526 81.3508 93.0453 81.3508 92.7815C81.3508 92.0465 81.4545 74.6991 74.9433 69.9594C74.736 69.8087 74.4345 69.8558 74.2837 70.0631C74.1329 70.2704 74.18 70.5719 74.3873 70.7227C80.5122 75.1797 80.4085 92.6025 80.4085 92.7815C80.4085 93.0453 80.6158 93.2526 80.8797 93.2526Z" fill="#40507F"/>
<path d="M58.7739 97.9923C58.8399 97.9923 58.9058 97.9829 58.9624 97.9546C59.1979 97.851 59.311 97.5683 59.2074 97.3327C59.1603 97.2291 54.5808 86.6284 57.9636 82.9723C58.3876 82.5106 58.887 82.3127 59.4995 82.3693C62.5807 82.6425 67.377 89.1066 68.9694 91.5848C69.1108 91.8015 69.4029 91.8675 69.6196 91.7261C69.8363 91.5848 69.9023 91.2927 69.7609 91.076C69.5159 90.699 63.7586 81.8039 59.5843 81.4364C58.6797 81.361 57.907 81.6625 57.2757 82.341C53.4689 86.4588 58.1426 97.2667 58.3405 97.719C58.4158 97.8981 58.5949 98.0017 58.7739 98.0017V97.9923Z" fill="#40507F"/>
<path d="M80.8798 96.531C79.3186 96.531 78.0529 95.2655 78.0529 93.7042C78.0529 92.143 79.3186 90.8773 80.8798 90.8773C82.441 90.8773 83.7066 92.143 83.7066 93.7042C83.7066 95.2655 82.441 96.531 80.8798 96.531Z" fill="#40507F"/>
<path d="M80.8798 94.8068C80.2708 94.8068 79.7773 94.3132 79.7773 93.7043C79.7773 93.0955 80.2708 92.6018 80.8798 92.6018C81.4886 92.6018 81.9822 93.0955 81.9822 93.7043C81.9822 94.3132 81.4886 94.8068 80.8798 94.8068Z" fill="#FFBF69"/>
<path d="M67.2449 92.2724H70.901C71.1648 92.2724 71.3721 92.0651 71.3721 91.8013C71.3721 91.5374 71.1648 91.3301 70.901 91.3301H67.2449C66.9811 91.3301 66.7738 91.5374 66.7738 91.8013C66.7738 92.0651 66.9811 92.2724 67.2449 92.2724Z" fill="#40507F"/>
<path d="M58.2367 99.5468C58.3969 99.5468 58.5477 99.4714 58.6419 99.3206L60.5547 96.2111C60.6866 95.985 60.6207 95.7022 60.404 95.5608C60.1778 95.4289 59.8951 95.495 59.7538 95.7117L57.841 98.8212C57.709 99.0474 57.775 99.3301 57.9917 99.4714C58.0671 99.5185 58.1519 99.5374 58.2367 99.5374V99.5468Z" fill="#40507F"/>
</g>
</g>
<defs>
<clipPath id="clip0_2119_2839">
<rect width="100" height="100" fill="white"/>
</clipPath>
</defs>
</svg>
