<svg width="100" height="100" viewBox="0 0 100 100" fill="none" xmlns="http://www.w3.org/2000/svg">
<g clip-path="url(#clip0_2119_1372)">
<path d="M50 100C77.6142 100 100 77.6142 100 50C100 22.3858 77.6142 0 50 0C22.3858 0 0 22.3858 0 50C0 77.6142 22.3858 100 50 100Z" fill="#3E8F9C"/>
<mask id="mask0_2119_1372" style="mask-type:luminance" maskUnits="userSpaceOnUse" x="0" y="0" width="100" height="100">
<path d="M50 100C77.6142 100 100 77.6142 100 50C100 22.3858 77.6142 0 50 0C22.3858 0 0 22.3858 0 50C0 77.6142 22.3858 100 50 100Z" fill="white"/>
</mask>
<g mask="url(#mask0_2119_1372)">
<path d="M-18.0004 47.005C-18.0004 55.7871 -15.5384 63.9939 -11.2747 70.9838C-10.5389 72.2006 -9.7371 73.3609 -8.89756 74.4928C-8.38817 75.172 -7.85993 75.8418 -7.30338 76.4832C-7.19018 76.6247 -7.07698 76.7568 -6.95435 76.8983C-5.19038 78.9735 -3.23774 80.879 -1.13417 82.6147C-0.832313 82.86 -0.521021 83.1052 -0.219164 83.341C0.177024 83.6429 0.582645 83.9542 0.997699 84.2466C1.39389 84.539 1.79951 84.8315 2.21456 85.105C2.92204 85.5767 3.64838 86.0389 4.38416 86.4728C4.52565 86.5671 4.66715 86.652 4.81808 86.7369L4.87468 86.7652C5.00674 86.8407 5.1388 86.9256 5.2803 87.0011C5.38406 87.0671 5.50669 87.1331 5.62932 87.1897C6.55376 87.7085 7.5065 88.2085 8.4781 88.6518C8.92145 88.8688 9.37424 89.0669 9.82703 89.265C10.6005 89.5951 11.3646 89.9064 12.157 90.18C12.6664 90.3781 13.1852 90.5573 13.6946 90.7271C15.817 91.4157 17.996 91.9628 20.2317 92.3307C20.6373 92.4062 21.0335 92.4722 21.4391 92.5288C22.4673 92.6797 23.5049 92.7835 24.5426 92.8684C24.6558 92.8778 24.7595 92.8873 24.8727 92.8873C25.5896 92.9344 26.3348 92.9627 27.0706 92.9722C27.3725 92.991 27.6838 92.991 27.9856 92.991C30.1175 92.991 32.2211 92.8401 34.268 92.5571C35.7962 92.359 37.296 92.076 38.7676 91.7176C39.4845 91.5478 40.2014 91.3591 40.8995 91.1516C42.9559 90.5479 44.9462 89.8027 46.8706 88.9254C47.9271 88.4632 48.9741 87.9444 49.974 87.3972C50.3042 87.218 50.6155 87.0294 50.9268 86.8501C51.5494 86.4917 52.1719 86.1238 52.7757 85.737C53.4737 85.2937 54.1623 84.822 54.8509 84.3221C55.6527 83.7467 56.4262 83.1524 57.1903 82.5109C59.1713 80.8884 61.0201 79.0962 62.7087 77.153C63.086 76.719 63.4444 76.2851 63.8029 75.8418C64.1896 75.3701 64.567 74.889 64.9254 74.3891C65.0858 74.1816 65.2273 73.9835 65.3782 73.7759C65.5574 73.5401 65.7272 73.2949 65.8782 73.0496C66.8969 71.5875 67.8214 70.0499 68.6609 68.4651C69.0571 67.7388 69.425 66.9841 69.7646 66.2389C72.5001 60.3905 74 53.8628 74 47.005C74 21.6018 53.4077 1.00946 28.0045 1.00946C2.60132 1.00946 -17.991 21.6018 -17.991 47.005H-18.0004Z" fill="#3E8F9C"/>
<path d="M-7.29395 76.4921C-7.18075 76.6336 -7.06755 76.7656 -6.94492 76.9071C-5.18094 78.9824 -3.22831 80.8879 -1.12474 82.6236C-0.822881 82.8688 -0.51159 83.1141 -0.209732 83.3499C0.186455 83.6518 0.592077 83.963 1.00713 84.2555C1.40332 84.5479 1.80894 84.8403 2.22399 85.1139C2.93147 85.5855 3.65781 86.0477 4.39359 86.4817C4.53508 86.576 4.67658 86.6609 4.82751 86.7458L4.88411 86.7741C5.01617 86.8496 5.14824 86.9345 5.28973 87.0099C5.3935 87.076 5.51612 87.142 5.63875 87.1986L10.0534 59.3617C10.0534 59.3617 0.818469 68.4174 -7.28451 76.4826L-7.29395 76.4921Z" fill="#F6F5F7"/>
<path d="M-0.20982 83.3496C0.186367 83.6515 0.591989 83.9628 1.00704 84.2552C1.40323 84.5476 1.80884 84.84 2.2239 85.1136C2.93138 85.5852 3.65772 86.0475 4.3935 86.4814C4.535 86.5757 4.67649 86.6606 4.82742 86.7455L4.88402 86.7738C5.01608 86.8493 5.14814 86.9342 5.28964 87.0096C6.32727 87.6039 7.3932 88.151 8.48744 88.6604C8.93079 88.8774 9.38358 89.0755 9.83636 89.2736C10.6099 89.6037 11.3739 89.915 12.1663 90.1886L22.0144 54.343C22.0144 54.343 15.6 55.7202 12.1003 57.8332C9.08172 59.6444 5.4217 62.8705 -0.200393 83.3402L-0.20982 83.3496Z" fill="#F6F5F7"/>
<path d="M8.48763 88.6608C8.93098 88.8778 9.38376 89.0759 9.83655 89.2739C13.1192 90.6983 16.6189 91.7265 20.2412 92.3397C20.6468 92.4152 21.043 92.4812 21.4486 92.5378C22.4768 92.6887 23.5145 92.7925 24.5521 92.8774C24.6653 92.8868 24.7691 92.8962 24.8822 92.8962C25.5992 92.9434 26.3444 92.9717 27.0801 92.9811C27.382 93 27.6933 93 27.9952 93C31.7023 93 35.3246 92.5566 38.7771 91.7265C39.494 91.5567 40.2109 91.3681 40.909 91.1606C42.9654 90.5568 44.9558 89.8116 46.8801 88.9344C48.2668 88.3212 49.6345 87.6232 50.9457 86.8591C50.2383 72.4454 49.3799 59.7391 48.512 58.5034C46.4367 55.5414 38.5696 52.8624 31.0137 53.1077C23.4673 53.3435 14.0437 57.4469 14.0437 57.4469L8.47819 88.6514L8.48763 88.6608Z" fill="#D3CDFF"/>
<path d="M17.8074 27.0822C17.8074 27.0822 11.7231 17.1115 16.6377 14.8947C21.5523 12.6779 27.5234 18.1114 27.5234 18.1114C27.5234 18.1114 38.5884 18.9509 42.8616 24.8182C47.1347 30.6856 36.9376 41.1846 36.9376 41.1846L17.8074 27.0822Z" fill="black"/>
<path d="M35.0038 43.4583L35.7585 53.6366C35.7585 53.6366 34.1454 56.7023 28.2215 57.6268C23.8163 58.3154 22.1843 57.4287 22.1843 57.4287L22.4202 52.2311L22.656 47.1561L33.2304 43.9866L35.0038 43.4489V43.4583Z" fill="#F48462"/>
<path d="M33.2304 43.9872C33.2304 44.2701 33.1455 44.6003 33.004 44.9871C31.108 50.2413 24.9671 51.7977 22.4201 52.2222L22.656 47.1472L33.2304 43.9777V43.9872Z" fill="black"/>
<path d="M18.6657 24.1307C18.6657 24.1307 14.2793 37.2898 16.9112 44.2137C19.543 51.1469 25.9197 49.4396 29.6741 47.7133C33.4284 45.9871 35.0132 43.4496 35.0132 43.4496C35.0132 43.4496 38.7486 44.3551 40.8616 40.7612C42.9841 37.1766 41.1446 33.4411 38.9939 32.7431C36.8432 32.045 34.5226 33.7618 34.5226 33.7618L36.1168 29.9132C36.1168 29.9132 26.3253 11.9527 18.6657 24.1213V24.1307Z" fill="#F48462"/>
<path d="M35.2773 39.2042C35.3622 39.2042 35.4471 39.1759 35.5131 39.1193L39.8523 35.4782C40.0127 35.3461 40.0315 35.1103 39.8995 34.9594C39.7674 34.799 39.5316 34.7801 39.3806 34.9122L35.0415 38.5533C34.8811 38.6854 34.8622 38.9212 34.9943 39.0722C35.0697 39.1571 35.1735 39.2042 35.2773 39.2042Z" fill="black"/>
<path d="M39.4468 38.8355C39.626 38.8355 39.7769 38.7128 39.8147 38.5336C39.8524 38.3355 39.7203 38.1374 39.5128 38.0997L36.4376 37.5432C36.2301 37.5054 36.0415 37.6375 36.0037 37.845C35.966 38.0431 36.0981 38.2412 36.3056 38.2789L39.3807 38.8355C39.3807 38.8355 39.4279 38.8355 39.4468 38.8355Z" fill="black"/>
<path d="M27.5517 29.6109C27.6932 29.6109 27.8253 29.5354 27.8819 29.4034C27.9668 29.2241 27.8913 28.9977 27.7121 28.9129C25.9104 28.0356 24.137 27.6866 24.0615 27.6771C23.8634 27.6394 23.6653 27.7715 23.6276 27.9695C23.5898 28.1676 23.7219 28.3657 23.92 28.4035C23.9389 28.4035 25.6745 28.7431 27.3819 29.5826C27.4385 29.6109 27.4857 29.6203 27.5423 29.6203L27.5517 29.6109Z" fill="black"/>
<path d="M17.6565 29.0825C17.7602 29.0825 17.864 29.0353 17.9394 28.9504C18.1753 28.6769 19.1469 28.2995 19.7694 28.1203C19.9675 28.0637 20.0807 27.8562 20.0241 27.6581C19.9675 27.46 19.7695 27.3468 19.5619 27.4034C19.2789 27.4883 17.8357 27.9222 17.3735 28.4599C17.2414 28.6108 17.2603 28.8466 17.4112 28.9787C17.4772 29.0353 17.5621 29.0636 17.647 29.0636L17.6565 29.0825Z" fill="black"/>
<path d="M20.0902 38.6378C20.0902 38.6378 20.1751 38.6378 20.2223 38.6095C20.4109 38.534 20.5052 38.3265 20.4392 38.1284C19.1186 34.6476 21.4768 33.4119 21.5712 33.3553C21.7504 33.2609 21.8259 33.044 21.7315 32.8553C21.6372 32.6761 21.4202 32.6006 21.241 32.6855C21.2127 32.7044 18.1753 34.2608 19.7412 38.3831C19.7978 38.534 19.9393 38.6189 20.0902 38.6189V38.6378Z" fill="black"/>
<path d="M18.0622 33.9681C18.232 33.9681 18.3923 33.8455 18.4206 33.6663L18.8828 31.2892C18.9206 31.0911 18.7885 30.893 18.5904 30.8552C18.3923 30.8175 18.1942 30.9496 18.1565 31.1477L17.6943 33.5248C17.6565 33.7229 17.7886 33.921 17.9867 33.9587C18.0056 33.9587 18.0339 33.9587 18.0622 33.9587V33.9681Z" fill="black"/>
<path d="M24.2784 33.9681C24.4482 33.9681 24.6085 33.8455 24.6368 33.6663L25.099 31.2892C25.1368 31.0911 25.0047 30.893 24.8066 30.8552C24.6085 30.8175 24.4104 30.9496 24.3727 31.1477L23.9105 33.5248C23.8727 33.7229 24.0048 33.921 24.2029 33.9587C24.2218 33.9587 24.2501 33.9587 24.2784 33.9587V33.9681Z" fill="black"/>
<path d="M17.8073 27.0815C17.8073 27.0815 18.76 24.9497 21.2975 24.7516C23.835 24.5535 25.4481 26.2231 25.4481 26.2231C25.4481 26.2231 24.6557 30.5812 28.278 32.5904C31.9003 34.5997 34.5227 33.7696 34.5227 33.7696L36.9564 32.6942L38.5223 28.9021L30.7023 21.6387L20.9579 17.3938L16.5055 22.082L17.8167 27.091L17.8073 27.0815Z" fill="black"/>
<path d="M23.92 42.7034C24.1181 42.7034 24.3256 42.6751 24.5426 42.6091C25.4293 42.3355 26.0802 41.4866 26.4858 40.0905C26.5235 39.949 26.4858 39.8075 26.3726 39.7131C26.2688 39.6188 26.1085 39.5999 25.9858 39.6471L22.0617 41.3262C21.9391 41.3734 21.8636 41.4866 21.8447 41.6092C21.8259 41.7412 21.873 41.8639 21.9768 41.9488C22.024 41.9865 22.9012 42.7034 23.9389 42.7034H23.92ZM25.4859 40.6564C25.184 41.3356 24.7878 41.7507 24.3162 41.9016C23.8445 42.0525 23.3446 41.9016 22.9861 41.7224L25.4859 40.6564Z" fill="black"/>
<path d="M34.287 92.5751C35.8152 92.377 37.3149 92.094 38.7865 91.7356C39.5034 91.5658 40.2203 91.3771 40.9183 91.1696C42.9747 90.5659 44.9651 89.8207 46.8895 88.9434C47.946 88.4812 48.993 87.9624 49.9929 87.4153L35.768 53.6355C35.768 53.6355 34.6455 74.3316 34.287 92.5751Z" fill="#F6F5F7"/>
<path d="M4.88402 86.7849C5.01608 86.8603 5.14814 86.9452 5.28964 87.0207C6.32727 87.615 7.3932 88.1621 8.48744 88.6715C8.93079 88.8884 9.38358 89.0865 9.83636 89.2846C11.1004 89.8317 12.3927 90.3222 13.7039 90.7467L22.0144 54.3541C14.9585 55.3351 10.0439 59.3724 10.0439 59.3724L4.88402 86.7849Z" fill="#F6F5F7"/>
<path d="M35.6829 53.0991L40.9088 91.1708C42.9652 90.5671 44.9556 89.8219 46.8799 88.9446C48.9363 88.0391 50.9078 86.9637 52.7944 85.7563C53.4925 85.3129 54.1811 84.8413 54.8697 84.3413C55.6715 83.7659 56.445 83.1716 57.2091 82.5302C59.19 80.9077 61.0389 79.1154 62.7274 77.1722C63.1048 76.7383 63.4632 76.3044 63.8217 75.861C64.2084 75.3894 64.5857 74.9083 64.9442 74.4083C65.1046 74.2008 65.2461 74.0027 65.397 73.7952C65.5762 73.5593 65.746 73.3141 65.8969 73.0688C65.048 71.9086 64.1424 70.7483 63.1614 69.5975C47.2667 50.8069 35.6829 53.0991 35.6829 53.0991Z" fill="#F6F5F7"/>
<path d="M38.7972 68.177L49.1791 68.4597C50.1426 68.486 50.9024 69.2883 50.8761 70.2517L50.8134 72.5526C50.7872 73.516 49.9849 74.2758 49.0215 74.2495L38.6395 73.9668C37.6761 73.9405 36.9164 73.1382 36.9426 72.1748L37.0052 69.8739C37.0315 68.9106 37.8337 68.1508 38.7972 68.177Z" fill="#6876AA"/>
<path d="M26.2971 58.5881C32.1456 58.5881 36.0037 53.9187 36.0509 53.8621C36.183 53.7018 36.1547 53.4754 35.9943 53.3433C35.8339 53.2112 35.6075 53.2395 35.4755 53.3999C35.4189 53.4659 29.9666 60.0408 22.3258 57.0788C22.1372 57.0033 21.9202 57.0977 21.8447 57.2863C21.7693 57.475 21.8636 57.6919 22.0523 57.7674C23.5521 58.3522 24.9765 58.5881 26.2877 58.5881H26.2971Z" fill="white"/>
<path d="M53.0919 47.6081C53.0919 47.6081 42.6796 48.9179 38.8917 58.9061C35.1037 68.9037 37.3463 81.8318 37.3463 81.8318L56.5595 77.4125L55.7208 59.6599L53.0824 47.5987L53.0919 47.6081Z" fill="black"/>
<path d="M61.9778 66.4924C61.9778 66.4924 56.0414 66.7562 52.6303 58.4736C49.2098 50.1909 53.4878 43.708 53.4878 43.708L60.9412 47.6091L64.9931 62.4029L61.9872 66.483L61.9778 66.4924Z" fill="black"/>
<path d="M41.4264 108.989C45.1107 111.317 49.1531 113.117 53.4405 114.313C57.0306 115.322 60.7903 115.896 64.6725 115.981C65.0494 116 65.4169 116 65.7938 116C67.424 116 69.0259 115.915 70.6183 115.746C71.6548 115.642 72.6725 115.491 73.6902 115.312C74.0388 115.256 74.3874 115.19 74.7361 115.124C75.4993 114.964 76.2626 114.794 77.0164 114.605C77.2237 114.558 77.4404 114.511 77.6477 114.445C79.4004 113.984 81.1248 113.418 82.7926 112.74C85.3179 111.741 87.749 110.507 90.0387 109.084C89.2001 95.5148 87.8809 80.2687 86.0906 77.1309C82.7172 71.251 64.8515 70.1391 64.8515 70.1391C64.8515 70.1391 51.8104 69.7057 45.0825 75.8023C41.6149 78.9401 41.106 94.5725 41.4264 108.989Z" fill="#D3CDFF"/>
<path d="M62.185 62.9108L61.3557 72.6634C61.3557 72.6634 62.8728 75.6128 68.5454 76.5645C72.7668 77.2712 74.3404 76.4325 74.3404 76.4325L74.1708 71.4479L73.9917 66.5857L63.8811 63.4479L62.185 62.9202V62.9108Z" fill="#DD857A"/>
<path d="M63.8812 63.4389C63.8812 63.7028 63.9565 64.0326 64.0885 64.4001C65.86 69.4601 71.7304 71.0149 74.1709 71.4389L73.9919 66.5767L63.8812 63.4389Z" fill="black"/>
<path d="M78.0436 44.5372C78.0436 44.5372 82.1236 57.2015 79.5324 63.8163C76.9411 70.4406 70.8351 68.7445 67.2544 67.0484C63.6738 65.3617 62.1755 62.9117 62.1755 62.9117C62.1755 62.9117 58.5854 63.7409 56.5878 60.2828C54.5902 56.8246 56.3899 53.2628 58.4535 52.6126C60.5171 51.9624 62.7315 53.6302 62.7315 53.6302L61.2427 49.9177C61.2427 49.9177 70.8068 32.787 78.0341 44.5372H78.0436Z" fill="#DD857A"/>
<path d="M61.9778 58.8402C62.0814 58.8402 62.1851 58.7931 62.2604 58.7083C62.3924 58.5575 62.3735 58.322 62.2227 58.19L58.0955 54.6565C57.9448 54.5246 57.7092 54.5434 57.5773 54.6942C57.4454 54.8449 57.4642 55.0805 57.615 55.2124L61.7422 58.746C61.8081 58.8025 61.8929 58.8308 61.9778 58.8308V58.8402Z" fill="black"/>
<path d="M57.973 58.444C57.973 58.444 58.0107 58.444 58.0389 58.444L60.9977 57.9446C61.1956 57.9069 61.3369 57.7184 61.2992 57.5206C61.2615 57.3227 61.0731 57.1813 60.8752 57.219L57.9164 57.7184C57.7185 57.7561 57.5772 57.9446 57.6149 58.1425C57.6432 58.3215 57.8034 58.4534 57.9824 58.4534L57.973 58.444Z" fill="black"/>
<path d="M69.4783 48.9648C69.582 48.9648 69.6762 48.9271 69.7516 48.8423C71.1462 47.3252 72.635 48.2581 72.6915 48.2958C72.8611 48.4089 73.0873 48.3618 73.2003 48.1827C73.3134 48.0131 73.2663 47.787 73.0967 47.6739C72.39 47.2122 70.6656 46.7504 69.205 48.3429C69.0637 48.4937 69.0731 48.7292 69.2239 48.8612C69.2993 48.9271 69.3841 48.9554 69.4689 48.9554L69.4783 48.9648Z" fill="black"/>
<path d="M78.9764 49.3132C79.0707 49.3132 79.1649 49.2755 79.2403 49.2001C79.3816 49.0588 79.3816 48.8232 79.2403 48.6819C77.9399 47.4098 76.96 47.7207 76.8469 47.7584C76.6584 47.8338 76.5548 48.0411 76.6302 48.2296C76.6961 48.418 76.9034 48.5123 77.1013 48.4463C77.139 48.4369 77.7703 48.2673 78.722 49.2001C78.7974 49.2661 78.8916 49.3038 78.9764 49.3038V49.3132Z" fill="black"/>
<path d="M37.6574 106.36C42.2934 109.969 47.6361 112.692 53.4406 114.313C57.0307 115.321 60.7904 115.896 64.6726 115.981C63.0048 90.7182 61.5913 69.9503 61.5913 69.9503C49.2097 71.7312 42.8588 75.0103 42.8588 75.0103L37.6574 106.36Z" fill="#F6F5F7"/>
<path d="M59.5748 97.3887H48.0413C47.0519 97.3887 46.2604 98.1896 46.2604 99.1696V101.158C46.2604 102.147 47.0613 102.939 48.0413 102.939H59.5748C60.5642 102.939 61.3558 102.138 61.3558 101.158V99.1696C61.3558 98.1802 60.5548 97.3887 59.5748 97.3887Z" fill="#92B4EA"/>
<path d="M76.7431 59.2841C76.9127 59.2841 77.0635 59.1711 77.1012 59.0014C78.0812 54.846 75.6595 52.8483 75.5653 52.7635C75.4051 52.6316 75.1695 52.6599 75.047 52.8201C74.9151 52.9803 74.9434 53.2064 75.1036 53.3383C75.1884 53.4137 77.2614 55.1569 76.3851 58.8318C76.338 59.0297 76.4605 59.2276 76.6583 59.2747C76.6866 59.2747 76.7149 59.2841 76.7431 59.2841Z" fill="black"/>
<path d="M78.5337 53.988C78.5337 53.988 78.5808 53.988 78.5996 53.988C78.7975 53.9503 78.9294 53.7619 78.8917 53.5546L78.5054 51.4344L79.1461 50.6335C79.2686 50.4733 79.2498 50.2377 79.0896 50.1152C78.9294 49.9833 78.7033 50.0116 78.5714 50.1718L77.8269 51.1046C77.761 51.1894 77.7327 51.2931 77.7516 51.4062L78.1756 53.6959C78.2133 53.875 78.364 53.9974 78.5431 53.9974L78.5337 53.988Z" fill="black"/>
<path d="M72.7856 62.3278C73.417 62.3278 73.9164 62.111 73.9541 62.0922C74.0766 62.0357 74.1614 61.9226 74.1708 61.7907C74.1802 61.6588 74.1237 61.5268 74.0106 61.4515L70.9482 59.369C70.8257 59.2842 70.6655 59.2842 70.543 59.369C70.4205 59.4444 70.3545 59.5857 70.3734 59.7365C70.5336 60.8861 70.967 61.6682 71.6737 62.0639C72.0412 62.2712 72.437 62.3372 72.7856 62.3372V62.3278ZM72.8893 61.5834C72.6254 61.5928 72.3145 61.5645 72.0318 61.4043C71.7303 61.2347 71.4947 60.9332 71.3251 60.5186L72.8893 61.5834Z" fill="black"/>
<path d="M72.3521 53.5929C72.3521 53.5929 72.3992 53.5929 72.418 53.5929C72.6159 53.5552 72.7478 53.3668 72.7101 53.1595L72.3238 51.0488L73.1624 50.1442C73.3038 49.9934 73.2944 49.7578 73.1436 49.6259C72.9928 49.4846 72.7573 49.494 72.6253 49.6448L71.6642 50.6813C71.5888 50.7661 71.5511 50.8886 71.57 51.0016L71.994 53.2914C72.0317 53.4704 72.1825 53.5929 72.3615 53.5929H72.3521Z" fill="black"/>
<path d="M62.7502 53.6305L63.8809 54.9403L63.3156 53.0463C63.3156 53.0463 65.9823 53.0275 69.4781 50.8225C72.974 48.6176 73.8032 43.256 73.8032 43.256C73.8032 43.256 75.3203 43.9627 76.9693 45.2536C78.6183 46.5446 78.9762 47.9203 78.9762 47.9203C78.9762 47.9203 83.358 35.7837 74.1707 34.2101C64.9834 32.6364 58.4628 40.4197 58.4628 40.4197C58.4628 40.4197 53.2048 41.1453 52.6772 46.2996C52.1495 51.4538 55.7491 55.4491 55.7491 55.4491C55.7491 55.4491 58.0954 51.1712 62.7502 53.6305Z" fill="black"/>
<path d="M74.1519 71.0342C74.1519 71.0342 79.6455 94.3934 83.8292 112.316C85.987 111.402 88.06 110.309 90.0388 109.084C90.4063 108.857 90.7738 108.622 91.1319 108.386C91.9328 107.859 92.7338 107.293 93.5064 106.709C95.0423 105.55 96.5029 104.297 97.8786 102.949C99.424 101.451 100.856 99.8398 102.166 98.1343C99.0094 88.1084 93.5253 76.4995 84.5924 73.324C77.3463 70.7515 74.1519 71.0342 74.1519 71.0342Z" fill="#F6F5F7"/>
<path d="M74.3405 76.4336L74.887 80.8152C74.887 80.8152 62.7787 75.7457 61.9683 73.4654C61.158 71.1851 73.794 74.7375 73.794 74.7375L74.3311 76.4242L74.3405 76.4336Z" fill="#DD857A"/>
<path d="M74.8868 81.1907C74.9622 81.1907 75.0376 81.1718 75.1036 81.1247C75.2072 81.0493 75.2637 80.9268 75.2543 80.8043L74.7832 72.9174C74.7738 72.7101 74.6041 72.55 74.3968 72.5688C74.1895 72.5782 74.0388 72.7573 74.0482 72.9551L74.4817 80.2484C72.2484 79.2967 63.8621 75.6218 62.2791 73.2661C62.166 73.0965 61.9304 73.0494 61.7703 73.1719C61.6007 73.2849 61.5535 73.5111 61.6666 73.6807C63.6171 76.5641 74.2932 80.974 74.7455 81.1624C74.7926 81.1813 74.8397 81.1907 74.8868 81.1907Z" fill="white"/>
<path d="M27 94.6561C27.8104 95.9376 28.6961 97.1814 29.6289 98.3687C31.9658 101.356 34.6607 104.041 37.6572 106.359C42.2932 109.968 42.0953 107.933 42.0953 107.933L42.8586 75.0095C42.8586 75.0095 33.7374 80.8893 27 94.6561Z" fill="#F6F5F7"/>
<path d="M57.8599 82.3972C57.8599 82.3972 57.9353 82.3972 57.973 82.3878C58.2274 82.3312 58.3781 82.0768 58.3216 81.8224C57.3322 77.6198 57.4924 74.3124 58.7927 72.2488C59.801 70.6563 61.1296 70.3548 61.1861 70.3454C61.4406 70.2889 61.6007 70.0439 61.5536 69.7894C61.4971 69.535 61.2521 69.3654 60.9977 69.422C60.9223 69.4408 59.2545 69.7894 58.0201 71.7117C56.5407 74.0203 56.3334 77.4973 57.4076 82.0391C57.4547 82.2558 57.6526 82.3972 57.8693 82.3972H57.8599Z" fill="#40507F"/>
<path d="M80.8797 93.2526C81.1341 93.2526 81.3508 93.0453 81.3508 92.7815C81.3508 92.0465 81.4545 74.6991 74.9433 69.9594C74.736 69.8087 74.4345 69.8558 74.2837 70.0631C74.1329 70.2704 74.18 70.5719 74.3873 70.7227C80.5122 75.1797 80.4085 92.6025 80.4085 92.7815C80.4085 93.0453 80.6158 93.2526 80.8797 93.2526Z" fill="#40507F"/>
<path d="M58.7739 97.9923C58.8399 97.9923 58.9058 97.9829 58.9624 97.9546C59.1979 97.851 59.311 97.5683 59.2074 97.3327C59.1603 97.2291 54.5808 86.6284 57.9636 82.9723C58.3876 82.5106 58.887 82.3127 59.4995 82.3693C62.5807 82.6425 67.377 89.1066 68.9694 91.5848C69.1108 91.8015 69.4029 91.8675 69.6196 91.7261C69.8363 91.5848 69.9023 91.2927 69.7609 91.076C69.5159 90.699 63.7586 81.8039 59.5843 81.4364C58.6797 81.361 57.907 81.6625 57.2757 82.341C53.4689 86.4588 58.1426 97.2667 58.3405 97.719C58.4158 97.8981 58.5949 98.0017 58.7739 98.0017V97.9923Z" fill="#40507F"/>
<path d="M80.8797 96.531C79.3186 96.531 78.0529 95.2655 78.0529 93.7042C78.0529 92.143 79.3186 90.8773 80.8797 90.8773C82.441 90.8773 83.7066 92.143 83.7066 93.7042C83.7066 95.2655 82.441 96.531 80.8797 96.531Z" fill="#40507F"/>
<path d="M80.8798 94.8068C80.2708 94.8068 79.7773 94.3132 79.7773 93.7043C79.7773 93.0955 80.2708 92.6018 80.8798 92.6018C81.4886 92.6018 81.9822 93.0955 81.9822 93.7043C81.9822 94.3132 81.4886 94.8068 80.8798 94.8068Z" fill="#FFBF69"/>
<path d="M67.2449 92.2724H70.901C71.1648 92.2724 71.3721 92.0651 71.3721 91.8013C71.3721 91.5374 71.1648 91.3301 70.901 91.3301H67.2449C66.9811 91.3301 66.7738 91.5374 66.7738 91.8013C66.7738 92.0651 66.9811 92.2724 67.2449 92.2724Z" fill="#40507F"/>
<path d="M58.2367 99.5468C58.3969 99.5468 58.5476 99.4714 58.6419 99.3206L60.5547 96.2111C60.6866 95.985 60.6207 95.7022 60.4039 95.5608C60.1778 95.4289 59.8951 95.495 59.7538 95.7117L57.8409 98.8212C57.709 99.0474 57.775 99.3301 57.9917 99.4714C58.0671 99.5185 58.1519 99.5374 58.2367 99.5374V99.5468Z" fill="#40507F"/>
</g>
</g>
<defs>
<clipPath id="clip0_2119_1372">
<rect width="100" height="100" fill="white"/>
</clipPath>
</defs>
</svg>
