<svg width="100" height="100" viewBox="0 0 100 100" fill="none" xmlns="http://www.w3.org/2000/svg">
<rect width="100" height="100" rx="20" fill="white"/>
<path d="M90.2557 51.3595C89.9472 50.8222 89.5339 50.3511 89.0399 49.9736C88.5458 49.5961 87.9809 49.3199 87.378 49.1609C84.6432 48.4681 81.8104 48.2358 78.9979 48.4738C80.6171 41.3867 79.5596 35.794 78.4952 32.5338C78.1237 31.3822 77.3327 30.4088 76.2764 29.8035C75.22 29.1983 73.9741 29.0045 72.7814 29.26C69.0793 30.0827 65.5746 31.6124 62.4632 33.7637C60.2979 29.0964 57.0241 25.0181 52.9217 21.8774C52.0799 21.249 51.0546 20.9091 50.0006 20.9091C48.9466 20.9091 47.9213 21.249 47.0796 21.8774C42.9794 25.0195 39.707 29.0975 37.5415 33.7637C34.4293 31.6117 30.9233 30.0818 27.2199 29.26C26.0271 29.0048 24.7813 29.1992 23.7254 29.8052C22.6696 30.4111 21.8795 31.3852 21.5095 32.5373C20.4451 35.7974 19.3876 41.3902 21.0068 48.4773C18.1943 48.2392 15.3614 48.4715 12.6267 49.1643C12.0238 49.3233 11.4589 49.5996 10.9648 49.977C10.4707 50.3545 10.0574 50.8256 9.749 51.363C9.42484 51.9152 9.21496 52.5259 9.13162 53.1593C9.04828 53.7928 9.09314 54.4364 9.2636 55.0525C10.4112 59.2711 13.9442 67.2892 24.6646 73.648C35.3849 80.0068 44.9022 80 50.0023 80C55.1025 80 64.6059 80 75.3332 73.648C86.0605 67.2961 89.5865 59.2711 90.7341 55.0491C90.9056 54.4334 90.9516 53.7901 90.8695 53.1566C90.7873 52.5231 90.5787 51.9122 90.2557 51.3595ZM64.0373 37.7109C66.8919 35.5781 70.1696 34.0678 73.6551 33.2793C73.8402 33.2419 74.0328 33.2739 74.1955 33.3691C74.3582 33.4643 74.4794 33.6159 74.5357 33.7946C75.9018 37.9926 77.2436 46.6771 70.864 57.6702C68.3032 62.0063 65.021 65.8821 61.1561 69.134C63.8188 64.5409 65.9511 58.3333 65.9511 50.1709C65.9835 45.9433 65.3375 41.7375 64.0373 37.7109ZM25.469 33.8049C25.5232 33.6243 25.6436 33.4703 25.8065 33.373C25.9694 33.2758 26.1631 33.2424 26.3496 33.2793C29.8351 34.0678 33.1128 35.5781 35.9674 37.7109C34.6672 41.7375 34.0212 45.9433 34.0536 50.1709C34.0536 58.3333 36.1858 64.5478 38.8417 69.1237C34.976 65.8726 31.6936 61.9966 29.1337 57.6599C22.7611 46.6771 24.1029 37.9926 25.469 33.8049ZM26.8003 70.1062C17.3351 64.5031 14.2667 57.5947 13.2785 53.9601C13.2526 53.8678 13.2457 53.7712 13.2582 53.6762C13.2707 53.5812 13.3024 53.4896 13.3513 53.407C13.4266 53.2743 13.5509 53.1758 13.6981 53.1322C16.5001 52.4422 19.4136 52.3172 22.2653 52.7646C23.145 55.1781 24.2391 57.5096 25.5348 59.7314C29.092 65.8138 33.9427 71.0561 39.75 75.0943C35.1718 74.1965 30.7885 72.5081 26.8003 70.1062ZM50.0023 75.4859C46.9929 73.356 38.2141 65.7983 38.2141 50.1709C38.2141 35.2752 46.1677 27.7244 49.5863 25.1685C49.7063 25.0793 49.8523 25.0311 50.0023 25.0311C50.1524 25.0311 50.2984 25.0793 50.4184 25.1685C53.837 27.7244 61.7906 35.2752 61.7906 50.1709C61.7906 65.8944 53.0569 73.3594 50.0023 75.4859ZM86.7192 53.9738C85.7311 57.5947 82.6627 64.5031 73.1974 70.1199C69.2049 72.5169 64.8181 74.1996 60.2373 75.0909C66.0447 71.0526 70.8954 65.8103 74.4525 59.728C75.754 57.5078 76.8539 55.1775 77.7393 52.7646C80.5943 52.3208 83.5102 52.4505 86.3136 53.1459C86.4607 53.1895 86.585 53.2881 86.6603 53.4207C86.7081 53.5038 86.7385 53.5956 86.7498 53.6906C86.7611 53.7857 86.7531 53.882 86.7262 53.9738H86.7192Z" fill="url(#paint0_linear_13_77)"/>
<defs>
<linearGradient id="paint0_linear_13_77" x1="9.0909" y1="52.4508" x2="90.9091" y2="52.4508" gradientUnits="userSpaceOnUse">
<stop stop-color="#7E6CFB"/>
<stop offset="1" stop-color="#3E8F9C"/>
</linearGradient>
</defs>
</svg>
