<?xml version="1.0" encoding="utf-8"?>
<!-- Generator: Adobe Illustrator 27.6.1, SVG Export Plug-In . SVG Version: 6.00 Build 0)  -->
<svg version="1.1" id="Layer_2_00000085956065969746614110000002931779710011892392_"
	 xmlns="http://www.w3.org/2000/svg" xmlns:xlink="http://www.w3.org/1999/xlink" x="0px" y="0px" viewBox="0 0 620.6 646.8"
	 style="enable-background:new 0 0 620.6 646.8;" xml:space="preserve">
<style type="text/css">
	.st0{fill:#068FA0;}
	.st1{fill:#A8DCE0;}
	.st2{fill:#75BBBC;}
	.st3{fill:#FF812C;}
	.st4{fill:#FFAB24;}
	.st5{fill:#E9AE8F;}
	.st6{fill:#CC7F57;}
	.st7{fill:#036A72;}
	.st8{fill:#EF8181;}
	.st9{fill:#CC5050;}
	.st10{fill:#EDD6D6;}
	.st11{fill:#5B3D31;}
	.st12{fill:#E59090;}
</style>
<g id="Layer_1-2">
	<g id="OBJECTS">
		<g>
			<path class="st0" d="M430.7,73.9V57.5l-19.8-4.2c-1.1-4-2.6-7.7-4.6-11.2l11-17l-11.6-11.6l-17,11c-3.5-2-7.2-3.6-11.2-4.6
				L373.2,0h-16.4l-4.2,19.8c-4,1.1-7.7,2.6-11.2,4.6l-17-11L312.8,25l11,17c-2,3.5-3.6,7.2-4.6,11.2l-19.8,4.2v16.4l19.8,4.2
				c1.1,4,2.6,7.7,4.6,11.2l-11,17l11.6,11.6l17-11c3.5,2,7.2,3.6,11.2,4.6l4.2,19.8h16.4l4.2-19.8c4-1.1,7.7-2.6,11.2-4.6l17,11
				l11.6-11.6l-11-17c2-3.5,3.6-7.2,4.6-11.2L430.7,73.9z M365,90.1c-13.5,0-24.4-10.9-24.4-24.4s10.9-24.4,24.4-24.4
				s24.4,10.9,24.4,24.4S378.5,90.1,365,90.1z"/>
			<path class="st0" d="M298.9,107.6V95.2L283.8,92c-0.8-3-2-5.9-3.5-8.5l8.4-12.9l-8.8-8.8l-12.9,8.4c-2.6-1.5-5.5-2.7-8.5-3.5
				l-3.2-15.1h-12.4l-3.2,15.1c-3,0.8-5.9,2-8.5,3.5l-12.9-8.4l-8.8,8.8l8.4,12.9c-1.5,2.6-2.7,5.5-3.5,8.5l-15.1,3.2v12.4l15.1,3.2
				c0.8,3,2,5.9,3.5,8.5l-8.4,12.9l8.8,8.8l12.9-8.4c2.6,1.5,5.5,2.7,8.5,3.5l3.2,15.1h12.4l3.2-15.1c3-0.8,5.9-2,8.5-3.5l12.9,8.4
				l8.8-8.8l-8.4-12.9c1.5-2.6,2.7-5.5,3.5-8.5C283.8,110.8,298.9,107.6,298.9,107.6z M249,120c-10.2,0-18.6-8.3-18.6-18.6
				s8.3-18.6,18.6-18.6c10.2,0,18.6,8.3,18.6,18.6S259.2,120,249,120L249,120z"/>
		</g>
		<path class="st0" d="M563.2,277.5c4.1,1.1,8.6-1,10.5-4.9c1.2-2.3,1.3-4.8,0.6-7.1c-0.5-1.7-0.5-3.5,0.2-5.2l0,0l16.3,6.4
			l6.4-16.2c-1.7-0.7-3.5-0.7-5.2-0.2c-2.2,0.7-4.7,0.5-7-0.6c-3.9-2-6-6.4-4.8-10.5c1.4-5.3,7.2-8.1,12.4-6
			c2.1,0.8,3.7,2.3,4.8,4.1c0.9,1.5,2.2,2.7,3.9,3.4l6.4-16.2l-42.4-16.7l-6.4,16.2c-1.6-0.6-3-1.8-3.9-3.3c-1-1.8-2.7-3.3-4.8-4.1
			c-5.1-2-10.9,0.7-12.4,6c-1.1,4.1,1,8.6,4.8,10.5c2.3,1.2,4.8,1.3,7.1,0.6c1.7-0.5,3.5-0.5,5.2,0.2l-6.4,16.2l16.3,6.4
			c0,0,0,0,0,0c-0.7,1.6-1.8,3-3.3,3.9c-1.8,1-3.3,2.7-4.1,4.8C555.2,270.3,557.9,276.1,563.2,277.5L563.2,277.5z"/>
		<g>
			<g>
				<path class="st1" d="M462.9,571.3c1.1-1.6,2.3-3.2,3.4-4.8c-0.2-0.2-0.4-0.4-0.5-0.6c-6.9-7.7-10.8-20.2-10-30.7
					c0.8-10.6,4.9-21.4,11.8-29.5c0.2-0.2,0.4-0.5,0.6-0.7c0.1,0.2,0.3,0.5,0.4,0.7c10.3,16.8,10.8,39.2,1,56.2
					c4.8-6.3,9.8-12.5,15.1-18.3l0,0c-0.1,0.1-0.2,0.2-0.4,0.3c-0.2-0.3-0.4-0.6-0.6-1c-5.2-8.9-6.5-21.9-3.7-32.1
					c2.9-10.3,9-20,17.5-26.5c0.2-0.2,0.5-0.4,0.7-0.6c0.1,0.2,0.2,0.5,0.3,0.7c6.4,17.6,3.1,38.4-8.3,53.1c1.4-1.5,2.8-2.9,4.2-4.3
					c4.5-4.5,9.2-8.9,14-13.1c-0.1-0.3-0.3-0.6-0.4-0.9c-4.2-9.4-4.2-22.5-0.3-32.3c3.9-9.9,11.1-18.9,20.2-24.5
					c0.3-0.2,0.5-0.3,0.8-0.5c0.1,0.3,0.1,0.5,0.2,0.8c4.5,18.2-1,38.7-14,52c5.7-4.7,11.6-9.1,17.6-13.3c1.5-1,3-2,4.5-3
					c-0.1-0.3-0.2-0.7-0.3-1c-2.9-9.9-1-22.8,4.2-32c5.3-9.3,13.6-17.2,23.4-21.5c0.3-0.1,0.6-0.2,0.8-0.4c0,0.3,0.1,0.5,0.1,0.8
					c2,18.6-6.3,38-21,49.5c6.3-3.9,12.7-7.5,19.3-10.9c4.5-9.3,14.5-17.7,24.5-21.1c10.1-3.4,21.6-3.7,31.7-0.4
					c0.3,0.1,0.6,0.2,0.9,0.3c-0.2,0.2-0.3,0.4-0.5,0.6c-12.5,17.4-35.8,26.6-56.7,21.7c-6.2,3.2-12.2,6.6-18.1,10.2
					c4.9-2.1,10.2-3.5,15.5-4c10.5-1,23.1,2.5,31,9.2c0.3,0.2,0.6,0.5,0.9,0.7c-0.1,0.1-0.2,0.2-0.4,0.3c-17,13.1-42,14.2-60.6,3.4
					c-0.2-0.1-0.4-0.2-0.5-0.3c-8.6,6.1-16.9,12.7-24.8,19.7c7.2-5,15.8-8,24.4-8.9c10.5-1,23.1,2.5,31,9.2c0.3,0.2,0.6,0.5,0.9,0.7
					c-0.1,0.1-0.2,0.2-0.4,0.3c-17,13.1-42,14.2-60.6,3.4c-0.1,0-0.2-0.1-0.3-0.2c-0.6,0.6-1.2,1.1-1.8,1.7
					c-7.3,7-14.2,14.5-20.7,22.3c7.7-6.2,17.5-10.1,27.2-11c10.5-1,23.1,2.5,31,9.2c0.3,0.2,0.6,0.5,0.9,0.7
					c-0.1,0.1-0.2,0.2-0.4,0.3c-17,13.1-42,14.2-60.6,3.4c-0.1,0-0.1-0.1-0.2-0.1c-3.3,4.1-6.5,8.2-9.6,12.5
					c-9.6,13.3-12.6,14.7-19.7,29.5"/>
				<path class="st1" d="M240.2,598.5c-12.8-10.4-24.6-22-35.3-34.6c-1.3-1.5-2.5-3-3.8-4.5c-0.2,0.1-0.5,0.2-0.7,0.4
					c-9.2,4.6-22.3,5.2-32.2,1.7c-10.1-3.5-19.4-10.3-25.4-19.1c-0.2-0.2-0.4-0.5-0.5-0.8c0.2-0.1,0.5-0.2,0.8-0.2
					c18.9-5.6,40.7-0.2,54.6,13.6c-4.9-6.2-9.5-12.7-13.8-19.3l0,0c0.1,0.1,0.1,0.3,0.2,0.4c-0.4,0.1-0.7,0.2-1.1,0.3
					c-10,2.7-22.8,0.7-31.9-4.7c-9.2-5.4-17-13.9-21.1-23.7c-0.1-0.3-0.2-0.6-0.4-0.8c0.3,0,0.5,0,0.8-0.1
					c18.6-1.6,37.9,6.9,49.1,21.8c-1.1-1.7-2.1-3.5-3.1-5.2c-3.2-5.5-6.2-11.2-9-16.9c-0.3,0.1-0.7,0.1-1,0.2
					c-10.2,1.6-22.8-1.8-31.3-8.1c-8.6-6.4-15.4-15.6-18.5-25.9c-0.1-0.3-0.2-0.6-0.3-0.9c0.3,0,0.5,0,0.8,0
					c18.8,0.4,37.1,11,46.6,27c-3-6.7-5.8-13.5-8.3-20.5c-0.6-1.7-1.2-3.4-1.8-5.1c-0.4,0-0.7,0-1.1,0c-10.3,0.2-22.3-4.9-29.8-12.4
					c-7.6-7.5-13.1-17.6-14.7-28.2c-0.1-0.3-0.1-0.6-0.1-0.9c0.3,0,0.5,0.1,0.8,0.1c18.5,3,35.1,16,42.3,33.1
					c-2.1-7.1-4-14.3-5.5-21.5c-7.8-6.8-13.3-18.6-14-29.1c-0.7-10.6,2-21.8,7.8-30.8c0.2-0.3,0.3-0.5,0.5-0.8
					c0.2,0.2,0.3,0.4,0.5,0.6c13.6,16.6,16.5,41.5,6.3,60.4c1.5,6.8,3.2,13.5,5.2,20.1c-0.8-5.3-0.7-10.8,0.2-16
					c1.7-10.4,8.4-21.6,16.9-27.5c0.3-0.2,0.6-0.4,0.9-0.6c0.1,0.1,0.1,0.3,0.2,0.4c8.2,19.8,2.8,44.2-12.4,59.4
					c-0.1,0.1-0.3,0.3-0.4,0.4c3.6,9.9,7.9,19.6,12.6,29c-2.9-8.2-3.6-17.3-2.2-25.8c1.7-10.4,8.4-21.6,16.9-27.5
					c0.3-0.2,0.6-0.4,0.9-0.6c0.1,0.1,0.1,0.3,0.2,0.4c8.2,19.8,2.8,44.2-12.4,59.4c-0.1,0.1-0.1,0.2-0.2,0.2
					c0.4,0.7,0.8,1.5,1.2,2.2c4.9,8.9,10.3,17.5,16.1,25.8c-4-9-5.2-19.5-3.6-29.2c1.7-10.4,8.4-21.6,16.9-27.5
					c0.3-0.2,0.6-0.4,0.9-0.6c0.1,0.1,0.1,0.3,0.2,0.4c8.2,19.8,2.8,44.2-12.4,59.4c-0.1,0-0.1,0.1-0.1,0.2
					c3.1,4.2,6.2,8.4,9.6,12.5c10.4,12.7,21.9,24.5,34.4,35.2c1.6,1.3,3.1,2.7,4.7,4C241.2,598.2,240.7,599,240.2,598.5L240.2,598.5
					z"/>
				<path class="st1" d="M184.4,590L184.4,590c-1.6-5.7-4.3-11.5-9.4-14.5c-0.8-0.5-1.6-0.8-2.5-1c-0.4-0.1-0.7-0.2-1.1-0.2
					c-5.1-0.8-11.5,1.3-13.2,5.7c0-14.7-4.3-29.4-12.1-41.8c-2.4-3.7-5.1-7.3-8.7-9.8c-2.4-1.7-5.3-2.9-8.2-3.1c-0.4,0-0.7,0-1.1,0
					c-1.1,0-2.2,0.1-3.2,0.4c-4.3,1.1-9.4,4.9-9.5,9.3c-1.2-11.8-5.5-23.4-12.4-33c-3-4.2-6.6-8.1-11.1-10.6c-3-1.6-6.4-2.6-9.8-2.5
					c-0.4,0-0.7,0-1.1,0.1c-1.4,0.1-2.7,0.4-4,0.9c-4.8,1.9-8.4,6.4-7.9,11.5c-11.9-17.4-32.5-28.6-53.6-29c-4.2-0.1-8.9,0.6-12,3
					c-0.3,0.2-0.6,0.5-0.8,0.7c-0.7,0.7-1.3,1.5-1.8,2.5c-1.9,4-0.1,9.1,3,12.3c3.2,3.2,7.5,4.9,11.6,6.6
					c12.7,5,25.2,13.2,37.8,18.2c-5.4-0.7-11.2,0.7-15,4.5c-1.2,1.2-2.1,2.5-2.7,4c-0.2,0.3-0.3,0.6-0.4,1c-1.1,3.3-1,7,0.8,9.9
					c2,3.2,5.6,5.1,9.3,5.9c3.7,0.9,7.5,0.8,11.2,1.1c13,0.9,25.4,4.5,36.4,11.6c-4.7,0.1-9.6,0.6-13.7,3c-2.8,1.7-5.2,4.5-6,7.6
					c-0.1,0.3-0.2,0.7-0.2,1c-0.2,1-0.2,2.1,0,3.1c0.8,4.3,4.8,7.5,9,8.9c4.2,1.4,8.7,1.3,13.1,1.7c14.4,1.3,27.5,8,37.8,18"/>
				<g>
					<g>
						<path class="st1" d="M416,521.8c0-0.2,0.1-0.3,0.1-0.5c4-21.1,21.9-38.5,42.9-42.9c0.3,0,0.5-0.1,0.8-0.2
							c0,0.3-0.1,0.6-0.1,0.9c-1.1,10.6-6.1,21-13.4,28.8c-7.2,7.8-18.9,13.5-29.2,13.8C416.7,521.8,416.3,521.8,416,521.8
							L416,521.8z"/>
						<path class="st2" d="M416,521.8c0-0.2,0.1-0.3,0.1-0.5c5.1-4.1,10.1-8.4,15-12.8c10.1-9.3,19.4-19.3,28-30
							c0.3,0,0.5-0.1,0.8-0.2c0,0.3-0.1,0.6-0.1,0.9c-9.8,12.2-20.6,23.6-32.4,34c-3.3,3-6.7,5.8-10.2,8.6
							C416.7,521.8,416.4,521.8,416,521.8L416,521.8z"/>
					</g>
					<g>
						<path class="st1" d="M421.1,504.5c0-0.2,0.1-0.3,0.1-0.5c4.2-21-5.8-43.9-23.7-55.9c-0.2-0.1-0.4-0.3-0.7-0.4
							c-0.1,0.3-0.2,0.6-0.2,0.9c-2.9,10.2-2.2,21.8,1.5,31.7c3.7,9.9,12.5,19.6,21.9,23.7C420.4,504.2,420.7,504.3,421.1,504.5z"/>
						<path class="st2" d="M421.1,504.5c0-0.2,0.1-0.3,0.1-0.5c-3.2-5.7-6.2-11.6-9-17.5c-5.8-12.4-10.7-25.2-14.6-38.4
							c-0.2-0.1-0.4-0.3-0.7-0.4c-0.1,0.3-0.2,0.6-0.2,0.9c4.5,15,10.2,29.6,17.2,43.6c2,4,4,7.9,6.2,11.8
							C420.4,504.2,420.7,504.4,421.1,504.5L421.1,504.5z"/>
					</g>
					<path class="st2" d="M398.3,571c3.3-7.8,6.4-15.7,9.3-23.7c2.9-7.9,5.7-16,8.2-24c2.6-8.1,5-16.2,7.1-24.5s4.2-16.5,6-24.8
						s3.4-16.6,4.9-25c0.2-1.1,0.4-2.1,0.5-3.2c0.1-0.6-0.9-0.9-1-0.2c-1.4,8.3-3,16.6-4.7,24.9c-1.8,8.3-3.7,16.6-5.9,24.8
						c-2.1,8.2-4.5,16.3-7,24.4c-2.5,8.1-5.2,16.2-8.1,24.1c-2.9,8-5.9,15.8-9.2,23.7c-0.4,1-0.8,2-1.2,3
						C397.2,571.2,398.1,571.6,398.3,571L398.3,571z"/>
					<g>
						<path class="st3" d="M431.4,456.5c-5.4-1.9-9.5-6.5-11.5-11.8c-2-5.3-1.8-11.3-0.2-16.7c1.6-5.4,4.6-10.4,8.2-14.8
							c5.5,6.4,8.7,14.7,8.9,23.1c5-8.1,13.6-13.7,23-15c-0.5,8.3-2.1,16.8-6.7,23.7C448.4,451.9,439.3,459.2,431.4,456.5
							L431.4,456.5z"/>
						<path class="st4" d="M413.3,421.6c-2.5,7.6-2.7,16.1,0,23.7c2.8,7.6,8.6,14.1,16.1,17.1s16.5,2.3,23-2.3
							c8.4-5.9,11.7-16.6,14.1-26.6c-7.1,1.3-13.8,4.2-19.5,8.6c1.4-10.4,0.2-21-3.9-30.7c-9.2,5.8-16.2,14.8-19.8,25.1
							C422.2,429.9,418.8,425.4,413.3,421.6L413.3,421.6z"/>
					</g>
				</g>
			</g>
			<g>
				<g>
					<path class="st1" d="M398.5,260.8c0.2,0,0.4,0,0.6,0c0.4,0,0.7,0,1,0c2.9,0.2,5.3,1.3,8.5,1.1c9.1-14.8,19.1-30.4,34.9-37.7
						c3.7-1.7,7.6-2.9,10.9-5.2c3.3-2.3,6-6.1,5.6-10.1c-0.2-1.8-0.9-3.3-2.1-4.6c-0.2-0.3-0.5-0.6-0.8-0.8
						c-1.8-1.7-4.2-2.9-6.7-3.3c-4.6-0.8-9.2,0.5-13.7,1.7c7.3-12.4,18.1-22.4,31.6-27.5c4.1-1.6,8.5-2.8,12.2-5.2
						c3.7-2.4,6.7-6.6,6.3-11c-0.1-1.1-0.4-2.1-0.8-3c-0.1-0.3-0.3-0.6-0.5-0.9c-1.6-2.8-4.7-4.8-7.9-5.7c-4.6-1.2-9.4-0.4-14,0.8
						c8.6-9.7,19.6-16.6,31.9-21c3.5-1.3,7.2-2.3,10.5-4.1s6.2-4.6,7.3-8.2c1-3.3,0.1-6.9-1.9-9.7c-0.2-0.3-0.4-0.6-0.6-0.8
						c-1-1.3-2.3-2.3-3.7-3.1c-4.7-2.6-10.7-2.4-15.7-0.2c10.8-8.3,20.7-19.5,31.5-27.8c3.6-2.7,7.2-5.6,9.4-9.5s2.5-9.2-0.4-12.6
						c-0.7-0.8-1.5-1.4-2.4-1.9c-0.3-0.2-0.7-0.3-1-0.5c-3.7-1.5-8.4-0.9-12.4,0.3c-20.2,6.1-37,22.4-43.8,42.4
						c-0.9-5.1-5.5-8.5-10.7-9c-1.4-0.1-2.8-0.1-4.1,0.2c-0.4,0.1-0.7,0.1-1.1,0.2c-3.3,0.8-6.3,2.7-8.7,5.1
						c-3.7,3.6-6.1,8.4-7.8,13.2c-4.1,11.2-5.1,23.4-3,35.2c-1.3-4.2-7.3-6.5-11.7-6.4c-1.1,0-2.2,0.2-3.2,0.5
						c-0.4,0.1-0.7,0.2-1,0.3c-2.7,1.1-5.2,2.9-7,5.2c-2.8,3.4-4.5,7.6-5.7,11.8c-4.2,14.1-4.3,29.4-0.4,43.6
						c-2.9-3.7-9.6-4-14.3-1.9c-0.3,0.1-0.6,0.3-1,0.5c-0.8,0.5-1.5,1-2.1,1.7c-4.1,4.3-5.1,10.6-5.1,16.6
						C385.3,227.2,391.9,244.3,398.5,260.8L398.5,260.8z"/>
					<path class="st2" d="M399.1,260.8c0.4,0,0.7,0,1,0c2.5-12.9,5.8-25.6,9.8-38.1c3.9-2.1,7.9-4,11.9-5.8
						c11.6-5.2,23.7-9.5,36-12.7c-0.2-0.3-0.5-0.6-0.8-0.8c-1.1,0.3-2.3,0.6-3.4,0.9c-15,4.2-29.5,9.9-43.3,17.1c0,0,0,0,0,0
						c5.3-16.5,11.9-32.6,19.6-48.1c0.1,0.1,0.3,0.2,0.5,0.1c4.4-2,8.9-3.9,13.4-5.7c8-3.1,16.1-5.9,24.3-8.2
						c5.9-1.6,11.9-3.1,17.9-4.3c-0.1-0.3-0.3-0.6-0.5-0.9c-2.2,0.4-4.3,0.9-6.5,1.4c-8.4,1.9-16.7,4.3-24.9,7.1
						c-8.1,2.8-16,6-23.7,9.5c0.3-0.6,0.5-1.1,0.8-1.7c8.2-16.3,17.7-32,28.3-46.9c0.7-1,1.4-2,2.1-3c0,0,0.1,0,0.1,0
						c4.3-0.9,8.5-1.8,12.7-2.8c12.5-3.1,24.9-6.9,37-11.5c-0.2-0.3-0.4-0.6-0.6-0.8c-1.8,0.7-3.5,1.3-5.3,2c-14,5-28.4,9.1-43,12.1
						c9.8-13.3,20.5-26,32-37.8c11-11.3,22.7-21.8,35.1-31.4c-0.3-0.2-0.7-0.3-1-0.5c-14,10.9-27.1,22.9-39.2,35.8
						c-11.6,12.3-22.2,25.4-31.9,39.2c-0.6-3.3-1.1-6.7-1.4-10c-1-10.4-0.4-20.8,1.6-31c-0.4,0.1-0.7,0.1-1.1,0.2
						c-0.2,1.3-0.5,2.6-0.7,3.9c-2,12.5-1.7,25.3,0.7,37.7c0,0.1,0.1,0.2,0.1,0.2c-0.6,0.8-1.2,1.7-1.7,2.5
						c-10.4,15.1-19.6,31.1-27.6,47.7c-0.2,0.4-0.3,0.7-0.5,1.1c-1-3.6-1.8-7.2-2.5-10.8c-2.1-11.4-3-23.1-2.4-34.7
						c-0.4,0.1-0.7,0.2-1,0.3c-0.1,1.4-0.1,2.8-0.1,4.2c-0.2,14.2,1.5,28.4,5.3,42.1c0,0.1,0.1,0.2,0.1,0.2
						c-6.7,14.1-12.4,28.7-17.2,43.6c-0.2,0.1-0.3,0.4-0.2,0.6c-0.5,1.5-0.9,3-1.4,4.5c-0.8,2.7-1.6,5.5-2.4,8.2
						c-1.6-3.6-3.1-7.3-4.4-11.1c-3.7-10.8-6.1-22-7.2-33.4c-0.3,0.1-0.6,0.3-1,0.5c0,0.5,0.1,0.9,0.1,1.4
						c1.6,15,5.5,29.8,11.7,43.6c0.1,0.1,0.2,0.2,0.3,0.3C402.6,244.5,400.7,252.6,399.1,260.8L399.1,260.8z"/>
				</g>
				<g>
					<path class="st1" d="M265.4,354.9c-0.1-0.2-0.2-0.4-0.3-0.5c-0.1-0.3-0.3-0.6-0.4-0.9c-1-2.8-0.9-5.4-2.4-8.2
						c-17.2-2.4-35.5-5.3-48.6-16.8c-3-2.7-5.7-5.8-9.2-7.9c-3.4-2.1-8-3-11.5-1c-1.5,0.9-2.7,2.2-3.4,3.8c-0.2,0.3-0.3,0.7-0.4,1
						c-0.8,2.3-0.9,5-0.3,7.4c1.1,4.5,4.1,8.2,7,11.9c-14.3-1.7-27.8-7.6-37.9-17.9c-3.1-3.1-6-6.7-9.7-9.1
						c-3.7-2.4-8.7-3.5-12.6-1.4c-0.9,0.5-1.7,1.2-2.4,2c-0.2,0.3-0.4,0.5-0.6,0.8c-1.9,2.6-2.5,6.2-2,9.5c0.8,4.6,3.4,8.7,6.4,12.4
						c-12.4-4-23.1-11.3-32-20.8c-2.6-2.7-5-5.7-8-8c-3-2.3-6.7-3.9-10.5-3.4c-3.4,0.4-6.3,2.7-8.2,5.6c-0.2,0.3-0.3,0.6-0.5,0.9
						c-0.8,1.5-1.2,3-1.4,4.6c-0.5,5.4,2.1,10.8,6.1,14.5c-11.9-6.6-26.2-11.1-38.1-17.7c-3.9-2.2-8-4.4-12.5-4.8s-9.5,1.4-11.4,5.5
						c-0.5,1-0.7,1.9-0.8,2.9c0,0.4,0,0.8,0,1.1c0.1,4,2.6,8,5.3,11.2c13.7,16,35.4,24.9,56.4,23c-4.3,2.8-5.5,8.5-3.9,13.4
						c0.4,1.3,1.1,2.6,1.8,3.7c0.2,0.3,0.4,0.6,0.7,0.9c2.1,2.6,5,4.7,8.2,6c4.8,1.9,10.1,2.2,15.2,1.9c11.9-0.8,23.5-4.7,33.4-11.4
						c-3.4,2.9-3.1,9.3-1.2,13.3c0.5,1,1.1,1.9,1.8,2.7c0.2,0.3,0.5,0.5,0.7,0.8c2.1,2.1,4.8,3.6,7.6,4.4c4.2,1.2,8.8,1,13.1,0.5
						c14.6-1.8,28.6-7.9,40-17.2c-2.3,4.1,0.2,10.4,4,13.8c0.3,0.2,0.6,0.5,0.8,0.7c0.8,0.6,1.6,1,2.4,1.3c5.6,2,11.8,0.4,17.2-2
						C240,380.5,252.9,367.5,265.4,354.9L265.4,354.9z"/>
					<path class="st2" d="M265.1,354.4c-0.1-0.3-0.3-0.6-0.4-0.9c-12.8,2.9-25.8,5-38.9,6.4c-3.4-2.8-6.8-5.6-10.1-8.6
						c-9.5-8.5-18.2-17.9-26.1-27.9c-0.2,0.3-0.3,0.7-0.4,1c0.7,0.9,1.5,1.9,2.2,2.8c9.8,12,20.9,23,33,32.8c0,0,0,0,0,0
						c-17.2,1.8-34.6,2.2-51.9,1.4c0.1-0.1,0.1-0.3-0.1-0.5c-3.6-3.2-7.2-6.5-10.6-9.9c-6.1-6-11.9-12.4-17.3-19
						c-3.9-4.8-7.6-9.6-11.1-14.6c-0.2,0.3-0.4,0.5-0.6,0.8c1.3,1.8,2.6,3.6,3.9,5.4c5.2,6.9,10.7,13.6,16.5,20
						c5.8,6.3,11.9,12.2,18.3,17.9c-0.6,0-1.3,0-1.9-0.1c-18.2-1-36.4-3.3-54.3-7.1c-1.2-0.2-2.4-0.5-3.6-0.8c0,0,0-0.1,0-0.1
						c-2.5-3.6-5.1-7.1-7.7-10.5c-7.9-10.3-16.3-20-25.4-29.2c-0.2,0.3-0.3,0.6-0.5,0.9c1.3,1.4,2.7,2.7,3.9,4.1
						c10.3,10.8,19.7,22.4,28.3,34.6c-16.1-3.6-32-8.3-47.4-14.1c-14.7-5.5-29-12.1-42.9-19.5c0,0.4,0,0.8,0,1.1
						c15.6,8.4,31.8,15.6,48.5,21.5c15.9,5.6,32.2,10.1,48.8,13.5c-2.8,1.9-5.7,3.7-8.6,5.3c-9.1,5-18.9,8.8-29,11
						c0.2,0.3,0.4,0.6,0.7,0.9c1.3-0.3,2.6-0.6,3.8-0.9c12.2-3.2,23.9-8.6,34.3-15.8c0.1-0.1,0.1-0.1,0.2-0.2c1,0.2,2,0.4,3,0.6
						c18,3.4,36.3,5.5,54.7,6.1c0.4,0,0.8,0,1.2,0c-2.9,2.3-5.9,4.5-8.9,6.6c-9.6,6.5-19.9,12-30.8,16.1c0.2,0.3,0.5,0.5,0.7,0.8
						c1.3-0.5,2.6-1,3.9-1.5c13.1-5.5,25.4-12.8,36.4-21.7c0.1-0.1,0.1-0.1,0.1-0.2c15.6,0.4,31.2-0.1,46.8-1.8
						c0.2,0.2,0.4,0.1,0.6-0.1c1.5-0.2,3.1-0.3,4.6-0.5c2.8-0.3,5.6-0.7,8.5-1.1c-2.7,2.9-5.5,5.8-8.4,8.5
						c-8.4,7.7-17.7,14.5-27.7,20c0.3,0.2,0.6,0.5,0.8,0.7c0.4-0.2,0.8-0.5,1.2-0.7c13.1-7.5,25.1-17,35.2-28.2
						c0.1-0.1,0.1-0.2,0.1-0.4C248.9,357.7,257,356.2,265.1,354.4L265.1,354.4z"/>
				</g>
				<g>
					<g>
						<path class="st1" d="M184.8,160.9c-0.1-0.1-0.2-0.3-0.2-0.4c-11.3-18.2-10-43.2,2.5-60.6c0.1-0.2,0.3-0.4,0.5-0.6
							c0.2,0.2,0.4,0.5,0.5,0.7c6.4,8.6,9.7,19.6,9.7,30.2c0,10.6-4.8,22.7-12.2,29.9C185.4,160.4,185.1,160.6,184.8,160.9
							L184.8,160.9z"/>
						<path class="st2" d="M184.8,160.9c-0.1-0.1-0.2-0.3-0.2-0.4c1-6.5,1.8-13,2.3-19.6c1.1-13.7,1.2-27.4,0.2-41.1
							c0.1-0.2,0.3-0.4,0.5-0.6c0.2,0.2,0.4,0.5,0.5,0.7c1.1,15.6,0.8,31.3-0.8,46.9c-0.5,4.4-1,8.8-1.7,13.2
							C185.4,160.4,185.1,160.6,184.8,160.9L184.8,160.9z"/>
					</g>
					<g>
						<path class="st1" d="M176.8,144.7c-0.1-0.1-0.2-0.3-0.2-0.4c-11.1-18.3-34-28.4-55.2-25.1c-0.3,0-0.5,0.1-0.8,0.1
							c0.1,0.3,0.3,0.5,0.4,0.8c4.8,9.5,13.1,17.5,22.6,22.3c9.4,4.8,22.4,6,32.2,2.6C176.1,144.9,176.5,144.8,176.8,144.7
							L176.8,144.7z"/>
						<path class="st2" d="M176.8,144.7c-0.1-0.1-0.2-0.3-0.2-0.4c-6.2-2-12.4-4.3-18.5-6.8c-12.7-5.2-25-11.3-36.7-18.3
							c-0.3,0-0.5,0.1-0.8,0.1c0.1,0.3,0.3,0.5,0.4,0.8c13.4,8,27.6,14.8,42.2,20.5c4.1,1.6,8.4,3.1,12.6,4.5
							C176.1,144.9,176.5,144.8,176.8,144.7L176.8,144.7z"/>
					</g>
					<path class="st2" d="M205.2,209c-2.9-8-5.9-15.9-9.2-23.8c-3.2-7.8-6.6-15.6-10.2-23.2c-3.6-7.7-7.4-15.3-11.3-22.8
						s-8.1-14.9-12.3-22.3s-8.7-14.6-13.4-21.7c-0.6-0.9-1.2-1.8-1.8-2.7c-0.4-0.5-1.2,0-0.9,0.5c4.6,7.1,9.1,14.2,13.4,21.5
						c4.3,7.3,8.5,14.7,12.5,22.2c4,7.5,7.8,15,11.4,22.6c3.6,7.7,7.1,15.4,10.4,23.2c3.3,7.8,6.4,15.7,9.3,23.6c0.4,1,0.7,2,1.1,3
						C204.4,209.9,205.4,209.6,205.2,209L205.2,209z"/>
					<g>
						<path class="st3" d="M151.9,102.3c-5.2,2.2-11.4,1.7-16.4-0.9s-9-7.1-11.5-12.1s-3.6-10.8-4-16.4c8.3,1,16.3,4.9,22.2,10.9
							c-1.8-9.3,0.7-19.2,6.8-26.6c5.3,6.5,9.8,13.7,11.1,22C161.3,87.5,159.6,99,151.9,102.3L151.9,102.3z"/>
						<path class="st4" d="M114.9,89c3.3,7.3,8.9,13.7,16.1,17.4c7.2,3.7,15.9,4.5,23.4,1.7s13.7-9.4,15.4-17.3
							c2.2-10-2.6-20.2-7.6-29.1c-4.3,5.8-7.3,12.5-8.5,19.6c-6-8.6-14.1-15.6-23.7-20c-2.8,10.5-1.9,21.9,2.4,31.8
							C127.2,89.1,121.6,88.1,114.9,89z"/>
					</g>
				</g>
				<g>
					<path class="st1" d="M176.3,258.9c1.9,10.6,7.8,20.2,15.4,28c4.3,4.5,9.2,8.4,12.8,13.5c3.6,5.1,5.6,11.8,3.3,17.6
						c-0.9,2.4-2.6,4.4-4.7,5.9c-0.4,0.3-0.8,0.6-1.2,0.8c-3.4,2.1-7.6,3-11.5,2.6c-7.1-0.8-13.3-5-18.2-10.1
						c-8.1-8.6-13.6-20.2-23.9-25.9c-0.3-0.2-0.6-0.3-1-0.5c-0.6-0.3-1.2-0.6-1.8-0.8c-7.2-3-15.3-3-22.9-4.8
						c-15.8-3.7-29.3-15.6-35.4-30.6c-0.2-0.5-0.4-1-0.6-1.5c-0.5-1.3-0.9-2.7-1.3-4.1c-1.3-4.7-1.9-9.8-4.7-13.8
						c-4-5.7-11.3-7.9-17.8-10.4c-6.5-2.6-12.8-6.2-18.4-10.7c-0.7-0.6-1.4-1.2-2.1-1.8c-8.6-7.7-15-17.7-16.2-29.6
						c-0.4-3.4-0.2-6.8,0.4-10.1c0.1-0.5,0.2-1,0.3-1.5c2.2-9.9,8.4-18.8,16.3-25.6c0.4-0.3,0.8-0.6,1.2-1c4.4-3.6,9.4-6.4,14.5-8.4
						c7.5-2.8,16.2-3.9,24.7-3c0.5,0,1,0.1,1.5,0.2c16.2,2,31.5,10.9,36.3,27.1c0.5,1.6,0.8,3.3,1.2,4.9c0.8,4.1,1.2,8.3,2.1,12.3
						c0,0,0,0,0,0c0.7,2.9,1.7,5.7,3.3,8.2c6.5,10,20.2,11.8,31,17.1c0.5,0.2,1,0.5,1.5,0.8c2.8,1.6,5.5,3.4,7.6,5.8
						c5.7,6.3,7.4,15.4,7.6,23.9C175.7,241.9,174.7,250.5,176.3,258.9L176.3,258.9z"/>
					<path class="st2" d="M154,261.5c0,0.1-0.1,0.1-0.1,0.2c9.8,11.8,19.4,23.6,28.9,35.7c6.9,8.8,13.6,17.6,20.2,26.5
						c3.7,5,7.4,10,11.1,15.1c0.6,0.8-0.7,1.5-1.3,0.7c-1.3-1.8-2.6-3.5-3.9-5.3c-2.4-3.2-4.7-6.5-7.1-9.7
						c-8-10.8-16.2-21.5-24.6-32.1c-1.6-2-3.2-4-4.7-5.9c-0.1,0.1-0.2,0.2-0.4,0.3c-4.6,1.3-9.3,2.3-14.1,3
						c-3.3,0.5-6.6,0.9-9.9,1.1c-0.3-0.2-0.6-0.3-1-0.5c-0.6-0.3-1.2-0.6-1.8-0.8c8.9-0.5,17.7-1.9,26.3-4.3
						c-9-11.3-18.2-22.5-27.6-33.5c-1.5-1.8-3-3.5-4.5-5.3c0,0.3-0.1,0.7-0.5,0.8c-5.2,1.6-10.6,2.9-15.9,3.9
						c-11.8,2.3-23.9,3.2-36,2.9c-0.2-0.5-0.4-1-0.6-1.5c17.6,0.6,35.2-1.7,52.1-6.8c0.1,0,0.2,0,0.3,0
						c-9.6-11.2-19.4-22.2-29.4-33.1c-1-1.1-2-2.2-3-3.2c-0.1,0.2-0.2,0.4-0.5,0.4c-5.6,1.3-11.3,2.4-17,3.2
						c-14.8,2-29.8,2.1-44.7,0.4c-0.7-0.6-1.4-1.2-2.1-1.8c0.9,0.1,1.8,0.2,2.7,0.4c20.2,2.3,40.8,1.1,60.6-3.6
						c-10.6-11.4-21.3-22.6-32.2-33.7c-1.4-1.4-2.9-2.9-4.3-4.3c-0.1,0-0.1,0.1-0.2,0.1c-4.1,0.6-8.2,1-12.3,1.4
						c-10,0.8-20.1,0.9-30.1,0.2c0.1-0.5,0.2-1,0.3-1.5c13.7,0.9,27.4,0.4,41-1.4c-8.1-8.1-16.4-16.2-24.7-24.2
						c0.4-0.3,0.8-0.6,1.2-1c11.9,11.3,23.5,22.8,35,34.5c2.2,2.3,4.5,4.6,6.7,6.9c-0.1-4.9-0.2-9.9-0.3-14.9
						c-0.4-12.7-1.1-25.4-2.2-38.1c0.5,0,1,0.1,1.5,0.2c1.5,17.9,2.3,35.8,2.5,53.8c0,0.1,0,0.3-0.1,0.4
						c9.4,9.8,18.7,19.7,27.8,29.7c2.2,2.4,4.3,4.8,6.5,7.2c0.6-6,1-12.1,1.3-18.1c0.6-13.6,0.5-27.4-0.4-41
						c0.8,4.1,1.2,8.3,2.1,12.3c0,0,0,0,0,0c0.5,15.7,0,31.5-1.5,47.2c0,0.3-0.2,0.6-0.5,0.7c9.2,10.3,18.3,20.8,27.2,31.4
						c1,1.2,2,2.4,3,3.5c1.3-5.9,2.4-11.7,3.3-17.7c1.6-11,2.6-22.1,2.8-33.3c0-2.2,0.1-4.4,0-6.5c0.5,0.2,1,0.5,1.5,0.8
						c0,8.3-0.4,16.6-1.1,24.8C158.2,239.6,156.5,250.6,154,261.5L154,261.5z"/>
				</g>
				<g>
					<path class="st1" d="M390.3,336.4c-10.7-1.2-21.6,1.7-31.2,6.6c-5.5,2.9-10.7,6.4-16.6,8.3c-5.9,1.9-12.9,1.9-17.8-2
						c-2-1.6-3.5-3.8-4.3-6.2c-0.2-0.5-0.3-0.9-0.5-1.4c-1-3.8-0.7-8.1,0.9-11.8c2.8-6.5,8.6-11.3,15-14.5
						c10.6-5.3,23.3-7.2,31.7-15.4c0.2-0.3,0.5-0.5,0.8-0.8c0.5-0.5,0.9-1,1.3-1.5c4.9-6,7.3-13.8,11.2-20.6
						c8.1-14,23.4-23.6,39.5-25c0.5-0.1,1.1-0.1,1.6-0.1c1.4-0.1,2.9-0.1,4.3-0.1c4.9,0.2,9.9,1,14.6-0.5c6.6-2.2,10.8-8.6,15.1-14
						c4.4-5.5,9.6-10.5,15.6-14.5c0.7-0.5,1.5-1,2.3-1.5c9.9-6.1,21.3-9.2,33-6.9c3.4,0.6,6.6,1.8,9.6,3.3c0.5,0.2,0.9,0.5,1.3,0.7
						c8.8,5,15.6,13.5,19.8,23c0.2,0.5,0.4,0.9,0.6,1.4c2.1,5.3,3.5,10.9,3.8,16.3c0.6,8-1,16.6-4.2,24.5c-0.2,0.5-0.4,0.9-0.6,1.4
						c-6.6,14.9-19.5,27-36.4,27c-1.7,0-3.4-0.1-5.1-0.3c-4.1-0.5-8.3-1.3-12.4-1.5c0,0,0,0,0,0c-3-0.2-5.9,0-8.8,0.8
						c-11.5,3.4-17.1,15.9-25.3,24.7c-0.4,0.4-0.8,0.8-1.2,1.2c-2.3,2.3-4.8,4.2-7.7,5.6c-7.7,3.7-16.9,2.6-25.1,0.3
						C406.8,340.8,398.8,337.4,390.3,336.4L390.3,336.4z"/>
					<path class="st2" d="M394.3,314.4c-0.1,0-0.1-0.1-0.2-0.1c-14.1,6-28.3,11.8-42.5,17.3c-10.4,4-20.8,7.9-31.2,11.7
						c-5.9,2.1-11.8,4.2-17.6,6.3c-0.9,0.3-1.2-1.1-0.3-1.5c2.1-0.7,4.1-1.4,6.2-2.2c3.8-1.3,7.6-2.7,11.3-4
						c12.7-4.6,25.3-9.3,37.8-14.3c2.4-0.9,4.7-1.9,7-2.8c-0.1-0.1-0.2-0.3-0.2-0.5c0.1-4.8,0.5-9.6,1.1-14.3c0.5-3.3,1-6.6,1.8-9.8
						c0.2-0.3,0.5-0.5,0.8-0.8c0.5-0.5,0.9-1,1.3-1.5c-2.1,8.6-3.3,17.5-3.5,26.4c13.4-5.4,26.8-11,40-16.8c2.1-0.9,4.2-1.9,6.3-2.8
						c-0.3-0.1-0.6-0.3-0.6-0.7c0-5.5,0.3-10.9,0.9-16.4c1.2-12,3.8-23.9,7.6-35.3c0.5-0.1,1.1-0.1,1.6-0.1
						c-5.6,16.7-8.5,34.2-8.6,51.9c0,0.1,0,0.2-0.1,0.3c13.5-6,26.9-12.2,40.2-18.6c1.3-0.6,2.6-1.3,4-1.9c-0.2-0.1-0.3-0.3-0.3-0.6
						c0.4-5.8,1-11.5,1.9-17.2c2.4-14.8,6.6-29.2,12.5-42.9c0.7-0.5,1.5-1,2.3-1.5c-0.4,0.8-0.8,1.6-1.1,2.5
						c-8,18.7-12.8,38.8-14,59.1c14-6.8,27.8-13.8,41.6-21.1c1.8-0.9,3.6-1.9,5.4-2.9c0-0.1,0-0.1,0-0.2c0.6-4.1,1.4-8.1,2.2-12.1
						c2.1-9.8,5-19.5,8.5-28.9c0.5,0.2,0.9,0.5,1.3,0.7c-4.8,12.8-8.4,26.1-10.5,39.7c10.2-5.4,20.3-11,30.3-16.7
						c0.2,0.5,0.4,0.9,0.6,1.4c-14.3,8.1-28.6,15.9-43.2,23.5c-2.9,1.5-5.7,3-8.6,4.5c4.8,1.4,9.5,2.7,14.3,4
						c12.3,3.3,24.7,6.2,37.1,8.9c-0.2,0.5-0.4,0.9-0.6,1.4c-17.6-3.8-35-8.1-52.3-13.1c-0.1,0-0.3-0.1-0.4-0.2
						c-12.1,6.2-24.2,12.2-36.5,18c-2.9,1.4-5.9,2.8-8.8,4.1c5.6,2.3,11.3,4.4,17,6.5c12.9,4.5,26,8.4,39.4,11.4
						c-4.1-0.5-8.3-1.3-12.4-1.5c0,0,0,0,0,0c-15.2-4.1-30.2-9.1-44.8-15c-0.3-0.1-0.5-0.4-0.5-0.7c-12.5,5.9-25.2,11.5-37.9,17
						c-1.4,0.6-2.8,1.2-4.2,1.8c5.2,2.9,10.5,5.7,16,8.2c10.1,4.8,20.5,8.9,31,12.3c2.1,0.7,4.1,1.3,6.2,1.9
						c-0.4,0.4-0.8,0.8-1.2,1.2c-7.9-2.4-15.8-5.1-23.5-8.2C414,324.7,404,319.8,394.3,314.4L394.3,314.4z"/>
				</g>
			</g>
			<g>
				<g>
					<g>
						<path class="st5" d="M509.1,599.9H111.4c34.7-50.7,88.3-87.4,150.6-100.1v-57.9h96.4v57.9
							C420.8,512.5,474.4,549.2,509.1,599.9L509.1,599.9z"/>
						<path class="st6" d="M358.4,451.2v40.1c-67.8,9.8-86-24.4-86-24.4L358.4,451.2z"/>
					</g>
					<g>
						<path class="st0" d="M509.1,599.9H111.4c25.8-37.7,62-67.6,104.5-85.7c5.3-2.3,10.6-4.3,16.1-6.2c8.1,4.2,16.5,7.7,25.1,10.7
							c45.8,15.5,95.8,12.1,138.9-7.9c5.2,2,10.4,4.2,15.4,6.5C451,535.6,484.7,564.3,509.1,599.9L509.1,599.9z"/>
						<path class="st7" d="M411.5,517.4c-0.2,0.2-0.6,0.4-0.9,0.6c-60.7,40.2-136.3,37.4-194.7-3.7c5.3-2.3,10.6-4.3,16.1-6.2
							c8.1,4.2,16.5,7.7,25.1,10.7c45.8,15.5,95.8,12.1,138.9-7.9C401.3,512.8,406.4,515,411.5,517.4L411.5,517.4z"/>
					</g>
				</g>
				<g>
					<g>
						<g>
							<g>
								<path class="st8" d="M420.4,241.7H307c-5.2-13.6-5.1-31.4,1.4-44.5c-2.3-3-4.1-6.5-5.2-10.1c-1-3.2-1.5-6.7-1.5-10.1
									c0.1-7.2,3-14.2,7.6-19.8c-3-6.9-1.5-15.1,2.7-21.4c0.1-0.2,0.3-0.5,0.5-0.7c6.6-2.8,14.5-2.1,20.5,1.7
									c5.7,3.6,9.6,10,10.2,16.8c0,0.3,0.1,0.6,0.1,1c0.5-0.2,0.9-0.4,1.4-0.6c6.1-2.4,14.3-3.5,21.4-0.9
									c6.5,2.4,11.1,8.8,12.4,15.6c0,0.2,0.1,0.4,0.1,0.6c1.1-0.4,2.1-0.6,3.2-0.9c8.1-1.6,17.2,0.5,23.7,5.5
									c7.1,5.5,11.3,14.6,11,23.6c0,0.3,0,0.6,0,0.9c0.4,0.3,0.8,0.5,1.2,0.8c0,0,0,0,0.1,0c2,1.4,3.8,3.1,5.3,5.1
									c3.4,4.3,5.6,9.6,6.1,14.9C429.7,227.5,426.5,236.1,420.4,241.7L420.4,241.7z"/>
								<g>
									<path class="st9" d="M335.7,167.6c-0.7,2.3-1.2,4.7-1.3,7.1c0,0.8-1.3,0.8-1.3,0c0.4-8,4-15.6,9.8-21.1
										c0,0.3,0.1,0.6,0.1,1c0.5-0.2,0.9-0.4,1.4-0.6C340.4,157.6,337.4,162.4,335.7,167.6L335.7,167.6z"/>
									<path class="st9" d="M369.3,185.8c0,0.8-1.3,0.8-1.3,0c0.4-5.4,2.7-10.5,6.6-14.2c1.1-1.1,2.4-2,3.7-2.8
										c0,0.2,0.1,0.4,0.1,0.6c1.1-0.4,2.1-0.6,3.2-0.9c-2.3,0.9-4.4,2.3-6.2,4C371.8,175.9,369.6,180.7,369.3,185.8z"/>
									<path class="st9" d="M395,197.6c6.9-2.1,14.3-2.1,21.2-0.1c0,0.3,0,0.6,0,0.9c0.4,0.3,0.8,0.5,1.2,0.8
										c-7.1-2.4-14.9-2.6-22-0.4C394.6,199.1,394.3,197.9,395,197.6L395,197.6z"/>
									<path class="st9" d="M313,188.4c0.8-1.4,2-2.7,3.6-3.3c1.9-0.7,4-0.4,5.8,0.2c2,0.7,4,1.6,6.1,2.1c2.1,0.5,4.3,0.6,6.5,0.5
										c4.1-0.2,8.1-1.6,11.5-3.9c3.5-2.4,6.4-5.7,8.2-9.6c0.4-0.7,1.4-0.1,1.1,0.6c-2.5,5.4-7,9.8-12.5,12.1
										c11.8,3,24.1,5.9,36.3,3.5c3.4-0.7,6.7-1.8,9.7-3.3c0.7-0.4,1.4,0.7,0.6,1.1c-11.6,5.9-25,4.9-37.3,2.3
										c-3.8-0.8-7.6-1.8-11.4-2.8c0,0,0,0,0,0c-0.5,0.2-1.1,0.3-1.6,0.5c-3.9,1-8,1-12,0c-2-0.5-4-1.4-6-2.1
										c-1.9-0.6-4-0.8-5.7,0.5c-4,2.8-2.8,8.3-0.8,12c0.4,0.7-0.7,1.4-1.1,0.6C312.2,196.1,311.1,191.9,313,188.4L313,188.4z"/>
								</g>
							</g>
							<g>
								<path class="st8" d="M320.5,187.6c-1.1,3.4-2.9,6.7-5.1,9.6c6.5,13.1,6.6,30.9,1.4,44.5H203.4c-2.6-2.4-4.6-5.3-6.1-8.4
									c-2-4.4-2.9-9.3-2.4-14.1c0.8-7.8,5-15.5,11.4-20c0,0,0,0,0.1,0c0.3-0.2,0.6-0.4,0.9-0.6c0.1-0.1,0.2-0.2,0.4-0.2
									c0-0.3,0-0.6-0.1-0.9c-0.4-9,3.8-18.1,10.9-23.6c6.5-5,15.6-7.1,23.7-5.5c1.1,0.2,2.2,0.5,3.2,0.9c0-0.2,0.1-0.4,0.1-0.6
									c1.3-6.8,5.9-13.2,12.4-15.6c7.1-2.6,15.2-1.5,21.4,0.9c0.5,0.2,1,0.4,1.4,0.6c0-0.3,0-0.6,0.1-1
									c0.6-6.8,4.4-13.2,10.2-16.8c6-3.8,13.9-4.5,20.5-1.7c0.2,0.2,0.3,0.5,0.5,0.7c4.2,6.4,5.7,14.5,2.7,21.4
									c4.6,5.6,7.4,12.6,7.6,19.8C322.2,180.6,321.6,184.2,320.5,187.6L320.5,187.6z"/>
								<g>
									<path class="st9" d="M288.1,167.6c0.7,2.3,1.2,4.7,1.3,7.1c0,0.8,1.3,0.8,1.3,0c-0.4-8-4-15.6-9.8-21.1
										c0,0.3-0.1,0.6-0.1,1c-0.5-0.2-0.9-0.4-1.4-0.6C283.3,157.6,286.4,162.4,288.1,167.6L288.1,167.6z"/>
									<path class="st9" d="M254.5,185.8c0.1,0.8,1.3,0.8,1.3,0c-0.4-5.4-2.7-10.5-6.6-14.2c-1.1-1.1-2.4-2-3.7-2.8
										c0,0.2-0.1,0.4-0.1,0.6c-1.1-0.4-2.1-0.6-3.2-0.9c2.3,0.9,4.4,2.3,6.2,4C251.9,175.9,254.2,180.7,254.5,185.8L254.5,185.8z
										"/>
									<path class="st9" d="M228.7,197.6c-6.9-2.1-14.3-2.1-21.2-0.1c0,0.3,0,0.6,0.1,0.9c-0.4,0.3-0.8,0.5-1.2,0.8
										c7.1-2.4,14.9-2.6,22.1-0.4C229.2,199.1,229.5,197.9,228.7,197.6L228.7,197.6z"/>
									<path class="st9" d="M310.8,188.4c-0.8-1.4-2-2.7-3.6-3.3c-1.9-0.7-4-0.4-5.8,0.2c-2,0.7-4,1.6-6.1,2.1
										c-2.1,0.5-4.3,0.6-6.5,0.5c-4.1-0.2-8.1-1.6-11.5-3.9c-3.5-2.4-6.4-5.7-8.2-9.6c-0.4-0.7-1.4-0.1-1.1,0.6
										c2.5,5.4,7,9.8,12.5,12.1c-11.8,3-24.1,5.9-36.3,3.5c-3.4-0.7-6.7-1.8-9.7-3.3c-0.7-0.4-1.4,0.7-0.6,1.1
										c11.6,5.9,25,4.9,37.3,2.3c3.8-0.8,7.6-1.8,11.4-2.8c0,0,0,0,0,0c0.5,0.2,1.1,0.3,1.6,0.5c3.9,1,8,1,12,0
										c2-0.5,4-1.4,6-2.1c1.9-0.6,4-0.8,5.7,0.5c4,2.8,2.8,8.3,0.8,12c-0.4,0.7,0.7,1.4,1.1,0.6
										C311.6,196.1,312.7,191.9,310.8,188.4L310.8,188.4z"/>
								</g>
								<path class="st9" d="M319.8,165.4c-1.1-2.8-2.5-5.5-4.4-8c0.1-0.1,0.2-0.2,0.2-0.3c2-6.9,0.9-14.4-2.8-20.5
									c-0.4-0.7-1.5-0.1-1.1,0.6c3.6,5.8,4.6,13,2.7,19.5c0,0.1,0,0.2,0,0.3c-0.3,0.1-0.5,0.5-0.2,0.8c6.4,8.6,8.3,20.1,5.4,30.4
									c-0.8,2.9-2,5.6-3.6,8.2c-0.4,0.7,0.7,1.3,1.1,0.6C322.9,187.7,323.8,175.6,319.8,165.4L319.8,165.4z"/>
							</g>
						</g>
						<path class="st10" d="M420.4,241.7H273.9c-25.5-2.8-51-5.6-76.6-8.4c-2-4.4-2.9-9.3-2.4-14.1c0.8-7.8,5-15.5,11.4-20
							c0,0,0,0,0.1,0c0.3-0.2,0.6-0.4,0.9-0.6c8.9,2.4,19.1,0.2,28.3-1.9c22.2-5.1,44.9-9.2,67.6-9.6c5.8-0.1,11.6,0.1,17.4,0.5
							c6,0.5,12,1.2,18,2.4c14.9,2.9,29.2,7.9,44,11.4c13.2,3.1,27,5,40.3,2.9c3.4,4.3,5.6,9.6,6.1,14.9
							C429.7,227.5,426.5,236.1,420.4,241.7L420.4,241.7z"/>
					</g>
					<g>
						<path class="st5" d="M197,391.9c-10.3,10.3-28.8,8.6-41.2-3.8s-14.1-30.9-3.8-41.2s28.8-8.6,41.2,3.8S207.3,381.5,197,391.9z"
							/>
						<g>
							<path class="st6" d="M194.6,376.8c-0.6-3.8-1.4-7.5-3.3-11c-1.8-3.3-4.5-6-7.6-8.2c-3.2-2.3-7.1-3.4-11-3.9
								c-4.3-0.5-8.5,0.5-12.5,2.2c-1.2,0.5-2.3,2.2-2.7,3.5c-0.4,1.4-0.2,3.3,0.6,4.5c1.9,2.9,5,3.4,8,2.1c-1.3,0.5-0.2,0.1,0.1,0
								c0.4-0.1,0.7-0.2,1.1-0.3c0.4-0.1,0.7-0.2,1.1-0.3c0.2,0,0.3-0.1,0.4-0.1c0.6-0.1,1.2-0.1,1.8-0.1c0.4,0,0.7,0,1.1,0
								c0.2,0,0.3,0,0.4,0c0.6,0.1,1.2,0.2,1.8,0.4c0.4,0.1,0.7,0.2,1.1,0.3c0.1,0,0.3,0.1,0.4,0.1c0.4,0.2,0.3,0.1-0.4-0.2
								c0.4,0,1.3,0.6,1.7,0.9c0.4,0.3,0.9,0.7,1.4,1c0.3,0.2,0.5,0.4,0.8,0.7c0.4,0.4,0.9,0.9,1.3,1.4c-0.1-0.1-0.1-0.2-0.1-0.2
								c0,0.1,0.1,0.1,0.1,0.2c0,0,0,0,0,0c0.4,0.4,0.2,0.2,0,0c0.2,0.2,0.4,0.5,0.5,0.7c0.3,0.5,0.6,1,0.9,1.5c0,0,0.1,0.2,0.2,0.4
								c0.1,0.1,0.1,0.2,0.1,0.4c0.3,0.7,0.5,1.5,0.7,2.2c0.4,1.6,0.6,3.2,0.9,4.9c0.5,3,4.4,5,7.2,4.1
								C193.9,382.9,195.2,380,194.6,376.8L194.6,376.8z"/>
							<path class="st6" d="M180.1,369.8C180.1,369.8,180.1,369.8,180.1,369.8C180.1,369.8,180.1,369.8,180.1,369.8L180.1,369.8
								L180.1,369.8z"/>
						</g>
					</g>
					<g>
						<path class="st5" d="M421.4,391.9c10.3,10.3,28.8,8.6,41.2-3.8s14.1-30.9,3.8-41.2c-10.3-10.3-28.8-8.6-41.2,3.8
							S411,381.5,421.4,391.9z"/>
						<g>
							<path class="st6" d="M427.8,384c2.8,0.9,6.7-1,7.2-4.1c0.3-1.6,0.5-3.3,0.9-4.9c0.2-0.8,0.4-1.5,0.7-2.2
								c0-0.1,0.1-0.2,0.1-0.4c0.1-0.2,0.2-0.4,0.2-0.4c0.3-0.5,0.6-1,0.9-1.5c0.1-0.2,0.3-0.5,0.5-0.7c-0.2,0.2-0.4,0.5,0,0
								c0,0,0,0,0,0c0-0.1,0.1-0.2,0.1-0.2c0,0.1-0.1,0.1-0.1,0.2c0.4-0.5,0.8-0.9,1.3-1.4c0.2-0.2,0.5-0.5,0.8-0.7
								c0.5-0.2,1-0.7,1.4-1c0.4-0.2,1.3-0.9,1.7-0.9c-0.7,0.3-0.8,0.4-0.4,0.2c0.1,0,0.3-0.1,0.4-0.1c0.4-0.1,0.7-0.2,1.1-0.3
								c0.5-0.1,1.2-0.3,1.8-0.4c0.1,0,0.2,0,0.4,0c0.4,0,0.7,0,1.1,0c0.6,0,1.2,0,1.8,0.1c0.1,0,0.2,0,0.4,0.1
								c0.4,0.1,0.7,0.2,1.1,0.3s0.7,0.2,1.1,0.3c0.3,0.1,1.3,0.5,0,0c3,1.3,6.1,0.8,8-2.1c0.8-1.2,1-3.1,0.6-4.5
								c-0.3-1.2-1.4-3-2.7-3.5c-4-1.7-8.1-2.7-12.5-2.2c-3.9,0.5-7.8,1.6-11,3.9c-3.1,2.2-5.7,4.9-7.6,8.2c-1.9,3.5-2.7,7.2-3.3,11
								C423.2,380,424.5,382.9,427.8,384L427.8,384z"/>
							<path class="st6" d="M438.3,369.8C438.3,369.8,438.3,369.8,438.3,369.8C438.3,369.8,438.3,369.8,438.3,369.8L438.3,369.8
								L438.3,369.8z"/>
						</g>
					</g>
					<g>
						<path class="st5" d="M218,229.4c-17.5,20-28,49.9-28,92.5c0,96.4,53.9,153.9,120.3,153.9s120.3-57.5,120.3-153.9
							c0-39.9-9.2-68.5-24.7-88.4C343.2,236.2,280.6,233,218,229.4L218,229.4z"/>
						<g>
							<path class="st11" d="M230.1,320.1c5.8-3.7,12.3-6.6,19.4-7.8c7.1-1.2,14.6-0.5,21.5,1.6h0c2,0.6,3.2,2.8,2.6,4.8
								c-0.6,2-2.8,3.2-4.8,2.6c-0.1,0-0.3-0.1-0.4-0.2c-5.7-2.5-11.9-3.9-18.3-3.7c-6.3,0.2-12.7,2.1-18.6,5
								c-0.7,0.3-1.5,0-1.9-0.6C229.3,321.2,229.6,320.5,230.1,320.1L230.1,320.1z"/>
							<path class="st11" d="M390.4,320.1c-5.8-3.7-12.3-6.6-19.5-7.8c-7.1-1.2-14.5-0.5-21.5,1.6h0c-2,0.6-3.2,2.8-2.6,4.8
								c0.6,2,2.8,3.2,4.8,2.6c0.1,0,0.3-0.1,0.4-0.2c5.7-2.5,11.9-3.9,18.3-3.7c6.3,0.2,12.7,2.1,18.6,5c0.7,0.3,1.5,0,1.9-0.6
								C391.2,321.2,390.9,320.5,390.4,320.1L390.4,320.1z"/>
							<path class="st6" d="M309.2,371.6c-0.2-0.6-0.6-1.4-1.3-1.7c-0.9-0.4-1.8-0.7-2.8-0.6c-1,0.1-1.9,0.3-2.8,0.8
								c-1.6,0.8-2.7,2.4-3.2,4.1c-0.5,1.5-0.4,3.3,0.1,4.9c0.5,1.7,1.5,3.1,2.6,4.4c0.4,0.5,1.3,0.8,2,0.8c0.7,0,1.5-0.3,2-0.8
								c0.5-0.5,0.9-1.2,0.8-2c0-0.8-0.3-1.3-0.8-1.9l0.1,0.2c-0.5-0.6-0.8-1.2-1.2-1.9c-0.1-0.3-0.2-0.6-0.3-1c0-0.3,0-0.5,0-0.8
								c0-0.2,0.1-0.3,0.1-0.5c0.1-0.1,0.1-0.2,0.2-0.3c0,0,0,0,0,0c0.1,0,0.2-0.1,0.3-0.2c0,0,0.1,0,0.1,0c0,0,0.1,0,0.1,0
								c0.1,0,0.2,0,0.2,0.1c0,0-0.1,0-0.1-0.1c0,0,0.1,0,0.1,0c0.5,0.2,1,0.3,1.6,0.1c0.6-0.2,1.4-0.7,1.7-1.3
								C309.3,373.1,309.4,372.3,309.2,371.6L309.2,371.6z"/>
							<g>
								<circle class="st12" cx="365" cy="386.6" r="13.1"/>
								<circle class="st12" cx="255.5" cy="386.5" r="13.1"/>
							</g>
							<g>
								<path class="st6" d="M335.9,402.9c-16.1,8.4-36,7.7-51.5-1.5c-2.2-1.3-4.2,2.2-2,3.5c16.8,10,38.3,10.5,55.6,1.5
									C340.4,405.2,338.2,401.7,335.9,402.9L335.9,402.9z"/>
								<path class="st6" d="M316.8,422.4c-0.3-1-1.5-1.7-2.5-1.4c-4,1.2-8.4,1-12.1-0.7c-1-0.4-2.2-0.2-2.8,0.8
									c-0.5,0.9-0.2,2.3,0.8,2.8c4.8,2.1,10.2,2.5,15.2,1C316.5,424.6,317.1,423.5,316.8,422.4L316.8,422.4z"/>
							</g>
							<path class="st6" d="M382.8,341.5c-3.2,4.4-8.7,6.6-14,6.7c-6.4,0.2-12.4-2.4-17.7-5.7c-2-1.2-3.9,1.9-1.9,3.2
								c6.1,3.8,13.2,6.6,20.5,6.2c6.4-0.4,12.4-3.3,16.2-8.5C387.4,341.4,384.2,339.6,382.8,341.5z"/>
							<path class="st6" d="M236.6,341.5c3.2,4.4,8.7,6.6,14,6.7c6.4,0.2,12.4-2.4,17.7-5.7c2-1.2,3.9,1.9,1.9,3.2
								c-6.1,3.8-13.2,6.6-20.5,6.2c-6.4-0.4-12.4-3.3-16.2-8.5C232.1,341.4,235.2,339.6,236.6,341.5z"/>
						</g>
					</g>
					<path class="st11" d="M229.5,241.7c1.6,54.8-34.7,123.4-34.7,123.4c-22.4-68.9-11.4-146-11.4-146c99.8-34,202.6-23.5,255.2,6.7
						c13.2,71.2-13.1,143.5-13.1,143.5c-12.8-34.7-14.2-78.6-14.2-78.6C318.7,290.8,253.7,268.3,229.5,241.7L229.5,241.7z"/>
				</g>
			</g>
		</g>
		<path class="st8" d="M50.7,316.5c0-5.6-4.5-10.1-10.1-10.1c-3.2,0-6,1.5-7.8,3.7c-1.9-2.3-4.7-3.7-7.8-3.7
			c-5.6,0-10.1,4.5-10.1,10.1c0,3,1.3,5.7,3.4,7.6h0l14.6,12.7l14.6-12.7h0C49.4,322.3,50.7,319.6,50.7,316.5L50.7,316.5z"/>
	</g>
</g>
</svg>
