<svg width="496" height="204" viewBox="0 0 496 204" fill="none" xmlns="http://www.w3.org/2000/svg">
<path d="M31.6633 203.24C31.6633 203.24 4.50258 136.084 44.237 95.984C95.4875 44.2628 161.716 87.4954 186.567 86.235C211.418 84.9745 212.818 35.3479 287.069 29.4204C344.481 24.8373 438.767 24.476 418.652 105.556C403.359 167.201 488.447 135.271 471.88 203.371L31.6633 203.24Z" fill="#3E8F9C"/>
<path d="M114.933 162.272C114.933 162.272 108.471 154.733 114.535 149.945C114.535 149.945 118.964 147.263 122.576 147.481C122.576 147.481 117.458 156.062 119.114 156.916C120.769 157.769 124.127 146.943 124.127 146.943C124.127 146.943 134.206 145.965 137.448 147.524C137.448 147.524 128.832 154.575 130.647 154.995C132.462 155.415 141.769 148.494 141.769 148.494C141.769 148.494 151.15 150.09 150.65 155.813C150.149 161.536 146.917 163.303 145.496 163.151C144.075 162.999 135.765 159.826 135.584 160.99C135.403 162.154 140.405 165.959 143.909 166.137C143.909 166.137 137.295 173.431 132.899 171.325C128.504 169.22 128.128 165.884 125.388 164.632C122.648 163.381 120.309 163.384 121.44 164.66C122.572 165.937 127.531 167.177 129.098 169.949C130.664 172.72 132.07 174.59 127.523 173.906C122.975 173.221 115.582 169.894 115.258 166.083C114.933 162.272 114.933 162.272 114.933 162.272Z" fill="#599DAD"/>
<path d="M146.04 155.968C146.04 155.968 120.56 154.986 114.933 162.273C114.933 162.273 113.689 166 109.86 169.393L109.263 171.02C109.263 171.02 113.678 166.365 115.258 166.083C115.258 166.083 112.787 157.055 146.04 155.968Z" fill="#599DAD"/>
<path d="M109.86 169.393C109.86 169.393 104.39 173.438 104.011 180.665L105.003 180.754C105.003 180.754 106.75 173.281 109.907 170.359C113.064 167.437 109.86 169.393 109.86 169.393Z" fill="#599DAD"/>
<path d="M92.3391 152.791C92.3391 152.791 102.619 147.034 97.8216 139.222C97.8216 139.222 93.9836 134.425 89.8719 133.191C89.8719 133.191 92.0651 144.842 89.8719 145.116C87.6788 145.39 88.3643 131.958 88.3643 131.958C88.3643 131.958 77.5362 126.749 73.2872 127.16C73.2872 127.16 80.0035 138.537 77.8104 138.263C75.6173 137.989 68.0787 126.475 68.0787 126.475C68.0787 126.475 56.9766 124.419 55.1948 130.998C53.4129 137.577 56.2913 140.867 57.936 141.278C59.5809 141.689 70.1348 141.552 69.8607 142.923C69.5867 144.293 62.4595 146.486 58.4844 145.253C58.4844 145.253 62.8705 156.081 68.6271 155.533C74.3838 154.984 76.1655 151.421 79.7293 151.147C83.2929 150.872 85.8971 151.832 84.1154 152.791C82.3337 153.751 76.3027 153.106 73.4245 155.553C70.5462 158 68.216 159.507 73.5614 160.604C78.9069 161.701 88.5013 161.015 90.4202 156.903C92.3391 152.791 92.3391 152.791 92.3391 152.791Z" fill="#6BB7BF"/>
<path d="M60.2662 133.054C60.2662 133.054 89.0497 142.374 92.3391 152.791C92.3391 152.791 92.2019 157.451 95.0803 162.797V164.852C95.0803 164.852 92.0649 157.862 90.42 156.903C90.42 156.903 96.8624 147.857 60.2662 133.054Z" fill="#6BB7BF"/>
<path d="M95.0803 162.797C95.0803 162.797 99.5191 169.538 96.9885 177.743L95.8466 177.436C95.8466 177.436 96.955 168.399 94.6326 163.853C92.3103 159.308 95.0803 162.797 95.0803 162.797Z" fill="#6BB7BF"/>
<path d="M108.693 144.852C108.693 144.852 95.1428 137.263 101.466 126.965C101.466 126.965 106.525 120.641 111.946 119.015C111.946 119.015 109.055 134.373 111.946 134.734C114.836 135.096 113.933 117.389 113.933 117.389C113.933 117.389 128.206 110.523 133.807 111.066C133.807 111.066 124.954 126.062 127.845 125.7C130.736 125.339 140.673 110.162 140.673 110.162C140.673 110.162 155.308 107.452 157.657 116.124C160.005 124.797 156.211 129.133 154.043 129.675C151.875 130.217 137.963 130.037 138.324 131.843C138.686 133.65 148.081 136.541 153.32 134.915C153.32 134.915 147.539 149.188 139.95 148.465C132.362 147.743 130.013 143.045 125.316 142.684C120.618 142.322 117.185 143.587 119.534 144.852C121.883 146.116 129.833 145.266 133.627 148.492C137.421 151.717 140.492 153.705 133.446 155.15C126.4 156.596 113.753 155.692 111.223 150.272C108.693 144.852 108.693 144.852 108.693 144.852Z" fill="#86D1CD"/>
<path d="M150.971 118.834C150.971 118.834 113.03 131.12 108.693 144.852C108.693 144.852 108.874 150.995 105.08 158.041V160.751C105.08 160.751 109.055 151.537 111.223 150.272C111.223 150.272 102.731 138.347 150.971 118.834Z" fill="#6BB7BF"/>
<path d="M105.08 158.042C105.08 158.042 99.2284 166.927 102.565 177.743L104.07 177.339C104.07 177.339 102.609 165.426 105.67 159.434C108.731 153.442 105.08 158.042 105.08 158.042Z" fill="#6BB7BF"/>
<path d="M108.237 201.198C122.896 201.198 134.78 189.314 134.78 174.654H81.6929C81.6929 189.314 93.5771 201.198 108.237 201.198Z" fill="#EFCBAB"/>
<path d="M114.768 200.995C113.689 201.129 112.588 201.198 111.471 201.198C96.8113 201.198 84.9284 189.313 84.9284 174.654H91.5225C91.5225 188.197 101.665 199.37 114.768 200.995Z" fill="#FFEBDC"/>
<path d="M135.147 202.548H81.3265C81.3265 200.74 82.7928 199.273 84.6013 199.273H131.872C133.681 199.273 135.147 200.74 135.147 202.548Z" fill="#EFCBAB"/>
<path d="M135.384 174.654H80.8203V175.468H135.384V174.654Z" fill="#EFCDAF"/>
<path d="M370.813 193.563C370.813 193.563 371.363 202.436 373.08 202.563C373.308 202.58 381.786 202.58 381.786 202.58L392.608 202.517C392.608 202.517 392.537 199.909 389.374 199.358C386.211 198.807 380.915 196.584 378.999 192.403C376.983 188.004 370.813 193.563 370.813 193.563Z" fill="#163560"/>
<path d="M365.037 88.6333C365.037 88.6333 370.146 91.5383 371.576 91.5382C373.006 91.5376 378.621 90.4529 380.186 91.2526C381.751 92.0523 384.584 95.2695 385.115 96.3207C386.071 98.2106 381.268 97.3759 378.997 95.7661C378.668 95.5324 378.257 95.4458 377.863 95.532C376.687 95.7884 374.244 96.2324 373.064 95.7959C371.478 95.2084 363.123 94.5567 363.123 94.5567L365.037 88.6333Z" fill="#E49963"/>
<path d="M326.165 49.0658C326.165 49.0658 331.461 86.7094 340.231 90.0809C344.559 91.7446 363.684 95.5158 369.341 95.8947C369.341 95.8947 370.727 94.7705 370.389 90.1943C370.389 90.1943 350.352 82.8381 347.505 78.8375C343.269 72.8835 350.135 54.5142 344.82 48.9222C339.504 43.3303 330.55 40.9268 326.165 49.0658Z" fill="#D8CECB"/>
<path d="M327.95 128.373C329.495 130.994 331.282 133.45 333.124 135.775C338.816 142.962 345.013 148.887 346.092 154.488C346.307 155.604 346.647 156.806 347.093 158.073C347.544 159.356 348.101 160.705 348.744 162.099C351.16 167.346 354.772 173.226 358.379 178.57C364.614 187.809 370.477 195.518 370.477 195.518L381.229 195.06C380.799 193.982 376.109 181.226 369.836 165.637C367.288 159.308 364.579 152.576 361.966 146.085C361.618 145.218 361.269 144.354 360.925 143.499C360.126 141.512 359.34 139.556 358.572 137.652C352.681 123.014 347.989 111.358 347.989 111.358C347.989 111.358 324.446 102.439 322.001 108.218C319.985 112.984 321.627 117.651 327.95 128.373Z" fill="#599DAD"/>
<path d="M345.916 168.216C345.916 168.216 338.437 173.022 339.163 174.583C339.259 174.79 343.392 182.192 343.392 182.192L348.723 191.611C348.723 191.611 350.965 190.278 349.904 187.247C348.843 184.216 348.204 178.509 350.92 174.798C353.778 170.894 345.916 168.216 345.916 168.216Z" fill="#163560"/>
<path d="M349.575 176.663C349.575 176.663 344.901 172.541 344.077 169.517C344.077 169.517 363.336 146.441 367.513 141.269C367.705 141.032 367.657 140.771 367.403 140.486C364.249 136.929 329.208 129.7 324.628 122.574C323.049 120.12 322.155 117.788 321.669 115.752C320.63 111.404 321.451 108.401 321.451 108.401L356.447 107.389C356.447 107.389 385.586 125.532 388.885 137.903C392.183 150.273 349.575 176.663 349.575 176.663Z" fill="#6BB7BF"/>
<path d="M367.403 140.485C364.249 136.929 329.207 129.7 324.628 122.574C323.049 120.119 322.155 117.788 321.668 115.752V111.323L336.542 108.983C336.542 108.983 340.76 121.962 353.253 126.83C364.954 131.389 367.169 139.478 367.403 140.485Z" fill="#5AA9AD"/>
<path d="M346.871 46.6926C339.791 48.5227 328.055 41.9636 328.055 41.9636C328.055 41.9636 332.612 38.9004 334.301 32.1723C334.387 31.8332 334.463 31.486 334.533 31.1291C335.274 30.9717 336.673 30.6747 338.169 30.3584L343.576 35.2031C343.576 35.2031 343.453 37.2146 342.776 40.672C342.659 41.2757 342.525 41.9227 342.369 42.6124C345.271 44.4101 346.871 46.6926 346.871 46.6926Z" fill="#E49963"/>
<path d="M320.559 76.0381C321.572 89.677 320.239 110.421 321.389 114.013C322.382 117.112 333.694 115.27 338.209 114.235C339.881 113.852 341.905 113.305 343.996 112.658C349.828 110.852 356.182 108.274 356.864 106.36C356.89 106.284 356.913 106.211 356.927 106.139C356.99 105.861 356.976 105.601 356.915 105.337C356.687 104.361 355.812 103.306 355.708 100.89C355.593 98.1923 355.61 95.0159 355.509 91.6002C355.504 91.2156 355.499 90.796 355.457 90.4132L355.455 90.2732C355.453 90.1998 355.451 90.1284 355.45 90.055C355.352 86.2456 355.152 82.2407 354.922 78.2691C354.775 75.7745 354.605 73.3042 354.41 70.9373C353.901 64.8274 353.215 59.3943 352.308 55.9592C350.826 50.3599 347.557 46.7079 344.581 44.0318L342.43 42.1856C340.028 42.71 337.189 42.3622 334.621 41.1454C331.841 39.8256 330.881 38.8798 330.397 39.2365C323.978 44.1887 319.361 59.3644 320.559 76.0381Z" fill="#F2E6E2"/>
<path d="M343.996 112.659C349.828 110.853 356.182 108.275 356.864 106.361C356.89 106.285 356.913 106.212 356.927 106.14C356.923 105.873 356.92 105.605 356.914 105.338C356.687 104.362 355.812 103.307 355.708 100.891C355.593 98.1933 355.61 95.0169 355.509 91.6012C355.504 91.2166 355.499 90.797 355.457 90.4142L355.455 90.2742C355.453 90.2008 355.451 90.1294 355.45 90.056L331.873 60.019C331.873 60.019 316.026 93.0202 343.996 112.659Z" fill="#D8CECB"/>
<path d="M343.576 35.2031C343.576 35.2031 343.453 37.2146 342.776 40.672C337.495 38.9654 335.101 34.1955 334.301 32.1723C334.387 31.8332 334.463 31.486 334.533 31.1291C335.275 30.9717 336.673 30.6747 338.169 30.3584L343.576 35.2031Z" fill="#D68D5D"/>
<path d="M344.286 38.2516C344.286 38.2516 332.771 36.3298 334.078 29.1768C335.385 22.0238 334.779 16.9582 342.187 17.8828C349.595 18.8075 350.521 21.7973 350.665 24.2911C350.809 26.7847 347.316 38.5674 344.286 38.2516Z" fill="#E49963"/>
<path d="M389.598 99.4533L390.613 99.7832L399.253 73.1904L398.237 72.8605L389.598 99.4533Z" fill="#4A75CB"/>
<path d="M361.292 99.1338L390.627 99.7617L390.664 98.0068L361.33 97.3789L361.292 99.1338Z" fill="#4A75CB"/>
<path d="M361.885 100.559C361.885 100.559 371.31 103.044 374.844 102.783C378.379 102.522 381.319 100.841 381.763 99.9636C382.208 99.0859 383.143 97.5295 380.736 97.8169C378.33 98.1043 375.045 98.6157 374.942 98.1533C374.841 97.6909 376.904 97.735 376.904 97.735C376.904 97.735 377.528 96.8279 376.743 96.7951C375.957 96.7624 373.666 96.1406 372.815 96.566C371.964 96.9914 371.179 98.5624 370.557 98.497C369.935 98.4316 362.67 95.2241 362.67 95.2241L361.885 100.559Z" fill="#E49963"/>
<path d="M328.502 50.6098C328.502 50.6098 329.616 88.6077 337.961 92.9259C342.079 95.0565 360.671 100.913 366.252 101.913C366.252 101.913 367.754 100.949 367.923 96.363C367.923 96.363 348.819 86.8427 346.431 82.5526C342.876 76.1679 351.726 58.6673 347.059 52.5235C342.392 46.3799 333.758 43.004 328.502 50.6098Z" fill="#F2E6E2"/>
<path d="M334.301 32.1721C334.301 32.1721 334.169 29.7179 335.683 28.3119C335.683 28.3119 335.156 25.8513 336.129 25.4456C337.103 25.0401 337.305 27.1086 337.752 26.7841C338.198 26.4598 340.185 24.9183 341.037 22.647C341.889 20.3759 349.684 23.1267 350.592 23.5358C351.501 23.945 354.421 22.4443 354.989 21.2275C354.989 21.2275 353.367 19.9295 352.637 18.9563C351.907 17.9827 346.796 11.4122 339.658 13.278C332.519 15.1438 331.546 18.5506 331.951 21.4709C332.357 24.3913 331.377 31.1924 334.301 32.1721Z" fill="#2B478B"/>
<path d="M117.826 46.7599L123.97 46.1731C124.463 46.126 124.929 46.4061 125.119 46.8633L129.757 58.0289C130.049 58.7296 129.579 59.512 128.823 59.5844L122.43 60.195C121.929 60.2426 121.457 59.9528 121.273 59.4843L116.883 48.2946C116.61 47.5971 117.08 46.8315 117.826 46.7599Z" fill="#233862"/>
<path d="M195.732 194.289L192.471 196.02C192.471 196.02 174.843 177.328 170.605 159.391C169.849 156.188 169.543 153.029 169.867 150.033C169.867 150.033 169.611 149.22 169.162 147.784C169.143 147.721 169.122 147.657 169.103 147.592C168.906 146.962 168.671 146.221 168.409 145.381C167.559 142.671 166.389 138.962 165.057 134.739C161.989 125.021 154.971 103.105 151.972 93.9883L173.525 86.1904C173.525 86.1904 175.973 91.773 179.491 106.946C180.033 108.927 180.576 111.117 181.083 113.503C181.657 116.206 182.194 119.161 182.64 122.353C183.396 127.762 183.901 133.847 183.932 140.521C183.944 143.236 183.878 146.051 183.717 148.956C183.599 151.086 183.915 153.925 184.509 157.154C187.225 171.916 195.732 194.289 195.732 194.289Z" fill="#F2E6E2"/>
<path d="M207.533 202.548H190.107C190.107 202.548 189.456 199.769 190.6 197.878C191.613 196.204 191.224 195.251 190.475 193.867C191.264 194.19 192.285 194.484 193.409 194.419C194.278 194.369 195.196 193.975 196.001 193.508C196.751 194.363 199.962 198.002 200.965 198.723C202.104 199.541 207.182 199.25 207.533 202.548Z" fill="#233862"/>
<path d="M182.64 122.353L169.103 147.592C168.906 146.962 168.671 146.221 168.409 145.381C167.559 142.671 166.389 138.962 165.057 134.739C161.989 125.021 154.971 103.105 151.972 93.9883L173.525 86.1904C173.525 86.1904 175.973 91.773 179.491 106.946C180.033 108.927 180.576 111.117 181.083 113.503C181.657 116.206 182.194 119.161 182.64 122.353Z" fill="#D8CECB"/>
<path d="M123.96 66.6952C123.852 66.7883 118.687 61.5085 115.929 58.5832L118.692 56.9014L133.775 66.3706L123.96 66.6952Z" fill="#FFB27D"/>
<path d="M151.621 197.094C151.621 197.094 151.216 200.053 152.351 202.548H159.571C159.571 202.548 159.625 200.393 157.786 197.689C155.948 194.985 151.621 197.094 151.621 197.094Z" fill="#233862"/>
<path d="M165.849 4.48876C165.946 4.02707 167.177 -0.915224 174.846 0.149971C174.846 0.149971 171.019 -0.0556396 170.085 1.47978C170.085 1.47978 172.992 -0.11233 174.956 0.904349C176.921 1.92121 177.508 5.77556 177.312 6.97564C177.116 8.17571 175.289 11.8362 173.913 11.935C173.391 11.9725 172.821 11.839 172.314 11.6588C172.57 12.268 172.809 12.9325 173.02 13.665C174.975 20.4388 170.776 25.9958 168.318 24.8732C166.742 24.1533 165.784 26.8905 165.784 26.8905L151.998 11.107C151.998 11.107 160.015 -0.0627467 165.849 4.48876Z" fill="#2C3A64"/>
<path d="M151.74 46.8148C153.538 48.0625 155.793 49.0916 158.624 49.7447C169.235 52.1964 173.302 43.2279 174.829 37.0717C173.382 36.2437 172.02 36.061 171.234 35.9672C170.467 35.8768 169.66 35.8167 168.992 35.7836C167.801 34.8709 166.025 31.1358 165.633 25.3364L165.134 25.4704L156.77 27.7593C156.77 27.7593 157.154 30.4177 157.341 32.9305C157.486 34.8965 157.509 36.7756 157.137 37.2354C156.484 37.377 156.093 37.4694 156.093 37.4694C156.093 37.4694 156.092 37.4722 156.089 37.4772C155.976 37.6611 153.55 41.6511 151.74 46.8148Z" fill="#FFB27D"/>
<path d="M156.77 27.7602C156.77 27.7602 157.155 30.4165 157.341 32.9314C162.079 32.4569 164.278 27.9461 165.134 25.4717L156.77 27.7602Z" fill="#ED985F"/>
<path d="M155.356 30.256C155.356 30.256 166.601 29.6356 166.107 22.6381C165.613 15.6408 166.732 10.8479 159.531 10.9483C152.329 11.0486 151.125 13.8173 150.721 16.1929C150.318 18.5685 152.418 30.2373 155.356 30.256Z" fill="#FFB27D"/>
<path d="M150.776 12.2781C152.362 10.0489 153.707 10.4164 154.488 10.9965C160.385 7.18087 164.699 11.8875 164.699 11.8875C165.811 16.854 169.637 19.4702 169.637 19.4702C169.637 19.4702 167.681 20.8816 162.874 20.0067C161.405 19.7393 160.045 18.807 158.862 17.6427C161.001 20.7075 163.766 22.8277 163.766 22.8277C157.942 20.6261 155.115 12.9472 154.83 12.1342C154.189 12.7992 152.933 14.2338 152.615 15.5745C152.183 17.3964 152.194 21.0824 151.116 21.0343C151.116 21.0343 148.399 15.621 150.776 12.2781Z" fill="#2C3A64"/>
<path d="M153.536 36.9061C153.536 36.9061 171.856 32.4582 179.823 39.0283L175.841 94.5503L140.011 85.8944C140.011 85.8944 141.019 82.3811 147.89 73.0387C154.76 63.6964 151.772 49.993 153.536 36.9061Z" fill="#FFB27D"/>
<path d="M164.216 88.3698C164.216 88.3698 164.195 88.558 164.157 88.9166C164.141 89.0707 164.12 89.2573 164.097 89.4748C163.943 90.9139 163.651 93.6752 163.275 97.2654C162.292 106.682 160.749 121.806 159.697 133.743C158.875 143.077 158.353 150.463 158.635 151.65C159.483 155.219 158.635 197.887 158.635 197.887C155.59 199.348 150.972 197.887 150.972 197.887C150.972 197.887 142.861 159.437 143.996 154.093C145.132 148.749 143.237 144.187 143.237 144.187C136.939 114.856 137.628 98.5993 138.879 90.8169C139.243 88.5536 139.655 87.0077 139.956 86.0649C140.211 85.2634 140.388 84.897 140.388 84.897C154.28 81.1583 164.216 88.3698 164.216 88.3698Z" fill="#F2E6E2"/>
<path d="M175.842 94.5494C171.568 96.3437 167.31 97.129 163.275 97.2651C159.587 97.3884 156.088 96.9698 152.934 96.2836C146.063 94.7894 140.831 92.0232 138.879 90.8162C139.243 88.5529 139.655 87.007 139.957 86.0642C144.186 83.0531 154.644 85.9343 163.187 89.129C163.492 89.244 163.796 89.3593 164.098 89.4745C170.641 91.9763 175.842 94.5494 175.842 94.5494Z" fill="#D8CECB"/>
<path d="M182.292 54.8645C181.408 61.5439 177.87 69.7175 176.606 74.1174C176.606 74.1174 178.718 89.3921 176.702 93.5861C176.473 94.0645 176.189 94.3989 175.842 94.5498C168.371 97.8042 139.275 94.6438 138.047 85.2584C137.6 81.8482 149.129 69.8524 149.801 68.3971C150.08 67.795 150.377 65.8434 149.026 61.7987C147.109 67.7056 143.571 74.5263 140.012 75.6896C136.1 76.9695 120.634 65.4443 120.634 65.4443C120.634 65.4443 120.544 64.0443 122.5 62.7202C123.757 61.8686 126.645 61.5816 126.645 61.5816L136.535 66.0073C137.776 63.8836 140.868 49.1913 144.321 42.5591C146.916 37.5735 153.847 36.8514 153.847 36.8514C153.847 36.8514 156.732 41.4266 163.708 40.7778C170.684 40.129 171.96 35.8584 171.96 35.8584C171.96 35.8584 178.147 36.681 180.054 38.2189C180.384 38.4855 183.453 46.1135 182.292 54.8645Z" fill="#6E63BA"/>
<path d="M176.606 74.1172C176.606 74.1172 178.718 89.3919 176.702 93.5859C171.259 90.8537 164.164 84.9563 166.323 75.7413C169.459 62.3533 182.292 54.8643 182.292 54.8643C181.408 61.5438 177.87 69.7174 176.606 74.1172Z" fill="#9C93E1"/>
<path d="M171.96 63.8501C171.96 63.8501 164.212 64.9731 163.593 65.5511C162.975 66.1294 160.837 69.4904 161.101 70.6594C161.364 71.8282 161.337 73.0333 161.811 72.9504C162.285 72.8673 163.833 69.8963 164.418 69.7602C165.002 69.6237 165.485 69.2235 165.555 69.4844C165.627 69.7453 164.366 70.9949 164.428 71.3504C164.491 71.7058 165.483 71.2896 165.928 70.5999C166.374 69.9102 167.487 69.5688 167.654 69.1393C167.821 68.7098 168.589 67.2872 169.632 67.3524C170.674 67.4176 171.96 63.8501 171.96 63.8501Z" fill="#FFB27D"/>
<path d="M179.499 63.5449L171.96 63.85L169.38 67.3662L179.634 67.7092L179.499 63.5449Z" fill="#FFB27D"/>
<path d="M171.96 35.8584C171.96 35.8584 180.946 36.9245 183.42 40.7778C186.549 45.6499 197.601 61.8069 197.363 66.6966C197.363 66.6966 190.477 69.4396 171.967 67.9692C171.967 67.9692 171.631 65.1692 175.525 62.9235C175.525 62.9235 185.462 61.5626 186.557 60.598L179.179 52.7576L171.96 35.8584Z" fill="#6E63BA"/>
<path d="M116.487 46.8812L122.631 46.2942C123.124 46.2473 123.59 46.527 123.78 46.9844L128.419 58.1501C128.71 58.8506 128.24 59.6333 127.485 59.7052L121.091 60.3162C120.59 60.364 120.118 60.074 119.934 59.6052L115.545 48.4159C115.271 47.718 115.742 46.9522 116.487 46.8812Z" fill="#2B478B"/>
<path d="M115.929 58.5825C115.929 58.5825 114.307 55.7839 114.428 55.0944C114.55 54.4047 116.229 51.2075 117.092 50.8898C118.633 50.322 120.796 49.9703 120.201 51.5928C119.808 52.6637 118.254 54.2156 118.525 54.7024C118.795 55.189 118.692 56.9007 118.692 56.9007L115.929 58.5825Z" fill="#FFB27D"/>
<path d="M360.802 179.267C358.601 193.375 344.204 202.36 329.437 202.36H300.189L302.476 120.128C302.476 120.128 330.383 111.171 337.391 119.692C343.532 127.156 360.184 156.705 361.06 174.194C361.148 175.949 361.057 177.643 360.802 179.267Z" fill="#F9DDBF"/>
<path d="M283.161 128.836C283.161 128.836 322.617 108.697 330.09 121.852C334.058 128.837 344.978 156.704 345.784 174.193C346.567 191.186 331.846 202.359 316.701 202.359H289.804L283.161 128.836Z" fill="#C6916D"/>
<path d="M290.579 140.006C290.247 141.717 287.052 143.305 282.312 144.71C281.476 144.958 280.594 145.201 279.669 145.437C263.534 149.558 234.956 151.859 232.232 150.643C228.468 148.964 205.365 66.8814 205.365 66.8814C205.365 66.8814 227.418 66.0526 244.932 65.6484C250.923 65.512 256.383 65.4245 260.247 65.4361C260.717 65.4377 261.161 65.4684 261.576 65.5283C263.249 65.7668 264.49 66.4645 265.473 67.5222C268.293 70.5529 268.992 76.5378 271.602 83.154C274.183 89.6955 277.352 97.8593 280.357 105.961C281.131 108.049 281.895 110.133 282.635 112.185C282.844 112.764 283.05 113.34 283.256 113.913C287.696 126.339 291.116 137.233 290.579 140.006Z" fill="#EFCBAB"/>
<path d="M360.802 179.267C358.601 193.376 344.204 202.36 329.437 202.36H315.09C324.658 195.876 333.308 175.891 360.802 179.267Z" fill="#EAC3A0"/>
<path d="M283.256 113.912C282.522 113.792 281.577 113.636 280.504 113.455C280.279 113.226 280.104 112.996 279.998 112.765C279.566 111.816 279.862 109.089 280.357 105.961C277.352 97.8588 274.184 89.695 271.602 83.1535C268.992 76.5375 268.293 70.5524 265.473 67.5217C264.49 66.4642 263.249 65.7663 261.576 65.5278C259.248 65.5604 256.79 65.6009 254.254 65.648C253.354 67.4343 251.801 69.1197 249.119 70.5313C237.154 76.8295 246.03 89.8085 246.03 89.8085C246.116 89.867 250.779 99.1342 250.779 99.1342C250.763 98.4868 251.391 97.3285 252.466 95.8537C253.26 101.394 254.551 107.051 256.094 111.101C255.249 115.379 253.079 121.752 251.918 126.625C250.988 130.513 250.701 133.443 252.236 133.587C252.408 133.603 252.599 133.602 252.805 133.587C252.709 134.942 252.974 136.369 253.74 137.849C256.738 143.646 271.163 144.689 282.312 144.71C287.052 143.305 290.246 141.717 290.579 140.005C291.116 137.232 287.696 126.338 283.256 113.912Z" fill="#E0B594"/>
<path d="M337.771 189.725C332.125 197.569 323.465 202.597 313.818 202.441L272.347 202.462L252.478 202.472L274.832 128.847C274.832 128.847 331.415 123.217 338.391 130.724C341.631 134.209 343.449 149.991 344.468 165.9C345.043 174.87 342.432 183.257 337.771 189.725Z" fill="#D39E7A"/>
<path d="M337.771 189.725C332.125 197.57 323.465 202.597 313.818 202.442L272.347 202.463C277.227 198.366 292.575 186.742 309.008 187.292C321.465 187.709 331.356 187.53 337.771 189.725Z" fill="#C6916D"/>
<path d="M286.787 77.3154C286.787 77.3154 290.233 82.4143 292.198 93.1334C293.919 102.521 295.428 105.987 297.914 107.912C300.4 109.837 314.249 115.521 314.249 115.521L313.213 117.947C313.213 117.947 292.915 115.183 290.635 111.79C288.355 108.398 279.662 88.3537 280.337 83.7373C281.012 79.1213 286.787 77.3154 286.787 77.3154Z" fill="#F4A269"/>
<path d="M336.493 189.292C336.311 191.272 339.067 191.753 342.259 191.912C345.451 192.071 344.486 192.725 348.861 193.517C353.235 194.309 354.988 193.112 355.305 192.521C355.587 191.997 353.553 191.176 351.385 190.25C351.113 190.134 350.84 190.015 350.567 189.895C348.127 188.823 346.758 186.635 344.857 184.606C343.055 182.685 341.345 176.534 341.345 176.534L335.4 175.264C335.4 175.264 337.069 180.801 337.649 183.164C337.989 184.554 337.486 186.109 337.04 187.292C336.8 187.935 336.557 188.594 336.493 189.292Z" fill="#FFB27D"/>
<path d="M342.259 191.912C345.451 192.071 344.486 192.725 348.861 193.517C353.235 194.309 354.988 193.112 355.305 192.521C355.587 191.997 353.553 191.177 351.386 190.25L351.352 190.287C351.352 190.287 348.276 191.331 344.726 190.366C341.832 189.58 339.034 187.851 337.04 187.292C336.8 187.935 336.557 188.594 336.494 189.292C336.311 191.272 339.067 191.753 342.259 191.912Z" fill="#C65447"/>
<path d="M277.297 118.799C277.297 118.799 316.799 115.827 324.235 120.52C331.672 125.213 343.599 179.882 343.599 179.882C343.599 179.882 342.863 180.472 341.219 180.65C339.69 180.816 336.322 179.917 336.322 179.917C336.322 179.917 319.182 155.456 317.974 149.294C316.767 143.131 317.062 137.633 314.313 137.485C311.563 137.338 277.292 141.652 272.108 132.519C266.924 123.387 271.209 114.346 271.209 114.346L277.297 118.799Z" fill="#163560"/>
<path d="M321.378 195.637C321.196 197.616 323.951 198.098 327.144 198.257C330.336 198.415 329.371 199.069 333.746 199.862C338.12 200.654 339.873 199.457 340.19 198.866C340.472 198.341 338.438 197.521 336.271 196.594C335.998 196.479 335.724 196.359 335.451 196.24C333.012 195.167 331.643 192.98 329.741 190.951C327.94 189.03 326.229 182.878 326.229 182.878L320.285 181.609C320.285 181.609 321.954 187.145 322.533 189.509C322.874 190.899 322.371 192.453 321.925 193.636C321.684 194.28 321.442 194.939 321.378 195.637Z" fill="#FFB27D"/>
<path d="M327.144 198.257C330.336 198.416 329.371 199.069 333.746 199.862C338.12 200.654 339.873 199.457 340.19 198.866C340.472 198.342 338.438 197.522 336.271 196.595L336.237 196.632C336.237 196.632 333.161 197.676 329.611 196.711C326.717 195.925 323.919 194.196 321.925 193.637C321.684 194.28 321.442 194.939 321.378 195.637C321.196 197.617 323.951 198.098 327.144 198.257Z" fill="#C65447"/>
<path d="M269.56 121.247C269.56 121.247 304.651 122.908 311.9 127.887C319.148 132.867 328.938 187.958 328.938 187.958C328.938 187.958 328.18 188.519 326.53 188.633C324.996 188.739 321.666 187.709 321.666 187.709C321.666 187.709 305.49 162.6 304.523 156.396C303.556 150.191 304.065 144.708 301.324 144.454C298.582 144.2 264.169 147.176 259.344 137.849C254.519 128.521 269.56 121.247 269.56 121.247Z" fill="#1C468A"/>
<path d="M282.064 44.0275C280.507 42.9995 278.574 42.7699 277.212 42.7596C277.586 42.4223 278.281 42.3368 278.281 42.3368C277.448 42.1555 275.515 42.8648 275.515 42.8648C264.114 37.5756 261.125 54.6834 261.105 58.7028C261.082 62.7217 260.805 67.3315 254.723 70.5321C242.759 76.8298 251.634 89.8085 251.634 89.8085C251.721 89.8679 256.384 99.1352 256.384 99.1352C256.305 95.8807 272.368 79.8048 280.496 75.2114C282.578 72.547 283.58 67.6619 283.657 67.2773C283.069 71.1644 282.254 73.3126 281.574 74.5075C288.572 68.878 286.192 46.7511 282.064 44.0275Z" fill="#B5453C"/>
<path d="M268.085 71.4419C268.085 71.4419 271.184 71.5762 274.451 71.8865C276.671 72.0973 279.041 72.342 280.292 72.865C283.385 74.1578 283.06 79.6334 276.571 78.6194C270.081 77.6052 267.63 73.0656 268.085 71.4419Z" fill="#FFB27D"/>
<path d="M280.018 75.4351C280.056 75.4552 280.944 80.1455 276.695 79.9578C273.905 79.8348 267.889 76.4594 268.42 74.0712C268.673 72.9358 270.781 69.9902 271.205 63.2671L271.713 63.4029L280.251 65.693C280.251 65.693 279.872 68.4027 279.695 70.9674C279.546 73.1208 279.54 75.1721 280.018 75.4351Z" fill="#FFB27D"/>
<path d="M280.251 65.6928C280.251 65.6928 279.872 68.4025 279.695 70.9672C274.863 70.508 272.598 65.9206 271.713 63.4028L280.251 65.6928Z" fill="#F4A269"/>
<path d="M270.882 62.4012C270.882 62.4012 268.612 58.223 268.232 54.7547C267.96 52.2783 269.811 43.2894 278.84 45.2038C278.84 45.2038 281.471 45.6414 283.847 47.4883C285.738 48.9571 288.402 52.0336 284.68 59.7368L283.672 62.3555L270.882 62.4012Z" fill="#B5453C"/>
<path d="M281.706 68.2292C281.706 68.2292 270.238 67.6547 270.706 60.5184C271.174 53.3824 270.008 48.5021 277.35 48.5675C284.692 48.6326 285.935 51.4489 286.358 53.8688C286.781 56.2885 284.701 68.1949 281.706 68.2292Z" fill="#FFB27D"/>
<path d="M282.579 48.7408C282.579 48.7408 278.885 56.903 273.988 57.8198C269.093 58.7366 267.091 57.3078 267.091 57.3078C267.091 57.3078 270.979 54.6209 272.086 49.5522C272.086 49.5522 280.479 44.5984 282.579 48.7408Z" fill="#B5453C"/>
<path d="M281.756 49.3683C281.756 49.3683 283.974 51.3934 284.424 53.2486C284.874 55.1035 284.881 58.8614 285.98 58.8068C285.98 58.8068 288.723 53.2743 286.281 49.8786C283.693 46.2777 281.756 49.3683 281.756 49.3683Z" fill="#B5453C"/>
<path d="M293.18 119.396C292.252 120.505 289.354 120.846 286.257 121.355C283.82 121.758 281.261 122.262 279.44 123.332C275.306 125.759 261.8 133.961 257.841 133.588C256.306 133.444 256.594 130.514 257.523 126.627C258.987 120.487 262.05 111.962 262.05 108.255C262.05 106.232 262.723 101.444 263.622 95.9699C263.695 95.5288 263.77 95.0842 263.844 94.6346C265.622 83.9919 268.085 71.4429 268.085 71.4429C268.085 71.4429 270.832 77.436 276.184 77.436C281.535 77.436 280.292 72.8656 280.292 72.8656C280.292 72.8656 285.175 73.44 286.329 74.6827C287.484 75.9254 290.409 81.2972 290.99 82.7623C290.99 82.7623 291.108 84.6263 286.493 85.5138C286.493 85.5138 287.617 90.5741 287.75 93.9468C287.849 96.4387 286.05 104.238 285.532 109.089C285.349 110.807 285.325 112.155 285.604 112.767C285.961 113.55 287.116 114.331 288.43 115.096C291.038 116.615 294.282 118.077 293.18 119.396Z" fill="#1C468A"/>
<path d="M288.43 115.096C291.392 120.147 280.395 121.665 278.575 122.734C274.441 125.161 261.8 133.961 257.841 133.588C256.306 133.443 256.593 130.513 257.523 126.626C258.987 120.487 262.05 111.961 262.05 108.254C262.05 106.231 262.723 101.444 263.622 95.9695L268.387 91.3945C268.387 91.3945 273.492 104.591 278.359 106.754C280.91 107.886 283.574 108.634 285.532 109.088C285.349 110.807 285.324 112.155 285.603 112.766C285.96 113.55 287.116 114.331 288.43 115.096Z" fill="#163560"/>
<path d="M266.621 75.3924C266.621 75.3924 262.547 72.9182 258.608 77.6117C254.668 82.305 261.407 115.855 267.244 117.579C273.727 119.493 292.456 117.272 292.456 117.272L292.095 114.345C292.095 114.345 272.157 110.523 271.329 109.457C270.5 108.392 268.692 75.9336 266.621 75.3924Z" fill="#FFB27D"/>
<path d="M268.085 71.4419C268.085 71.4419 259.718 72.1966 257.289 74.9485C254.858 77.7005 254.148 85.1576 254.148 85.1576C254.148 85.1576 261.516 91.1055 270.394 88.7974L268.085 71.4419Z" fill="#1C468A"/>
<path d="M305.463 118.841H294.412V120.147H305.463V118.841Z" fill="#9E332E"/>
<path d="M303.116 119.968C303.224 119.536 313.275 103.753 313.275 103.753H335.639L324.422 119.544L303.116 119.968Z" fill="#9E332E"/>
<path d="M304.057 120.147C304.165 119.714 314.249 103.753 314.249 103.753H335.639L324.967 120.147H304.057Z" fill="#B5453C"/>
<path d="M322.914 112.003C322.694 112.642 321.997 113.161 321.357 113.161C320.717 113.161 320.377 112.642 320.598 112.003C320.818 111.363 321.515 110.845 322.155 110.845C322.794 110.845 323.134 111.363 322.914 112.003Z" fill="#9E332E"/>
<path d="M290.468 114.172C290.468 114.172 296.96 112.916 297.693 113.23C298.426 113.544 302.51 117.208 302.091 117.941C301.672 118.674 299.997 119.198 298.112 118.57C296.227 117.941 292.143 117.627 291.411 116.685C290.678 115.743 290.468 114.172 290.468 114.172Z" fill="#FFB27D"/>
<path d="M303.404 180.005C301.032 193.689 288.018 202.36 274.677 202.36H247.779L249.883 120.128C249.883 120.128 275.546 111.171 281.992 119.692C287.64 127.156 302.953 156.705 303.76 174.194C303.852 176.217 303.727 178.158 303.404 180.005Z" fill="#F9DDBF"/>
<path d="M303.404 180.005C301.032 193.689 288.018 202.36 274.677 202.36H253.153C263.228 195.532 276.793 176.664 303.404 180.005Z" fill="#EAC3A0"/>
<path d="M261.707 202.3C261.506 202.315 261.305 202.328 261.104 202.339C260.679 202.362 260.252 202.376 259.824 202.383C259.683 202.384 259.54 202.386 259.397 202.386H232.5L232.498 202.373C231.987 202.38 231.468 202.386 230.946 202.393C228.176 202.427 225.283 202.459 222.6 202.482C222.151 202.487 221.708 202.49 221.271 202.493C221.109 202.495 220.947 202.495 220.788 202.496C218.137 202.514 215.793 202.522 214.12 202.511C211.769 202.495 209.553 202.329 207.468 201.998C204.78 201.573 202.312 200.876 200.055 199.878C199.243 199.519 198.457 199.12 197.698 198.681C196.677 198.093 195.704 197.43 194.781 196.691C192.394 194.785 190.331 192.374 188.575 189.405C187.354 187.34 186.28 185.004 185.351 182.379C184.183 179.087 183.244 175.341 182.522 171.105C181.489 165.059 180.898 158.017 180.72 149.876C180.648 146.597 180.643 143.142 180.703 139.499C180.799 133.682 181.062 127.39 181.482 120.6C182.073 111.065 182.976 100.548 184.17 88.9702C185.259 78.3956 186.515 71.0039 188.342 69.3199C191.036 66.8361 196.656 65.8367 200.566 65.4363C200.568 65.4363 200.568 65.4363 200.57 65.4363C202.997 65.1878 204.76 65.1685 204.76 65.1685C209.536 65.1685 213.782 68.5981 215.315 73.6941C218.437 84.0708 224.01 102.623 229.81 122.028C229.839 122.126 229.868 122.223 229.897 122.32C230.23 123.435 230.564 124.552 230.898 125.672C230.949 125.842 231 126.013 231.052 126.183C231.379 126.037 231.718 125.884 232.068 125.73C232.079 125.724 232.091 125.719 232.104 125.714C233.494 125.098 235.068 124.423 236.766 123.735H236.768C237.649 123.378 238.561 123.016 239.502 122.656C242.156 121.638 245.021 120.633 247.925 119.766C249.213 119.38 250.511 119.022 251.801 118.704C253.457 118.293 255.101 117.946 256.702 117.688C256.758 117.678 256.803 117.672 256.842 117.665C257.032 117.635 257.22 117.607 257.408 117.579C264.314 116.566 270.308 117.27 272.787 121.643C276.755 128.649 287.674 156.598 288.48 174.137C289.226 190.311 276.001 201.228 261.707 202.3Z" fill="#D39E7A"/>
<path d="M218.561 129.47C218.561 129.47 204.756 73.2268 203.759 68.4998C203.316 66.393 201.947 65.6315 200.569 65.4359C202.995 65.1878 204.761 65.1689 204.761 65.1689C209.537 65.1689 213.782 68.5876 215.316 73.6688C218.659 84.7515 224.815 105.189 231.052 126.005C230.736 125.997 218.561 129.47 218.561 129.47Z" fill="#F9DDBF"/>
<path d="M269.427 156.515C265.733 150.408 268.835 149.263 268.268 135.583C267.702 121.904 261.333 123.034 258.69 120.389C258.206 119.903 257.796 118.91 257.408 117.579C257.22 117.607 257.032 117.634 256.842 117.665C256.803 117.672 256.757 117.678 256.702 117.688C255.101 117.946 253.457 118.293 251.801 118.703C250.511 119.021 249.213 119.38 247.925 119.766C245.021 120.632 242.156 121.638 239.502 122.656C238.561 123.016 237.649 123.378 236.768 123.734C234.482 138.084 230.945 202.392 230.945 202.392C230.974 202.423 231.002 202.452 231.031 202.482C233.919 202.456 237.04 202.421 240.009 202.386C240.433 202.379 240.853 202.375 241.27 202.37L241.272 202.383H261.569C261.597 202.368 261.624 202.35 261.652 202.334C261.67 202.323 261.689 202.311 261.707 202.3C267.159 198.919 265.942 192.136 264.658 187.883C264.141 183.336 262.132 178.01 260.49 173.058C261 171.551 261.715 170.689 264.787 169.555C268.198 168.298 269.094 162.928 269.094 162.928C270.006 165.329 267.921 168.644 267.866 168.731C267.984 168.592 273.08 162.55 269.427 156.515Z" fill="#C6916D"/>
<path d="M224.082 128.793C224.082 128.793 203.605 137.714 199.888 137.552C196.171 137.39 173.267 130.576 173.267 130.576L173.85 134.516C173.85 134.516 191.526 144.681 197.705 145.258C203.789 145.826 224.592 139.798 226.601 138.525C228.609 137.253 229.918 130.081 224.082 128.793Z" fill="#ED985F"/>
<path d="M227.158 95.974C227.158 95.974 234.712 94.5394 238.475 97.2868C245.29 102.264 245.656 119.422 248.21 121.978C250.764 124.534 256.922 123.443 257.47 136.669C258.018 149.894 255.018 151 258.59 156.904C262.163 162.807 257.079 168.716 257.079 168.716C257.079 168.716 259.161 165.457 258.269 163.105C258.269 163.105 257.402 168.296 254.104 169.513C250.806 170.73 250.318 171.622 249.791 173.407C249.791 173.407 221.654 158.989 221.624 148.763C221.593 138.537 216.087 128.407 218.791 123.975C218.791 123.975 217.587 125.871 217.439 127.98C217.439 127.98 215.816 124.871 218.628 121.978C221.441 119.084 215.33 113.095 216.235 106.159C216.856 101.398 220.197 96.1814 227.158 95.974Z" fill="#233862"/>
<path d="M221.593 138.537C223.392 139.785 225.647 140.813 228.478 141.467C239.089 143.918 243.155 134.95 244.683 128.794C243.235 127.965 241.874 127.783 241.087 127.689C240.321 127.598 239.514 127.538 238.846 127.505C237.654 126.593 235.879 122.858 235.486 117.058L234.987 117.192L226.624 119.481C226.624 119.481 227.007 122.139 227.195 124.652C227.34 126.618 227.363 128.497 226.991 128.957C226.338 129.099 225.946 129.191 225.946 129.191C225.946 129.191 225.946 129.194 225.942 129.199C225.83 129.383 223.404 133.373 221.593 138.537Z" fill="#FFB27D"/>
<path d="M226.624 119.483C226.624 119.483 227.008 122.139 227.194 124.653C231.932 124.179 234.131 119.668 234.987 117.194L226.624 119.483Z" fill="#ED985F"/>
<path d="M225.209 121.978C225.209 121.978 236.455 121.357 235.961 114.36C235.466 107.362 236.585 102.57 229.384 102.67C222.183 102.77 220.978 105.539 220.575 107.915C220.172 110.29 222.271 121.959 225.209 121.978Z" fill="#FFB27D"/>
<path d="M220.63 104C222.215 101.771 223.56 102.139 224.341 102.719C230.239 98.9029 234.553 103.61 234.553 103.61C235.664 108.576 239.491 111.192 239.491 111.192C239.491 111.192 237.534 112.604 232.727 111.729C231.259 111.461 229.898 110.529 228.715 109.365C230.855 112.43 233.62 114.55 233.62 114.55C227.795 112.348 224.969 104.67 224.684 103.857C224.042 104.522 222.787 105.956 222.469 107.297C222.036 109.119 220.172 111.967 219.094 111.919C219.094 111.919 218.252 107.343 220.63 104Z" fill="#233862"/>
<path d="M247.886 161.402C248.901 156.21 252.213 135.468 248.901 128.793C247.712 126.395 243.046 126.179 237.926 126.39C236.332 127.418 230.262 131.305 227.768 130.82C227.742 130.815 227.693 130.803 227.629 130.787C226.455 130.493 226.011 129.668 226.991 128.957C226.993 128.956 224.455 128.713 221.306 129.306C219.527 129.641 214.73 132.123 214.73 132.123C214.73 132.123 217.146 136.487 220.708 137.994C220.102 143.413 221.003 145.803 226.625 158.319C231.375 168.899 225.984 178.424 225.984 178.424C225.984 178.424 253.947 200.907 254.103 189.459C254.22 180.841 246.588 168.037 247.886 161.402Z" fill="#F2E6E2"/>
<path d="M224.597 202.871C223.077 202.699 221.707 201.867 220.857 200.594C220.722 200.392 220.578 200.175 220.425 199.943C217.242 195.125 216.003 180.368 208.844 164.647C207.1 160.82 200.84 160.131 199.133 155.804C199.133 155.804 194.932 141.781 207.174 141.367C219.417 140.954 239.961 180.387 240.286 184.522C240.601 188.529 248.38 205.555 224.597 202.871Z" fill="#645AAB"/>
<path d="M175.938 202.548H193.363C193.363 202.548 194.015 199.769 192.871 197.878C191.858 196.204 192.246 195.251 192.996 193.867C192.207 194.19 191.186 194.484 190.061 194.419C189.193 194.369 188.275 193.975 187.47 193.508C186.72 194.363 183.509 198.002 182.506 198.723C181.367 199.541 176.289 199.25 175.938 202.548Z" fill="#9E332E"/>
<path d="M246.049 134.23C246.049 134.23 248.317 154.864 233.609 159.188C218.901 163.511 214.725 140.203 226.601 138.526C238.476 136.85 246.049 134.23 246.049 134.23Z" fill="#D8CECB"/>
<path d="M198.735 145.421C197.685 153.287 193.588 178.115 186.36 190.228C184.03 194.133 192.231 196.322 192.275 196.311C193.375 196.023 195.208 194.269 196.053 193.508C201.92 188.22 213.833 173.245 213.833 161.239C213.833 155.385 213.935 144.205 209.679 141.364C207.057 139.614 199.151 142.297 198.735 145.421Z" fill="#645AAB"/>
<path d="M234.988 202.548C234.988 202.548 234.342 201.649 233.216 199.943C231.876 197.913 230.393 193.919 228.594 188.799C226.704 183.424 224.462 176.811 221.66 169.93C220.795 167.807 219.877 165.657 218.9 163.51C217.156 159.683 212.359 160.212 210.652 155.885C210.652 155.885 203.992 140.887 216.235 140.473C228.477 140.059 251.74 180.596 253.077 184.522C254.541 188.82 261.681 206.666 234.988 202.548Z" fill="#9C93E1"/>
<path d="M188.73 202.548H206.155C206.155 202.548 206.806 199.769 205.662 197.878C204.649 196.204 205.038 195.251 205.788 193.867C204.998 194.19 203.977 194.484 202.853 194.419C201.984 194.369 201.066 193.975 200.261 193.508C199.511 194.363 196.3 198.002 195.297 198.723C194.158 199.541 189.08 199.25 188.73 202.548Z" fill="#B5453C"/>
<path d="M228.594 188.799C226.704 183.424 224.462 176.811 221.66 169.93C222.391 164.717 223.97 160.157 226.624 158.319C226.624 158.319 233.063 178.268 228.594 188.799Z" fill="#6E63BA"/>
<path d="M208.906 144.863C207.857 152.729 206.379 178.114 199.151 190.227C196.821 194.133 205.022 196.322 205.067 196.31C206.166 196.022 207.999 194.269 208.844 193.507C214.712 188.219 226.624 173.244 226.624 161.239C226.624 155.385 219.754 144.674 215.497 141.833C212.876 140.083 209.323 141.739 208.906 144.863Z" fill="#9C93E1"/>
<path d="M171.187 120.439L189.032 118.544C189.552 118.489 190.044 118.791 190.23 119.28L196.615 136.057C196.895 136.792 196.371 137.586 195.585 137.617L177.878 138.332C177.397 138.351 176.954 138.069 176.768 137.625L170.246 122.029C169.948 121.318 170.42 120.521 171.187 120.439Z" fill="#9E332E"/>
<path d="M169.637 120.601L187.482 118.706C188.002 118.651 188.494 118.953 188.68 119.442L195.065 136.219C195.344 136.954 194.821 137.748 194.035 137.779L176.327 138.493C175.846 138.513 175.404 138.231 175.218 137.787L168.696 122.191C168.398 121.48 168.87 120.683 169.637 120.601Z" fill="#B5453C"/>
<path d="M179.528 128.435C179.31 127.836 179.619 127.351 180.218 127.351C180.817 127.351 181.479 127.836 181.697 128.435C181.915 129.034 181.606 129.519 181.007 129.519C180.408 129.519 179.746 129.034 179.528 128.435Z" fill="#9E332E"/>
<path d="M170.171 122.187C170.064 121.893 170.215 121.654 170.509 121.654C170.804 121.654 171.129 121.893 171.236 122.187C171.343 122.481 171.192 122.72 170.897 122.72C170.603 122.72 170.278 122.481 170.171 122.187Z" fill="#9E332E"/>
<path d="M244.683 128.793C244.683 128.793 219.95 137.901 216.235 137.714C213.833 137.593 193.868 130.576 193.868 130.576L192.076 133.966C192.076 133.966 211.508 146.456 216.85 146.394C227.397 146.272 245.193 139.798 247.201 138.525C249.21 137.253 250.519 130.081 244.683 128.793Z" fill="#FFB27D"/>
<path d="M193.868 130.576C193.868 130.576 192.076 127.818 190.291 127.737C188.506 127.656 185.424 128.954 184.369 129.156C183.315 129.359 180.313 130.333 181.206 131.793C182.098 133.253 186.235 133.577 188.02 133.253C189.804 132.928 192.076 133.967 192.076 133.967L193.868 130.576Z" fill="#FFB27D"/>
<path d="M190.777 127.822C190.777 127.822 187.938 126.52 187.127 126.277C186.316 126.034 186.478 126.281 186.722 127.05C186.965 127.818 188.425 128.552 188.425 128.794C188.425 129.035 190.777 127.822 190.777 127.822Z" fill="#FFB27D"/>
<path d="M171.475 129.116C171.475 129.116 173.264 126.286 173.851 126.17C175.635 125.817 175.635 128.168 175.257 129.684C174.851 131.31 173.476 132.845 173.096 132.711C172.715 132.577 171.054 130.612 171.475 129.116Z" fill="#FFB27D"/>
<path d="M171.407 129.684C171.407 129.684 170.835 132.859 173.85 134.516L171.407 129.684Z" fill="#FFB27D"/>
<path d="M223.104 117.954C223.104 117.954 224.167 117.533 227.158 117.775C227.158 117.775 226.999 118.943 224.793 119.058C223.543 119.123 223.104 117.954 223.104 117.954Z" fill="white"/>
<path d="M231.94 133.285C231.94 133.285 234.152 140.288 241.749 141.881C241.749 141.881 254.294 138.016 248.048 129.469C248.048 129.469 241.872 124.881 231.94 133.285Z" fill="#F2E6E2"/>
<path d="M495.438 203.864H0.562099C0.253061 203.864 0 203.611 0 203.302V203.11C0 202.801 0.252883 202.548 0.562099 202.548H495.438C495.747 202.548 496 202.801 496 203.11V203.302C496 203.611 495.747 203.864 495.438 203.864Z" fill="#2E3552"/>
</svg>
