<svg width="547" height="91" viewBox="0 0 547 91" fill="none" xmlns="http://www.w3.org/2000/svg">
<path d="M142.256 89.2785V79.4347L187 15.2586H142V2.00574H206.602V11.8495L161.901 76.0256H206.858V89.2785H142.256Z" fill="white"/>
<path d="M250.452 90.5569C243.889 90.5569 238.222 89.1932 233.449 86.466C228.705 83.7103 225.054 79.8182 222.497 74.7898C219.94 69.733 218.662 63.7813 218.662 56.9347C218.662 50.2018 219.94 44.2927 222.497 39.2074C225.082 34.0938 228.69 30.1165 233.321 27.2756C237.952 24.4063 243.392 22.9716 249.642 22.9716C253.676 22.9716 257.483 23.6251 261.062 24.9319C264.67 26.2103 267.852 28.1989 270.608 30.8978C273.392 33.5966 275.58 37.0341 277.17 41.2103C278.761 45.358 279.557 50.3012 279.557 56.0398V60.7699H225.906V50.3722H264.77C264.741 47.4177 264.102 44.7898 262.852 42.4887C261.602 40.1591 259.855 38.3268 257.611 36.9915C255.395 35.6563 252.81 34.9887 249.855 34.9887C246.702 34.9887 243.932 35.7557 241.545 37.2898C239.159 38.7955 237.298 40.7841 235.963 43.2557C234.656 45.6989 233.989 48.3836 233.96 51.3097V60.3864C233.96 64.1932 234.656 67.4603 236.048 70.1876C237.44 72.8864 239.386 74.9603 241.886 76.4091C244.386 77.8296 247.312 78.5398 250.665 78.5398C252.909 78.5398 254.94 78.2273 256.759 77.6023C258.577 76.9489 260.153 75.9972 261.489 74.7472C262.824 73.4972 263.832 71.9489 264.514 70.1023L278.918 71.7216C278.009 75.5285 276.276 78.8523 273.719 81.6932C271.19 84.5057 267.952 86.6932 264.003 88.2557C260.054 89.7898 255.537 90.5569 250.452 90.5569Z" fill="white"/>
<path d="M292.607 89.2785V23.8239H307.565V34.733H308.246C309.44 30.9546 311.485 28.0427 314.383 25.9972C317.309 23.9234 320.647 22.8864 324.397 22.8864C325.249 22.8864 326.201 22.929 327.252 23.0143C328.332 23.0711 329.227 23.1705 329.937 23.3126V37.5029C329.283 37.2756 328.246 37.0768 326.826 36.9063C325.434 36.7074 324.085 36.608 322.778 36.608C319.965 36.608 317.437 37.2188 315.192 38.4404C312.977 39.6336 311.229 41.2955 309.951 43.4262C308.673 45.5569 308.033 48.0143 308.033 50.7984V89.2785H292.607Z" fill="white"/>
<path d="M366.467 90.5569C359.905 90.5569 354.237 89.1932 349.464 86.466C344.72 83.7103 341.07 79.8182 338.513 74.7898C335.956 69.733 334.678 63.7813 334.678 56.9347C334.678 50.2018 335.956 44.2927 338.513 39.2074C341.098 34.0938 344.706 30.1165 349.337 27.2756C353.967 24.4063 359.408 22.9716 365.658 22.9716C369.692 22.9716 373.499 23.6251 377.078 24.9319C380.686 26.2103 383.868 28.1989 386.624 30.8978C389.408 33.5966 391.595 37.0341 393.186 41.2103C394.777 45.358 395.572 50.3012 395.572 56.0398V60.7699H341.922V50.3722H380.786C380.757 47.4177 380.118 44.7898 378.868 42.4887C377.618 40.1591 375.871 38.3268 373.626 36.9915C371.411 35.6563 368.825 34.9887 365.871 34.9887C362.717 34.9887 359.947 35.7557 357.561 37.2898C355.175 38.7955 353.314 40.7841 351.979 43.2557C350.672 45.6989 350.004 48.3836 349.976 51.3097V60.3864C349.976 64.1932 350.672 67.4603 352.064 70.1876C353.456 72.8864 355.402 74.9603 357.902 76.4091C360.402 77.8296 363.328 78.5398 366.68 78.5398C368.925 78.5398 370.956 78.2273 372.774 77.6023C374.592 76.9489 376.169 75.9972 377.504 74.7472C378.839 73.4972 379.848 71.9489 380.53 70.1023L394.933 71.7216C394.024 75.5285 392.291 78.8523 389.734 81.6932C387.206 84.5057 383.967 86.6932 380.018 88.2557C376.07 89.7898 371.553 90.5569 366.467 90.5569Z" fill="white"/>
<path d="M424.049 50.9262V89.2785H408.623V23.8239H423.367V34.9461H424.134C425.64 31.2813 428.04 28.3694 431.336 26.2103C434.66 24.0512 438.765 22.9716 443.651 22.9716C448.168 22.9716 452.103 23.9376 455.455 25.8694C458.836 27.8012 461.45 30.5995 463.296 34.2643C465.171 37.929 466.094 42.3751 466.066 47.6023V89.2785H450.64V49.9887C450.64 45.6137 449.504 42.1904 447.231 39.7188C444.987 37.2472 441.876 36.0114 437.898 36.0114C435.2 36.0114 432.799 36.608 430.697 37.8012C428.623 38.966 426.989 40.6563 425.796 42.8722C424.631 45.0881 424.049 47.7728 424.049 50.9262Z" fill="white"/>
<path d="M510.725 90.5569C504.163 90.5569 498.495 89.1932 493.722 86.466C488.978 83.7103 485.327 79.8182 482.771 74.7898C480.214 69.733 478.935 63.7813 478.935 56.9347C478.935 50.2018 480.214 44.2927 482.771 39.2074C485.356 34.0938 488.964 30.1165 493.594 27.2756C498.225 24.4063 503.665 22.9716 509.915 22.9716C513.95 22.9716 517.756 23.6251 521.336 24.9319C524.944 26.2103 528.126 28.1989 530.881 30.8978C533.665 33.5966 535.853 37.0341 537.444 41.2103C539.035 45.358 539.83 50.3012 539.83 56.0398V60.7699H486.18V50.3722H525.043C525.015 47.4177 524.376 44.7898 523.126 42.4887C521.876 40.1591 520.129 38.3268 517.884 36.9915C515.668 35.6563 513.083 34.9887 510.129 34.9887C506.975 34.9887 504.205 35.7557 501.819 37.2898C499.433 38.7955 497.572 40.7841 496.237 43.2557C494.93 45.6989 494.262 48.3836 494.234 51.3097V60.3864C494.234 64.1932 494.93 67.4603 496.322 70.1876C497.714 72.8864 499.66 74.9603 502.16 76.4091C504.66 77.8296 507.586 78.5398 510.938 78.5398C513.183 78.5398 515.214 78.2273 517.032 77.6023C518.85 76.9489 520.427 75.9972 521.762 74.7472C523.097 73.4972 524.106 71.9489 524.788 70.1023L539.191 71.7216C538.282 75.5285 536.549 78.8523 533.992 81.6932C531.464 84.5057 528.225 86.6932 524.276 88.2557C520.327 89.7898 515.81 90.5569 510.725 90.5569Z" fill="white"/>
<path d="M121.026 46.1415C120.566 45.3322 119.95 44.6226 119.213 44.0541C118.476 43.4856 117.634 43.0695 116.735 42.8301C112.657 41.7865 108.433 41.4367 104.239 41.7952C106.653 31.121 105.077 22.6974 103.49 17.7872C102.936 16.0525 101.756 14.5865 100.181 13.6749C98.6059 12.7633 96.748 12.4714 94.9696 12.8562C89.4494 14.0953 84.2234 16.3994 79.584 19.6395C76.3553 12.6098 71.4737 6.46727 65.3565 1.73693C64.1014 0.790392 62.5725 0.278442 61.0009 0.278442C59.4293 0.278442 57.9005 0.790392 56.6453 1.73693C50.5315 6.46935 45.652 12.6115 42.423 19.6395C37.7823 16.3982 32.5545 14.0941 27.0323 12.8562C25.2538 12.4719 23.3961 12.7646 21.8217 13.6773C20.2473 14.59 19.0693 16.0571 18.5175 17.7923C16.9304 22.7026 15.3535 31.1261 17.7679 41.8004C13.5742 41.4419 9.35008 41.7917 5.27229 42.8352C4.3733 43.0746 3.5309 43.4907 2.7942 44.0593C2.0575 44.6278 1.44123 45.3374 0.981301 46.1467C0.497941 46.9784 0.18499 47.8982 0.0607205 48.8523C-0.0635494 49.8064 0.0033522 50.7758 0.257519 51.7037C1.96875 58.0576 7.23685 70.1341 23.2221 79.7114C39.2073 89.2888 53.3986 89.2785 61.0035 89.2785C68.6084 89.2785 82.779 89.2784 98.7746 79.7114C114.77 70.1444 120.028 58.0576 121.739 51.6986C121.995 50.7713 122.063 49.8023 121.941 48.8482C121.818 47.8941 121.507 46.974 121.026 46.1415ZM81.9311 25.5846C86.1877 22.3723 91.0751 20.0976 96.2724 18.9099C96.5484 18.8536 96.8356 18.9017 97.0782 19.0451C97.3208 19.1885 97.5016 19.4169 97.5855 19.6861C99.6224 26.0089 101.623 39.0891 92.1106 55.6464C88.2921 62.1771 83.3979 68.0148 77.635 72.9126C81.6054 65.9948 84.7849 56.6451 84.7849 44.3513C84.8332 37.9839 83.8699 31.6493 81.9311 25.5846ZM24.4215 19.7016C24.5024 19.4295 24.6819 19.1975 24.9248 19.0511C25.1677 18.9046 25.4566 18.8543 25.7346 18.9099C30.9319 20.0976 35.8194 22.3723 40.0759 25.5846C38.1371 31.6493 37.1738 37.9839 37.2221 44.3513C37.2221 56.6451 40.4016 66.0051 44.3617 72.8971C38.5975 68.0005 33.7032 62.1626 29.8861 55.6309C20.3838 39.0891 22.3846 26.0089 24.4215 19.7016ZM26.4067 74.3769C12.293 65.9378 7.71764 55.5326 6.24423 50.0584C6.20559 49.9193 6.19529 49.7739 6.21394 49.6308C6.23259 49.4877 6.27982 49.3498 6.3528 49.2253C6.46505 49.0255 6.65039 48.8771 6.86978 48.8114C11.048 47.7723 15.3922 47.584 19.6445 48.2578C20.9562 51.8929 22.5877 55.4044 24.5197 58.7509C29.8239 67.9119 37.0568 75.8076 45.7162 81.8897C38.8895 80.5375 32.3535 77.9945 26.4067 74.3769ZM61.0035 82.4796C56.5161 79.2716 43.4259 67.8885 43.4259 44.3513C43.4259 21.9161 55.2856 10.5433 60.3831 6.69377C60.5621 6.55942 60.7798 6.4868 61.0035 6.4868C61.2272 6.4868 61.4449 6.55942 61.6239 6.69377C66.7214 10.5433 78.5811 21.9161 78.5811 44.3513C78.5811 68.0334 65.5582 79.2768 61.0035 82.4796ZM115.752 50.0791C114.279 55.5326 109.704 65.9378 95.5899 74.3976C89.6367 78.0079 83.0954 80.5421 76.265 81.8846C84.9244 75.8024 92.1573 67.9067 97.4614 58.7458C99.4021 55.4018 101.042 51.8921 102.362 48.2578C106.62 47.5894 110.967 47.7847 115.148 48.8321C115.367 48.8978 115.552 49.0462 115.665 49.246C115.736 49.3712 115.781 49.5095 115.798 49.6526C115.815 49.7957 115.803 49.9407 115.763 50.0791H115.752Z" fill="white"/>
</svg>
