<svg width="547" height="90" viewBox="0 0 547 90" fill="none" xmlns="http://www.w3.org/2000/svg">
<path d="M142.256 88V78.1563L187 13.9801H142V0.727295H206.602V10.571L161.901 74.7472H206.858V88H142.256Z" fill="black"/>
<path d="M250.452 89.2784C243.889 89.2784 238.222 87.9148 233.449 85.1875C228.705 82.4318 225.054 78.5398 222.497 73.5114C219.94 68.4546 218.662 62.5029 218.662 55.6563C218.662 48.9233 219.94 43.0142 222.497 37.929C225.082 32.8154 228.69 28.8381 233.321 25.9972C237.952 23.1279 243.392 21.6932 249.642 21.6932C253.676 21.6932 257.483 22.3466 261.062 23.6534C264.67 24.9318 267.852 26.9205 270.608 29.6193C273.392 32.3182 275.58 35.7557 277.17 39.9318C278.761 44.0796 279.557 49.0228 279.557 54.7614V59.4915H225.906V49.0938H264.77C264.741 46.1392 264.102 43.5114 262.852 41.2103C261.602 38.8807 259.855 37.0483 257.611 35.7131C255.395 34.3779 252.81 33.7103 249.855 33.7103C246.702 33.7103 243.932 34.4773 241.545 36.0114C239.159 37.5171 237.298 39.5057 235.963 41.9773C234.656 44.4205 233.989 47.1051 233.96 50.0313V59.108C233.96 62.9148 234.656 66.1818 236.048 68.9091C237.44 71.608 239.386 73.6818 241.886 75.1307C244.386 76.5512 247.312 77.2614 250.665 77.2614C252.909 77.2614 254.94 76.9489 256.759 76.3239C258.577 75.6705 260.153 74.7188 261.489 73.4688C262.824 72.2188 263.832 70.6705 264.514 68.8239L278.918 70.4432C278.009 74.25 276.276 77.5739 273.719 80.4148C271.19 83.2273 267.952 85.4148 264.003 86.9773C260.054 88.5114 255.537 89.2784 250.452 89.2784Z" fill="black"/>
<path d="M292.607 88V22.5455H307.565V33.4546H308.246C309.44 29.6762 311.485 26.7642 314.383 24.7188C317.309 22.6449 320.647 21.608 324.397 21.608C325.249 21.608 326.201 21.6506 327.252 21.7358C328.332 21.7926 329.227 21.8921 329.937 22.0341V36.2245C329.283 35.9972 328.246 35.7983 326.826 35.6279C325.434 35.429 324.085 35.3296 322.778 35.3296C319.965 35.3296 317.437 35.9404 315.192 37.162C312.977 38.3551 311.229 40.0171 309.951 42.1478C308.673 44.2784 308.033 46.7358 308.033 49.5199V88H292.607Z" fill="black"/>
<path d="M366.467 89.2784C359.905 89.2784 354.237 87.9148 349.464 85.1875C344.72 82.4318 341.07 78.5398 338.513 73.5114C335.956 68.4546 334.678 62.5029 334.678 55.6563C334.678 48.9233 335.956 43.0142 338.513 37.929C341.098 32.8154 344.706 28.8381 349.337 25.9972C353.967 23.1279 359.408 21.6932 365.658 21.6932C369.692 21.6932 373.499 22.3466 377.078 23.6534C380.686 24.9318 383.868 26.9205 386.624 29.6193C389.408 32.3182 391.595 35.7557 393.186 39.9318C394.777 44.0796 395.572 49.0228 395.572 54.7614V59.4915H341.922V49.0938H380.786C380.757 46.1392 380.118 43.5114 378.868 41.2103C377.618 38.8807 375.871 37.0483 373.626 35.7131C371.411 34.3779 368.825 33.7103 365.871 33.7103C362.717 33.7103 359.947 34.4773 357.561 36.0114C355.175 37.5171 353.314 39.5057 351.979 41.9773C350.672 44.4205 350.004 47.1051 349.976 50.0313V59.108C349.976 62.9148 350.672 66.1818 352.064 68.9091C353.456 71.608 355.402 73.6818 357.902 75.1307C360.402 76.5512 363.328 77.2614 366.68 77.2614C368.925 77.2614 370.956 76.9489 372.774 76.3239C374.592 75.6705 376.169 74.7188 377.504 73.4688C378.839 72.2188 379.848 70.6705 380.53 68.8239L394.933 70.4432C394.024 74.25 392.291 77.5739 389.734 80.4148C387.206 83.2273 383.967 85.4148 380.018 86.9773C376.07 88.5114 371.553 89.2784 366.467 89.2784Z" fill="black"/>
<path d="M424.049 49.6478V88H408.623V22.5455H423.367V33.6676H424.134C425.64 30.0029 428.04 27.0909 431.336 24.9318C434.66 22.7728 438.765 21.6932 443.651 21.6932C448.168 21.6932 452.103 22.6591 455.455 24.5909C458.836 26.5228 461.45 29.321 463.296 32.9858C465.171 36.6506 466.094 41.0966 466.066 46.3239V88H450.64V48.7103C450.64 44.3353 449.504 40.912 447.231 38.4404C444.987 35.9688 441.876 34.733 437.898 34.733C435.2 34.733 432.799 35.3296 430.697 36.5228C428.623 37.6875 426.989 39.3779 425.796 41.5938C424.631 43.8097 424.049 46.4943 424.049 49.6478Z" fill="black"/>
<path d="M510.725 89.2784C504.163 89.2784 498.495 87.9148 493.722 85.1875C488.978 82.4318 485.327 78.5398 482.771 73.5114C480.214 68.4546 478.935 62.5029 478.935 55.6563C478.935 48.9233 480.214 43.0142 482.771 37.929C485.356 32.8154 488.964 28.8381 493.594 25.9972C498.225 23.1279 503.665 21.6932 509.915 21.6932C513.95 21.6932 517.756 22.3466 521.336 23.6534C524.944 24.9318 528.126 26.9205 530.881 29.6193C533.665 32.3182 535.853 35.7557 537.444 39.9318C539.035 44.0796 539.83 49.0228 539.83 54.7614V59.4915H486.18V49.0938H525.043C525.015 46.1392 524.376 43.5114 523.126 41.2103C521.876 38.8807 520.129 37.0483 517.884 35.7131C515.668 34.3779 513.083 33.7103 510.129 33.7103C506.975 33.7103 504.205 34.4773 501.819 36.0114C499.433 37.5171 497.572 39.5057 496.237 41.9773C494.93 44.4205 494.262 47.1051 494.234 50.0313V59.108C494.234 62.9148 494.93 66.1818 496.322 68.9091C497.714 71.608 499.66 73.6818 502.16 75.1307C504.66 76.5512 507.586 77.2614 510.938 77.2614C513.183 77.2614 515.214 76.9489 517.032 76.3239C518.85 75.6705 520.427 74.7188 521.762 73.4688C523.097 72.2188 524.106 70.6705 524.788 68.8239L539.191 70.4432C538.282 74.25 536.549 77.5739 533.992 80.4148C531.464 83.2273 528.225 85.4148 524.276 86.9773C520.327 88.5114 515.81 89.2784 510.725 89.2784Z" fill="black"/>
<path d="M121.026 45.8631C120.566 45.0538 119.95 44.3442 119.213 43.7757C118.476 43.2071 117.634 42.791 116.735 42.5516C112.657 41.5081 108.433 41.1583 104.239 41.5168C106.653 30.8425 105.077 22.419 103.49 17.5087C102.936 15.7741 101.756 14.3081 100.181 13.3964C98.6059 12.4848 96.748 12.193 94.9696 12.5777C89.4494 13.8169 84.2234 16.121 79.584 19.3611C76.3553 12.3314 71.4737 6.18883 65.3565 1.45849C64.1014 0.511949 62.5725 0 61.0009 0C59.4293 0 57.9005 0.511949 56.6453 1.45849C50.5315 6.19091 45.652 12.333 42.423 19.3611C37.7823 16.1198 32.5545 13.8156 27.0323 12.5777C25.2538 12.1934 23.3961 12.4862 21.8217 13.3989C20.2473 14.3116 19.0693 15.7787 18.5175 17.5139C16.9304 22.4242 15.3535 30.8477 17.7679 41.522C13.5742 41.1635 9.35008 41.5133 5.27229 42.5568C4.3733 42.7962 3.5309 43.2123 2.7942 43.7808C2.0575 44.3494 1.44123 45.0589 0.981301 45.8683C0.497941 46.7 0.18499 47.6198 0.0607205 48.5739C-0.0635494 49.528 0.0033522 50.4973 0.257519 51.4253C1.96875 57.7792 7.23685 69.8556 23.2221 79.433C39.2073 89.0103 53.3986 89 61.0035 89C68.6084 89 82.779 89 98.7746 79.433C114.77 69.866 120.028 57.7792 121.739 51.4201C121.995 50.4928 122.063 49.5239 121.941 48.5698C121.818 47.6157 121.507 46.6955 121.026 45.8631ZM81.9311 25.3062C86.1877 22.0938 91.0751 19.8191 96.2724 18.6315C96.5484 18.5751 96.8356 18.6233 97.0782 18.7667C97.3208 18.9101 97.5016 19.1385 97.5855 19.4076C99.6224 25.7304 101.623 38.8107 92.1106 55.368C88.2921 61.8987 83.3979 67.7363 77.635 72.6341C81.6054 65.7163 84.7849 56.3666 84.7849 44.0728C84.8332 37.7054 83.8699 31.3709 81.9311 25.3062ZM24.4215 19.4231C24.5024 19.1511 24.6819 18.9191 24.9248 18.7726C25.1677 18.6262 25.4566 18.5759 25.7346 18.6315C30.9319 19.8191 35.8194 22.0938 40.0759 25.3062C38.1371 31.3709 37.1738 37.7054 37.2221 44.0728C37.2221 56.3666 40.4016 65.7267 44.3617 72.6186C38.5975 67.722 33.7032 61.8842 29.8861 55.3525C20.3838 38.8107 22.3846 25.7304 24.4215 19.4231ZM26.4067 74.0984C12.293 65.6594 7.71764 55.2542 6.24423 49.7799C6.20559 49.6409 6.19529 49.4955 6.21394 49.3523C6.23259 49.2092 6.27982 49.0713 6.3528 48.9469C6.46505 48.7471 6.65039 48.5987 6.86978 48.5329C11.048 47.4938 15.3922 47.3056 19.6445 47.9793C20.9562 51.6145 22.5877 55.126 24.5197 58.4725C29.8239 67.6334 37.0568 75.5291 45.7162 81.6113C38.8895 80.2591 32.3535 77.7161 26.4067 74.0984ZM61.0035 82.2012C56.5161 78.9932 43.4259 67.61 43.4259 44.0728C43.4259 21.6377 55.2856 10.2649 60.3831 6.41533C60.5621 6.28098 60.7798 6.20836 61.0035 6.20836C61.2272 6.20836 61.4449 6.28098 61.6239 6.41533C66.7214 10.2649 78.5811 21.6377 78.5811 44.0728C78.5811 67.7549 65.5582 78.9984 61.0035 82.2012ZM115.752 49.8006C114.279 55.2542 109.704 65.6594 95.5899 74.1191C89.6367 77.7294 83.0954 80.2637 76.265 81.6061C84.9244 75.524 92.1573 67.6283 97.4614 58.4673C99.4021 55.1234 101.042 51.6136 102.362 47.9793C106.62 47.3109 110.967 47.5062 115.148 48.5536C115.367 48.6194 115.552 48.7678 115.665 48.9676C115.736 49.0928 115.781 49.231 115.798 49.3741C115.815 49.5172 115.803 49.6623 115.763 49.8006H115.752Z" fill="url(#paint0_linear_21_161)"/>
<defs>
<linearGradient id="paint0_linear_21_161" x1="-2.52982e-07" y1="47.5068" x2="122" y2="47.5068" gradientUnits="userSpaceOnUse">
<stop stop-color="#7E6CFB"/>
<stop offset="1" stop-color="#3E8F9C"/>
</linearGradient>
</defs>
</svg>
