<svg width="172" height="172" viewBox="0 0 172 172" fill="none" xmlns="http://www.w3.org/2000/svg">
<path d="M86 172C133.496 172 172 133.496 172 86C172 38.5035 133.496 0 86 0C38.5035 0 0 38.5035 0 86C0 133.496 38.5035 172 86 172Z" fill="#3E8F9C"/>
<mask id="mask0_841_11993" style="mask-type:luminance" maskUnits="userSpaceOnUse" x="0" y="0" width="172" height="172">
<path d="M86 172C133.496 172 172 133.496 172 86C172 38.5035 133.496 0 86 0C38.5035 0 0 38.5035 0 86C0 133.496 38.5035 172 86 172Z" fill="white"/>
</mask>
<g mask="url(#mask0_841_11993)">
<path d="M60.3249 42.4885C60.3249 42.4885 56.4462 64.6501 29.7822 80.7428C1.35388 97.9002 17.553 152.415 67.3369 153.601C121.41 154.909 148.895 87.3442 117.638 32.1758L60.3249 42.4885Z" fill="#1E0B02"/>
<path d="M150.127 137.352C147.344 129.929 138.826 120.179 122.338 117.593L91.5974 111.555L60.8571 117.593C44.3689 120.179 35.851 129.929 33.0675 137.352L26.6183 166.434H54.8185L56.8719 168.776L91.0955 175.515L126.277 166.434H156.546L150.097 137.352H150.127Z" fill="#9C93E1"/>
<path d="M59.8989 117.902L93.2403 111.148L124.346 117.811L123.661 118.313C104.648 131.987 79.0793 131.363 59.9141 117.917L59.8989 117.902Z" fill="#E0A78F"/>
<path d="M74.9726 68.5882C75.1703 73.5468 71.2917 77.7297 66.333 77.9274C61.3744 78.1252 57.1915 74.2465 56.9938 69.2879C56.7961 64.3293 60.6747 60.1464 65.6334 59.9486C70.592 59.7509 74.7748 63.6296 74.9726 68.5882Z" fill="#E0A78F"/>
<path d="M60.8574 67.7379C60.8574 67.7379 64.4167 65.9583 67.8847 72.1337" stroke="#B9635E" stroke-width="0.66" stroke-linecap="round" stroke-linejoin="round"/>
<path d="M107.827 68.5106C107.873 73.4844 111.949 77.4696 116.923 77.4087C121.897 77.3631 125.882 73.2867 125.821 68.3129C125.775 63.339 121.699 59.3539 116.725 59.4147C111.751 59.4604 107.766 63.5368 107.827 68.5106Z" fill="#E0A78F"/>
<path d="M121.867 66.9604C121.867 66.9604 118.231 65.3633 115.052 71.7061" stroke="#B9635E" stroke-width="0.66" stroke-linecap="round" stroke-linejoin="round"/>
<path d="M91.2164 75.6938C108.302 75.5179 122.02 62.4438 121.855 46.4921C121.691 30.5404 107.707 17.7516 90.6215 17.9275C73.5358 18.1035 59.8182 31.1775 59.9825 47.1293C60.1468 63.081 74.1306 75.8698 91.2164 75.6938Z" fill="#1E0B02"/>
<path d="M100.268 86.5542C100.268 86.5542 96.4195 90.1743 92.8755 91.0869C89.3314 91.9996 85.8482 89.3529 85.8026 89.3225C85.757 89.2921 81.6197 86.25 81.6197 86.25L80.266 115.88L80.7375 116.367C86.8369 122.786 95.5069 122.786 101.515 116.367L102.397 115.424L100.268 86.5542Z" fill="#E0A78F"/>
<path d="M78.7752 82.3555C78.7752 82.3555 83.9468 99.6041 92.8449 99.3456C100.161 99.1326 102.032 82.9791 102.032 82.9791L78.76 82.3555H78.7752Z" fill="#1E0B02"/>
<path d="M115.508 51.6109C115.661 61.3456 114.337 69.757 112.983 75.7499C111.66 81.6059 107.721 85.7432 102.123 89.1199L101.104 89.7283C95.1873 93.2876 87.4755 93.4853 81.3457 90.2455C75.1703 86.96 70.8201 82.5794 69.4055 76.3431C66.8349 64.9961 66.3786 52.3866 66.3786 52.3866C66.3786 52.3866 64.0514 26.0877 90.5481 26.1485C117.045 26.2246 115.493 51.6261 115.493 51.6261L115.508 51.6109Z" fill="#E0A78F"/>
<path d="M88.951 65.3398L88.9967 69.1425L91.5977 69.1273" stroke="#B9635E" stroke-width="0.66" stroke-linecap="round" stroke-linejoin="round"/>
<path d="M71.4741 51.862L85.4678 50.4474C85.4678 50.4474 84.1749 46.8273 78.5166 47.4814C72.7214 48.1506 71.4741 51.862 71.4741 51.862Z" fill="#B9635E"/>
<path d="M110.489 51.4425L96.465 50.317C96.465 50.317 97.6818 46.6817 103.355 47.1988C109.166 47.7464 110.489 51.4273 110.489 51.4273V51.4425Z" fill="#B9635E"/>
<path d="M81.7867 60.2549C81.7867 61.4413 80.8437 62.4148 79.6725 62.4148C78.5013 62.4148 77.5126 61.4717 77.5126 60.3005C77.5126 59.1141 78.4556 58.1406 79.6268 58.1406C80.8132 58.1406 81.7867 59.0837 81.7867 60.2549Z" fill="#1E0B02"/>
<path d="M102.823 60.0439C102.823 61.2304 101.88 62.2038 100.708 62.2038C99.5221 62.2038 98.5486 61.2608 98.5486 60.0896C98.5486 58.9032 99.4916 57.9297 100.663 57.9297C101.849 57.9297 102.823 58.8727 102.823 60.0439Z" fill="#1E0B02"/>
<path d="M82.4866 74.6204C82.4866 74.6204 88.4795 77.7994 98.0469 74.4531" stroke="black" stroke-width="0.66" stroke-linecap="round" stroke-linejoin="round"/>
<path d="M115.448 45.6217C115.448 45.6217 76.4632 47.4773 77.8778 24.6008C77.8778 24.6008 111.767 14.6227 115.448 45.6217Z" fill="#1E0B02"/>
<path d="M65.7396 46.1527C65.7396 46.1527 79.3834 40.2815 79.2313 26.2422C79.2313 26.2422 65.2073 28.0066 65.7396 46.1527Z" fill="#1E0B02"/>
</g>
</svg>
