<svg width="51" height="72" viewBox="0 0 51 72" fill="none" xmlns="http://www.w3.org/2000/svg">
<path d="M51 69.4688C51 70.4328 50.2197 71.2131 49.2556 71.2131H1.74438C0.78033 71.2131 0 70.4328 0 69.4688V7.97876C0 7.01471 0.78033 6.23438 1.74438 6.23438H49.2556C50.2197 6.23438 51 7.01471 51 7.97876V69.4688Z" fill="#13959C"/>
<path d="M51 67.3174C51 68.2479 50.2197 69.0025 49.2556 69.0025H1.74438C0.78033 69.0025 0 68.2479 0 67.3174V7.91949C0 6.98902 0.78033 6.23438 1.74438 6.23438H49.2556C50.2197 6.23438 51 6.98902 51 7.91949V67.3194V67.3174Z" fill="#24B7C4"/>
<path d="M48.0387 9.74219H2.9613V64.9856H48.0387V9.74219Z" fill="white"/>
<path d="M39.8541 6.78122C39.8541 5.3549 38.6985 4.19922 37.2721 4.19922H13.7259C12.2996 4.19922 11.1439 5.3549 11.1439 6.78122V11.3249H39.8541V6.78122Z" fill="#B4B3B3"/>
<path d="M28.7207 7.96714C30.0303 6.18635 29.6483 3.68112 27.8675 2.37157C26.0867 1.06201 23.5815 1.44402 22.2719 3.22481C20.9624 5.0056 21.3444 7.51082 23.1252 8.82038C24.906 10.1299 27.4112 9.74793 28.7207 7.96714Z" fill="#B4B3B3"/>
<path d="M26.7248 4.36742C26.7248 5.04503 26.1756 5.59422 25.498 5.59422C24.8204 5.59422 24.2712 5.04503 24.2712 4.36742C24.2712 3.68982 24.8204 3.14062 25.498 3.14062C26.1756 3.14062 26.7248 3.68982 26.7248 4.36742Z" fill="#EDEFC7"/>
<path d="M39.8541 8.16406H11.1439V11.3269H39.8541V8.16406Z" fill="#D2D2D2"/>
<path d="M40.1604 21.7191C40.1604 21.9265 39.9826 22.0944 39.7653 22.0944H9.68404C9.46674 22.0944 9.28894 21.9246 9.28894 21.7191C9.28894 21.5136 9.46674 21.3438 9.68404 21.3438H39.7653C39.9826 21.3438 40.1604 21.5136 40.1604 21.7191Z" fill="#ECECF0"/>
<path d="M29.5815 23.0902C29.5815 23.2976 29.4037 23.4655 29.1864 23.4655H9.68404C9.46674 23.4655 9.28894 23.2956 9.28894 23.0902C9.28894 22.8847 9.46674 22.7148 9.68404 22.7148H29.1844C29.4017 22.7148 29.5795 22.8847 29.5795 23.0902H29.5815Z" fill="#ECECF0"/>
<path d="M24.7256 24.4808C24.7256 24.6882 24.5478 24.8562 24.3305 24.8562H9.68404C9.46674 24.8562 9.28894 24.6863 9.28894 24.4808C9.28894 24.2754 9.46674 24.1055 9.68404 24.1055H24.3305C24.5478 24.1055 24.7256 24.2754 24.7256 24.4808Z" fill="#ECECF0"/>
<path d="M40.3697 31.3876C40.3697 31.6049 40.1919 31.7827 39.9746 31.7827H16.2467C16.0294 31.7827 15.8516 31.6049 15.8516 31.3876V31.0123C15.8516 30.795 16.0294 30.6172 16.2467 30.6172H39.9746C40.1919 30.6172 40.3697 30.795 40.3697 31.0123V31.3876Z" fill="#ECECF0"/>
<path d="M40.3697 37.2548C40.3697 37.4721 40.1919 37.6499 39.9746 37.6499H16.2467C16.0294 37.6499 15.8516 37.4721 15.8516 37.2548V36.8795C15.8516 36.6622 16.0294 36.4844 16.2467 36.4844H39.9746C40.1919 36.4844 40.3697 36.6622 40.3697 36.8795V37.2548Z" fill="#ECECF0"/>
<path d="M40.3697 43.2314C40.3697 43.4487 40.1919 43.6265 39.9746 43.6265H16.2467C16.0294 43.6265 15.8516 43.4487 15.8516 43.2314V42.856C15.8516 42.6387 16.0294 42.4609 16.2467 42.4609H39.9746C40.1919 42.4609 40.3697 42.6387 40.3697 42.856V43.2314Z" fill="#ECECF0"/>
<path d="M40.3697 48.8017C40.3697 49.019 40.1919 49.1968 39.9746 49.1968H16.2467C16.0294 49.1968 15.8516 49.019 15.8516 48.8017V48.4264C15.8516 48.209 16.0294 48.0312 16.2467 48.0312H39.9746C40.1919 48.0312 40.3697 48.209 40.3697 48.4264V48.8017Z" fill="#ECECF0"/>
<path d="M13.4118 29.0932V32.7498H9.75516V29.0932H13.4118ZM13.8761 28.6289H9.28894V33.2161H13.8761V28.6289Z" fill="#ECECF0"/>
<path d="M13.4118 35.0424V38.6991H9.75516V35.0424H13.4118ZM13.8761 34.5781H9.28894V39.1653H13.8761V34.5781Z" fill="#ECECF0"/>
<path d="M13.4118 40.9799V44.6366H9.75516V40.9799H13.4118ZM13.8761 40.5156H9.28894V45.1028H13.8761V40.5156Z" fill="#ECECF0"/>
<path d="M13.4118 46.9955V50.6522H9.75516V46.9955H13.4118ZM13.8761 46.5312H9.28894V51.1184H13.8761V46.5312Z" fill="#ECECF0"/>
<path d="M11.6042 32.1798C11.5588 32.1798 11.5153 32.158 11.4877 32.1205L9.97642 30.0916C9.93296 30.0324 9.93888 29.9514 9.99025 29.9C10.0199 29.8704 10.0574 29.8546 10.0969 29.8546C10.1266 29.8546 10.1562 29.8645 10.1819 29.8822L11.5786 30.8759L14.1211 28.5922C14.1487 28.5665 14.1843 28.5547 14.2198 28.5547C14.2554 28.5547 14.2929 28.5685 14.3206 28.5942C14.3759 28.6475 14.3838 28.7325 14.3364 28.7937L11.7248 32.1245C11.6971 32.16 11.6536 32.1817 11.6082 32.1817L11.6042 32.1798Z" fill="#88BA34"/>
<path d="M14.2179 28.7006L11.6063 32.0313L10.095 30.0025L11.5885 31.0653L14.2199 28.7026M14.2199 28.4062H14.214C14.1409 28.4062 14.0737 28.4359 14.0223 28.4833L11.5688 30.688L10.2689 29.7634C10.2175 29.7259 10.1563 29.7081 10.097 29.7081C10.0199 29.7081 9.9429 29.7378 9.88561 29.797C9.78288 29.9017 9.773 30.0637 9.85993 30.1822L11.3712 32.2111C11.4265 32.2862 11.5134 32.3296 11.6043 32.3296H11.6083C11.6991 32.3296 11.7861 32.2881 11.8414 32.217L14.4471 28.8962C14.4905 28.8448 14.5182 28.7776 14.5182 28.7046C14.5182 28.5406 14.3858 28.4082 14.2219 28.4082L14.2199 28.4062Z" fill="#88BA34"/>
<path d="M11.6044 37.6563C11.5589 37.6563 11.5155 37.6346 11.4878 37.5971L9.97654 35.5682C9.93308 35.5089 9.93901 35.4279 9.99037 35.3766C10.02 35.3469 10.0575 35.3311 10.097 35.3311C10.1267 35.3311 10.1563 35.341 10.182 35.3588L11.5787 36.3525L14.1212 34.0688C14.1488 34.0431 14.1844 34.0312 14.22 34.0312C14.2555 34.0312 14.293 34.0451 14.3207 34.0708C14.376 34.1241 14.3839 34.209 14.3365 34.2703L11.7249 37.601C11.6972 37.6366 11.6538 37.6583 11.6083 37.6583L11.6044 37.6563Z" fill="#88BA34"/>
<path d="M14.2179 34.1772L11.6063 37.5079L10.095 35.479L11.5885 36.5419L14.2199 34.1791M14.2199 33.8828H14.214C14.1409 33.8828 14.0737 33.9124 14.0223 33.9599L11.5688 36.1645L10.2689 35.24C10.2175 35.2025 10.1563 35.1847 10.097 35.1847C10.0199 35.1847 9.9429 35.2143 9.88561 35.2736C9.78288 35.3783 9.773 35.5403 9.85993 35.6588L11.3712 37.6877C11.4265 37.7627 11.5134 37.8062 11.6043 37.8062H11.6083C11.6991 37.8062 11.7861 37.7647 11.8414 37.6936L14.4471 34.3727C14.4905 34.3214 14.5182 34.2542 14.5182 34.1811C14.5182 34.0171 14.3858 33.8848 14.2219 33.8848L14.2199 33.8828Z" fill="#88BA34"/>
<path d="M2.9613 51.4375V64.9303H9.52398C9.23555 64.9303 3.35641 58.2155 2.9613 51.4375Z" fill="#DDDDE0"/>
<path d="M10.3636 58.5483C8.41769 57.9675 6.98148 57.1555 5.92063 56.2626C3.4216 54.1547 3.01464 51.5846 2.9613 50.5V51.3811C3.35641 58.1611 9.23555 64.9312 9.52398 64.9292C9.22172 64.5775 9.08739 64.0876 9.07356 63.574C9.038 62.3235 9.70573 60.6147 10.3636 58.5483Z" fill="#ECECF0"/>
</svg>
