<svg width="338" height="462" viewBox="0 0 338 462" fill="none" xmlns="http://www.w3.org/2000/svg">
<path d="M185.804 77.8398C167.656 89.1243 148.2 125.219 141.585 141.422C134.97 157.609 140.044 185.999 181.15 160.909C222.257 135.819 185.804 77.8398 185.804 77.8398Z" fill="#CFD8DC"/>
<path d="M292.298 80.9219C292.298 80.9219 332.766 115.04 337.436 143.85C342.105 172.66 315.77 180.91 294.882 145.267C274.01 109.623 292.298 80.9219 292.298 80.9219Z" fill="#CFD8DC"/>
<path d="M134.674 458.289C134.674 459.986 134.845 461.169 134.845 461.169H183.796C183.796 460.204 183.781 459.239 183.734 458.289C183.174 445.48 179.142 434.366 179.142 434.366L166.909 429.105C165.85 435.409 163.142 439.44 159.733 442.071C158.83 442.771 157.897 443.363 156.932 443.861C156.48 444.094 156.029 444.328 155.562 444.53C154.55 444.997 153.492 445.371 152.433 445.682C148.106 446.989 143.748 447.27 140.682 447.736C135.468 448.546 134.674 454.585 134.674 458.258V458.289Z" fill="#CFD8DC"/>
<path d="M134.674 458.289C134.674 459.986 134.845 461.169 134.845 461.169H183.796C183.796 460.204 183.781 459.239 183.734 458.289H134.674Z" fill="#ADBEC4"/>
<path d="M156.932 443.876L163.718 446.055L165.15 443.565L159.718 442.086C158.815 442.802 157.881 443.378 156.916 443.876H156.932Z" fill="#ADBEC4"/>
<path d="M152.449 445.712L157.025 448.747L159.842 447.642L155.577 444.545C154.55 445.012 153.507 445.385 152.449 445.697V445.712Z" fill="#ADBEC4"/>
<path d="M221.587 458.29C221.712 459.955 222.148 461.169 222.148 461.169H254.756C255.176 460.22 255.472 459.27 255.674 458.29C258.896 442.678 237.214 423.596 237.214 423.596L230.335 432.779C230.335 432.779 231.129 447.472 225.307 450.523C221.821 452.359 221.37 455.815 221.587 458.305V458.29Z" fill="#CFD8DC"/>
<path d="M255.659 458.289H221.572C221.696 459.954 222.132 461.169 222.132 461.169H254.74C255.161 460.219 255.456 459.27 255.659 458.289Z" fill="#ADBEC4"/>
<path d="M226.786 449.355C226.786 449.355 240.53 446.226 246.787 450.273V448.001C246.787 448.001 235.238 442.382 226.786 449.339V449.355Z" fill="#ADBEC4"/>
<path d="M229.51 445.868C229.51 445.868 238.288 441.853 246.787 445.868L245.822 443.58C245.822 443.58 235.658 439.736 229.51 445.868Z" fill="#ADBEC4"/>
<path d="M276.033 206.062C276.033 237.083 272.982 268.679 272.204 276.695C271.426 284.711 263.13 374.24 261.962 408.871C261.371 426.615 255.674 448.079 255.674 448.079C255.674 448.079 238.771 434.413 229.199 444.561L226.802 430.724L231.284 419.829C231.284 419.829 226.49 410.817 230.413 403.813C234.335 396.808 235.534 247.091 235.534 247.091L227.985 246.609L188.637 419.829V429.697C188.637 429.697 183.874 442.257 183.812 450.289L158.177 442.102L162.099 430.724L161.041 414.49L168.232 393.322C168.232 393.322 194.816 227.729 192.777 209.16L276.033 206.078V206.062Z" fill="#105E99"/>
<path d="M191.516 75.5067C191.516 75.5067 209.431 66.0745 235.751 66.7126C262.071 67.3352 279.706 73.6234 284.376 78.0126C289.045 82.4019 278.15 229.784 278.15 229.784C278.15 229.784 230.413 233.053 189.431 223.605C189.431 223.605 195.657 173.44 194.614 139.073C193.571 104.706 191.501 75.5223 191.501 75.5223L191.516 75.5067Z" fill="#D3CDFF"/>
<path d="M226.039 53.793C226.039 53.793 228.545 64.0813 224.732 68.1904C224.732 68.1904 230.958 78.2296 245.012 68.097C245.012 68.097 242.335 61.3263 245.012 56.937L226.039 53.793Z" fill="#FF9476"/>
<path d="M254.018 34.8918C254.018 34.8918 259.31 29.6154 259.964 35.779C260.727 42.9232 254.236 45.8027 252.96 43.5303C251.684 41.2578 254.018 34.8918 254.018 34.8918Z" fill="#FFB9A3"/>
<path d="M217.006 35.2668C217.006 35.2668 211.714 29.9904 211.06 36.154C210.313 43.2982 216.788 46.1777 218.064 43.9053C219.34 41.6328 217.006 35.2668 217.006 35.2668Z" fill="#FFB9A3"/>
<path d="M236.072 60.7761C247.808 60.7761 254.423 53.1182 254.423 30.1291C254.423 18.2687 248.384 11 235.247 11C222.111 11 216.57 18.2687 216.57 30.1291C216.57 54.8303 223.947 60.7761 236.057 60.7761H236.072Z" fill="#FFB9A3"/>
<path d="M220.025 38.9055C219.823 40.0884 220.85 41.2557 222.329 41.5048C223.808 41.7538 225.162 41.0067 225.364 39.8393C225.566 38.6564 224.539 37.4891 223.061 37.24C221.582 36.9754 220.228 37.7381 220.025 38.9055Z" fill="#FF9476"/>
<path d="M244.151 39.5602C244.229 40.7587 245.505 41.6459 246.999 41.5525C248.493 41.4591 249.645 40.4007 249.567 39.2178C249.49 38.0193 248.213 37.1321 246.719 37.2255C245.225 37.3189 244.073 38.3773 244.151 39.5602Z" fill="#FF9476"/>
<path d="M223.813 26.6491C223.969 26.6647 224.125 26.6491 224.265 26.5402C226.132 25.1082 228.934 25.6063 228.981 25.6219C229.292 25.6686 229.603 25.4662 229.666 25.1549C229.728 24.8281 229.51 24.5323 229.199 24.4701C229.074 24.4389 225.837 23.863 223.564 25.6219C223.3 25.8242 223.253 26.1822 223.455 26.4468C223.549 26.5713 223.689 26.6491 223.829 26.6647L223.813 26.6491Z" fill="#0C476B"/>
<path d="M246.273 26.7417C246.413 26.7261 246.553 26.6483 246.647 26.5394C246.849 26.2903 246.818 25.9168 246.569 25.7144C244.343 23.8934 241.09 24.3759 240.966 24.3914C240.639 24.4381 240.421 24.7339 240.483 25.0607C240.545 25.3876 240.841 25.5899 241.152 25.5588C241.168 25.5588 244.032 25.1385 245.837 26.6172C245.962 26.7261 246.133 26.7573 246.289 26.7417H246.273Z" fill="#0C476B"/>
<path d="M225.027 33.2788C225.027 34.7419 225.681 35.9248 226.49 35.9248C227.3 35.9248 227.953 34.7419 227.953 33.2788C227.953 31.8157 227.3 30.6328 226.49 30.6328C225.681 30.6328 225.027 31.8157 225.027 33.2788Z" fill="#1A4850"/>
<path d="M240.701 33.2788C240.701 34.7419 241.355 35.9248 242.164 35.9248C242.973 35.9248 243.627 34.7419 243.627 33.2788C243.627 31.8157 242.973 30.6328 242.164 30.6328C241.355 30.6328 240.701 31.8157 240.701 33.2788Z" fill="#1A4850"/>
<path d="M248.764 17.0609C248.764 17.0609 240.608 16.5005 222.677 15.2086C222.677 15.2086 216.124 22.026 216.591 38.8359C216.591 38.8359 206.101 8.5625 236.732 8.5625C267.363 8.5625 253.573 38.1666 253.573 38.1666C253.573 38.1666 254.46 22.7264 248.764 17.0609Z" fill="#0C476B"/>
<path d="M234.89 41.055L235.761 40.1678L233.442 37.8642C235.684 34.689 235.684 27.3269 235.684 27H234.438C234.438 27.0778 234.438 35.0003 232.15 37.4906L231.746 37.9265L234.89 41.055Z" fill="#FF9476"/>
<path d="M242.662 44.7342C242.662 44.7342 231.113 45.2167 225.292 43.6758C225.292 43.6758 224.265 52.0652 233.214 52.4854C242.678 52.9212 242.678 44.7342 242.678 44.7342H242.662Z" fill="#1A4850"/>
<path d="M220.467 18.601C220.467 18.601 215.33 14.1494 216.14 8.57726C216.949 3.00509 228.887 -1.22853 239.253 0.888279C239.253 0.888279 244.779 -2.02233 252.141 2.69379C259.488 7.40991 264.422 21.4182 257.931 30.1033C257.931 30.1033 259.456 15.3324 250.989 20.3286C250.989 20.3286 237.728 13.1689 220.467 18.5854V18.601Z" fill="#0D527C"/>
<path d="M250.227 67.6773C250.227 67.6773 238.102 148.007 250.227 186.794C250.227 186.794 290.757 185.456 294.648 184.117C298.54 182.779 302.431 98.9157 292.314 80.9229C292.314 80.9229 275.737 67.1792 250.227 67.6773Z" fill="#3E8F9C"/>
<path d="M333.841 164.132C330.136 170.312 318.027 177.378 307.365 179.65C302.633 180.662 298.197 180.74 294.898 179.386C294.898 179.386 293.154 162.109 283.193 152.599C283.193 152.599 283.597 151.291 284.905 149.564C287.769 145.782 294.913 140.007 311.443 141.735C335.506 144.256 339.179 155.229 333.841 164.132Z" fill="#CFD8DC"/>
<path d="M263.457 68.6868C263.457 68.6868 256.779 78.4459 248.281 82.9441C248.281 82.9441 248.032 81.5744 247.939 79.4887C247.908 78.9439 247.892 78.3369 247.892 77.6832C247.892 76.6092 247.939 75.4263 248.079 74.1967C248.157 73.5118 248.25 72.8114 248.39 72.0954C249.246 67.4727 251.456 62.6476 256.67 60.4219C256.67 60.4219 258.056 60.7487 259.628 62.0406C260.001 62.3519 260.375 62.7099 260.748 63.1301C261.247 63.706 261.745 64.3909 262.18 65.2158C262.445 65.6983 262.678 66.212 262.881 66.7879C263.114 67.3638 263.301 68.0019 263.457 68.6868Z" fill="#3E8F9C"/>
<path d="M262.881 66.7888C259.815 70.322 254.834 75.2094 247.939 79.4897C247.908 78.9449 247.892 78.3379 247.892 77.6842C254.6 73.3883 259.348 68.5632 262.18 65.2168C262.445 65.6993 262.678 66.2129 262.881 66.7888Z" fill="#CFD8DC"/>
<path d="M260.748 63.1305C257.947 66.2746 253.744 70.3993 248.079 74.1971C248.157 73.5122 248.25 72.8118 248.39 72.0958C253.371 68.5782 257.106 64.8894 259.628 62.041C260.001 62.3523 260.375 62.7103 260.748 63.1305Z" fill="#CFD8DC"/>
<path d="M294.882 189.58C294.882 190.11 294.882 190.639 294.851 191.137C294.789 192.507 294.617 193.596 294.244 193.736C293.076 194.172 252.126 196.88 252.126 196.88L251.612 194.172L251.332 192.647L250.88 190.234L250.585 188.709L250.227 186.794C264.951 184.195 294.633 184.117 294.633 184.117C294.633 184.117 294.68 184.693 294.742 185.549C294.742 186.001 294.789 186.53 294.82 187.106C294.851 187.884 294.882 188.74 294.882 189.58Z" fill="#3E8F9C"/>
<path d="M294.82 187.106C278.352 186.935 260.048 188.989 250.88 190.234L250.585 188.709C259.783 187.464 278.165 185.394 294.742 185.549C294.757 186.001 294.789 186.53 294.82 187.106Z" fill="#CFD8DC"/>
<path d="M294.882 189.579C294.882 190.108 294.882 190.637 294.851 191.136C278.788 190.964 260.997 192.91 251.612 194.171L251.332 192.645C260.78 191.385 278.695 189.423 294.882 189.579Z" fill="#CFD8DC"/>
<path d="M272.562 97.7793L266.227 98.5575L259.566 122.714H264.671L267.27 114.309L273.107 114.044L276.827 121.189L283.193 120.006L272.562 97.7793ZM268.048 110.247L269.34 103.554L272.562 110.247H268.048Z" fill="#CFD8DC"/>
<path d="M221.105 67.6771C221.105 67.6771 227.222 148.225 215.362 187.121C215.362 187.121 182.053 185.782 178.909 184.428C175.765 183.074 176.605 95.8804 185.804 77.8409C185.804 77.8409 200.124 67.179 221.105 67.6771Z" fill="#3E8F9C"/>
<path d="M206.926 68.6868C206.926 68.6868 213.603 78.4459 222.101 82.9441C222.101 82.9441 222.35 81.5744 222.444 79.4887C222.475 78.9439 222.49 78.3369 222.49 77.6832C222.49 76.6092 222.444 75.4263 222.303 74.1967C222.226 73.5118 222.132 72.8114 221.992 72.0954C221.136 67.4727 218.926 62.6476 213.712 60.4219C213.712 60.4219 212.326 60.7487 210.754 62.0406C210.381 62.3519 210.007 62.7099 209.634 63.1301C209.136 63.706 208.638 64.3909 208.202 65.2158C207.937 65.6983 207.704 66.212 207.501 66.7879C207.268 67.3638 207.081 68.0019 206.926 68.6868Z" fill="#3E8F9C"/>
<path d="M207.501 66.7888C210.568 70.322 215.548 75.2094 222.444 79.4897C222.475 78.9449 222.49 78.3379 222.49 77.6842C215.782 73.3883 211.035 68.5632 208.202 65.2168C207.937 65.6993 207.704 66.2129 207.501 66.7888Z" fill="#CFD8DC"/>
<path d="M209.634 63.1305C212.435 66.2746 216.638 70.3993 222.303 74.1971C222.226 73.5122 222.132 72.8118 221.992 72.0958C217.011 68.5782 213.276 64.8894 210.754 62.041C210.381 62.3523 210.007 62.7103 209.634 63.1305Z" fill="#CFD8DC"/>
<path d="M178.442 189.907C178.411 190.436 178.395 190.965 178.395 191.463C178.395 192.833 178.473 193.922 178.769 194.062C179.703 194.498 213.307 197.206 213.307 197.206L213.867 194.498L214.163 192.973L214.646 190.56L214.957 189.035L215.346 187.12C203.346 184.521 178.893 184.428 178.893 184.428C178.893 184.428 178.831 185.004 178.738 185.86C178.707 186.311 178.644 186.84 178.598 187.416C178.535 188.194 178.458 189.05 178.426 189.907H178.442Z" fill="#3E8F9C"/>
<path d="M178.613 187.432C192.186 187.261 207.159 189.315 214.661 190.56L214.972 189.035C207.455 187.79 192.419 185.704 178.753 185.86C178.722 186.311 178.66 186.84 178.613 187.416V187.432Z" fill="#CFD8DC"/>
<path d="M178.442 189.907C178.411 190.436 178.395 190.965 178.395 191.463C191.641 191.292 206.194 193.238 213.867 194.499L214.163 192.973C206.443 191.712 191.781 189.736 178.442 189.907Z" fill="#CFD8DC"/>
<path d="M157.025 88.1443C166.877 90.6969 172.839 140.847 167.142 152.598C161.445 164.349 153.227 171.992 139.172 160.909C125.117 149.827 131.592 92.5024 140.682 88.6112C144.947 86.7902 157.025 88.1443 157.025 88.1443Z" fill="#CFD8DC"/>
<path d="M157.165 85.4998C157.165 86.5582 157.118 87.4765 156.994 88.2859C156.9 89.0485 156.729 89.7178 156.511 90.2937C155.204 93.6713 151.982 93.8113 147.422 94.0604C143.561 94.2627 141.476 93.1576 140.807 90.6206C140.589 89.8735 140.511 89.0174 140.557 88.0368C140.557 87.3987 140.635 86.7138 140.744 85.9823C140.822 85.3908 140.931 84.7838 141.056 84.1301C141.305 82.9938 141.616 81.7642 142.005 80.4257C142.783 77.7485 150.659 77.2349 150.659 77.2349C153.04 77.017 156.371 77.5151 156.729 80.2233C156.9 81.5308 157.025 82.6981 157.087 83.7565C157.134 84.3791 157.165 84.955 157.165 85.4998Z" fill="#3E8F9C"/>
<path d="M136.993 59.8639C138.238 61.2803 140.293 66.7902 140.293 66.7902C141.164 71.4285 141.663 73.9811 143.281 76.0979C144.884 78.2303 144.044 81.9658 144.044 81.9658C144.044 81.9658 150.332 85.2033 155.624 81.2031C155.624 81.2031 155.079 77.4832 155.624 76.4403C156.714 74.3391 160.2 73.2029 161.399 68.9537C162.597 64.689 166.161 59.9261 166.161 59.9261C166.161 59.9261 165.15 57.716 163.282 59.0701C161.399 60.4398 160.2 63.8329 159.188 64.1909C158.986 64.2531 158.768 64.3154 158.566 64.331C158.566 64.331 158.55 64.331 158.519 64.3465C157.741 64.4555 156.947 64.2843 156.465 63.8173C156.434 63.8018 156.371 63.7706 156.34 63.7084C154.628 61.7161 154.239 55.8793 154.301 53.2644C154.41 49.6379 154.27 44.626 152.06 45.4665C149.85 46.307 151.873 48.3304 150.161 56.3307L149.336 56.4396C149.18 57.0155 147.655 51.5834 147.297 46.4782C147.032 42.9761 144.744 44.268 144.231 45.3731C143.717 46.4782 144.495 49.9647 144.651 52.5173C144.776 54.1983 144.916 55.9416 144.993 56.9844L144.028 57.5136C140.542 51.4278 141.725 48.9063 139.686 48.7818C137.662 48.6573 138.394 53.7936 139.483 55.7392C139.95 56.5797 140.402 58.3541 140.76 60.0818C137.18 55.9571 137.585 53.7936 135.935 54.0427C134.238 54.3228 135.764 58.4164 137.009 59.8328L136.993 59.8639Z" fill="#FFB9A3"/>
<path d="M152.449 69.3887C153.663 66.0578 157.974 64.5324 158.519 64.3612C157.741 64.4702 156.947 64.299 156.465 63.832C152.231 65.7309 152.449 69.3887 152.449 69.3887Z" fill="#FF9476"/>
<path d="M157.165 85.4972C154.114 87.0381 148.527 87.2872 145.258 87.2872C144.9 87.2872 144.573 87.2872 144.277 87.2872C142.799 87.256 141.631 86.7424 140.744 85.9953C140.822 85.4038 140.931 84.7968 141.055 84.1431C141.756 84.968 142.783 85.6996 144.309 85.7307C149.056 85.8085 154.986 85.326 157.087 83.7695C157.134 84.3921 157.165 84.968 157.165 85.5128V85.4972Z" fill="#CFD8DC"/>
<path d="M156.994 88.2843C156.9 89.0469 156.729 89.7162 156.511 90.2921C153.367 91.5995 148.262 91.8175 145.196 91.8175C144.838 91.8175 144.511 91.8175 144.215 91.8175C142.799 91.8175 141.678 91.3194 140.807 90.6345C140.589 89.8874 140.511 89.0314 140.557 88.0508C141.18 89.0936 142.316 90.2298 144.246 90.261C148.978 90.3388 154.893 89.8563 156.994 88.2998V88.2843Z" fill="#CFD8DC"/>
<path d="M196.871 148.506C196.871 148.506 200.513 152.132 199.968 154.031C199.423 155.93 186.582 171.121 185.026 175.791L180.746 173.441C180.746 173.441 187.33 153.144 196.871 148.506Z" fill="#CFD8DC"/>
<path d="M307.365 179.649C302.633 180.661 298.197 180.739 294.898 179.385C294.898 179.385 293.154 162.108 283.193 152.598C283.193 152.598 283.597 151.29 284.905 149.562C290.586 153.749 310.54 169.314 307.365 179.649Z" fill="#B5C4C9"/>
<path d="M280.235 148.506C280.235 148.506 296.174 163.261 294.82 180.414C294.82 180.414 287.893 182.966 287.566 180.414C287.24 177.861 283.457 162.919 276.033 154.031C274.881 152.646 280.235 148.506 280.235 148.506Z" fill="#CFD8DC"/>
<path d="M22.8884 156.176C12.7037 170.44 22.8437 188.978 23.8414 227.603C23.8414 227.603 19.3595 247.749 16.6346 265.93C13.9098 284.11 9.94904 300.728 9.94904 300.728L16.9027 304.51C16.9027 304.51 36.8105 253.273 39.2674 229.479L35.3811 165.795L22.8884 156.176Z" fill="#FFB9A3"/>
<path d="M21.9652 94.9934C33.7283 77.7955 60.1282 81.8456 68.3922 94.1745C78.3982 109.079 70.2534 141.614 70.2534 141.614C70.2534 141.614 41.7838 124.818 24.6156 152.588C24.6156 152.588 8.81738 114.231 21.9652 94.9934Z" fill="#3E8F9C"/>
<path d="M53.8596 122.526C53.8596 122.526 53.9787 135.256 60.0836 146.067C60.0836 146.067 56.4951 154.375 44.5236 150.593C44.5236 150.593 45.5063 139.664 36.7361 127.573C30.8695 119.473 53.8447 122.54 53.8447 122.54L53.8596 122.526Z" fill="#FF9476"/>
<path d="M29.0231 116.298C29.0231 116.298 23.7967 112.159 23.8562 117.698C23.9158 124.116 29.9611 126.007 30.8545 123.848C31.7479 121.703 29.0231 116.298 29.0231 116.298Z" fill="#FFB9A3"/>
<path d="M61.8853 112.844C61.8853 112.844 66.0396 107.633 67.2457 113.023C68.6453 119.277 63.1807 122.493 61.8257 120.617C60.4707 118.726 61.8853 112.844 61.8853 112.844Z" fill="#FFB9A3"/>
<path d="M47.576 137.415C37.1828 138.606 30.527 132.501 28.1744 112.116C26.9683 101.604 31.5693 94.5463 43.2132 93.2062C54.8572 91.8661 60.5154 97.7477 61.7215 108.26C64.2379 130.163 58.3117 136.179 47.5611 137.415H47.576Z" fill="#FFB9A3"/>
<path d="M59.1306 115.912C59.4284 116.939 58.6392 118.071 57.3587 118.458C56.0781 118.845 54.7976 118.309 54.4849 117.282C54.1871 116.254 54.9763 115.122 56.2568 114.735C57.5373 114.363 58.8179 114.884 59.1306 115.912Z" fill="#FF9476"/>
<path d="M37.8081 118.951C37.8677 120.023 36.8254 120.931 35.4853 121.005C34.1452 121.065 33.0285 120.261 32.9689 119.189C32.9242 118.117 33.9516 117.208 35.2917 117.134C36.6318 117.074 37.7486 117.878 37.8081 118.951Z" fill="#FF9476"/>
<path d="M53.398 105.803C53.2044 105.937 52.9513 105.937 52.7577 105.788C51.1496 104.448 48.6183 104.805 48.5885 104.805C48.3056 104.85 48.0376 104.656 47.9929 104.359C47.9482 104.076 48.1418 103.808 48.4396 103.763C48.5587 103.748 51.4623 103.346 53.4277 104.984C53.6511 105.163 53.6809 105.505 53.4873 105.714C53.4575 105.743 53.4277 105.773 53.398 105.803Z" fill="#CE364C"/>
<path d="M38.0315 105.937C38.0315 105.937 37.8677 106.026 37.7635 106.041C37.7337 106.041 35.1875 106.279 33.9219 107.947C33.7432 108.185 33.4156 108.23 33.1923 108.051C32.9689 107.873 32.9242 107.545 33.088 107.322C34.6366 105.267 37.5401 105.014 37.6741 104.999C37.957 104.969 38.2102 105.192 38.24 105.475C38.24 105.669 38.1655 105.833 38.0166 105.937H38.0315Z" fill="#CE364C"/>
<path d="M52.8917 111.521C53.0406 112.816 52.579 113.933 51.8643 114.007C51.1496 114.082 50.4497 113.114 50.3008 111.818C50.1519 110.523 50.6135 109.406 51.3283 109.332C52.043 109.242 52.7428 110.225 52.8917 111.521Z" fill="#1A4850"/>
<path d="M38.3889 113.189C38.5378 114.484 38.0762 115.601 37.3614 115.675C36.6467 115.765 35.9469 114.782 35.798 113.486C35.6491 112.191 36.1107 111.074 36.8254 111C37.5401 110.91 38.24 111.893 38.3889 113.189Z" fill="#1A4850"/>
<path d="M41.754 125.485C41.754 125.485 48.3354 125.649 51.4623 123.52C51.4623 123.52 50.1222 128.537 46.5486 128.508C42.9601 128.493 41.754 125.485 41.754 125.485Z" fill="#1A4850"/>
<path d="M49.3181 111.281C49.3181 111.281 49.8988 107.99 51.1794 108.08C52.4599 108.169 53.7107 110.775 53.7107 110.775L55.4379 109.584L53.6213 110.03C53.6213 110.03 52.3259 107.291 51.09 107.439C49.333 107.633 49.3032 111.281 49.3032 111.281H49.3181Z" fill="#1A4850"/>
<path d="M39.2674 112.829C39.2674 112.829 37.9571 109.762 36.7361 110.134C35.5151 110.506 34.8748 113.336 34.8748 113.336L32.9094 112.576L34.7855 112.606C34.7855 112.606 35.4258 109.658 36.6616 109.509C38.4187 109.3 39.2674 112.844 39.2674 112.844V112.829Z" fill="#1A4850"/>
<path d="M46.3699 119.575C46.1614 119.724 45.9381 119.858 45.6701 119.962L45.2531 118.905C46.1465 118.548 46.2805 117.952 46.2359 117.52C46.1763 116.91 45.7296 116.374 45.3871 116.314C45.1787 116.284 44.9851 116.433 44.8213 116.791L43.8088 116.284C44.3895 115.123 45.2531 115.138 45.5956 115.212C46.4741 115.376 47.2633 116.344 47.3675 117.416C47.4568 118.295 47.0995 119.054 46.3848 119.575H46.3699Z" fill="#FF9476"/>
<path d="M46.6081 94.8876C46.6081 94.8876 32.2542 98.9675 31.0332 117.089C29.8122 135.21 19.9402 137.562 19.9402 137.562C19.9402 137.562 5.61604 77.6152 47.3675 83.5861C47.3675 83.5861 56.2717 82.5289 63.6423 91.046C71.0128 99.5631 62.2426 117.103 62.2426 117.103C62.2426 117.103 61.5874 108.959 60.0984 107.455C60.0984 107.455 51.7601 104.462 46.623 94.9025L46.6081 94.8876Z" fill="#3E8F9C"/>
<path d="M105.826 253.885C99.4824 231.922 86.9302 215.633 86.9302 215.633L67.9753 218.775L67.7817 218.432L66.248 218.745H66.0247V218.789L46.4593 222.706C46.4593 222.706 38.0315 238.385 32.4329 260.556C26.8343 282.727 43.5855 338.728 43.5855 338.728C43.5855 338.728 34.1601 365.009 55.9888 433.503H66.2778C66.2778 433.503 62.4362 348.198 63.9252 338.728C65.2057 330.568 66.8585 300.684 66.0247 277.798C67.2159 278.052 68.4517 278.156 69.7472 278.066C69.6727 300.967 72.3231 330.732 73.8866 338.832C75.6883 348.243 74.7353 433.682 74.7353 433.682L85.0243 433.339C104.545 364.145 94.2412 338.162 94.2412 338.162C94.2412 338.162 112.154 275.878 105.811 253.915L105.826 253.885Z" fill="#FFB9A3"/>
<path d="M88.9106 216.167C68.288 231.727 46.4444 224.029 46.4444 224.029C46.4444 224.029 40.7415 214.529 32.9094 195.813C27.8766 191.748 26.7896 185.836 26.9534 180.997C23.1416 170.991 18.0492 164.008 20.655 158.886C22.8289 154.627 30.1101 151.887 37.2126 149.564C37.7933 149.386 38.3889 149.192 38.9696 149.013C43.3622 147.599 47.5313 146.333 50.1669 144.934C54.7083 142.507 58.0883 140.273 60.709 137.98C61.8108 137.027 62.7787 136.059 63.6423 135.076C67.5732 130.595 69.5834 125.562 72.6209 118.34C73.8419 115.407 90.8314 106.875 91.8588 159.749C92.231 178.898 89.2977 180.878 88.5532 195.291C87.9427 207.218 88.9106 216.167 88.9106 216.167Z" fill="#D3CDFF"/>
<path d="M89.6699 442.065C89.0446 437.777 90.6229 434.739 89.5061 432.67C87.7789 429.483 85.9474 433.518 85.9474 433.518C85.7985 428.664 77.6537 428.664 76.8348 430.898C76.6114 431.493 76.3732 432.029 76.1201 432.535C75.6138 431.359 74.7502 430.228 73.6483 430.898C69.3005 433.503 74.7055 440.234 70.7448 445.132C65.6971 451.371 68.8091 460.797 68.8091 460.797H92.9457C95.7748 447.574 90.2953 446.338 89.6699 442.065Z" fill="#8BBDDB"/>
<path d="M74.7502 440.457C74.7502 440.457 80.4531 437.464 88.0321 441.425L86.5431 438.7C86.5431 438.7 81.5252 435.573 75.4501 437.911L74.7502 440.457Z" fill="#CFD8DC"/>
<path d="M73.7675 444.998C73.7675 444.998 81.8974 442.169 89.4615 446.144L88.0321 443.256C88.0321 443.256 80.8402 440.144 74.7502 442.467L73.7526 444.998H73.7675Z" fill="#CFD8DC"/>
<path d="M51.0751 442.065C51.7005 437.777 50.1222 434.739 51.2389 432.67C52.9662 429.483 54.7976 433.518 54.7976 433.518C54.9465 428.664 63.0913 428.664 63.9103 430.898C64.1336 431.493 64.3719 432.029 64.625 432.535C65.1313 431.359 65.9949 430.228 67.0967 430.898C71.4446 433.503 66.0395 440.234 70.0003 445.132C75.048 451.371 71.936 460.797 71.936 460.797H47.7993C44.9702 447.574 50.4497 446.338 51.0751 442.065Z" fill="#8BBDDB"/>
<path d="M65.9949 440.457C65.9949 440.457 60.292 437.464 52.713 441.425L54.202 438.7C54.202 438.7 59.22 435.573 65.2951 437.911L65.9949 440.457Z" fill="#CFD8DC"/>
<path d="M66.9777 444.998C66.9777 444.998 58.8477 442.169 51.2836 446.144L52.7131 443.256C52.7131 443.256 59.9049 440.144 65.9949 442.467L66.9926 444.998H66.9777Z" fill="#CFD8DC"/>
<path d="M0.00255969 305.955C7.89424 304.168 7.9538 297.304 14.7287 298.436C16.1284 298.674 17.0218 299.374 17.6174 300.193C18.7341 301.771 18.6597 303.885 17.7067 305.583C15.5179 309.454 13.612 314.993 12.8973 317.852C12.0634 321.128 11.17 319.654 11.17 319.654C11.1105 319.967 11.0807 320.264 11.0509 320.562C10.768 322.811 10.902 324.508 9.60659 323.302C8.13248 321.947 8.60896 315.529 8.60896 315.529C5.69053 324.523 7.49221 326.235 6.033 325.148C4.03774 323.674 5.39273 315.515 5.42251 315.276C2.7572 320.339 2.71253 323.496 1.70002 322.066C0.672608 320.622 4.18664 311.077 5.52674 307.593C5.82454 306.804 6.01811 306.313 6.01811 306.313C-0.31013 308.204 0.00255969 305.955 0.00255969 305.955Z" fill="#FFB9A3"/>
<path d="M5.52675 307.594C5.82455 306.805 6.01811 306.314 6.01811 306.314C6.01811 306.314 8.68342 307.028 11.1403 304.438C11.1403 304.438 9.93418 308.264 5.51186 307.579L5.52675 307.594Z" fill="#EF6E4B"/>
<path d="M11.8699 312.984C11.6912 313.759 10.6042 318.181 11.17 319.67C11.1105 319.983 11.0807 320.28 11.0509 320.578C9.41301 319.938 11.5274 313.908 11.8699 312.984Z" fill="#EF6E4B"/>
<path d="M70.7448 445.117C70.7448 445.117 65.9055 451.192 67.8561 460.781H71.936C71.936 460.781 72.874 452.16 70.7299 445.117H70.7448Z" fill="#6197AD"/>
<path d="M73.6632 14.6324L76.0754 22.5389C78.4727 30.4604 79.6341 29.6117 83.8331 31.1304C87.7491 32.5599 91.1441 25.6807 91.7694 22.4794C92.3055 19.7694 97.3532 14.8855 97.1894 12.518C97.1298 11.565 96.4598 12.0415 95.075 13.7687C93.452 15.8087 91.2632 17.1041 91.2632 17.1041C90.1315 14.4239 96.7576 7.64896 95.1197 4.98366C94.3156 3.68823 90.34 14.3197 88.5681 14.4388C88.5681 14.4388 88.0618 13.5007 89.5955 8.12544C90.474 5.04322 91.3972 1.87165 90.6378 1.15694C89.2381 -0.123602 88.5234 6.65133 84.9052 13.5007C84.9052 13.5007 85.2625 10.0165 85.7986 6.81512C86.3048 3.89669 87.0791 1.21649 85.7688 1.11227C84.6818 1.02293 84.0118 5.60904 83.4757 8.51258C82.4632 13.9176 80.5573 17.6699 79.4257 19.5163C78.8896 20.4097 78.5323 20.8564 78.5323 20.8564C75.4054 12.9945 73.6781 14.6175 73.6781 14.6175L73.6632 14.6324Z" fill="#FFB9A3"/>
<path d="M78.5174 20.8726C78.5174 20.8726 81.823 22.4062 82.4335 25.1162C82.4335 25.1162 83.6842 21.081 79.4108 19.5176C78.8748 20.411 78.5025 20.8577 78.5025 20.8577L78.5174 20.8726Z" fill="#FF9476"/>
<path d="M80.185 26.0371C80.185 26.0371 74.3482 65.1233 72.2933 80.311C71.0724 89.3939 73.3208 134.942 73.3208 134.942C73.3208 134.942 78.7258 155.252 84.652 154.18C89.0446 153.376 89.9826 147.093 90.3549 136.446C90.7271 125.8 84.2351 102.259 85.0987 90.7936C86.826 67.9226 85.054 57.1274 87.1982 28.2706L80.1999 26.0371H80.185Z" fill="#FFB9A3"/>
<path d="M109.25 314.903C108.967 318.641 108.729 320.904 108.729 320.904C108.729 320.904 80.0511 337.968 71.936 324.195C71.936 324.195 70.6108 323.763 69.2856 315.812C69.2707 315.752 69.2558 315.707 69.2558 315.678C68.6156 311.866 67.9753 306.386 67.4839 298.48C67.5733 300.624 68.1391 309.99 67.9455 317.598C67.886 320.085 67.7371 322.393 67.4691 324.195C67.4691 324.195 56.8078 336.851 31.0333 322.765C31.0333 322.765 30.6908 320.934 30.2739 317.688C28.9785 307.533 26.9832 283.53 32.6116 258.545C35.2472 246.812 39.5801 234.87 46.4444 224.03C46.4444 224.03 48.2163 224 51.0752 223.836C53.9192 223.673 57.865 223.39 62.2427 222.868C63.4636 222.72 64.6995 222.571 65.9652 222.392C70.6108 221.722 75.5394 220.799 80.0511 219.518C83.2971 218.61 86.3346 217.493 88.9106 216.168C88.9106 216.168 99.7952 229.926 105.811 247.496C107.017 251.04 108.044 254.748 108.729 258.515C111.856 275.668 110.218 302.917 109.25 314.903Z" fill="#105E99"/>
<path d="M105.811 247.496C91.2186 244.548 83.4758 228.973 80.0511 219.518C83.2971 218.61 86.3347 217.493 88.9106 216.168C88.9106 216.168 99.7952 229.926 105.811 247.496Z" fill="#0D527C"/>
<path d="M51.0752 223.838C48.8119 230.926 44.9852 242.793 43.2133 248.004C42.0668 251.384 37.436 255.256 32.6116 258.546C35.2472 246.813 39.5801 234.871 46.4444 224.031C46.4444 224.031 48.2163 224.002 51.0752 223.838Z" fill="#0D527C"/>
<path d="M67.4691 298.406C62.6745 277.188 62.2129 239.263 62.2427 222.869C63.4637 222.72 64.6995 222.571 65.9652 222.393C70.8193 257.697 64.8633 255.627 64.8633 255.627C64.1933 268.224 67.3053 296.798 67.4691 298.406Z" fill="#0D527C"/>
<path d="M67.9455 317.6C67.886 320.086 67.7371 322.394 67.4691 324.196C67.4691 324.196 56.8078 336.852 31.0333 322.766C31.0333 322.766 30.6908 320.935 30.2739 317.689C35.9172 320.935 44.2556 325.134 51.0752 326.042C59.5774 327.159 65.4738 320.905 67.9455 317.6Z" fill="#0D527C"/>
<path d="M109.25 314.904C108.967 318.642 108.729 320.905 108.729 320.905C108.729 320.905 80.0511 337.969 71.9361 324.196C71.9361 324.196 70.596 323.764 69.2559 315.679C69.3303 316.066 70.4768 321.396 81.1529 324.657C88.8064 327.01 101.895 319.669 109.25 314.904Z" fill="#0D527C"/>
<path d="M89.2531 218.179C88.1363 223.807 51.6112 227.857 45.2681 225.936C45.2681 225.936 44.3003 223.271 43.8834 221.321C43.6749 220.323 43.6004 219.519 43.8685 219.355C43.8685 219.355 66.0396 221.201 88.5235 210.525C88.5235 210.525 88.9851 211.032 89.3127 212.253C89.6253 213.459 89.804 215.365 89.2531 218.179Z" fill="#105E99"/>
<path d="M89.2531 218.178C88.1363 223.807 51.6113 227.857 45.2681 225.936C45.2681 225.936 44.3003 223.271 43.8834 221.32C43.8834 221.32 65.0569 223.539 89.3127 212.252C89.6253 213.458 89.804 215.364 89.2531 218.178Z" fill="#0C476B"/>
<path d="M59.2349 220.813C59.2349 220.813 59.4434 225.429 60.3814 225.92C61.3195 226.411 67.8711 225.071 67.8711 225.071C67.8711 225.071 68.7347 221.632 67.8711 219.592L59.2349 220.828V220.813Z" fill="#8BBDDB"/>
<path d="M74.8545 216.17C74.8545 216.17 76.3435 219.222 76.5966 224.434H78.711C78.711 224.434 78.9641 218.522 77.3411 215.648L74.8545 216.17Z" fill="#105E99"/>
<path d="M50.8816 220.74H53.1151C53.1151 220.74 53.3682 223.897 54.7232 228.111H52.8024C52.8024 228.111 50.018 225.267 50.8816 220.74Z" fill="#105E99"/>
<path d="M63.6423 135.076C59.1009 145.023 50.7178 165.005 48.7374 181.22L48.5141 182.977L47.4122 181.592C46.7868 180.788 33.1625 163.471 37.2126 149.564C37.7933 149.385 38.3889 149.192 38.9696 149.013C34.9642 160.166 44.2407 174.639 47.5016 179.21C49.6159 164.931 56.1824 148.269 60.709 137.98C61.8108 137.027 62.7787 136.059 63.6423 135.076Z" fill="#0C476B"/>
<path d="M47.9483 189.308C49.8315 189.308 51.3581 186.974 51.3581 184.096C51.3581 181.218 49.8315 178.885 47.9483 178.885C46.0651 178.885 44.5385 181.218 44.5385 184.096C44.5385 186.974 46.0651 189.308 47.9483 189.308Z" fill="#8BBDDB"/>
<path d="M49.6755 184.096C49.6755 186.032 48.6481 187.61 47.3675 187.61C46.087 187.61 45.0596 186.032 45.0596 184.096C45.0596 182.16 46.087 180.582 47.3675 180.582C48.6332 180.582 49.6755 182.16 49.6755 184.096Z" fill="#0C476B"/>
</svg>
