<svg width="100" height="100" viewBox="0 0 100 100" fill="none" xmlns="http://www.w3.org/2000/svg">
<path d="M0 50C0 59.8777 2.86327 69.0905 7.8177 76.8554C8.69705 78.2282 9.64075 79.5581 10.6381 80.8451C13.7265 84.7705 17.3834 88.2239 21.4906 91.0768C21.941 91.3878 22.4021 91.6988 22.8633 91.9991C25.3834 93.6293 28.0643 95.045 30.874 96.2141C31.6139 96.5144 32.3539 96.8039 33.1046 97.0721C38.3807 98.9704 44.0643 100 49.9946 100C50.3807 100 50.7775 100 51.1743 99.9893C56.1287 99.8713 60.9115 99.0348 65.4156 97.5761C71.5603 95.592 77.1796 92.4389 82.0161 88.3955C82.2306 88.2239 82.4558 88.0309 82.6702 87.8486C84.1501 86.5723 85.5442 85.2102 86.8633 83.7731C87.0349 83.5907 87.1957 83.4084 87.3566 83.2154C95.2279 74.3887 100 62.752 100 50C100 22.3831 77.6086 0 49.9946 0C22.3807 0 0 22.3831 0 50Z" fill="#E5F3F6"/>
<path d="M65.4156 97.5774C71.5603 95.5933 77.1796 92.4402 82.0161 88.3968C82.2306 88.2252 82.4558 88.0322 82.6702 87.8499C84.1501 86.5736 85.5442 85.2115 86.8633 83.7744C87.0349 83.592 87.1957 83.4097 87.3566 83.2166C82.3164 68.5341 73.941 56.8331 64.2895 56.8653C52.2467 56.9618 58.5201 79.5916 65.4156 97.5774Z" fill="#9C93E1"/>
<path d="M43.6997 27.1674C43.6997 27.1674 29.3941 23.3171 18.7453 36.3587C8.09647 49.4003 14.7131 65.445 31.5817 64.9838C48.4504 64.5226 52.3646 47.2875 52.3646 47.2875L43.6997 27.1674Z" fill="black"/>
<path d="M22.8632 91.9981C25.3833 93.6283 28.0643 95.044 30.874 96.213C31.6139 96.5133 32.3539 96.8029 33.1045 97.071C38.3807 98.9693 44.0643 99.9989 49.9946 99.9989C50.3807 99.9989 50.7774 99.9989 51.1742 99.9882C62.8954 99.7201 73.63 95.4086 82.0161 88.3945C81.008 77.1332 79.6461 68.0813 77.8337 65.4751C74.0268 59.9947 69.5549 57.9784 64.2895 56.863C61.4799 56.2838 58.5094 55.9728 55.2922 55.5116C50.5737 54.8574 44.89 54.9968 39.8069 55.5759H39.7426C34.7667 56.1551 30.3592 57.174 28.0214 58.3216C26.0804 59.2654 24.2144 74.3447 22.8632 91.9981Z" fill="#9C93E1"/>
<path d="M62.1126 46.3843C62.7131 49.1189 64.3539 51.0814 65.7802 50.7704C67.2064 50.4594 67.882 47.9929 67.2815 45.2583C66.681 42.5237 65.0402 40.5613 63.6139 40.8722C62.1877 41.1832 61.5121 43.6497 62.1126 46.3843Z" fill="#3E8F9C"/>
<path d="M10.638 80.8445C13.7265 84.7698 17.3833 88.2233 21.4906 91.0761C24.4075 93.1031 27.5496 94.8299 30.874 96.2134C31.6139 96.5137 32.3539 96.8033 33.1045 97.0714L42.3056 55.5763C42.3056 55.5763 41.3941 55.5013 39.8069 55.5763H39.7426C34.7131 55.8552 20.5898 55.6621 10.638 80.8445Z" fill="#9C93E1"/>
<path d="M65.1796 37.9029C65.1796 37.9029 69.244 33.5808 68.2359 26.7275C67.5496 22.0836 65.5121 20.5499 65.5121 20.5499C65.5121 20.5499 68.7721 14.2972 59.4316 14.501C50.0911 14.7047 42.4343 13.9111 38.2735 21.9441C35.8177 26.6739 36.7936 36.9591 36.7936 36.9591L65.1689 37.9029H65.1796Z" fill="black"/>
<path d="M44.547 45.1953L44.6113 56.596C44.6113 56.596 46.681 59.8564 53.362 60.3605C58.3271 60.7359 59.8928 58.1726 59.8928 58.1726L58.6274 48.209L46.5738 45.635L44.547 45.1953Z" fill="#F48462"/>
<path d="M44.5576 44.499C44.5898 44.81 44.7077 45.1746 44.89 45.5928C47.4745 51.2765 56.4611 53.5928 59.3351 53.8288L58.6166 48.1987L44.5469 44.4883L44.5576 44.499Z" fill="black"/>
<path d="M61.008 22.213C61.008 22.213 67.0777 36.4666 64.7614 44.4245C62.445 52.3825 55.1957 51.0526 50.8633 49.4653C46.5308 47.878 44.5362 45.1967 44.5362 45.1967C44.5362 45.1967 40.4611 46.5374 37.7801 42.73C35.0992 38.9226 36.815 34.6004 39.1421 33.6352C41.4692 32.6592 44.2145 34.3645 44.2145 34.3645L42.0911 30.2139C42.0911 30.2139 51.3887 9.33231 61.008 22.2023V22.213Z" fill="#F48462"/>
<path d="M44.2251 34.3626C44.2251 34.3626 50.3056 35.7139 54.6809 29.0001C59.0562 22.2862 58.7131 19.487 58.7131 19.487L62.7989 26.5762C62.7989 26.5762 63.8391 21.7285 61.9517 18.5968C60.0643 15.4651 58.0375 16.0657 58.0375 16.0657L44.5147 19.1652L40.7613 29.8902L44.2251 34.3626Z" fill="black"/>
<path d="M60.1931 40.3239C60.4183 40.3239 60.6327 40.1845 60.7078 39.9593C61.7051 36.903 59.6032 33.7502 59.5067 33.6108C59.3351 33.3641 59.0027 33.2998 58.7668 33.4713C58.5201 33.6322 58.4558 33.9754 58.6274 34.2113C58.6488 34.2435 60.5362 37.0638 59.6998 39.6161C59.6032 39.8949 59.7641 40.1952 60.0429 40.2917C60.0965 40.3132 60.1502 40.3132 60.2145 40.3132L60.1931 40.3239Z" fill="black"/>
<path d="M43.5175 41.0995C43.6462 41.0995 43.7749 41.0566 43.8821 40.9601C44.0966 40.7563 44.118 40.4239 43.9143 40.1987L40.1287 36.0486C39.925 35.8341 39.5926 35.8126 39.3674 36.0164C39.1529 36.2201 39.1314 36.5526 39.3352 36.7778L43.1207 40.9279C43.2279 41.0459 43.3674 41.0995 43.5175 41.0995Z" fill="black"/>
<path d="M39.453 39.9435C39.453 39.9435 39.4959 39.9435 39.5281 39.9435L42.1983 39.5789C42.4879 39.536 42.7023 39.2679 42.6594 38.9783C42.6165 38.6888 42.3485 38.4743 42.0589 38.5172L39.3887 38.8818C39.0991 38.9247 38.8846 39.1928 38.9275 39.4823C38.9597 39.7504 39.1956 39.9435 39.453 39.9435Z" fill="black"/>
<path d="M63.1528 28.7567C63.3995 28.7567 63.6247 28.5744 63.6783 28.3277C63.7319 28.0382 63.5496 27.7594 63.2493 27.695L60.74 27.2124C60.4611 27.1588 60.1716 27.3411 60.1073 27.6414C60.0536 27.9309 60.2359 28.2098 60.5362 28.2741L63.0456 28.7567C63.0456 28.7567 63.1099 28.7567 63.1528 28.7567Z" fill="black"/>
<path d="M52.6328 30.2141C52.7078 30.2141 52.7936 30.1927 52.8687 30.1605L57.0403 28.1444C57.3084 28.0157 57.4156 27.694 57.2869 27.4259C57.1582 27.1578 56.8365 27.0506 56.5684 27.1793L52.3968 29.1954C52.1287 29.324 52.0215 29.6458 52.1502 29.9139C52.2467 30.1069 52.429 30.2141 52.6328 30.2141Z" fill="black"/>
<path d="M63.0348 34.5888C63.0348 34.5888 63.1314 34.5888 63.185 34.5674C63.4745 34.4816 63.6354 34.192 63.5496 33.9025L62.8954 31.5969L63.5174 30.8677C63.7104 30.6425 63.6783 30.2993 63.4531 30.117C63.2279 29.924 62.8847 29.9561 62.6917 30.1813L61.8874 31.125C61.7694 31.2644 61.7265 31.4467 61.7802 31.6183L62.5201 34.192C62.5844 34.428 62.7989 34.5781 63.0348 34.5781V34.5888Z" fill="black"/>
<path d="M55.8499 35.1347C55.8499 35.1347 55.9464 35.1347 56 35.1133C56.2896 35.0275 56.4504 34.7379 56.3647 34.4484L55.7105 32.1535L56.622 31.124C56.8151 30.8988 56.8043 30.5663 56.5791 30.3626C56.3539 30.1696 56.0215 30.1803 55.8177 30.4055L54.7025 31.6495C54.5845 31.7889 54.5309 31.9819 54.5845 32.1535L55.3244 34.7272C55.3888 34.9631 55.6033 35.1133 55.8392 35.1133L55.8499 35.1347Z" fill="black"/>
<path d="M58.134 44.0279C58.4772 44.0279 58.8096 43.9528 59.1314 43.7919C59.3994 43.6525 59.496 43.3308 59.3566 43.0734C59.2171 42.8161 58.8954 42.7088 58.6381 42.8482C57.5335 43.4273 55.5067 41.6686 54.8847 41.0037C54.681 40.7893 54.3378 40.7785 54.1233 40.9823C53.9088 41.186 53.8981 41.5292 54.1019 41.7437C54.3592 42.0118 56.3217 44.0386 58.1448 44.0386L58.134 44.0279Z" fill="black"/>
<path d="M59.6139 56.0074L65.2975 57.0048C65.2975 57.0048 65.1796 64.6196 54.4879 65.5848C43.7962 66.5501 36.6112 55.8894 36.6112 55.8894L47.8391 54.5273L59.6139 56.0074Z" fill="#F48462"/>
<path d="M38.9812 47.0175C38.8096 49.8164 39.8499 52.1542 41.3083 52.24C42.7667 52.3258 44.0858 50.1382 44.2574 47.35C44.4289 44.551 43.3887 42.2132 41.9303 42.1274C40.4718 42.0416 39.1528 44.2293 38.9812 47.0175Z" fill="#3E8F9C"/>
<path d="M70.2306 94.5208C70.37 94.5208 70.5201 94.4672 70.6166 94.3492C80.4718 83.8923 72.193 73.2853 72.1072 73.178C71.9249 72.9528 71.5818 72.9099 71.3566 73.0922C71.1206 73.2746 71.0885 73.6178 71.2708 73.843C71.5925 74.2505 79.0456 83.8494 69.8445 93.6092C69.6407 93.8237 69.6515 94.1669 69.8659 94.3707C69.9732 94.4672 70.1019 94.5208 70.2306 94.5208Z" fill="#E5F3F6"/>
</svg>
