<svg width="80" height="80" viewBox="0 0 80 80" fill="none" xmlns="http://www.w3.org/2000/svg">
<path d="M80 40C80 49.8241 76.4568 58.8245 70.5887 65.7829C69.8509 66.6581 69.0702 67.5075 68.2638 68.314C66.9598 69.6182 65.5614 70.8365 64.0772 71.9434C63.3566 72.4925 62.6102 73.0159 61.8466 73.5135C61.7609 73.5736 61.6751 73.6251 61.5807 73.6765C60.4997 74.3801 59.3759 75.0322 58.2177 75.6156C57.9517 75.7529 57.6858 75.8902 57.4113 76.0189C56.1673 76.6195 54.889 77.16 53.585 77.6319C51.852 78.2583 50.0676 78.7731 48.2316 79.1506C45.5721 79.7083 42.8268 80 40.0043 80C38.7946 80 37.5936 79.9485 36.4096 79.837C35.1743 79.7254 33.956 79.5624 32.755 79.3308C32.0858 79.2106 31.4252 79.0734 30.7732 78.9189C28.8686 78.4728 27.0241 77.8893 25.2397 77.1686C23.6525 76.5423 22.1169 75.813 20.6327 74.9893C20.4611 74.8949 20.2895 74.8005 20.1265 74.6976C19.1142 74.1313 18.1362 73.5221 17.1925 72.8529C16.3775 72.2952 15.5796 71.6945 14.8075 71.0596C14.7131 70.991 14.6273 70.9224 14.533 70.8451C13.4434 69.9357 12.3968 68.9747 11.4016 67.9622C11.1185 67.6791 10.844 67.3874 10.578 67.0957C9.81448 66.272 9.08525 65.414 8.39893 64.5302C7.72118 63.6551 7.07775 62.7542 6.47721 61.8275C2.38499 55.547 0 48.0566 0 40C0 17.9065 17.9131 0 40.0043 0C62.0954 0 80 17.9065 80 40Z" fill="#3E8F9C"/>
<path d="M50.6252 35.109L32.4547 33.2729L31.5968 33.1871L29.289 32.9554C29.289 32.9554 27.7105 27.2326 29.1517 23.3115C30.593 19.399 33.9646 20.9949 33.9646 20.9949C33.9646 20.9949 35.466 19.7079 38.2027 18.5753C39.1206 18.1978 40.1587 17.846 41.3255 17.5629C42.578 17.254 43.9764 17.0309 45.5121 16.9451C52.8215 16.5419 50.4365 21.5183 50.4365 21.5183C50.4365 21.5183 52.0579 22.668 52.7185 26.2802C53.6965 31.6169 50.6252 35.109 50.6252 35.109Z" fill="black"/>
<path d="M70.5887 65.7833C69.8509 66.6585 69.0702 67.5079 68.2638 68.3144C66.9598 69.6186 65.5614 70.8369 64.0772 71.9437C63.3566 72.4929 62.6102 73.0162 61.8467 73.5139C61.7609 73.5739 61.6751 73.6254 61.5807 73.6769L61.8209 56.0879C61.8209 56.0879 65.9646 59.9489 70.5887 65.7833Z" fill="#E5F3F6"/>
<path d="M58.2177 75.615C57.9517 75.7522 57.6858 75.8895 57.4113 76.0182C54.5287 77.4168 51.4488 78.4807 48.2316 79.1499C45.5721 79.7076 42.8268 79.9993 40.0043 79.9993C38.7946 79.9993 37.5936 79.9479 36.4097 79.8363C35.1743 79.7248 33.956 79.5618 32.755 79.3301C32.0858 79.21 31.4252 79.0727 30.7732 78.9183C28.8686 78.4721 27.0241 77.8887 25.2397 77.1679L33.5786 48.8882C33.5786 48.8882 40.1759 45.1473 46.7989 48.4592C50.7796 50.4498 56.1158 64.8127 58.2177 75.615Z" fill="#68B6D8"/>
<path d="M47.4509 48.683L34.771 49.4809C34.771 49.4809 33.5013 62.6598 32.7549 79.3308C32.0858 79.2107 31.4252 79.0734 30.7732 78.9189C27.1785 78.0695 23.7812 76.7396 20.6327 74.9893C20.4611 74.8949 20.2895 74.8005 20.1265 74.6976C19.1142 74.1313 18.1362 73.5221 17.1925 72.8529C16.3775 72.2952 15.5796 71.6946 14.8075 71.0597C14.7131 70.991 14.6273 70.9224 14.533 70.8452C13.4434 69.9357 12.3968 68.9747 11.4016 67.9623C11.1185 67.6791 10.844 67.3874 10.578 67.0957C10.8182 61.6474 11.5646 57.589 13.0831 56.1733C19.8263 49.9014 36.5555 47.8078 36.5555 47.8078L44.3796 47.6963C44.3796 47.6963 45.615 48.0567 47.4509 48.683Z" fill="#E5F3F6"/>
<path d="M64.0772 71.9434C63.3566 72.4926 62.6102 73.0159 61.8467 73.5136C60.6799 74.2772 59.4703 74.9808 58.2177 75.6157C57.9518 75.753 57.6858 75.8902 57.4113 76.0189C56.1673 76.6196 54.889 77.1601 53.585 77.632C53.585 77.529 53.585 77.4261 53.5593 77.3231C48.1973 58.0867 46.799 48.46 46.799 48.46C51.629 50.1159 61.2804 53.8739 62.9276 57.6749C63.5539 59.1249 63.9057 64.6676 64.0772 71.9434Z" fill="#E5F3F6"/>
<path d="M39.2493 21.502C39.2493 21.502 31.7855 4.83108 23.2579 13.2995C16.1287 20.3866 27.1871 31.309 33.5871 28.1944C39.9786 25.0799 39.2579 21.502 39.2579 21.502H39.2493Z" fill="black"/>
<path d="M34.6595 41.3555L35.0113 50.2787C35.0113 50.2787 36.7185 52.784 41.9517 52.9985C45.8466 53.1616 47.0048 51.1195 47.0048 51.1195L45.7609 43.3546L36.2552 41.6472L34.6595 41.3555Z" fill="#F48462"/>
<path d="M34.6595 40.8066C34.6938 41.0469 34.7968 41.33 34.9512 41.6561C37.1217 46.0319 44.2166 47.6106 46.4729 47.7307L45.7694 43.3463L34.6681 40.8066H34.6595Z" fill="black"/>
<path d="M46.9534 22.9349C46.9534 22.9349 52.0751 33.9345 50.4708 40.2236C48.8665 46.5128 43.1528 45.6634 39.7212 44.5308C36.2896 43.4068 34.6595 41.3562 34.6595 41.3562C34.6595 41.3562 31.5024 42.5059 29.3062 39.6059C27.1099 36.6973 28.3367 33.2738 30.1384 32.4502C31.9314 31.6265 34.1276 32.8877 34.1276 32.8877L32.3603 29.696C32.3603 29.696 39.0949 13.1108 46.9534 22.9349Z" fill="#F48462"/>
<path d="M34.1276 32.888C34.1276 32.888 38.9233 33.7889 42.1662 28.4178C45.4091 23.0553 45.0745 20.8674 45.0745 20.8674L48.4633 26.3157C48.4633 26.3157 49.1496 22.4976 47.5968 20.0952C46.044 17.6928 44.4654 18.2162 44.4654 18.2162L33.9646 20.9961L31.3051 29.4817L34.1276 32.888Z" fill="black"/>
<path d="M46.7646 37.1514C46.7646 37.1514 46.6874 37.1514 46.6445 37.1342C46.4129 37.0656 46.2842 36.8339 46.3528 36.6023C46.9448 34.5774 45.3919 32.4238 45.3748 32.4066C45.2375 32.2179 45.2804 31.9433 45.4692 31.806C45.6579 31.6688 45.9324 31.7117 46.0697 31.9004C46.1469 32.0034 47.8799 34.4229 47.1764 36.8425C47.1249 37.0313 46.9533 37.1514 46.7646 37.1514Z" fill="black"/>
<path d="M33.7416 38.1809C33.63 38.1809 33.5185 38.138 33.4327 38.0522L30.3614 34.9033C30.1984 34.7317 30.1984 34.4657 30.3614 34.2941C30.533 34.1311 30.7989 34.1311 30.9705 34.2941L34.0418 37.443C34.2048 37.6146 34.2048 37.8806 34.0418 38.0522C33.956 38.1294 33.8531 38.1723 33.7416 38.1723V38.1809Z" fill="black"/>
<path d="M30.5244 37.3825C30.3185 37.3825 30.1384 37.2367 30.104 37.0222C30.0611 36.7905 30.2241 36.5674 30.4558 36.5245L32.5405 36.1727C32.7721 36.1384 32.9952 36.2929 33.0381 36.5245C33.081 36.7562 32.918 36.9793 32.6863 37.0222L30.6016 37.3739C30.6016 37.3739 30.5501 37.3739 30.533 37.3739L30.5244 37.3825Z" fill="black"/>
<path d="M48.7807 28.0142C48.7807 28.0142 48.7378 28.0142 48.7121 28.0142L46.7303 27.6968C46.4987 27.6624 46.3357 27.4394 46.3786 27.2077C46.4129 26.976 46.6359 26.813 46.8676 26.8473L48.8493 27.1648C49.081 27.1991 49.244 27.4222 49.2097 27.6539C49.1754 27.8684 48.9952 28.0142 48.7893 28.0142H48.7807Z" fill="black"/>
<path d="M40.5962 29.4209C40.4418 29.4209 40.296 29.3351 40.2187 29.1892C40.1072 28.9833 40.193 28.7173 40.3989 28.6144L43.6161 26.9327C43.822 26.8211 44.0879 26.8984 44.1994 27.1129C44.311 27.3188 44.2252 27.5848 44.0193 27.6877L40.8021 29.3694C40.7421 29.4037 40.6734 29.4209 40.6048 29.4209H40.5962Z" fill="black"/>
<path d="M48.8407 32.578C48.6606 32.578 48.489 32.4665 48.4289 32.2777L47.7855 30.2786C47.7426 30.1413 47.7684 29.9955 47.8541 29.8839L48.4633 29.1203C48.6091 28.9315 48.8836 28.9058 49.0638 29.0517C49.2525 29.1975 49.2783 29.4721 49.1324 29.6523L48.6692 30.2357L49.244 32.0118C49.3126 32.2348 49.1925 32.4751 48.9694 32.5523C48.9265 32.5695 48.8836 32.5695 48.8407 32.5695V32.578Z" fill="black"/>
<path d="M42.4579 33.1954C42.2777 33.1954 42.1062 33.0838 42.0461 32.8951L41.4027 30.8959C41.3598 30.7587 41.3855 30.6042 41.4799 30.4927L42.3206 29.4888C42.4751 29.3086 42.741 29.2829 42.9212 29.4373C43.1013 29.5918 43.1271 29.8578 42.9727 30.0379L42.2863 30.8616L42.8611 32.6377C42.9298 32.8608 42.8096 33.101 42.5866 33.1782C42.5437 33.1954 42.5008 33.1954 42.4579 33.1954Z" fill="black"/>
<path d="M45.2032 40.1037C43.7877 40.1037 42.2434 38.6108 42.0375 38.4049C41.8659 38.2419 41.8659 37.9673 42.0375 37.7957C42.2091 37.6241 42.4751 37.6241 42.6466 37.7957C43.1528 38.2933 44.7743 39.6147 45.6236 39.1428C45.8295 39.0226 46.0869 39.0999 46.207 39.3058C46.3271 39.5117 46.2499 39.7777 46.044 39.8892C45.778 40.0437 45.4949 40.1037 45.2032 40.1037Z" fill="black"/>
<path d="M17.1925 72.8531C16.3775 72.2954 15.5796 71.6948 14.8075 71.0599C14.7131 70.9913 14.6273 70.9226 14.533 70.8454C13.4434 69.9359 12.3968 68.975 11.4016 67.9625C10.3378 66.8729 9.33404 65.7317 8.39892 64.5305C7.72117 63.6554 7.07774 62.7545 6.4772 61.8278C11.8649 56.6712 16.326 53.8398 16.326 53.8398L17.1925 72.8531Z" fill="#E5F3F6"/>
<path d="M42.5437 53.4281C38.1855 53.4281 34.711 50.9055 34.5566 50.794C34.3678 50.6567 34.3249 50.3821 34.4622 50.1934C34.608 50.0046 34.874 49.9617 35.0627 50.099C35.097 50.1247 38.4686 52.5615 42.5437 52.5615C42.578 52.5615 42.6123 52.5615 42.6466 52.5615C46.4129 52.5272 47.0134 50.425 47.0306 50.3392C47.0906 50.1162 47.3222 49.9789 47.5539 50.0304C47.7855 50.0904 47.9228 50.3221 47.8627 50.5452C47.837 50.6567 47.1163 53.3766 42.6552 53.4195C42.6209 53.4195 42.578 53.4195 42.5437 53.4195V53.4281Z" fill="white"/>
</svg>
