<svg width="80" height="80" viewBox="0 0 80 80" fill="none" xmlns="http://www.w3.org/2000/svg">
<path d="M80 40C80 47.6362 77.855 54.7748 74.1484 60.8494C73.5049 61.9048 72.81 62.9172 72.0807 63.9039C71.5401 64.6246 70.9824 65.3196 70.3904 65.9974C68.8546 67.7992 67.1557 69.4552 65.3282 70.9652C64.7276 71.4543 64.1098 71.9348 63.4749 72.3895C63.1317 72.6469 62.7799 72.8958 62.4196 73.136C61.8018 73.5478 61.1755 73.9511 60.532 74.3286C60.4118 74.4144 60.2831 74.4831 60.1544 74.5603C60.0257 74.6375 59.8885 74.7147 59.7512 74.7919C58.4813 75.5212 57.1514 76.1733 55.7958 76.7568C52.9387 77.9923 49.9013 78.8932 46.7439 79.4251C46.3921 79.4938 46.0489 79.5453 45.6971 79.5967C44.8048 79.7254 43.9039 79.8198 42.9944 79.8885C42.9 79.897 42.8057 79.9056 42.7113 79.9056C42.0849 79.9485 41.4414 79.9743 40.7979 79.9828C40.532 80 40.266 80 40 80C36.7739 80 33.6251 79.6139 30.622 78.8932C28.1767 78.3097 25.8258 77.4946 23.5779 76.465C21.7932 75.6757 20.0772 74.7405 18.4384 73.6937C17.8293 73.3076 17.2287 72.8958 16.6366 72.4668C15.9417 71.9691 15.2638 71.4457 14.6032 70.888C12.8786 69.4809 11.2741 67.9193 9.80695 66.2291C9.48091 65.8516 9.16345 65.474 8.85457 65.0879C8.51995 64.6761 8.19391 64.2557 7.87645 63.8267C7.73917 63.6465 7.61047 63.4749 7.48177 63.2947C6.42643 61.8275 5.47405 60.2831 4.62462 58.6701C4.28142 58.0352 3.96396 57.3831 3.66366 56.731C1.30416 51.6345 0 45.9631 0 40C0 17.9065 17.9065 0 40 0C62.0935 0 80 17.9065 80 40Z" fill="#3E8F9C"/>
<path d="M63.4749 72.3894C63.1317 72.6468 62.78 72.8956 62.4196 73.1358C61.6817 73.6335 60.9267 74.114 60.1545 74.5601C55.7958 77.1084 50.9138 78.8501 45.6972 79.5966C45.4483 79.6309 45.1995 79.6652 44.9421 79.691C43.6122 79.8626 42.2566 79.957 40.8752 79.9827H40.798C40.532 79.9999 40.266 79.9998 40 79.9998C36.7739 79.9998 33.6251 79.6137 30.6221 78.893C26.2377 77.8377 22.1279 76.0616 18.4385 73.6935C17.1 72.8441 15.8216 71.9089 14.6032 70.8879C12.8786 69.4808 11.2742 67.9192 9.80698 66.2289C9.48094 65.8514 9.16348 65.4739 8.8546 65.0878C8.34838 58.2324 14.8005 51.6258 15.9503 50.2787C19.6482 45.9029 30.0472 43.4662 40.2574 43.7579C40.2574 43.7579 54.1656 43.7064 59.9571 49.8926C62.5054 52.6125 63.3548 62.3079 63.4749 72.3894Z" fill="#D3CDFF"/>
<path d="M17.16 49.1035L16.6366 72.4669C15.9417 71.9692 15.2638 71.4459 14.6032 70.8882C12.8786 69.481 11.2741 67.9195 9.80696 66.2292C9.48092 65.8517 9.16346 65.4742 8.85458 65.0881C8.51996 64.6762 8.19392 64.2558 7.87646 63.8268C7.73918 63.6466 7.61048 63.475 7.48178 63.2948C6.42644 61.8277 5.47405 60.2833 4.62463 58.6702C9.72974 53.771 17.16 49.1035 17.16 49.1035Z" fill="#D3CDFF"/>
<path d="M70.3904 65.9969C68.8546 67.7987 67.1557 69.4546 65.3282 70.9647C64.7276 71.4538 64.1098 71.9343 63.4749 72.389C63.1317 72.6464 62.7799 72.8952 62.4196 73.1355C62.2565 73.247 62.0849 73.3585 61.9219 73.4615C61.716 73.5988 61.5101 73.7361 61.3042 73.8562C60.9266 74.105 60.5405 74.3367 60.1544 74.5597C58.7559 75.3834 57.2973 76.1127 55.7958 76.7562L50.828 72.6636L60.3003 50.2783L70.3904 65.9969Z" fill="#D3CDFF"/>
<path d="M32.6298 36.5244L31.9777 44.5467C31.9777 44.5467 32.5268 46.9834 37.7778 47.8414C41.6903 48.4849 43.8267 46.1169 43.8267 46.1169L43.758 44.3837L43.5779 39.8792L34.1999 37.0049L32.6298 36.5244Z" fill="#F48462"/>
<path d="M34.2085 37.0059C34.2085 37.2547 34.2857 37.555 34.3973 37.8982C36.0532 42.5743 41.5015 43.9986 43.758 44.3847L43.5779 39.8802L34.1999 37.0059H34.2085Z" fill="black"/>
<path d="M47.2673 19.4506C47.2673 19.4506 51.094 31.1623 48.7087 37.3055C46.3321 43.4488 40.6692 41.8959 37.3488 40.3429C34.0283 38.7899 32.6298 36.5248 32.6298 36.5248C32.6298 36.5248 29.3093 37.3055 27.4475 34.1052C25.5856 30.9049 27.2415 27.6016 29.1549 26.9924C31.0682 26.3832 33.1188 27.919 33.1188 27.919L31.7203 24.487C31.7203 24.487 40.5234 8.58826 47.2587 19.442L47.2673 19.4506Z" fill="#F48462"/>
<path d="M45.4054 33.7443C45.3453 33.7443 45.2939 33.7357 45.2338 33.7099C45.0193 33.6156 44.9163 33.3667 45.0107 33.1437C45.8516 31.1788 44.5474 28.8108 44.5388 28.785C44.4273 28.5791 44.4959 28.3131 44.7018 28.2016C44.9078 28.09 45.1737 28.1587 45.2853 28.3646C45.3453 28.4761 46.8039 31.1188 45.8001 33.4783C45.7314 33.6413 45.5684 33.7357 45.4054 33.7357V33.7443Z" fill="black"/>
<path d="M32.1407 33.1187C32.0377 33.1187 31.9348 33.0758 31.8661 32.9814L29.1463 29.4293C29.0347 29.2834 29.0605 29.0689 29.2063 28.9488C29.3522 28.8287 29.5667 28.863 29.6868 29.0089L32.4067 32.561C32.5182 32.7068 32.4925 32.9213 32.3466 33.0415C32.2866 33.0929 32.2093 33.1101 32.1407 33.1101V33.1187Z" fill="black"/>
<path d="M29.0004 31.9176C28.8203 31.9176 28.6658 31.7718 28.6573 31.5916C28.6487 31.4028 28.7945 31.2398 28.9833 31.2312L31.1283 31.1283C31.3256 31.1111 31.4801 31.2655 31.4887 31.4543C31.4972 31.6431 31.3514 31.8061 31.1626 31.8147L29.0176 31.9176C29.0176 31.9176 29.009 31.9176 29.0004 31.9176Z" fill="black"/>
<path d="M40.7464 29.0339C40.5148 29.0339 40.326 28.8451 40.3174 28.6135L40.266 26.4942C40.266 26.254 40.4461 26.0652 40.6864 26.0566C40.918 26.0566 41.1154 26.2368 41.124 26.4771L41.1754 28.5963C41.1754 28.8366 40.9953 29.0253 40.755 29.0339H40.7464Z" fill="black"/>
<path d="M47.0099 29.1727C46.7782 29.1727 46.5894 28.9925 46.5809 28.7608L46.4865 26.6416C46.4779 26.4013 46.6581 26.204 46.8983 26.1954C47.1385 26.1783 47.3359 26.367 47.3445 26.6073L47.4389 28.7265C47.4474 28.9668 47.2673 29.1641 47.027 29.1727C47.027 29.1727 47.0184 29.1727 47.0099 29.1727Z" fill="black"/>
<path d="M39.7083 25.053C39.6225 25.053 39.5367 25.0273 39.468 24.9758C39.2707 24.8385 39.2278 24.5725 39.3565 24.3752C40.3432 22.9595 42.2051 23.603 42.2823 23.6373C42.5054 23.7145 42.6169 23.9634 42.5397 24.1864C42.4625 24.4095 42.2136 24.5296 41.9906 24.4438C41.9391 24.4267 40.6607 23.9891 40.0515 24.8643C39.9657 24.9844 39.837 25.053 39.6997 25.053H39.7083Z" fill="black"/>
<path d="M47.8936 25.0442C47.7478 25.0442 47.6105 24.9756 47.5247 24.8383C47.4303 24.6838 47.0957 24.272 46.701 24.1948C46.4865 24.1519 46.2634 24.2119 46.0318 24.375C45.843 24.5122 45.5684 24.4608 45.4312 24.272C45.2939 24.0747 45.3368 23.8087 45.5341 23.6714C45.9631 23.3711 46.4264 23.2596 46.8726 23.3539C47.7049 23.5255 48.1939 24.2977 48.254 24.3921C48.3741 24.598 48.314 24.8554 48.1081 24.9841C48.0395 25.027 47.9623 25.0442 47.885 25.0442H47.8936Z" fill="black"/>
<path d="M47.2673 19.4504L46.5465 18.3951C46.5465 18.3951 45.6542 19.0042 43.6808 19.4247C40.6435 20.0853 37.0742 19.8966 37.0742 19.8966C37.0742 19.8966 37.6748 20.7631 37.5375 23.9034C37.4002 27.0437 34.1398 28.794 34.1398 28.794C32.9901 27.9875 32.0292 27.5328 31.2141 27.2839C30.8623 27.181 30.5534 27.1209 30.2617 27.0866C28.3827 26.8978 27.6791 28.0647 27.6791 28.0647C27.6791 28.0647 23.3462 21.1664 28.3569 16.2071C31.8661 12.7494 36.568 12.9639 39.0648 13.4186C39.9142 13.5731 40.4976 13.7533 40.7121 13.8133C40.7722 13.8305 40.7979 13.8391 40.7979 13.8391C40.7979 13.8391 48.2969 12.063 49.541 13.1698C50.7851 14.2681 48.1767 19.4933 47.2758 19.4504H47.2673Z" fill="black"/>
<path d="M42.9258 36.963C42.6341 36.963 42.3166 36.9115 41.9906 36.7828C41.5616 36.6026 41.2527 36.3109 41.0982 35.9334C40.8323 35.2642 41.1326 34.5778 41.1669 34.5005C41.2184 34.3976 41.3042 34.3118 41.4157 34.2775C41.5272 34.2346 41.6474 34.2431 41.7503 34.2946L44.5474 35.6846C44.6761 35.7532 44.7705 35.8819 44.7791 36.0278C44.7962 36.1737 44.7276 36.3195 44.6075 36.4139C44.5732 36.4396 43.8524 36.9716 42.9172 36.9716L42.9258 36.963ZM41.8533 35.2985C41.8533 35.4014 41.8533 35.513 41.9048 35.6159C41.9734 35.779 42.1021 35.8991 42.3166 35.9849C42.6941 36.1393 43.0631 36.1222 43.3719 36.0535L41.8533 35.2985Z" fill="black"/>
<path d="M44.9421 79.6904C43.6122 79.862 42.2565 79.9564 40.8752 79.9822L37.8979 48.2275L40.8237 48.9912L44.9421 79.6904Z" fill="#A2C5F9"/>
<path d="M43.9554 44.1357C43.9554 44.1357 47.3616 53.6081 46.3664 53.4708C45.3711 53.3335 39.245 48.4515 39.245 48.4515C39.245 48.4515 35.2381 53.9684 33.8395 54.0714C32.441 54.1744 31.9863 44.2044 31.9863 44.2044C31.9863 44.2044 33.0416 47.0272 38.2668 47.4991C43.4921 47.971 43.9554 44.1357 43.9554 44.1357Z" fill="#E6F4FF"/>
<path d="M60.532 74.3295C60.4118 74.4153 60.2831 74.4839 60.1544 74.5612C60.0257 74.6384 59.8885 74.7156 59.7512 74.7928L56.3278 58.7568C56.2849 58.5251 56.4307 58.302 56.6624 58.2506C56.894 58.1991 57.1171 58.3449 57.1686 58.5766L60.532 74.3295Z" fill="#E6F4FF"/>
</svg>
