<svg width="80" height="80" viewBox="0 0 80 80" fill="none" xmlns="http://www.w3.org/2000/svg">
<path d="M0 40C0 47.9022 2.29062 55.2724 6.25416 61.4843C6.95764 62.5826 7.7126 63.6465 8.51045 64.6761C10.9812 67.8164 13.9067 70.5791 17.1925 72.8614C17.5528 73.1103 17.9217 73.3591 18.2906 73.5993C20.3067 74.9035 22.4515 76.036 24.6992 76.9713C25.2912 77.2115 25.8831 77.4432 26.4836 77.6577C30.7046 79.1763 35.2515 80 39.9957 80C40.3046 80 40.622 80 40.9394 79.9914C44.903 79.897 48.7292 79.2278 52.3324 78.0609C57.2483 76.4736 61.7437 73.9511 65.6129 70.7164C65.7844 70.5791 65.9646 70.4247 66.1362 70.2789C67.3201 69.2578 68.4354 68.1682 69.4906 67.0184C69.6279 66.8726 69.7566 66.7267 69.8853 66.5723C76.1823 59.5109 80 50.2016 80 40C80 17.9065 62.0869 0 39.9957 0C17.9046 0 0 17.9065 0 40Z" fill="#3E8F9C"/>
<path d="M52.3324 78.061C57.2483 76.4737 61.7437 73.9512 65.6129 70.7165C65.7844 70.5792 65.9646 70.4248 66.1362 70.2789C67.3201 69.2579 68.4354 68.1682 69.4906 67.0185C69.6279 66.8726 69.7566 66.7268 69.8853 66.5723C65.8531 54.8263 59.1528 45.4655 51.4316 45.4913C41.7973 45.5685 46.8161 63.6723 52.3324 78.061Z" fill="#E5F3F6"/>
<path d="M34.9598 21.7331C34.9598 21.7331 23.5153 18.6529 14.9962 29.0862C6.47719 39.5195 11.7705 52.3552 25.2654 51.9862C38.7603 51.6173 41.8917 37.8292 41.8917 37.8292L34.9598 21.7331Z" fill="black"/>
<path d="M18.2906 73.5985C20.3067 74.9026 22.4515 76.0352 24.6992 76.9704C25.2911 77.2107 25.8831 77.4423 26.4836 77.6568C30.7045 79.1755 35.2515 79.9992 39.9957 79.9992C40.3045 79.9992 40.622 79.9992 40.9394 79.9906C50.3163 79.7761 58.904 76.3269 65.6129 70.7156C64.8064 61.7066 63.7169 54.465 62.267 52.3801C59.2214 47.9957 55.644 46.3827 51.4316 45.4904C49.1839 45.027 46.8075 44.7782 44.2338 44.4093C40.459 43.8859 35.912 43.9974 31.8456 44.4608H31.7941C27.8134 44.9241 24.2874 45.7392 22.4171 46.6572C20.8643 47.4123 19.3716 59.4758 18.2906 73.5985Z" fill="#E5F3F6"/>
<path d="M49.6901 37.1084C50.1705 39.2961 51.4831 40.8661 52.6241 40.6173C53.7652 40.3685 54.3056 38.3953 53.8252 36.2076C53.3448 34.02 52.0322 32.45 50.8912 32.6988C49.7501 32.9476 49.2097 34.9208 49.6901 37.1084Z" fill="#92B4EA"/>
<path d="M8.51046 64.6758C10.9812 67.816 13.9067 70.5788 17.1925 72.8611C19.526 74.4827 22.0397 75.8641 24.6992 76.9709C25.2912 77.2112 25.8831 77.4428 26.4837 77.6573L33.8445 44.4613C33.8445 44.4613 33.1153 44.4012 31.8456 44.4613H31.7941C27.7705 44.6843 16.4719 44.5299 8.51046 64.6758Z" fill="#E5F3F6"/>
<path d="M52.1437 30.3222C52.1437 30.3222 55.3952 26.8644 54.5887 21.3818C54.0397 17.6666 52.4097 16.4397 52.4097 16.4397C52.4097 16.4397 55.0177 11.4376 47.5453 11.6006C40.0729 11.7636 33.9475 11.1287 30.6188 17.5551C28.6542 21.3389 29.4349 29.5671 29.4349 29.5671L52.1351 30.3222H52.1437Z" fill="black"/>
<path d="M35.6376 36.1553L35.689 45.2758C35.689 45.2758 37.3448 47.8841 42.6896 48.2874C46.6617 48.5877 47.9142 46.5371 47.9142 46.5371L46.9019 38.5663L37.259 36.5071L35.6376 36.1553Z" fill="#F48462"/>
<path d="M35.6461 35.5984C35.6718 35.8472 35.7662 36.1389 35.9121 36.4735C37.9796 41.0204 45.1689 42.8735 47.4681 43.0622L46.8933 38.5582L35.6375 35.5898L35.6461 35.5984Z" fill="black"/>
<path d="M48.8064 17.7702C48.8064 17.7702 53.6622 29.1731 51.8091 35.5394C49.956 41.9058 44.1566 40.8419 40.6906 39.572C37.2247 38.3022 35.629 36.1572 35.629 36.1572C35.629 36.1572 32.3689 37.2297 30.2241 34.1838C28.0794 31.1379 29.452 27.6802 31.3137 26.908C33.1753 26.1272 35.3716 27.4914 35.3716 27.4914L33.6729 24.1709C33.6729 24.1709 41.111 7.46565 48.8064 17.7617V17.7702Z" fill="#F48462"/>
<path d="M35.3802 27.4908C35.3802 27.4908 40.2445 28.5719 43.7448 23.2008C47.245 17.8297 46.9705 15.5904 46.9705 15.5904L50.2391 21.2617C50.2391 21.2617 51.0713 17.3836 49.5614 14.8782C48.0515 12.3729 46.43 12.8533 46.43 12.8533L35.6118 15.333L32.6091 23.913L35.3802 27.4908Z" fill="black"/>
<path d="M48.1544 32.2593C48.3346 32.2593 48.5062 32.1478 48.5662 31.9676C49.3641 29.5226 47.6826 27.0003 47.6054 26.8888C47.4681 26.6915 47.2021 26.64 47.0134 26.7773C46.8161 26.906 46.7646 27.1805 46.9019 27.3692C46.919 27.395 48.4289 29.6513 47.7598 31.6931C47.6826 31.9161 47.8113 32.1564 48.0343 32.2336C48.0772 32.2507 48.1201 32.2507 48.1716 32.2507L48.1544 32.2593Z" fill="black"/>
<path d="M34.8139 32.8788C34.9169 32.8788 35.0198 32.8445 35.1056 32.7673C35.2772 32.6043 35.2944 32.3383 35.1314 32.1582L32.1029 28.8381C31.9399 28.6665 31.674 28.6493 31.4938 28.8123C31.3222 28.9753 31.3051 29.2413 31.4681 29.4214L34.4965 32.7416C34.5823 32.8359 34.6938 32.8788 34.8139 32.8788Z" fill="black"/>
<path d="M31.5625 31.953C31.5625 31.953 31.5968 31.953 31.6225 31.953L33.7587 31.6613C33.9903 31.627 34.1619 31.4125 34.1276 31.1809C34.0933 30.9493 33.8788 30.7777 33.6472 30.812L31.511 31.1037C31.2794 31.138 31.1078 31.3525 31.1421 31.5841C31.1678 31.7986 31.3566 31.953 31.5625 31.953Z" fill="black"/>
<path d="M50.5223 23.0036C50.7196 23.0036 50.8997 22.8577 50.9426 22.6604C50.9855 22.4288 50.8397 22.2057 50.5995 22.1543L48.592 21.7682C48.3689 21.7253 48.1373 21.8711 48.0858 22.1114C48.0429 22.343 48.1887 22.5661 48.429 22.6175L50.4365 23.0036C50.4365 23.0036 50.4879 23.0036 50.5223 23.0036Z" fill="black"/>
<path d="M42.1062 24.1695C42.1662 24.1695 42.2349 24.1524 42.2949 24.1267L45.6322 22.5138C45.8466 22.4108 45.9324 22.1535 45.8295 21.939C45.7265 21.7245 45.4692 21.6387 45.2547 21.7417L41.9174 23.3545C41.7029 23.4575 41.6172 23.7149 41.7201 23.9293C41.7973 24.0838 41.9432 24.1695 42.1062 24.1695Z" fill="black"/>
<path d="M50.4279 27.6701C50.4279 27.6701 50.5051 27.6701 50.548 27.6529C50.7796 27.5843 50.9083 27.3527 50.8397 27.121L50.3164 25.2765L50.8139 24.6931C50.9684 24.513 50.9426 24.2385 50.7625 24.0926C50.5823 23.9382 50.3078 23.9639 50.1534 24.1441L49.5099 24.899C49.4156 25.0106 49.3812 25.1564 49.4241 25.2937L50.0161 27.3527C50.0676 27.5414 50.2391 27.6615 50.4279 27.6615V27.6701Z" fill="black"/>
<path d="M44.6799 28.1082C44.6799 28.1082 44.7571 28.1082 44.8 28.091C45.0316 28.0224 45.1603 27.7907 45.0917 27.5591L44.5684 25.7232L45.2976 24.8996C45.452 24.7194 45.4434 24.4535 45.2633 24.2905C45.0831 24.136 44.8172 24.1446 44.6542 24.3248L43.7619 25.32C43.6676 25.4315 43.6247 25.5859 43.6676 25.7232L44.2595 27.7822C44.311 27.9709 44.4826 28.091 44.6713 28.091L44.6799 28.1082Z" fill="black"/>
<path d="M46.5072 35.2205C46.7818 35.2205 47.0477 35.1605 47.3051 35.0318C47.5196 34.9203 47.5968 34.6629 47.4852 34.457C47.3737 34.2511 47.1163 34.1653 46.9104 34.2768C46.0268 34.7401 44.4054 33.3331 43.9078 32.8012C43.7448 32.6296 43.4702 32.6211 43.2987 32.7841C43.1271 32.9471 43.1185 33.2216 43.2815 33.3932C43.4874 33.6077 45.0574 35.2291 46.5158 35.2291L46.5072 35.2205Z" fill="black"/>
<path d="M47.6912 44.8051L52.2381 45.6031C52.2381 45.6031 52.1437 51.6949 43.5903 52.4671C35.037 53.2393 29.289 44.7108 29.289 44.7108L38.2713 43.6211L47.6912 44.8051Z" fill="#F48462"/>
<path d="M31.185 37.6132C31.0477 39.8524 31.8799 41.7226 33.0467 41.7913C34.2134 41.8599 35.2686 40.1098 35.4059 37.8792C35.5432 35.64 34.711 33.7698 33.5442 33.7012C32.3775 33.6325 31.3223 35.3827 31.185 37.6132Z" fill="#92B4EA"/>
<path d="M56.1845 75.6157C56.296 75.6157 56.4161 75.5728 56.4933 75.4784C64.3775 67.1129 57.7544 58.6273 57.6858 58.5415C57.54 58.3613 57.2654 58.327 57.0853 58.4728C56.8965 58.6187 56.8708 58.8932 57.0166 59.0734C57.274 59.3995 63.2365 67.0786 55.8756 74.8864C55.7126 75.058 55.7212 75.3325 55.8928 75.4955C55.9786 75.5728 56.0815 75.6157 56.1845 75.6157Z" fill="#92B4EA"/>
</svg>
