<svg width="51" height="72" viewBox="0 0 51 72" fill="none" xmlns="http://www.w3.org/2000/svg">
<path d="M51 69.4717C51 70.4357 50.2197 71.2161 49.2556 71.2161H1.74438C0.78033 71.2161 0 70.4357 0 69.4717V7.98169C0 7.01763 0.78033 6.2373 1.74438 6.2373H49.2556C50.2197 6.2373 51 7.01763 51 7.98169V69.4717Z" fill="#13959C"/>
<path d="M51 67.3204C51 68.2508 50.2197 69.0055 49.2556 69.0055H1.74438C0.78033 69.0055 0 68.2508 0 67.3204V7.92242C0 6.99195 0.78033 6.2373 1.74438 6.2373H49.2556C50.2197 6.2373 51 6.99195 51 7.92242V67.3223V67.3204Z" fill="#24B7C4"/>
<path d="M48.0387 9.74512H2.9613V64.9885H48.0387V9.74512Z" fill="white"/>
<path d="M39.8541 6.7822C39.8541 5.35587 38.6985 4.2002 37.2721 4.2002H13.7259C12.2996 4.2002 11.1439 5.35587 11.1439 6.7822V11.3259H39.8541V6.7822Z" fill="#B4B3B3"/>
<path d="M28.7207 7.96714C30.0303 6.18635 29.6483 3.68112 27.8675 2.37157C26.0867 1.06201 23.5815 1.44402 22.2719 3.22481C20.9624 5.0056 21.3444 7.51082 23.1252 8.82038C24.906 10.1299 27.4112 9.74793 28.7207 7.96714Z" fill="#B4B3B3"/>
<path d="M26.7248 4.37035C26.7248 5.04796 26.1756 5.59715 25.498 5.59715C24.8204 5.59715 24.2712 5.04796 24.2712 4.37035C24.2712 3.69275 24.8204 3.14355 25.498 3.14355C26.1756 3.14355 26.7248 3.69275 26.7248 4.37035Z" fill="#EDEFC7"/>
<path d="M39.8541 8.16602H11.1439V11.3288H39.8541V8.16602Z" fill="#D2D2D2"/>
<path d="M40.1604 21.722C40.1604 21.9295 39.9826 22.0974 39.7653 22.0974H9.68404C9.46674 22.0974 9.28894 21.9275 9.28894 21.722C9.28894 21.5166 9.46674 21.3467 9.68404 21.3467H39.7653C39.9826 21.3467 40.1604 21.5166 40.1604 21.722Z" fill="#ECECF0"/>
<path d="M29.5815 23.0912C29.5815 23.2986 29.4037 23.4665 29.1864 23.4665H9.68404C9.46674 23.4665 9.28894 23.2966 9.28894 23.0912C9.28894 22.8857 9.46674 22.7158 9.68404 22.7158H29.1844C29.4017 22.7158 29.5795 22.8857 29.5795 23.0912H29.5815Z" fill="#ECECF0"/>
<path d="M24.7256 24.4818C24.7256 24.6892 24.5478 24.8571 24.3305 24.8571H9.68404C9.46674 24.8571 9.28894 24.6872 9.28894 24.4818C9.28894 24.2763 9.46674 24.1064 9.68404 24.1064H24.3305C24.5478 24.1064 24.7256 24.2763 24.7256 24.4818Z" fill="#ECECF0"/>
<path d="M40.3697 31.3876C40.3697 31.6049 40.1919 31.7827 39.9746 31.7827H16.2467C16.0294 31.7827 15.8516 31.6049 15.8516 31.3876V31.0123C15.8516 30.795 16.0294 30.6172 16.2467 30.6172H39.9746C40.1919 30.6172 40.3697 30.795 40.3697 31.0123V31.3876Z" fill="#ECECF0"/>
<path d="M40.3697 37.2578C40.3697 37.4751 40.1919 37.6529 39.9746 37.6529H16.2467C16.0294 37.6529 15.8516 37.4751 15.8516 37.2578V36.8824C15.8516 36.6651 16.0294 36.4873 16.2467 36.4873H39.9746C40.1919 36.4873 40.3697 36.6651 40.3697 36.8824V37.2578Z" fill="#ECECF0"/>
<path d="M40.3697 43.2333C40.3697 43.4506 40.1919 43.6284 39.9746 43.6284H16.2467C16.0294 43.6284 15.8516 43.4506 15.8516 43.2333V42.858C15.8516 42.6407 16.0294 42.4629 16.2467 42.4629H39.9746C40.1919 42.4629 40.3697 42.6407 40.3697 42.858V43.2333Z" fill="#ECECF0"/>
<path d="M40.3697 48.8037C40.3697 49.021 40.1919 49.1988 39.9746 49.1988H16.2466C16.0293 49.1988 15.8515 49.021 15.8515 48.8037V48.4283C15.8515 48.211 16.0293 48.0332 16.2466 48.0332H39.9746C40.1919 48.0332 40.3697 48.211 40.3697 48.4283V48.8037Z" fill="#ECECF0"/>
<path d="M13.4118 29.0941V32.7508H9.75516V29.0941H13.4118ZM13.8761 28.6299H9.28894V33.217H13.8761V28.6299Z" fill="#ECECF0"/>
<path d="M13.4118 35.0424V38.6991H9.75516V35.0424H13.4118ZM13.8761 34.5781H9.28894V39.1653H13.8761V34.5781Z" fill="#ECECF0"/>
<path d="M13.4118 40.9828V44.6395H9.75516V40.9828H13.4118ZM13.8761 40.5186H9.28894V45.1057H13.8761V40.5186Z" fill="#ECECF0"/>
<path d="M13.4118 46.9974V50.6541H9.75516V46.9974H13.4118ZM13.8761 46.5332H9.28894V51.1204H13.8761V46.5332Z" fill="#ECECF0"/>
<path d="M11.6042 32.1788C11.5588 32.1788 11.5153 32.1571 11.4877 32.1195L9.97642 30.0907C9.93296 30.0314 9.93888 29.9504 9.99025 29.899C10.0199 29.8694 10.0574 29.8536 10.0969 29.8536C10.1266 29.8536 10.1562 29.8635 10.1819 29.8813L11.5786 30.8749L14.1211 28.5912C14.1487 28.5656 14.1843 28.5537 14.2198 28.5537C14.2554 28.5537 14.2929 28.5675 14.3206 28.5932C14.3759 28.6466 14.3838 28.7315 14.3364 28.7928L11.7248 32.1235C11.6971 32.159 11.6536 32.1808 11.6082 32.1808L11.6042 32.1788Z" fill="#88BA34"/>
<path d="M14.2179 28.7006L11.6062 32.0313L10.095 30.0025L11.5884 31.0653L14.2198 28.7026M14.2198 28.4062H14.2139C14.1408 28.4062 14.0736 28.4359 14.0223 28.4833L11.5687 30.688L10.2688 29.7634C10.2174 29.7259 10.1562 29.7081 10.0969 29.7081C10.0199 29.7081 9.94284 29.7378 9.88555 29.797C9.78282 29.9017 9.77294 30.0637 9.85987 30.1822L11.3711 32.2111C11.4265 32.2862 11.5134 32.3296 11.6043 32.3296H11.6082C11.6991 32.3296 11.786 32.2881 11.8413 32.217L14.447 28.8962C14.4905 28.8448 14.5181 28.7776 14.5181 28.7046C14.5181 28.5406 14.3858 28.4082 14.2218 28.4082L14.2198 28.4062Z" fill="#88BA34"/>
<path d="M11.6043 37.6602C11.5589 37.6602 11.5154 37.6385 11.4878 37.601L9.97651 35.5721C9.93305 35.5128 9.93897 35.4318 9.99034 35.3805C10.02 35.3509 10.0575 35.335 10.097 35.335C10.1266 35.335 10.1563 35.3449 10.182 35.3627L11.5787 36.3564L14.1211 34.0727C14.1488 34.047 14.1844 34.0352 14.2199 34.0352C14.2555 34.0352 14.293 34.049 14.3207 34.0747C14.376 34.128 14.3839 34.213 14.3365 34.2742L11.7248 37.6049C11.6972 37.6405 11.6537 37.6622 11.6083 37.6622L11.6043 37.6602Z" fill="#88BA34"/>
<path d="M14.2179 34.1811L11.6062 37.5118L10.095 35.4829L11.5884 36.5458L14.2198 34.183M14.2198 33.8867H14.2139C14.1408 33.8867 14.0736 33.9164 14.0223 33.9638L11.5687 36.1684L10.2688 35.2439C10.2174 35.2064 10.1562 35.1886 10.0969 35.1886C10.0199 35.1886 9.94284 35.2182 9.88555 35.2775C9.78282 35.3822 9.77294 35.5442 9.85987 35.6627L11.3711 37.6916C11.4265 37.7666 11.5134 37.8101 11.6043 37.8101H11.6082C11.6991 37.8101 11.786 37.7686 11.8413 37.6975L14.447 34.3766C14.4905 34.3253 14.5181 34.2581 14.5181 34.185C14.5181 34.0211 14.3858 33.8887 14.2218 33.8887L14.2198 33.8867Z" fill="#88BA34"/>
<path d="M2.9613 51.4365V64.9293H9.52398C9.23555 64.9293 3.35641 58.2145 2.9613 51.4365Z" fill="#DDDDE0"/>
<path d="M10.3635 58.5492C8.41766 57.9684 6.98145 57.1565 5.9206 56.2636C3.42157 54.1557 3.01461 51.5855 2.96127 50.501V51.3821C3.35638 58.162 9.23552 64.9321 9.52395 64.9302C9.22169 64.5785 9.08736 64.0886 9.07353 63.575C9.03797 62.3245 9.7057 60.6156 10.3635 58.5492Z" fill="#ECECF0"/>
</svg>
