<svg width="39" height="39" viewBox="0 0 39 39" fill="none" xmlns="http://www.w3.org/2000/svg">
<path d="M36 36L28.0379 28.0379M28.0379 28.0379C29.3999 26.676 30.4802 25.0591 31.2173 23.2796C31.9544 21.5002 32.3338 19.593 32.3338 17.6669C32.3338 15.7408 31.9544 13.8336 31.2173 12.0541C30.4802 10.2746 29.3999 8.65777 28.0379 7.29583C26.676 5.93388 25.0591 4.85353 23.2796 4.11645C21.5002 3.37937 19.593 3 17.6669 3C15.7408 3 13.8336 3.37937 12.0541 4.11645C10.2746 4.85353 8.65777 5.93388 7.29583 7.29583C4.54526 10.0464 3 13.777 3 17.6669C3 21.5568 4.54526 25.2874 7.29583 28.0379C10.0464 30.7885 13.777 32.3338 17.6669 32.3338C21.5568 32.3338 25.2874 30.7885 28.0379 28.0379Z" stroke="#3E8F9C" stroke-width="4.58328" stroke-linecap="round" stroke-linejoin="round"/>
</svg>
