<svg width="516" height="517" viewBox="0 0 516 517" fill="none" xmlns="http://www.w3.org/2000/svg">
<path d="M499.617 251.575C507.964 294.167 524.882 380.488 484.397 438.235C412.054 541.424 164.126 536.995 55.4912 403.517C47.9042 394.195 -15.7254 313.433 3.65592 210.722C28.6306 78.3679 177.664 -17.3904 295.944 8.55922C370.77 24.9755 418.67 86.8821 438.107 112.034C446.378 122.737 484.257 173.196 499.617 251.575Z" fill="#3E8F9C"/>
<path d="M105.122 247.554C105.264 247.663 105.407 247.771 105.55 247.879C114.008 254.282 124.382 259.786 137.191 263.472C139.739 264.014 142.286 264.556 144.834 265.099C148.44 259.626 150.89 253.775 143.778 249.535C132.734 242.949 137.743 221.866 142.892 215.26C149.265 207.083 163.713 187.738 146.799 177.288C132.718 168.589 121.854 165.853 125.751 145.881C129.648 125.91 121.994 110.906 103.832 107.572C84.7184 104.063 75.6122 75.1465 58.0968 79.6332C27.5772 87.4512 40.9449 137 70.4157 157.81C99.8866 178.62 78.1955 185.661 73.2486 201.561C66.4955 223.269 97.4384 226.071 103.118 236.701C105.042 240.301 105.476 244.037 105.122 247.554Z" fill="url(#paint0_linear_713_410)"/>
<mask id="mask0_713_410" style="mask-type:luminance" maskUnits="userSpaceOnUse" x="40" y="79" width="115" height="191">
<path d="M101.196 259.465L142.246 269.475C146.055 264.247 151.722 254.272 143.778 249.535C132.734 242.949 137.743 221.867 142.892 215.26C149.265 207.083 163.713 187.738 146.799 177.288C132.719 168.589 121.854 165.853 125.751 145.881C129.648 125.91 121.995 110.906 103.832 107.572C84.7186 104.063 75.6124 75.1465 58.097 79.6332C27.5775 87.4512 40.9451 137 70.4161 157.81C99.887 178.62 78.1956 185.661 73.249 201.561C66.4958 223.269 97.4388 226.071 103.118 236.7C107.57 245.033 104.068 254.099 101.196 259.465Z" fill="white"/>
</mask>
<g mask="url(#mask0_713_410)">
<g opacity="0.5">
<path d="M122.099 257.722L123.014 257.763C126.012 190.891 96.5412 122.891 46.1015 80.3008L45.511 81.0003C95.7381 123.412 125.085 191.127 122.099 257.722Z" fill="#FCFDFE"/>
<path d="M120.611 221.123L121.499 221.344C127.844 195.814 154.646 181.345 154.916 181.202L154.487 180.393C154.214 180.537 127.056 195.19 120.611 221.123Z" fill="#FCFDFE"/>
<path d="M122.315 245.404L123.202 245.177C116.573 219.343 70.3456 204.431 69.8795 204.284L69.6031 205.157C70.0643 205.303 115.813 220.062 122.315 245.404Z" fill="#FCFDFE"/>
<path d="M102.797 157.976L103.7 157.826C100.21 136.958 119.708 111.027 119.906 110.768L119.177 110.213C118.977 110.476 99.2419 136.723 102.797 157.976Z" fill="#FCFDFE"/>
<path d="M81.9038 120.953L82.5575 120.311C65.6696 103.107 33.1152 102.202 32.7878 102.195L32.7678 103.111C33.0909 103.117 65.2791 104.016 81.9038 120.953Z" fill="#FCFDFE"/>
</g>
</g>
<mask id="mask1_713_410" style="mask-type:luminance" maskUnits="userSpaceOnUse" x="48" y="19" width="137" height="273">
<path d="M159.982 291.178L114.579 291.024C114.579 291.024 106.111 267.704 117.294 251.305C140.109 217.846 109.212 200.199 97.3772 190.871C79.5287 176.805 69.9348 156.625 96.2776 147.944C122.62 139.262 96.3167 98.3926 64.2176 79.8299C32.8066 61.6651 46.9714 -4.65345 118.567 28.4197C161.323 48.1709 154.462 93.5511 156.445 117.291C158.428 141.032 193.719 143.115 181.54 172.067C171.137 196.797 151.47 214.789 166.375 231.865C181.279 248.942 182.762 268.038 159.982 291.178Z" fill="white"/>
</mask>
<g mask="url(#mask1_713_410)">
<path d="M159.982 291.178L114.579 291.024C114.579 291.024 106.111 267.704 117.294 251.305C140.109 217.846 109.212 200.199 97.3771 190.871C79.5287 176.805 71.7041 158.682 93.2649 147.017C117.66 133.818 96.3167 98.3926 64.2178 79.8299C32.8067 61.6651 46.9716 -4.65345 118.567 28.4197C161.324 48.1709 154.462 93.5511 156.445 117.291C158.428 141.032 193.719 143.115 181.541 172.067C171.138 196.797 151.47 214.789 166.375 231.865C181.279 248.942 182.762 268.038 159.982 291.178Z" fill="url(#paint1_linear_713_410)"/>
</g>
<mask id="mask2_713_410" style="mask-type:luminance" maskUnits="userSpaceOnUse" x="48" y="19" width="137" height="273">
<path d="M159.982 291.178L114.579 291.024C114.579 291.024 106.111 267.704 117.294 251.305C140.109 217.846 109.212 200.199 97.3772 190.871C79.5287 176.805 69.9348 156.625 96.2776 147.944C122.62 139.262 96.3167 98.3926 64.2176 79.8299C32.8066 61.6651 46.9714 -4.65345 118.567 28.4197C161.323 48.1709 154.462 93.5511 156.445 117.291C158.428 141.032 193.719 143.115 181.54 172.067C171.137 196.797 151.47 214.789 166.375 231.865C181.279 248.942 182.762 268.038 159.982 291.178Z" fill="white"/>
</mask>
<g mask="url(#mask2_713_410)">
<g opacity="0.5">
<path d="M140.317 295.324L139.375 295.148C139.484 294.564 150.188 236.098 143.324 174.939C137 118.595 114.035 48.3688 40.549 33.7835L40.7355 32.8433C73.4484 39.3357 99.041 57.2021 116.803 85.9457C130.992 108.907 140.236 138.819 144.279 174.851C151.155 236.15 140.426 294.739 140.317 295.324Z" fill="#BEB8F2"/>
<path d="M123.707 98.2778L122.756 98.1557C126.805 66.5116 114.896 21.5015 114.776 21.0505L115.702 20.8022C115.823 21.2553 127.779 66.448 123.707 98.2778Z" fill="#BEB8F2"/>
<path d="M111.347 79.4503C79.149 59.2377 48.9702 68.7813 48.6693 68.88L48.3704 67.9697C48.6759 67.869 79.2638 58.1783 111.856 78.6385L111.347 79.4503Z" fill="#BEB8F2"/>
<path d="M145.633 215.168C135.07 169.941 73.6449 158.649 73.0371 158.589L73.0686 157.632C73.6705 157.635 135.909 169.322 146.566 214.95L145.633 215.168Z" fill="#BEB8F2"/>
<path d="M145.994 196.02L145.056 195.821C151.189 166.826 182.731 146.968 183.049 146.771L183.555 147.585C183.24 147.781 152.041 167.43 145.994 196.02Z" fill="#BEB8F2"/>
<path d="M140.857 285.911C139.534 268.317 114.469 254.305 114.217 254.165L114.679 253.326C115.731 253.905 140.451 267.727 141.813 285.84L140.857 285.911Z" fill="#BEB8F2"/>
<path d="M143.578 272.1L142.634 271.935C145.028 258.192 165.866 242.944 172.713 237.933C173.681 237.225 174.516 236.614 174.644 236.476L175.358 237.115C175.181 237.312 174.627 237.721 173.279 238.707C166.509 243.661 145.906 258.737 143.578 272.1Z" fill="#BEB8F2"/>
</g>
</g>
<path d="M366.217 265.331C371.215 276.123 366.452 286.918 361.882 294.184C360.792 294.19 360.159 294.493 359.057 294.761C349.117 297.179 344.455 295.949 334.349 296.68C332.174 296.837 325.713 295.216 323.117 294.371L318.303 292.711C318.303 292.711 309.76 266.46 323.184 259.209C336.608 251.959 331.469 225.833 330.343 211.585C327.29 172.927 369.066 176.44 369.113 126.449C369.125 113.153 364.703 87.7916 375.913 77.2013C388.685 65.1359 398.008 76.9716 406.22 66.8822C419.055 51.1128 439.883 45.4558 452.298 61.6848C464.551 77.702 449.662 109.586 412.65 135.213C388.18 156.605 387.798 163.009 389.724 178.606C391.073 189.53 401.493 217.987 386.665 229.351C371.837 240.715 360.505 252.994 366.217 265.331Z" fill="url(#paint2_linear_713_410)"/>
<mask id="mask3_713_410" style="mask-type:luminance" maskUnits="userSpaceOnUse" x="315" y="51" width="142" height="253">
<path d="M355.43 303.02L319.114 293.666C319.114 293.666 309.76 266.461 323.184 259.21C336.608 251.959 331.468 225.834 330.343 211.586C327.29 172.927 369.066 176.441 369.113 126.45C369.125 113.153 364.703 87.7926 375.913 77.2022C388.685 65.137 398.008 76.9725 406.22 66.8831C419.055 51.1137 439.883 45.4569 452.298 61.6857C464.551 77.7029 449.662 109.587 412.65 135.214C388.18 156.606 387.798 163.01 389.723 178.606C391.073 189.531 401.493 217.988 386.665 229.352C371.837 240.715 360.505 252.995 366.217 265.332C374.91 284.105 355.43 303.02 355.43 303.02Z" fill="white"/>
</mask>
<g mask="url(#mask3_713_410)">
<g opacity="0.5">
<path d="M339.611 297.087L338.873 296.995C339.421 292.6 340.028 288.173 340.677 283.839C345.485 251.75 353.113 221.27 363.352 193.247C372.028 169.502 382.695 147.184 395.057 126.914C404.997 110.612 416.084 95.5405 428.007 82.1167C436.389 72.6801 445.094 64.1489 453.883 56.7613C455.414 55.4735 457.052 54.2423 458.636 53.0515C460.747 51.4652 462.93 49.8246 464.876 48.0376L465.379 48.5855C463.405 50.3971 461.208 52.0488 459.083 53.6461C457.507 54.8309 455.877 56.0561 454.361 57.3306C445.6 64.6952 436.921 73.2006 428.563 82.6106C416.669 96.001 405.609 111.037 395.691 127.301C383.355 147.53 372.71 169.803 364.051 193.502C353.829 221.478 346.213 251.909 341.413 283.949C340.764 288.277 340.158 292.697 339.611 297.087Z" fill="#FCFDFE"/>
<path d="M381.673 152.58L381 152.264C394.555 123.375 382.653 70.0026 382.531 69.4669L383.256 69.3018C383.378 69.8401 395.336 123.46 381.673 152.58Z" fill="#FCFDFE"/>
<path d="M350.841 236.719L350.136 236.484C357.05 215.773 395.823 199.786 396.214 199.627L396.494 200.316C396.106 200.474 357.647 216.332 350.841 236.719Z" fill="#FCFDFE"/>
<path d="M347.933 248.809L347.198 248.702C349.249 234.598 344.511 214.267 333.856 191.455C333.32 190.308 333.32 190.308 333.338 190.168L334.075 190.266L333.707 190.217L334.065 190.125C334.092 190.205 334.295 190.638 334.529 191.14C345.245 214.082 350.006 234.562 347.933 248.809Z" fill="#FCFDFE"/>
<path d="M340.725 289.079L340.051 288.766C346.661 274.527 369.257 268.908 369.485 268.853L369.66 269.575C369.436 269.63 347.184 275.166 340.725 289.079Z" fill="#FCFDFE"/>
<path d="M338.487 297.145C335.685 284.799 329.248 272.855 318.806 260.629L319.371 260.146C329.893 272.466 336.383 284.515 339.212 296.98L338.487 297.145Z" fill="#FCFDFE"/>
<path d="M421.67 90.6306L421.016 90.2777C429.447 74.6357 434.679 56.2484 436.398 50.2063C436.814 48.7436 436.962 48.2293 437.045 48.0591L437.713 48.3843C437.652 48.5151 437.414 49.3513 437.113 50.4099C435.389 56.4713 430.14 74.9172 421.67 90.6306Z" fill="#FCFDFE"/>
<path d="M404.2 114.036L403.678 113.506C415.554 101.817 448.877 102.191 450.29 102.212L450.278 102.956C449.935 102.951 415.853 102.565 404.2 114.036Z" fill="#FCFDFE"/>
</g>
</g>
<mask id="mask4_713_410" style="mask-type:luminance" maskUnits="userSpaceOnUse" x="299" y="119" width="189" height="254">
<path d="M307.25 358.826L350.575 372.406C350.575 372.406 365.697 352.737 359.996 333.725C348.364 294.934 383.15 287.453 397.251 282.141C418.517 274.129 433.763 257.794 411.278 241.554C388.793 225.315 426.222 194.31 462.43 186.321C497.863 178.503 504.412 111.005 426.168 120.885C379.441 126.785 372.261 172.116 363.193 194.146C354.126 216.176 319.856 207.492 322.712 238.771C325.151 265.489 338.459 288.585 319.089 300.356C299.719 312.128 292.532 329.881 307.25 358.826Z" fill="white"/>
</mask>
<g mask="url(#mask4_713_410)">
<path d="M307.25 358.826L350.575 372.406C350.575 372.406 365.697 352.737 359.996 333.725C348.364 294.934 383.15 287.453 397.251 282.141C418.517 274.129 431.455 259.22 414.43 241.582C395.167 221.625 426.221 194.31 462.43 186.321C497.863 178.503 504.412 111.005 426.168 120.885C379.441 126.785 372.261 172.116 363.193 194.146C354.126 216.176 319.856 207.492 322.712 238.771C325.151 265.489 338.459 288.585 319.089 300.356C299.719 312.128 292.532 329.881 307.25 358.826Z" fill="url(#paint3_linear_713_410)"/>
</g>
<mask id="mask5_713_410" style="mask-type:luminance" maskUnits="userSpaceOnUse" x="299" y="119" width="189" height="254">
<path d="M307.25 358.826L350.575 372.406C350.575 372.406 365.697 352.737 359.996 333.725C348.364 294.934 383.15 287.453 397.251 282.141C418.517 274.129 433.763 257.794 411.278 241.554C388.793 225.315 426.222 194.31 462.43 186.321C497.863 178.503 504.412 111.005 426.168 120.885C379.441 126.785 372.261 172.116 363.193 194.146C354.126 216.176 319.856 207.492 322.712 238.771C325.151 265.489 338.459 288.585 319.089 300.356C299.719 312.128 292.532 329.881 307.25 358.826Z" fill="white"/>
</mask>
<g mask="url(#mask5_713_410)">
<g opacity="0.5">
<path d="M324.741 368.724L325.693 368.842C325.765 368.252 333.238 309.286 358.272 253.064C381.334 201.269 424.455 141.272 498.912 149.586L499.019 148.634C465.874 144.932 436.078 154.225 410.457 176.253C389.99 193.85 372.135 219.568 357.388 252.692C332.3 309.044 324.814 368.134 324.741 368.724Z" fill="#BEB8F2"/>
<path d="M400.148 185.921L401.091 186.092C406.799 154.705 431.758 115.401 432.009 115.008L431.202 114.491C430.949 114.886 405.889 154.35 400.148 185.921Z" fill="#BEB8F2"/>
<path d="M417.621 171.711C454.423 162.179 480.304 180.4 480.561 180.585L481.122 179.808C480.861 179.619 454.634 161.135 417.381 170.783L417.621 171.711Z" fill="#BEB8F2"/>
<path d="M343.908 290.712C367.651 250.795 429.615 258.602 430.212 258.729L430.471 257.807C429.897 257.627 367.038 249.951 343.084 290.222L343.908 290.712Z" fill="#BEB8F2"/>
<path d="M349.353 272.35L350.307 272.445C353.227 242.952 329.165 214.487 328.921 214.203L328.193 214.827C328.434 215.108 352.233 243.27 349.353 272.35Z" fill="#BEB8F2"/>
<path d="M327.072 359.588C333.652 343.218 361.781 337.439 362.064 337.382L361.877 336.442C360.699 336.677 332.957 342.377 326.183 359.231L327.072 359.588Z" fill="#BEB8F2"/>
<path d="M328.655 345.601L329.604 345.73C331.477 331.906 316.224 311.071 311.212 304.225C310.504 303.257 309.893 302.422 309.813 302.252L308.939 302.646C309.048 302.887 309.453 303.444 310.439 304.791C315.394 311.56 330.475 332.16 328.655 345.601Z" fill="#BEB8F2"/>
</g>
</g>
<path d="M348.259 369.799C348.097 369.875 347.934 369.951 347.771 370.026C338.136 374.462 326.821 377.609 313.519 378.457C310.915 378.44 308.31 378.422 305.706 378.404C303.359 372.285 302.223 366.045 310.08 363.431C322.281 359.371 321.918 337.705 318.308 330.146C313.84 320.791 303.885 298.794 322.649 292.222C338.27 286.75 349.468 286.412 349.952 266.07C350.436 245.727 361.134 232.718 379.589 233.363C399.01 234.042 414.115 207.756 430.258 215.901C458.386 230.092 434.686 275.613 401.433 289.606C368.18 303.6 387.853 315.136 389.268 331.728C391.201 354.379 360.378 350.469 352.548 359.63C349.896 362.733 348.668 366.289 348.259 369.799Z" fill="url(#paint4_linear_713_410)"/>
<mask id="mask6_713_410" style="mask-type:luminance" maskUnits="userSpaceOnUse" x="304" y="214" width="139" height="170">
<path d="M349.535 382.276L307.293 383.234C304.696 377.311 301.304 366.351 310.08 363.431C322.281 359.371 321.918 337.705 318.308 330.146C313.841 320.791 303.885 298.794 322.649 292.222C338.27 286.75 349.468 286.412 349.952 266.069C350.436 245.727 361.134 232.718 379.589 233.363C399.01 234.042 414.115 207.756 430.258 215.901C458.386 230.092 434.686 275.613 401.433 289.606C368.18 303.6 387.853 315.136 389.268 331.727C391.201 354.379 360.378 350.469 352.548 359.63C346.41 366.812 347.883 376.418 349.535 382.276Z" fill="white"/>
</mask>
<g mask="url(#mask6_713_410)">
<g opacity="0.5">
<path d="M329.494 376.083L328.592 375.927C340.028 309.972 383.418 249.89 441.83 219.129L442.256 219.939C384.091 250.571 340.883 310.402 329.494 376.083Z" fill="#FCFDFE"/>
<path d="M338.81 340.658L337.894 340.683C337.182 314.386 314.114 294.497 313.881 294.3L314.473 293.602C314.709 293.802 338.086 313.946 338.81 340.658Z" fill="#FCFDFE"/>
<path d="M331.929 364.007L331.111 363.594C343.135 339.788 391.486 335.154 391.973 335.11L392.056 336.022C391.574 336.066 343.723 340.653 331.929 364.007Z" fill="#FCFDFE"/>
<path d="M369.772 282.813L368.923 282.472C376.814 262.841 363.341 233.327 363.204 233.032L364.034 232.646C364.173 232.946 377.809 262.82 369.772 282.813Z" fill="#FCFDFE"/>
<path d="M398.131 251.141L397.63 250.374C417.819 237.198 449.808 243.308 450.129 243.372L449.952 244.27C449.635 244.207 418.005 238.17 398.131 251.141Z" fill="#FCFDFE"/>
</g>
</g>
<path d="M367.249 19.8303V464.586C367.249 471.237 361.567 472.668 355.124 472.879L134.283 484.3L130.937 484.41C124.072 484.634 118.445 479.188 118.445 472.306V12.1105C118.445 5.22872 124.072 -0.217872 130.937 0.006703L135.477 0.155179L357.127 17.3943C363.57 17.6051 367.249 13.1793 367.249 19.8303Z" fill="url(#paint5_linear_713_410)"/>
<path d="M374.129 19.8303V464.586C374.129 471.237 368.866 476.851 362.423 477.062L137.817 484.41C130.952 484.634 125.326 479.188 125.326 472.306V12.1105C125.326 5.22872 130.952 -0.217872 137.817 0.006703L362.423 7.35448C368.866 7.56525 374.129 13.1793 374.129 19.8303Z" fill="url(#paint6_linear_713_410)"/>
<path d="M366.859 44.2799V456.293C366.859 462.503 361.941 467.738 355.92 467.927L144.72 474.562C138.329 474.762 133.092 469.681 133.092 463.269V37.8308C133.092 31.4188 138.329 26.3254 144.72 26.5118L355.92 32.6707C361.941 32.8462 366.859 38.0704 366.859 44.2799Z" fill="url(#paint7_linear_713_410)"/>
<path d="M256.021 17.5234C256.021 19.867 254.154 21.7103 251.85 21.6406C249.544 21.5708 247.674 19.6121 247.674 17.2661C247.674 14.9198 249.544 13.0767 251.85 13.149C254.154 13.2212 256.021 15.1798 256.021 17.5234Z" fill="#DE8BDF"/>
<path d="M334.084 294.489L165.409 296.751C163.276 296.78 161.545 295.072 161.545 292.938V256.003C161.545 253.868 163.276 252.126 165.409 252.112L334.084 250.971C336.11 250.957 337.752 252.631 337.752 254.71V290.676C337.752 292.755 336.11 294.462 334.084 294.489Z" fill="#F4F7FA"/>
<path d="M333.701 362.522L165.811 366.518C163.456 366.574 161.545 364.708 161.545 362.351V326.223C161.545 323.866 163.456 321.922 165.811 321.881L333.701 319.002C335.939 318.963 337.751 320.793 337.751 323.089V358.269C337.751 360.565 335.939 362.469 333.701 362.522Z" fill="#F4F7FA"/>
<path d="M317.052 140.609C317.052 177.681 287.563 207.739 250.819 207.745C213.663 207.751 183.235 177.09 183.235 139.262C183.235 101.434 213.663 71.3853 250.819 72.1394C287.563 72.8851 317.052 103.536 317.052 140.609Z" fill="white"/>
<path d="M278.128 119.849C278.128 135.124 265.932 147.393 250.837 147.251C235.687 147.109 223.365 134.528 223.365 119.152C223.365 103.776 235.687 91.5086 250.837 91.7521C265.932 91.9947 278.128 104.574 278.128 119.849Z" fill="url(#paint8_linear_713_410)"/>
<path d="M250.819 207.744C267.061 207.742 281.877 201.87 293.349 192.142C289.445 171.947 271.945 156.589 250.819 156.429C229.557 156.268 211.737 171.538 207.736 191.953C219.467 201.824 234.496 207.747 250.819 207.744Z" fill="url(#paint9_linear_713_410)"/>
<path d="M274.037 278.778L181.978 279.783C178.846 279.817 176.282 277.273 176.282 274.131C176.282 270.988 178.846 268.394 181.978 268.365L274.037 267.517C277.08 267.489 279.568 269.998 279.568 273.092C279.568 276.186 277.08 278.745 274.037 278.778Z" fill="url(#paint10_linear_713_410)"/>
<path d="M190.055 343.604C190.055 347.619 186.813 350.944 182.808 351.03C178.799 351.116 175.545 347.924 175.545 343.901C175.545 339.877 178.799 336.552 182.808 336.474C186.812 336.397 190.055 339.589 190.055 343.604Z" fill="url(#paint11_linear_713_410)"/>
<path d="M217.198 343.049C217.198 347.048 213.982 350.359 210.01 350.444C206.033 350.53 202.806 347.351 202.806 343.343C202.806 339.336 206.033 336.025 210.01 335.948C213.982 335.871 217.198 339.05 217.198 343.049Z" fill="url(#paint12_linear_713_410)"/>
<path d="M244.122 342.497C244.122 346.48 240.931 349.777 236.992 349.862C233.047 349.947 229.846 346.781 229.846 342.79C229.846 338.798 233.047 335.501 236.992 335.424C240.931 335.348 244.122 338.515 244.122 342.497Z" fill="url(#paint13_linear_713_410)"/>
<path d="M270.829 341.951C270.829 345.918 267.664 349.202 263.755 349.286C259.843 349.371 256.667 346.216 256.667 342.241C256.667 338.266 259.843 334.982 263.755 334.906C267.664 334.83 270.829 337.985 270.829 341.951Z" fill="url(#paint14_linear_713_410)"/>
<path d="M297.322 341.41C297.322 345.36 294.182 348.631 290.305 348.714C286.424 348.798 283.274 345.656 283.274 341.697C283.274 337.738 286.424 334.467 290.305 334.392C294.182 334.317 297.322 337.459 297.322 341.41Z" fill="url(#paint15_linear_713_410)"/>
<path d="M250.808 209.39C232.379 209.39 215.019 202.095 201.923 188.847C188.811 175.583 181.589 157.973 181.589 139.261C181.589 120.39 188.916 102.818 202.219 89.7827C215.291 76.9726 232.558 70.1176 250.852 70.4932C269.043 70.8625 286.106 78.3609 298.898 91.6074C311.666 104.829 318.698 122.231 318.698 140.608C318.698 158.991 311.662 176.259 298.887 189.231C286.087 202.227 269.016 209.387 250.819 209.39C250.815 209.39 250.811 209.39 250.808 209.39ZM249.443 73.7705C232.544 73.7705 216.639 80.2608 204.523 92.1337C191.856 104.545 184.881 121.282 184.881 139.261C184.881 157.101 191.765 173.89 204.264 186.533C216.736 199.15 233.267 206.098 250.808 206.098C250.812 206.098 250.814 206.098 250.818 206.098C286.433 206.093 315.407 176.714 315.407 140.608C315.407 104.484 286.418 74.5072 250.785 73.7841C250.338 73.7749 249.889 73.7705 249.443 73.7705Z" fill="white"/>
<path opacity="0.3" d="M374.129 19.5766C374.129 12.9766 368.893 7.56642 362.296 7.3507L239.811 3.34375C285.244 51.4901 295.459 91.8843 296.626 119.489C299.954 198.282 232.075 232.611 244.696 318.781C248.156 342.404 255.808 357.24 258.797 398.047C261.345 432.837 258.682 461.633 256.028 480.543L362.423 477.062C368.866 476.851 374.129 471.237 374.129 464.586L374.129 19.5766Z" fill="url(#paint16_linear_713_410)"/>
<path opacity="0.3" d="M192.776 241.553C194.067 203.599 181.062 187.733 177.615 183.846C175.181 181.1 172.927 179.156 156.097 165.262C143.594 154.94 133.173 146.383 125.776 140.321C125.626 246.645 125.476 352.97 125.325 459.295C130.364 418.484 140.049 387.706 147.417 368.052C168.043 313.038 191.119 290.253 192.776 241.553Z" fill="url(#paint17_linear_713_410)"/>
<path d="M409.011 392.674C416.378 388.223 413.29 364.643 402.462 348.398C387.087 325.331 354.904 315.249 348.655 322.524C342.261 329.969 362.454 356.264 365.733 360.535C377.632 376.03 400.297 397.939 409.011 392.674Z" fill="url(#paint18_linear_713_410)"/>
<path d="M492.661 490.213C491.399 491.884 491.333 494.76 492.676 496.054C493.995 497.326 495.703 496.132 500.821 495.83C506.303 495.506 507.845 496.67 511.469 495.314C512.933 494.766 515.495 493.523 515.349 492.456C515.246 491.705 513.862 491.436 509.22 490.327C502.63 488.754 502.648 488.634 501.269 488.53C497.806 488.269 494.329 488.007 492.661 490.213Z" fill="url(#paint19_linear_713_410)"/>
<path d="M492.557 481.173L498.315 488.809C498.29 489.342 496.233 491.849 493.62 491.708L486.703 484.788L492.557 481.173Z" fill="url(#paint20_linear_713_410)"/>
<path d="M462.917 509.651C461.689 511.348 461.684 514.225 463.054 515.491C464.4 516.735 466.082 515.505 471.192 515.095C476.666 514.656 478.233 515.787 481.827 514.356C483.28 513.776 485.814 512.48 485.646 511.416C485.528 510.668 484.138 510.428 479.474 509.417C472.852 507.983 472.868 507.863 471.487 507.788C468.019 507.599 464.537 507.41 462.917 509.651Z" fill="url(#paint21_linear_713_410)"/>
<path d="M462.695 500.792L468.452 508.427C468.427 508.96 466.37 511.467 463.757 511.326L456.841 504.407L462.695 500.792Z" fill="url(#paint22_linear_713_410)"/>
<path d="M288.375 326.311C296.992 323.01 310.201 319.054 326.631 318.441C345.128 317.752 359.984 317.197 370.568 325.556C405.782 353.367 388.521 426.656 385.976 434.809C382.949 444.506 377.191 451.092 377.191 451.092C373.737 455.043 370.347 457.352 368.512 458.566C342.022 476.094 325.556 486.989 308.169 482.537C305.856 481.945 295.344 478.299 289.541 469.554C288.507 467.995 287.861 465.997 287.697 463.205C284.997 417.071 290.437 370.749 288.375 326.311Z" fill="url(#paint23_linear_713_410)"/>
<path opacity="0.3" d="M303.562 381.299C300.029 371.64 303.68 360.579 295.81 355.755C292.927 353.987 289.343 353.239 285.44 353.327C285.923 387.286 286.608 421.212 287.451 456.651C287.729 468.356 289.193 468.935 300.544 479.188C313.697 491.067 324.52 487.237 343.95 483.339C318.493 467.7 312.162 459.196 314.756 445.298C317.777 429.113 347.412 424.319 346.214 412.813C344.944 400.619 311.286 402.416 303.562 381.299Z" fill="url(#paint24_linear_713_410)"/>
<path d="M296.498 326.924C287.753 322.039 267.644 335.935 256.657 347.915C251.55 353.482 233.771 372.867 239.301 397.808C240.202 401.872 244.363 420.876 262.879 429.569C279.459 437.352 301.341 434.372 318.494 421.828C320.826 419.815 323.159 417.801 325.492 415.787C327.772 413.393 330.052 410.999 332.331 408.604C328.508 405.954 322.038 402.167 313.067 399.917C299.397 396.489 293.245 401.291 289.868 397.569C285.709 392.988 294.981 385.088 297.411 364.916C298.067 359.473 306.265 332.38 296.498 326.924Z" fill="url(#paint25_linear_713_410)"/>
<path d="M312.374 476.965C313.45 496.184 320.676 485.539 337.032 468.294C354.258 450.133 394.789 418.214 421.841 430.4C441.989 439.475 440.034 466.324 472.244 483.174C477.918 486.142 482.885 487.844 485.938 488.769C489.427 485.542 492.917 482.315 496.406 479.087C494.533 469.051 486.175 430.783 451.228 406.66C442.779 400.828 426.656 389.595 406.266 389.858C351.145 390.569 311.381 459.24 312.374 476.965Z" fill="url(#paint26_linear_713_410)"/>
<path d="M286.978 468.049C287.208 479.232 294.51 489.482 302.736 494.487C320.997 505.596 348.344 493.609 363.661 481.352C382.299 466.438 382.292 451.826 391.816 451.898C406.615 452.01 409.195 487.396 442.219 504.673C447.893 507.641 452.86 509.343 455.912 510.268C459.402 507.041 462.891 503.813 466.38 500.586C460.653 478.916 451.787 463.17 445.249 453.37C437.093 441.146 429.243 429.38 414.041 420.853C398.034 411.874 382.739 411.457 376.242 411.356C335.252 410.717 286.377 438.874 286.978 468.049Z" fill="url(#paint27_linear_713_410)"/>
<path d="M398.25 400.878L296.78 419.176L326.226 426.893L399.8 407.423L398.25 400.878Z" fill="url(#paint28_linear_713_410)"/>
<path d="M293.735 422.564L293.736 422.565C294.106 424.458 295.622 425.918 297.528 426.216L332.338 432.56L330.765 423.745L296.78 419.177C294.891 419.013 293.371 420.704 293.735 422.564Z" fill="url(#paint29_linear_713_410)"/>
<path d="M310.04 414.601C309.392 414.584 311.615 406.605 314.642 406.883C317.668 407.161 333.255 412.533 335.181 415.625C337.108 418.716 337.108 418.716 337.108 418.716C337.108 418.716 331.095 420.389 327.059 419.858C323.023 419.327 315.31 414.738 310.04 414.601Z" fill="url(#paint30_linear_713_410)"/>
<path d="M327.656 360.423L325.43 426.95C325.353 429.245 328.798 432.395 331.077 432.112L436.88 417.5C438.62 417.284 439.977 415.888 440.141 414.142L448.635 349.406C448.857 347.057 444.507 344.979 442.159 345.224L331.003 356.83C329.147 357.024 327.719 358.558 327.656 360.423Z" fill="url(#paint31_linear_713_410)"/>
<path d="M330.232 362.161L328.005 428.689C327.929 430.984 329.921 432.805 332.2 432.523L439.456 419.238C441.196 419.023 442.552 417.626 442.717 415.881L448.845 351.032C449.067 348.682 447.083 346.717 444.736 346.963L333.579 358.569C331.723 358.763 330.294 360.296 330.232 362.161Z" fill="url(#paint32_linear_713_410)"/>
<path opacity="0.3" d="M397.21 406.904C387.508 403.635 390.247 395.786 378.428 387.164C362.836 375.79 348.323 382.341 342.362 373.06C340.506 370.169 339.372 365.537 341.629 357.729L333.579 358.57C331.723 358.763 330.294 360.297 330.232 362.162L328.005 428.689C327.929 430.985 329.921 432.806 332.2 432.524L439.456 419.239C441.196 419.023 442.552 417.627 442.717 415.881L443.563 406.933C440.158 405.364 436.13 404.008 431.506 403.43C415.47 401.429 408.38 410.667 397.21 406.904Z" fill="url(#paint33_linear_713_410)"/>
<path d="M327.412 293.104C327.726 299.96 327.164 305.427 326.58 309.179C325.911 313.477 325.355 314.602 324.626 315.525C324.626 315.525 324.395 315.817 324.132 316.079C323.463 316.747 315.052 318.386 312.573 318.965C312.311 319.026 307.456 320.206 306.062 322.817C306.052 322.835 306.025 322.886 306.011 322.964C305.531 325.574 320.443 333.851 335.428 331.161C344.599 329.515 352.79 323.941 352.172 321.198C351.55 318.438 342.396 320.274 339.463 315.347C337.423 311.92 339.378 306.873 341.754 302.666C339.132 298.166 330.034 297.604 327.412 293.104Z" fill="url(#paint34_linear_713_410)"/>
<path d="M347.086 301.101C352.945 299.401 356.726 279.221 351.796 276.782C349.438 275.615 347.691 279.794 338.294 283.532C330.773 286.525 327.594 285.558 325.513 288.858C323.456 292.119 324.72 296.841 325.368 300.189C325.649 301.642 326.589 302.327 327.331 303.542C328.358 305.227 329.959 307.899 332.553 312.35C333.058 311.317 333.76 310.056 334.723 308.733C335.094 308.224 336.57 306.242 340.935 303.277C343.723 301.382 346.415 301.296 347.086 301.101Z" fill="url(#paint35_linear_713_410)"/>
<path d="M328.375 308.165C328.375 308.165 330.788 315.209 338.429 316.382C345.271 317.433 349.6 302.526 346.001 298.364C344.8 296.976 342.02 295.896 339.534 296.035C338.066 296.117 337.471 296.588 335.07 296.675C332.855 296.756 332.315 296.393 331.565 296.785C330.627 297.276 329.687 298.78 330.031 303.494C329.032 301.907 327.598 301.066 326.389 301.341C326.196 301.385 325.664 301.597 325.298 302.017C323.973 303.536 325.064 306.091 328.375 308.165Z" fill="url(#paint36_linear_713_410)"/>
<path d="M331.46 295.814C331.732 296.128 330.469 297.122 330.016 298.823C329.135 302.126 331.626 306.873 334.994 307.973C336.984 308.623 337.815 307.52 341.258 307.908C343.39 308.148 345.066 308.796 346.104 309.275C346.354 313.165 344.554 316.592 341.736 317.743C338.703 318.983 335.585 317.136 334.282 316.363C333.41 315.847 330.615 314.198 329.651 311.087C328.646 307.846 330.639 306.466 329.187 304.103C328.455 302.911 327.302 302.211 326.508 300.041C326.292 299.452 326.173 298.946 326.107 298.609C328.254 297.149 331.066 295.358 331.46 295.814Z" fill="url(#paint37_linear_713_410)"/>
<path d="M343.356 310.089C343.356 310.089 341.732 310.528 339.246 309.831C339.125 309.797 338.982 309.803 338.952 309.863C338.842 310.089 340.22 311.516 341.8 311.427C342.922 311.363 343.965 310.544 343.88 310.258C343.843 310.138 343.601 310.099 343.356 310.089Z" fill="url(#paint38_linear_713_410)"/>
<path d="M8.40751 230.166C5.59546 221.906 7.56496 212.41 11.9048 205.772C19.2386 194.556 28.7973 198.455 38.3711 186.017C44.5642 177.971 50.2001 171.1 57.0766 165.954C62.1353 162.169 74.1057 157.881 78.782 160.857C92.7736 169.764 67.102 245.598 38.7985 249.915C27.4735 251.642 12.6346 242.583 8.40751 230.166Z" fill="url(#paint39_linear_713_410)"/>
<path d="M62.0975 469.643C62.8444 471.237 63.6882 473.572 63.911 476.478C64.0086 477.751 63.9695 478.906 63.868 479.907C63.0466 481.118 59.2066 485.275 54.0208 486.301C50.8127 486.936 45.6119 484.216 51.5034 480.535C57.3949 476.854 58.2755 475.968 56.5439 466.558C56.0984 464.138 56.2735 463.252 56.6536 463.082C57.5416 462.684 60.072 466.396 62.0975 469.643Z" fill="url(#paint40_linear_713_410)"/>
<path d="M89.2676 476.83C90.0144 478.424 90.8582 480.76 91.081 483.665C91.1787 484.938 91.1396 486.093 91.038 487.094C90.2167 488.305 86.3768 492.462 81.1909 493.488C77.9828 494.123 72.782 491.403 78.6736 487.722C84.5651 484.041 85.4457 483.155 83.7141 473.745C83.2687 471.325 83.4437 470.439 83.8238 470.269C84.7119 469.871 87.242 473.583 89.2676 476.83Z" fill="url(#paint41_linear_713_410)"/>
<path d="M117.524 280.25C119.472 292.112 121.42 303.974 123.368 315.836C119.102 327.057 115.134 339.284 111.773 352.488C99.6307 400.186 92.0593 446.125 91.5055 479.033C88.8328 480 86.16 480.967 83.4872 481.934C78.6981 463.85 80.1451 436.506 75.8872 404.262C70.8569 366.168 74.2775 336.387 72.5262 336.283C70.8479 336.183 66.1472 363.447 66.1387 394.581C66.1297 427.494 62.3439 453.992 64.784 473.015C61.5815 473.206 58.3793 473.397 55.1768 473.588C46.3085 448.431 42.4336 418.459 37.9439 378.827C34.826 351.305 31.1463 314.742 49.5335 277.02C51.3695 273.254 57.7795 264.892 58.9813 262.826C80.0667 266.86 96.4387 276.216 117.524 280.25Z" fill="url(#paint42_linear_713_410)"/>
<path opacity="0.25" d="M111.773 352.488C115.134 339.283 119.102 327.057 123.368 315.836C121.42 303.974 119.472 292.112 117.524 280.25C96.4388 276.216 80.0668 266.86 58.9816 262.826C57.7798 264.892 51.3698 273.253 49.5337 277.02C43.3355 289.736 39.6519 302.319 37.6019 314.47C78.3952 314.024 90.2006 322.519 93.4507 330.349C98.6246 342.813 82.8891 355.454 88.4564 380.68C90.1307 388.267 92.6313 392.005 92.9249 401.509C93.3102 413.98 89.2397 415.19 88.6023 427.876C87.9048 441.757 83.0973 455.324 85.3513 465.163C86.7527 471.28 88.394 476.254 89.655 479.702C90.272 479.479 90.8887 479.256 91.5058 479.033C92.0594 446.125 99.6308 400.186 111.773 352.488Z" fill="url(#paint43_linear_713_410)"/>
<path d="M100.045 115.637C101.353 117.384 99.41 119.73 99.022 128.267C98.8445 132.172 99.0799 135.446 99.3432 137.772C99.4174 139.876 99.5363 141.827 99.7006 143.551C99.8211 144.816 99.9499 145.804 100.132 146.856C100.468 148.807 100.95 150.742 101.565 152.606C101.605 152.73 101.544 152.862 101.427 152.913C101.421 152.916 101.413 152.918 101.406 152.921C101.275 152.964 101.135 152.893 101.092 152.762C100.47 150.874 99.9818 148.916 99.6407 146.941C99.4569 145.876 99.3264 144.876 99.2049 143.598C99.1183 142.69 99.0452 141.715 98.9835 140.693C98.704 143.384 98.6467 146.357 99.6036 150.326C102.507 162.374 93.1562 170.303 85.7861 170.622C77.2866 170.99 71.5252 164.255 69.7435 162.051C62.5619 153.167 61.1794 138.69 67.9336 128.101C76.7814 114.231 96.8397 111.353 100.045 115.637Z" fill="url(#paint44_linear_713_410)"/>
<path d="M78.5526 127.236C78.9163 125.889 80.561 120.399 85.5866 116.956C95.1219 110.425 110.406 115.666 119.169 123.357C128.339 131.404 124.526 136.972 133.54 145.908C143.33 155.613 150.201 151.375 163.808 160.75C169.16 164.438 183.585 174.376 184.549 189.88C185.382 203.276 175.908 216.692 164.315 221.868C144.467 230.729 119.613 214.905 107.886 200.352C96.6387 186.395 104.228 182.978 88.2366 156.021C82.4546 146.275 75.8352 137.298 78.5526 127.236Z" fill="url(#paint45_linear_713_410)"/>
<path d="M64.2499 166.31C57 173.649 55.0478 182.473 54.4766 186.416C52.6996 198.684 57.518 208.691 58.6495 211.319C63.9958 223.739 62.0265 248.217 30.8623 300.929C33.8246 303.398 44.0382 321.676 48.8689 312.911C55.455 300.961 85.3342 216.88 56.5167 316.521C56.1369 317.834 59.0735 317.569 60.4086 318.068C69.9804 321.642 81.4756 324.244 94.5367 324.081C115.007 323.826 130.606 316.888 138.852 312.428C133.26 299.391 127.407 281.747 124.902 260.333C120.124 219.481 130.066 186.535 136.995 168.769C130.676 164.402 110.666 151.753 86.9893 155.841C81.0905 156.86 71.8863 158.58 64.2499 166.31Z" fill="url(#paint46_linear_713_410)"/>
<path opacity="0.3" d="M124.902 260.333C120.125 219.481 130.066 186.535 136.995 168.769C130.677 164.402 110.666 151.753 86.9897 155.841C81.0904 156.86 71.8862 158.58 64.25 166.31C58.4776 172.154 56.0685 178.93 55.0361 183.444C55.2129 183.414 55.4565 183.375 55.747 183.334C70.3282 181.32 87.1685 193.051 92.9256 204.148C102.533 222.667 80.4319 237.798 80.9848 267.146C81.2837 283.012 88.1789 301.771 109.259 322.72C122.509 320.431 132.718 315.746 138.852 312.428C133.261 299.391 127.407 281.747 124.902 260.333Z" fill="url(#paint47_linear_713_410)"/>
<path d="M92.5254 141.149C90.4481 145.365 88.6942 150.639 90.9815 154.177C92.375 156.332 94.6814 157.533 96.9592 158.664C102.342 161.338 104.84 160.252 105.902 161.874C108.241 165.445 101.619 179.071 90.8185 180.254C80.0696 181.431 70.3419 169.72 71.9598 164.774C73.4196 160.31 84.0013 161.709 85.8929 156.069C86.8454 153.229 85.1019 150.076 83.5718 147.94L82.3059 148.051L92.5254 141.149Z" fill="url(#paint48_linear_713_410)"/>
<path opacity="0.4" d="M105.902 161.874C104.84 160.252 102.342 161.338 96.959 158.664C94.6813 157.533 92.375 156.331 90.9815 154.176C88.6944 150.639 90.4481 145.365 92.5254 141.149L82.3056 148.051L83.5714 147.94C84.7858 149.635 86.112 151.971 86.1405 154.283C86.8834 154.796 87.5108 155.36 87.9553 155.907C86.5456 158.948 86.0674 161.573 85.8841 163.271C85.5981 165.918 85.3859 167.885 86.5217 169.742C87.7609 171.769 89.8781 172.479 91.7292 173.1C95.8424 174.48 99.6858 174.022 102.211 173.417C105.702 169.054 107.215 163.879 105.902 161.874Z" fill="url(#paint49_linear_713_410)"/>
<path d="M90.6391 145.211C90.6391 145.211 90.9966 150.625 85.728 151.531C79.2364 152.648 75.6586 135.624 77.0754 134.381C78.7182 132.939 80.7845 135.455 84.8874 133.774C86.615 133.066 87.7821 130.498 89.1071 132.835C90.6143 135.494 90.5749 140.652 90.5749 140.652C90.5749 140.652 91.9066 139.122 92.3987 140.614C93.0427 142.567 91.7475 144.07 90.6391 145.211Z" fill="url(#paint50_linear_713_410)"/>
<path d="M80.9534 125.495C78.6544 127.4 77.0813 131.395 78.3083 133.612C80.0709 136.798 86.5154 134.33 88.6431 138.224C89.5759 139.931 89.283 142.136 89.8561 142.159C90.3307 142.178 90.768 140.674 91.1702 139.442C93.3875 132.647 95.2004 132.046 94.8788 130.002C94.2249 125.846 85.6737 121.584 80.9534 125.495Z" fill="url(#paint51_linear_713_410)"/>
<path d="M119.104 168.185C126.264 168.639 126.983 166.492 134.908 172.298C157.666 188.969 172.427 235.992 149.86 258.72C137.309 271.361 114.403 279.079 94.9168 269.431C79.0538 261.577 73.2032 246.049 71.7825 241.891C72.0435 237.723 72.3047 233.555 72.5657 229.387C81.4762 238.999 89.1306 241.428 94.6832 241.726C104.135 242.232 108.061 236.591 124.228 235.7C130.526 235.353 134.044 235.983 134.778 234.269C136.296 230.726 122.552 225.017 116.079 214.515C111.36 206.858 108.501 193.4 119.104 168.185Z" fill="url(#paint52_linear_713_410)"/>
<path d="M91.1751 133.015C89.5611 134.449 92.1976 140.025 97.5365 151.119C100.822 157.947 102.465 161.361 103.591 162.88C109.655 171.06 120.594 178.009 132.328 178.57C140.38 178.954 141.871 175.999 148.32 177.773C158.048 180.451 162.832 189.427 163.326 189.032C163.873 188.595 158.59 177.193 146.68 166.907C136.936 158.49 133.85 160.405 118.394 148.545C117.272 147.685 112.527 144.022 105.776 139.754C97.8394 134.736 92.7808 131.588 91.1751 133.015Z" fill="url(#paint53_linear_713_410)"/>
<path d="M27.8195 195.816L44.3696 236.76C44.6502 237.518 45.265 238.105 46.0357 238.349L65.1143 244.409C67.085 245.035 68.9714 243.241 68.4447 241.241L58.2456 202.533C58.0122 201.647 57.3445 199.681 55.6551 199.145L32.4163 192.428C30.3451 191.814 27.0702 193.791 27.8195 195.816Z" fill="url(#paint54_linear_713_410)"/>
<path d="M27.6095 196.464L42.2631 236.09C42.5438 236.848 43.1586 237.435 43.9293 237.68L63.0079 243.74C64.9788 244.366 66.8649 242.571 66.3381 240.572L56.139 201.863C55.9056 200.977 55.2267 200.277 54.3484 200.017L30.8152 193.04C28.7441 192.426 26.8602 194.439 27.6095 196.464Z" fill="url(#paint55_linear_713_410)"/>
<path d="M73.5848 232.738L71.5776 230.865C71.5776 230.865 68.7257 226.963 66.577 225.074C64.4284 223.185 62.324 222.804 60.0427 224.622C57.7614 226.44 59.6994 229.447 61.3484 232.071C62.3518 233.667 65.1796 234.679 67.5335 235.291C69.1883 235.722 72.0866 237.883 72.0866 237.883L73.5848 232.738Z" fill="url(#paint56_linear_713_410)"/>
<path d="M29.8354 214.826L31.7247 212.834C31.7247 212.834 35.6492 210.014 37.5555 207.88C39.4622 205.747 39.86 203.646 38.0606 201.35C36.261 199.054 33.2383 200.967 30.6015 202.595C28.9972 203.585 27.9623 206.405 27.3312 208.754C26.8874 210.406 24.7029 213.286 24.7029 213.286L29.8354 214.826Z" fill="url(#paint57_linear_713_410)"/>
<path d="M24.3887 210.8C26.8349 212.02 29.2817 213.24 31.728 214.46C32.4767 215.413 41.3902 227.114 36.6318 238.334C36.0128 239.794 33.6723 245.313 29.0572 246.29C21.9348 247.798 11.5591 238.035 11.8939 227.555C12.1181 220.53 17.1255 214.078 24.3887 210.8Z" fill="url(#paint58_linear_713_410)"/>
<defs>
<linearGradient id="paint0_linear_713_410" x1="80.1007" y1="94.2339" x2="135.72" y2="269.864" gradientUnits="userSpaceOnUse">
<stop stop-color="#FF9085"/>
<stop offset="1" stop-color="#FB6FBB"/>
</linearGradient>
<linearGradient id="paint1_linear_713_410" x1="80.5307" y1="26.651" x2="170.045" y2="283.849" gradientUnits="userSpaceOnUse">
<stop stop-color="#FFC444"/>
<stop offset="0.9964" stop-color="#F36F56"/>
</linearGradient>
<linearGradient id="paint2_linear_713_410" x1="432.01" y1="46.6956" x2="300.303" y2="334.639" gradientUnits="userSpaceOnUse">
<stop stop-color="#AA80F9"/>
<stop offset="0.9964" stop-color="#6165D7"/>
</linearGradient>
<linearGradient id="paint3_linear_713_410" x1="462.961" y1="130.701" x2="299.874" y2="348.796" gradientUnits="userSpaceOnUse">
<stop offset="0.0036" stop-color="#E38DDD"/>
<stop offset="1" stop-color="#9571F6"/>
</linearGradient>
<linearGradient id="paint4_linear_713_410" x1="405.63" y1="225.434" x2="313.585" y2="385.018" gradientUnits="userSpaceOnUse">
<stop stop-color="#FFC444"/>
<stop offset="0.9964" stop-color="#F36F56"/>
</linearGradient>
<linearGradient id="paint5_linear_713_410" x1="419.152" y1="397.97" x2="206.325" y2="216.418" gradientUnits="userSpaceOnUse">
<stop stop-color="#444B8C"/>
<stop offset="0.9964" stop-color="#26264F"/>
</linearGradient>
<linearGradient id="paint6_linear_713_410" x1="241.429" y1="461.427" x2="270.603" y2="-322.843" gradientUnits="userSpaceOnUse">
<stop stop-color="#444B8C"/>
<stop offset="0.9964" stop-color="#26264F"/>
</linearGradient>
<linearGradient id="paint7_linear_713_410" x1="133.092" y1="250.537" x2="366.859" y2="250.537" gradientUnits="userSpaceOnUse">
<stop stop-color="#FF9085"/>
<stop offset="1" stop-color="#FB6FBB"/>
</linearGradient>
<linearGradient id="paint8_linear_713_410" x1="206.545" y1="29.1211" x2="411.414" y2="448.032" gradientUnits="userSpaceOnUse">
<stop stop-color="#AA80F9"/>
<stop offset="0.9964" stop-color="#6165D7"/>
</linearGradient>
<linearGradient id="paint9_linear_713_410" x1="178.44" y1="42.8656" x2="383.309" y2="461.777" gradientUnits="userSpaceOnUse">
<stop stop-color="#AA80F9"/>
<stop offset="0.9964" stop-color="#6165D7"/>
</linearGradient>
<linearGradient id="paint10_linear_713_410" x1="127.307" y1="67.8722" x2="332.177" y2="486.784" gradientUnits="userSpaceOnUse">
<stop stop-color="#AA80F9"/>
<stop offset="0.9964" stop-color="#6165D7"/>
</linearGradient>
<linearGradient id="paint11_linear_713_410" x1="63.2101" y1="99.2176" x2="268.079" y2="518.13" gradientUnits="userSpaceOnUse">
<stop stop-color="#AA80F9"/>
<stop offset="0.9964" stop-color="#6165D7"/>
</linearGradient>
<linearGradient id="paint12_linear_713_410" x1="85.3815" y1="88.3757" x2="290.251" y2="507.287" gradientUnits="userSpaceOnUse">
<stop stop-color="#AA80F9"/>
<stop offset="0.9964" stop-color="#6165D7"/>
</linearGradient>
<linearGradient id="paint13_linear_713_410" x1="107.374" y1="77.6202" x2="312.242" y2="496.531" gradientUnits="userSpaceOnUse">
<stop stop-color="#AA80F9"/>
<stop offset="0.9964" stop-color="#6165D7"/>
</linearGradient>
<linearGradient id="paint14_linear_713_410" x1="129.189" y1="66.9524" x2="334.058" y2="485.864" gradientUnits="userSpaceOnUse">
<stop stop-color="#AA80F9"/>
<stop offset="0.9964" stop-color="#6165D7"/>
</linearGradient>
<linearGradient id="paint15_linear_713_410" x1="150.828" y1="56.3694" x2="355.696" y2="475.281" gradientUnits="userSpaceOnUse">
<stop stop-color="#AA80F9"/>
<stop offset="0.9964" stop-color="#6165D7"/>
</linearGradient>
<linearGradient id="paint16_linear_713_410" x1="239.811" y1="241.943" x2="374.129" y2="241.943" gradientUnits="userSpaceOnUse">
<stop stop-color="#FF9085"/>
<stop offset="1" stop-color="#FB6FBB"/>
</linearGradient>
<linearGradient id="paint17_linear_713_410" x1="123.763" y1="299.741" x2="238.091" y2="303.994" gradientUnits="userSpaceOnUse">
<stop stop-color="#FF9085"/>
<stop offset="1" stop-color="#FB6FBB"/>
</linearGradient>
<linearGradient id="paint18_linear_713_410" x1="372.942" y1="366.014" x2="386.13" y2="347.966" gradientUnits="userSpaceOnUse">
<stop stop-color="#AA80F9"/>
<stop offset="0.9964" stop-color="#6165D7"/>
</linearGradient>
<linearGradient id="paint19_linear_713_410" x1="513.732" y1="488.079" x2="492.381" y2="496.046" gradientUnits="userSpaceOnUse">
<stop stop-color="#444B8C"/>
<stop offset="0.9964" stop-color="#26264F"/>
</linearGradient>
<linearGradient id="paint20_linear_713_410" x1="500.587" y1="491.22" x2="481.959" y2="479.347" gradientUnits="userSpaceOnUse">
<stop stop-color="#FFC444"/>
<stop offset="0.9964" stop-color="#F36F56"/>
</linearGradient>
<linearGradient id="paint21_linear_713_410" x1="483.938" y1="507.075" x2="462.76" y2="515.488" gradientUnits="userSpaceOnUse">
<stop stop-color="#444B8C"/>
<stop offset="0.9964" stop-color="#26264F"/>
</linearGradient>
<linearGradient id="paint22_linear_713_410" x1="470.724" y1="510.838" x2="452.097" y2="498.966" gradientUnits="userSpaceOnUse">
<stop stop-color="#FFC444"/>
<stop offset="0.9964" stop-color="#F36F56"/>
</linearGradient>
<linearGradient id="paint23_linear_713_410" x1="291.947" y1="444.651" x2="345.141" y2="371.854" gradientUnits="userSpaceOnUse">
<stop stop-color="#AA80F9"/>
<stop offset="0.9964" stop-color="#6165D7"/>
</linearGradient>
<linearGradient id="paint24_linear_713_410" x1="293.763" y1="444.865" x2="348.727" y2="375.196" gradientUnits="userSpaceOnUse">
<stop stop-color="#AA80F9"/>
<stop offset="0.9964" stop-color="#6165D7"/>
</linearGradient>
<linearGradient id="paint25_linear_713_410" x1="265.682" y1="413.567" x2="312.508" y2="342.308" gradientUnits="userSpaceOnUse">
<stop stop-color="#AA80F9"/>
<stop offset="0.9964" stop-color="#6165D7"/>
</linearGradient>
<linearGradient id="paint26_linear_713_410" x1="392.608" y1="512.131" x2="430.811" y2="394.656" gradientUnits="userSpaceOnUse">
<stop stop-color="#444B8C"/>
<stop offset="0.9964" stop-color="#26264F"/>
</linearGradient>
<linearGradient id="paint27_linear_713_410" x1="403.3" y1="414.779" x2="355.233" y2="535.016" gradientUnits="userSpaceOnUse">
<stop stop-color="#444B8C"/>
<stop offset="0.9964" stop-color="#26264F"/>
</linearGradient>
<linearGradient id="paint28_linear_713_410" x1="370.878" y1="449.665" x2="351.853" y2="417.387" gradientUnits="userSpaceOnUse">
<stop stop-color="#311944"/>
<stop offset="1" stop-color="#893976"/>
</linearGradient>
<linearGradient id="paint29_linear_713_410" x1="307.579" y1="409.895" x2="318.135" y2="440.021" gradientUnits="userSpaceOnUse">
<stop stop-color="#311944"/>
<stop offset="1" stop-color="#893976"/>
</linearGradient>
<linearGradient id="paint30_linear_713_410" x1="310.217" y1="415.875" x2="335.58" y2="410.911" gradientUnits="userSpaceOnUse">
<stop stop-color="#FFC444"/>
<stop offset="0.9964" stop-color="#F36F56"/>
</linearGradient>
<linearGradient id="paint31_linear_713_410" x1="398.848" y1="402.684" x2="371.982" y2="370.102" gradientUnits="userSpaceOnUse">
<stop stop-color="#444B8C"/>
<stop offset="0.9964" stop-color="#26264F"/>
</linearGradient>
<linearGradient id="paint32_linear_713_410" x1="356.68" y1="463.197" x2="401.533" y2="351.388" gradientUnits="userSpaceOnUse">
<stop stop-color="#311944"/>
<stop offset="1" stop-color="#893976"/>
</linearGradient>
<linearGradient id="paint33_linear_713_410" x1="325.494" y1="395.998" x2="442.055" y2="387.125" gradientUnits="userSpaceOnUse">
<stop stop-color="#311944"/>
<stop offset="1" stop-color="#893976"/>
</linearGradient>
<linearGradient id="paint34_linear_713_410" x1="318.427" y1="346.964" x2="345.798" y2="284.042" gradientUnits="userSpaceOnUse">
<stop stop-color="#FFC444"/>
<stop offset="0.9964" stop-color="#F36F56"/>
</linearGradient>
<linearGradient id="paint35_linear_713_410" x1="310.564" y1="334.452" x2="347.585" y2="279.016" gradientUnits="userSpaceOnUse">
<stop stop-color="#444B8C"/>
<stop offset="0.9964" stop-color="#26264F"/>
</linearGradient>
<linearGradient id="paint36_linear_713_410" x1="336.831" y1="298.969" x2="326.214" y2="362.768" gradientUnits="userSpaceOnUse">
<stop stop-color="#FFC444"/>
<stop offset="0.9964" stop-color="#F36F56"/>
</linearGradient>
<linearGradient id="paint37_linear_713_410" x1="319.85" y1="330.184" x2="346.336" y2="290.524" gradientUnits="userSpaceOnUse">
<stop stop-color="#444B8C"/>
<stop offset="0.9964" stop-color="#26264F"/>
</linearGradient>
<linearGradient id="paint38_linear_713_410" x1="342.232" y1="307.68" x2="339.626" y2="315.404" gradientUnits="userSpaceOnUse">
<stop stop-color="#FFC444"/>
<stop offset="1" stop-color="#F36F56"/>
</linearGradient>
<linearGradient id="paint39_linear_713_410" x1="23.9201" y1="159.399" x2="57.0883" y2="219.647" gradientUnits="userSpaceOnUse">
<stop stop-color="#AA80F9"/>
<stop offset="0.9964" stop-color="#6165D7"/>
</linearGradient>
<linearGradient id="paint40_linear_713_410" x1="49.8486" y1="474.192" x2="64.3161" y2="475.754" gradientUnits="userSpaceOnUse">
<stop stop-color="#AA80F9"/>
<stop offset="0.9964" stop-color="#6165D7"/>
</linearGradient>
<linearGradient id="paint41_linear_713_410" x1="77.0187" y1="481.379" x2="91.4862" y2="482.941" gradientUnits="userSpaceOnUse">
<stop stop-color="#AA80F9"/>
<stop offset="0.9964" stop-color="#6165D7"/>
</linearGradient>
<linearGradient id="paint42_linear_713_410" x1="35.8846" y1="372.995" x2="124.336" y2="371.456" gradientUnits="userSpaceOnUse">
<stop stop-color="#444B8C"/>
<stop offset="0.9964" stop-color="#26264F"/>
</linearGradient>
<linearGradient id="paint43_linear_713_410" x1="32.1679" y1="366.895" x2="117.162" y2="375.705" gradientUnits="userSpaceOnUse">
<stop stop-color="#444B8C"/>
<stop offset="0.9964" stop-color="#26264F"/>
</linearGradient>
<linearGradient id="paint44_linear_713_410" x1="222.343" y1="231.23" x2="66.149" y2="127.038" gradientUnits="userSpaceOnUse">
<stop stop-color="#311944"/>
<stop offset="1" stop-color="#6B3976"/>
</linearGradient>
<linearGradient id="paint45_linear_713_410" x1="220.086" y1="234.612" x2="63.8934" y2="130.42" gradientUnits="userSpaceOnUse">
<stop stop-color="#311944"/>
<stop offset="1" stop-color="#6B3976"/>
</linearGradient>
<linearGradient id="paint46_linear_713_410" x1="65.6555" y1="216.178" x2="183.052" y2="340.636" gradientUnits="userSpaceOnUse">
<stop stop-color="#AA80F9"/>
<stop offset="0.9964" stop-color="#6165D7"/>
</linearGradient>
<linearGradient id="paint47_linear_713_410" x1="75.7791" y1="208.381" x2="203.08" y2="308.839" gradientUnits="userSpaceOnUse">
<stop stop-color="#AA80F9"/>
<stop offset="0.9964" stop-color="#6165D7"/>
</linearGradient>
<linearGradient id="paint48_linear_713_410" x1="89.7286" y1="195.741" x2="88.2369" y2="125.135" gradientUnits="userSpaceOnUse">
<stop stop-color="#FFC444"/>
<stop offset="0.9964" stop-color="#F36F56"/>
</linearGradient>
<linearGradient id="paint49_linear_713_410" x1="90.1259" y1="185.906" x2="98.2428" y2="128.641" gradientUnits="userSpaceOnUse">
<stop stop-color="#FFC444"/>
<stop offset="0.9964" stop-color="#F36F56"/>
</linearGradient>
<linearGradient id="paint50_linear_713_410" x1="84.0909" y1="135.872" x2="94.4831" y2="195.016" gradientUnits="userSpaceOnUse">
<stop stop-color="#FFC444"/>
<stop offset="0.9964" stop-color="#F36F56"/>
</linearGradient>
<linearGradient id="paint51_linear_713_410" x1="226.694" y1="224.709" x2="70.5002" y2="120.517" gradientUnits="userSpaceOnUse">
<stop stop-color="#311944"/>
<stop offset="1" stop-color="#6B3976"/>
</linearGradient>
<linearGradient id="paint52_linear_713_410" x1="103.448" y1="208.916" x2="165.824" y2="283.202" gradientUnits="userSpaceOnUse">
<stop stop-color="#AA80F9"/>
<stop offset="0.9964" stop-color="#6165D7"/>
</linearGradient>
<linearGradient id="paint53_linear_713_410" x1="222.541" y1="230.931" x2="66.3482" y2="126.74" gradientUnits="userSpaceOnUse">
<stop stop-color="#311944"/>
<stop offset="1" stop-color="#6B3976"/>
</linearGradient>
<linearGradient id="paint54_linear_713_410" x1="81.2232" y1="197.896" x2="60.8375" y2="210.689" gradientUnits="userSpaceOnUse">
<stop stop-color="#FFC444"/>
<stop offset="0.9964" stop-color="#F36F56"/>
</linearGradient>
<linearGradient id="paint55_linear_713_410" x1="22.5924" y1="210.417" x2="104.026" y2="236.28" gradientUnits="userSpaceOnUse">
<stop stop-color="#FF9085"/>
<stop offset="1" stop-color="#FB6FBB"/>
</linearGradient>
<linearGradient id="paint56_linear_713_410" x1="60.7825" y1="224.032" x2="79.3633" y2="247.347" gradientUnits="userSpaceOnUse">
<stop stop-color="#FFC444"/>
<stop offset="0.9964" stop-color="#F36F56"/>
</linearGradient>
<linearGradient id="paint57_linear_713_410" x1="38.6443" y1="202.095" x2="15.1795" y2="220.486" gradientUnits="userSpaceOnUse">
<stop stop-color="#FFC444"/>
<stop offset="0.9964" stop-color="#F36F56"/>
</linearGradient>
<linearGradient id="paint58_linear_713_410" x1="37.228" y1="216.709" x2="2.68822" y2="254.359" gradientUnits="userSpaceOnUse">
<stop stop-color="#AA80F9"/>
<stop offset="0.9964" stop-color="#6165D7"/>
</linearGradient>
</defs>
</svg>
