<svg width="18" height="20" viewBox="0 0 18 20" fill="none" xmlns="http://www.w3.org/2000/svg">
<path opacity="0.5" d="M1.88889 14.05V17.2C1.88889 17.6774 2.07619 18.1352 2.40959 18.4728C2.74299 18.8104 3.19517 19 3.66667 19H14.3333C14.8048 19 15.257 18.8104 15.5904 18.4728C15.9238 18.1352 16.1111 17.6774 16.1111 17.2V14.05M9 6.4V9.1M9 6.4C10.1218 6.4 10.7778 5.5288 10.7778 4.0375C10.7778 2.5462 9 1 9 1C9 1 7.22222 2.5462 7.22222 4.0375C7.22222 5.5288 7.87822 6.4 9 6.4ZM1 11.8V10.9C1 10.4226 1.1873 9.96477 1.5207 9.62721C1.8541 9.28964 2.30628 9.1 2.77778 9.1H15.2222C15.6937 9.1 16.1459 9.28964 16.4793 9.62721C16.8127 9.96477 17 10.4226 17 10.9V11.8C17 12.5161 16.719 13.2028 16.219 13.7092C15.7189 14.2155 15.0406 14.5 14.3333 14.5C13.6261 14.5 12.9478 14.2155 12.4477 13.7092C11.9476 13.2028 11.6667 12.5161 11.6667 11.8C11.6667 12.5161 11.3857 13.2028 10.8856 13.7092C10.3855 14.2155 9.70724 14.5 9 14.5C8.29276 14.5 7.61448 14.2155 7.11438 13.7092C6.61428 13.2028 6.33333 12.5161 6.33333 11.8C6.33333 12.5161 6.05238 13.2028 5.55229 13.7092C5.05219 14.2155 4.37391 14.5 3.66667 14.5C2.95942 14.5 2.28115 14.2155 1.78105 13.7092C1.28095 13.2028 1 12.5161 1 11.8Z" stroke="#545454" stroke-width="1.5" stroke-linecap="round" stroke-linejoin="round"/>
</svg>
