<svg width="100" height="100" viewBox="0 0 100 100" fill="none" xmlns="http://www.w3.org/2000/svg">
<g clip-path="url(#clip0_2067_902)">
<path d="M50 100C77.6142 100 100 77.6142 100 50C100 22.3858 77.6142 0 50 0C22.3858 0 0 22.3858 0 50C0 77.6142 22.3858 100 50 100Z" fill="#E5F3F6"/>
<path d="M83.2309 51.0984C82.9792 50.6555 82.6419 50.2672 82.2388 49.9561C81.8356 49.6449 81.3746 49.4172 80.8826 49.2862C78.6511 48.7152 76.3395 48.5237 74.0445 48.7199C75.3657 42.8785 74.5028 38.2687 73.6343 35.5816C73.3311 34.6323 72.6857 33.83 71.8237 33.3312C70.9617 32.8323 69.945 32.6726 68.9717 32.8831C65.9509 33.5612 63.091 34.8221 60.5521 36.5953C58.7852 32.7483 56.1137 29.3868 52.7661 26.7982C52.0792 26.2802 51.2426 26 50.3825 26C49.5225 26 48.6858 26.2802 47.9989 26.7982C44.6532 29.388 41.9829 32.7492 40.2158 36.5953C37.6762 34.8215 34.8153 33.5605 31.7933 32.8831C30.8201 32.6728 29.8034 32.833 28.9419 33.3325C28.0803 33.832 27.4356 34.6348 27.1336 35.5844C26.2651 38.2715 25.4022 42.8813 26.7234 48.7227C24.4284 48.5266 22.1168 48.718 19.8852 49.2891C19.3933 49.4201 18.9323 49.6478 18.5291 49.9589C18.126 50.27 17.7887 50.6583 17.537 51.1012C17.2725 51.5564 17.1012 52.0597 17.0332 52.5819C16.9652 53.104 17.0018 53.6345 17.1409 54.1423C18.0774 57.6194 20.9603 64.2282 29.7082 69.4694C38.4561 74.7106 46.2222 74.7049 50.3839 74.7049C54.5457 74.7049 62.3005 74.7049 71.054 69.4694C79.8076 64.2339 82.6848 57.6194 83.6213 54.1395C83.7612 53.632 83.7988 53.1018 83.7318 52.5796C83.6647 52.0575 83.4944 51.554 83.2309 51.0984ZM61.8365 39.8487C64.1659 38.0908 66.8405 36.846 69.6847 36.196C69.8358 36.1652 69.9929 36.1915 70.1257 36.27C70.2584 36.3485 70.3574 36.4735 70.4033 36.6208C71.518 40.0809 72.6129 47.239 67.4072 56.2999C65.3175 59.8738 62.6392 63.0685 59.4855 65.7488C61.6583 61.963 63.3982 56.8464 63.3982 50.1187C63.4247 46.6342 62.8975 43.1676 61.8365 39.8487ZM30.3646 36.6292C30.4088 36.4804 30.5071 36.3534 30.64 36.2733C30.7729 36.1931 30.931 36.1656 31.0832 36.196C33.9274 36.846 36.602 38.0908 38.9314 39.8487C37.8704 43.1676 37.3432 46.6342 37.3697 50.1187C37.3697 56.8464 39.1096 61.9687 41.2768 65.7403C38.1224 63.0606 35.4439 59.8659 33.355 56.2914C28.155 47.239 29.2499 40.0809 30.3646 36.6292ZM31.451 66.5501C23.7273 61.9319 21.2235 56.2376 20.4171 53.2419C20.396 53.1658 20.3904 53.0862 20.4006 53.0079C20.4108 52.9296 20.4366 52.8541 20.4765 52.786C20.538 52.6767 20.6394 52.5955 20.7595 52.5595C23.046 51.9908 25.4233 51.8878 27.7504 52.2565C28.4682 54.2458 29.361 56.1675 30.4183 57.9989C33.321 63.0121 37.2792 67.333 42.018 70.6615C38.2821 69.9215 34.7053 68.5298 31.451 66.5501ZM50.3839 70.9843C47.9282 69.2287 40.7647 62.9994 40.7647 50.1187C40.7647 37.8411 47.2549 31.6174 50.0444 29.5108C50.1424 29.4372 50.2615 29.3975 50.3839 29.3975C50.5064 29.3975 50.6255 29.4372 50.7234 29.5108C53.513 31.6174 60.0032 37.8411 60.0032 50.1187C60.0032 63.0786 52.8765 69.2316 50.3839 70.9843ZM80.3451 53.2532C79.5388 56.2376 77.0349 61.9319 69.3112 66.5614C66.0533 68.5371 62.4736 69.924 58.7357 70.6587C63.4746 67.3302 67.4327 63.0093 70.3354 57.996C71.3974 56.1661 72.295 54.2454 73.0175 52.2565C75.3472 51.8907 77.7265 51.9976 80.0141 52.5708C80.1341 52.6068 80.2356 52.688 80.297 52.7973C80.336 52.8658 80.3609 52.9415 80.3701 53.0198C80.3793 53.0981 80.3727 53.1775 80.3508 53.2532H80.3451Z" fill="url(#paint0_linear_2067_902)"/>
</g>
<defs>
<linearGradient id="paint0_linear_2067_902" x1="17" y1="51.9979" x2="83.7641" y2="51.9979" gradientUnits="userSpaceOnUse">
<stop stop-color="#7E6CFB"/>
<stop offset="1" stop-color="#3E8F9C"/>
</linearGradient>
<clipPath id="clip0_2067_902">
<rect width="100" height="100" fill="white"/>
</clipPath>
</defs>
</svg>
