<svg width="100" height="100" viewBox="0 0 100 100" fill="none" xmlns="http://www.w3.org/2000/svg">
<g clip-path="url(#clip0_732_318)">
<path d="M50 100C77.6142 100 100 77.6142 100 50C100 22.3858 77.6142 0 50 0C22.3858 0 0 22.3858 0 50C0 77.6142 22.3858 100 50 100Z" fill="#E5F3F6"/>
<mask id="mask0_732_318" style="mask-type:luminance" maskUnits="userSpaceOnUse" x="0" y="0" width="100" height="100">
<path d="M50 100C77.6142 100 100 77.6142 100 50C100 22.3858 77.6142 0 50 0C22.3858 0 0 22.3858 0 50C0 77.6142 22.3858 100 50 100Z" fill="white"/>
</mask>
<g mask="url(#mask0_732_318)">
<path d="M99.0273 102.653H2.55573C7.0039 82.6847 18.9424 78.6964 18.9424 78.6964L41.9526 67.9341L50.6721 67.8545H50.9109L59.6392 67.9341L82.6495 78.6964C82.6495 78.6964 94.5791 82.6847 99.0273 102.653Z" fill="#9C93E1"/>
<path d="M56.0665 10.5762C56.0665 10.5762 64.0962 6.99465 66.9438 13.7598C69.6852 20.2773 58.7991 26.4764 58.7991 26.4764L56.0665 10.5673V10.5762Z" fill="#1E0B02"/>
<path d="M41.0506 37.5754C41.139 40.5821 38.769 43.0936 35.7623 43.1732C32.7556 43.2528 30.2441 40.8916 30.1645 37.8849C30.0849 34.8782 32.4461 32.3667 35.4528 32.2871C38.4595 32.2075 40.971 34.5687 41.0506 37.5754Z" fill="#C67D69"/>
<path d="M32.5079 36.9657C32.5079 36.9657 34.6745 35.9133 36.7439 39.6717" stroke="#A8523F" stroke-width="0.75" stroke-linecap="round" stroke-linejoin="round"/>
<path d="M66.3866 43.1733C69.3952 43.1733 71.8341 40.7343 71.8341 37.7258C71.8341 34.7172 69.3952 32.2783 66.3866 32.2783C63.3781 32.2783 60.9391 34.7172 60.9391 37.7258C60.9391 40.7343 63.3781 43.1733 66.3866 43.1733Z" fill="#C67D69"/>
<path d="M69.4552 36.8772C69.4552 36.8772 67.2621 35.8868 65.2989 39.7071" stroke="#A8523F" stroke-width="0.75" stroke-linecap="round" stroke-linejoin="round"/>
<path d="M57.9855 50.283C57.9855 50.283 54.9169 52.4496 52.1135 52.989C49.3102 53.5285 46.5953 51.9013 46.5599 51.8836C46.5246 51.8659 43.2879 50 43.2879 50L41.9526 67.9342L42.3152 68.2349C47.064 72.1525 53.8999 72.1967 58.7018 68.3498L59.4004 67.7839L57.9855 50.2918V50.283Z" fill="#C67D69"/>
<path d="M41.9526 48.1074C41.9526 48.1074 45.0035 58.1003 52.0339 57.9942C57.8086 57.9058 58.7372 48.1074 58.7372 48.1074H41.9526Z" fill="#1E0B02"/>
<path d="M65.7057 28.2456C65.741 34.4006 64.8832 39.7242 64.0254 43.5003C63.1853 47.1968 60.78 49.7879 57.3664 51.8838L56.7474 52.264C53.1393 54.4837 48.4701 54.5544 44.7824 52.4586C41.0682 50.345 38.4595 47.5417 37.6371 43.5799C36.1514 36.3815 35.948 28.396 35.948 28.396C35.948 28.396 33.861 11.7352 49.9027 11.9563C65.9533 12.1774 65.6968 28.2456 65.6968 28.2456H65.7057Z" fill="#C67D69"/>
<path d="M43.907 34.4271C44.6249 34.4271 45.2069 33.8451 45.2069 33.1271C45.2069 32.4092 44.6249 31.8271 43.907 31.8271C43.189 31.8271 42.607 32.4092 42.607 33.1271C42.607 33.8451 43.189 34.4271 43.907 34.4271Z" fill="#1E0B02"/>
<path d="M56.6502 34.4271C57.3681 34.4271 57.9501 33.8451 57.9501 33.1271C57.9501 32.4092 57.3681 31.8271 56.6502 31.8271C55.9322 31.8271 55.3502 32.4092 55.3502 33.1271C55.3502 33.8451 55.9322 34.4271 56.6502 34.4271Z" fill="#1E0B02"/>
<path d="M49.1068 35.0283V38.6099H51.4149" stroke="#A8523F" stroke-width="0.75" stroke-linecap="round" stroke-linejoin="round"/>
<path d="M46.1974 41.5723H54.5631C54.5631 41.5723 54.1652 44.1368 50.2565 44.1368C46.3477 44.1368 46.1974 41.5723 46.1974 41.5723Z" fill="white"/>
<path d="M36.5051 36.2752C36.5051 36.2752 38.884 18.2614 37.7166 15.29C37.7166 15.29 29.6339 21.9756 36.5051 36.2752Z" fill="#1E0B02"/>
<path d="M65.1043 36.1339C65.1043 36.1339 62.4336 18.9248 63.1765 13.9814C63.1765 13.9814 70.9851 20.8969 65.1043 36.1339Z" fill="#1E0B02"/>
<path d="M62.6105 12.752L55.2087 11.6377L54.5543 10.3555L50.6456 10.948L46.7368 10.3555L46.0824 11.6377L38.6894 12.752L37.699 16.7138L37.9377 21.2769C37.9377 21.2769 39.1051 16.1036 43.1818 17.1294C44.1457 17.377 45.2954 17.775 46.6395 18.0491C47.8953 18.3233 49.098 18.4471 50.2211 18.4648C50.3537 18.4648 50.4952 18.4648 50.6279 18.4648C50.7605 18.4648 50.902 18.4648 51.0347 18.4648C52.1666 18.4471 53.3605 18.3233 54.6162 18.0491C55.9604 17.775 57.1365 17.4566 58.0739 17.1294C61.85 15.8118 63.2473 21.0382 63.2473 21.0382L63.5656 16.7138L62.584 12.752H62.6105Z" fill="#1E0B02"/>
<path d="M62.4602 17.2533C62.4602 17.2533 57.6495 21.5511 51.4857 18.2437C51.4857 18.2437 35.8065 27.9094 31.376 17.3859C27.6884 8.61338 43.005 -3.28086 58.8079 10.1256L62.4602 17.2444V17.2533Z" fill="#1E0B02"/>
<path d="M41.9526 67.9345L36.8146 70.2957C36.8146 70.2957 36.7616 78.9179 50.7251 78.4669C65.0513 78.007 64.9628 70.4283 64.9628 70.4283L59.4004 67.7842L41.9526 67.9345Z" fill="#C67D69"/>
</g>
</g>
<defs>
<clipPath id="clip0_732_318">
<rect width="100" height="100" fill="white"/>
</clipPath>
</defs>
</svg>
