<svg width="80" height="80" viewBox="0 0 80 80" fill="none" xmlns="http://www.w3.org/2000/svg">
<path d="M40 80C62.0914 80 80 62.0914 80 40C80 17.9086 62.0914 0 40 0C17.9086 0 0 17.9086 0 40C0 62.0914 17.9086 80 40 80Z" fill="#3E8F9C"/>
<mask id="mask0_821_304" style="mask-type:luminance" maskUnits="userSpaceOnUse" x="0" y="0" width="80" height="80">
<path d="M40 80C62.0914 80 80 62.0914 80 40C80 17.9086 62.0914 0 40 0C17.9086 0 0 17.9086 0 40C0 62.0914 17.9086 80 40 80Z" fill="white"/>
</mask>
<g mask="url(#mask0_821_304)">
<path d="M79.2218 82.1199H2.04462C5.60316 66.1454 15.1539 62.9548 15.1539 62.9548L33.5621 54.3449L40.5377 54.2812H40.7287L47.7114 54.3449L66.1196 62.9548C66.1196 62.9548 75.6633 66.1454 79.2218 82.1199Z" fill="#9C93E1"/>
<path d="M44.8533 8.45704C44.8533 8.45704 51.2771 5.59181 53.5551 11.0039C55.7482 16.2179 47.0394 21.1772 47.0394 21.1772L44.8533 8.44997V8.45704Z" fill="#1E0B02"/>
<path d="M32.8405 30.0564C32.9113 32.4618 31.0153 34.471 28.6099 34.5347C26.2045 34.5983 24.1953 32.7094 24.1317 30.304C24.068 27.8987 25.9569 25.8895 28.3623 25.8258C30.7677 25.7621 32.7769 27.651 32.8405 30.0564Z" fill="#C67D69"/>
<path d="M26.0064 29.5694C26.0064 29.5694 27.7397 28.7275 29.3952 31.7343" stroke="#A8523F" stroke-width="0.75" stroke-linecap="round" stroke-linejoin="round"/>
<path d="M53.1093 34.5343C55.5162 34.5343 57.4673 32.5832 57.4673 30.1763C57.4673 27.7695 55.5162 25.8184 53.1093 25.8184C50.7025 25.8184 48.7514 27.7695 48.7514 30.1763C48.7514 32.5832 50.7025 34.5343 53.1093 34.5343Z" fill="#C67D69"/>
<path d="M55.5642 29.4967C55.5642 29.4967 53.8097 28.7043 52.2392 31.7606" stroke="#A8523F" stroke-width="0.75" stroke-linecap="round" stroke-linejoin="round"/>
<path d="M46.3885 40.2225C46.3885 40.2225 43.9336 41.9558 41.6909 42.3873C39.4482 42.8189 37.2763 41.5171 37.248 41.503C37.2197 41.4888 34.6304 39.9961 34.6304 39.9961L33.5621 54.3435L33.8522 54.584C37.6513 57.7181 43.12 57.7534 46.9615 54.676L47.5204 54.2232L46.3885 40.2296V40.2225Z" fill="#C67D69"/>
<path d="M33.5621 38.4824C33.5621 38.4824 36.0029 46.4768 41.6272 46.3919C46.247 46.3211 46.9898 38.4824 46.9898 38.4824H33.5621Z" fill="#1E0B02"/>
<path d="M52.5646 22.5918C52.5929 27.5158 51.9067 31.7747 51.2204 34.7956C50.5483 37.7528 48.624 39.8256 45.8932 41.5023L45.398 41.8065C42.5116 43.5823 38.7761 43.6389 35.826 41.9622C32.8547 40.2713 30.7677 38.0287 30.1097 34.8592C28.9212 29.1005 28.7585 22.7121 28.7585 22.7121C28.7585 22.7121 27.0888 9.38347 39.9222 9.56034C52.7627 9.7372 52.5575 22.5918 52.5575 22.5918H52.5646Z" fill="#C67D69"/>
<path d="M35.1257 27.537C35.7 27.537 36.1656 27.0714 36.1656 26.497C36.1656 25.9226 35.7 25.457 35.1257 25.457C34.5513 25.457 34.0857 25.9226 34.0857 26.497C34.0857 27.0714 34.5513 27.537 35.1257 27.537Z" fill="#1E0B02"/>
<path d="M45.3202 27.537C45.8946 27.537 46.3602 27.0714 46.3602 26.497C46.3602 25.9226 45.8946 25.457 45.3202 25.457C44.7459 25.457 44.2803 25.9226 44.2803 26.497C44.2803 27.0714 44.7459 27.537 45.3202 27.537Z" fill="#1E0B02"/>
<path d="M39.2856 28.0195V30.8848H41.132" stroke="#A8523F" stroke-width="0.75" stroke-linecap="round" stroke-linejoin="round"/>
<path d="M36.958 33.2539H43.6506C43.6506 33.2539 43.3323 35.3056 40.2053 35.3056C37.0783 35.3056 36.958 33.2539 36.958 33.2539Z" fill="white"/>
<path d="M29.2042 29.0166C29.2042 29.0166 31.1072 14.6056 30.1734 12.2285C30.1734 12.2285 23.7072 17.5769 29.2042 29.0166Z" fill="#1E0B02"/>
<path d="M52.0835 28.9036C52.0835 28.9036 49.947 15.1364 50.5412 11.1816C50.5412 11.1816 56.7882 16.714 52.0835 28.9036Z" fill="#1E0B02"/>
<path d="M50.0885 10.1985L44.167 9.30707L43.6435 8.28125L40.5165 8.75525L37.3895 8.28125L36.866 9.30707L30.9516 10.1985L30.1592 13.3679L30.3503 17.0184C30.3503 17.0184 31.2841 12.8798 34.5455 13.7004C35.3167 13.8985 36.2364 14.2169 37.3117 14.4362C38.3163 14.6555 39.2784 14.7545 40.1769 14.7687C40.283 14.7687 40.3962 14.7687 40.5024 14.7687C40.6085 14.7687 40.7217 14.7687 40.8278 14.7687C41.7333 14.7545 42.6884 14.6555 43.693 14.4362C44.7684 14.2169 45.7093 13.9622 46.4592 13.7004C49.4801 12.6463 50.5979 16.8274 50.5979 16.8274L50.8526 13.3679L50.0673 10.1985H50.0885Z" fill="#1E0B02"/>
<path d="M49.9682 13.7995C49.9682 13.7995 46.1196 17.2378 41.1886 14.5919C41.1886 14.5919 28.6453 22.3244 25.1009 13.9056C22.1508 6.88758 34.404 -2.62781 47.0464 8.09734L49.9682 13.7924V13.7995Z" fill="#1E0B02"/>
<path d="M33.5621 54.3449L29.4518 56.2338C29.4518 56.2338 29.4093 63.1316 40.5802 62.7708C52.0411 62.4029 51.9703 56.3399 51.9703 56.3399L47.5204 54.2246L33.5621 54.3449Z" fill="#C67D69"/>
</g>
</svg>
