<?xml version="1.0" encoding="utf-8"?>
<!-- Generator: Adobe Illustrator 27.6.1, SVG Export Plug-In . SVG Version: 6.00 Build 0)  -->
<svg version="1.1" id="Layer_1" xmlns="http://www.w3.org/2000/svg" xmlns:xlink="http://www.w3.org/1999/xlink" x="0px" y="0px"
	 viewBox="0 0 80 80" style="enable-background:new 0 0 80 80;" xml:space="preserve">
<style type="text/css">
	.st0{fill:#E5F3F6;}
	.st1{fill:#FFFFFF;filter:url(#Adobe_OpacityMaskFilter);}
	.st2{mask:url(#mask0_821_304_00000130612762691656511610000015588252213666696072_);}
	.st3{fill:#9C93E1;}
	.st4{fill:#1E0B02;}
	.st5{fill:#C67D69;}
	.st6{fill:none;stroke:#A8523F;stroke-width:0.75;stroke-linecap:round;stroke-linejoin:round;}
	.st7{fill:#FFFFFF;}
</style>
<path class="st0" d="M40,80c22.1,0,40-17.9,40-40S62.1,0,40,0S0,17.9,0,40S17.9,80,40,80z"/>
<defs>
	<filter id="Adobe_OpacityMaskFilter" filterUnits="userSpaceOnUse" x="2" y="3.3" width="77.2" height="78.8">
		<feColorMatrix  type="matrix" values="1 0 0 0 0  0 1 0 0 0  0 0 1 0 0  0 0 0 1 0"/>
	</filter>
</defs>
<mask maskUnits="userSpaceOnUse" x="2" y="3.3" width="77.2" height="78.8" id="mask0_821_304_00000130612762691656511610000015588252213666696072_">
	<path class="st1" d="M40,80c22.1,0,40-17.9,40-40S62.1,0,40,0S0,17.9,0,40S17.9,80,40,80z"/>
</mask>
<g class="st2">
	<path class="st3" d="M79.2,82.1H2C5.6,66.1,15.2,63,15.2,63l18.4-8.6l7-0.1h0.2l7,0.1L66.1,63C66.1,63,75.7,66.1,79.2,82.1z"/>
	<path class="st4" d="M44.9,8.5c0,0,6.4-2.9,8.7,2.5c2.2,5.2-6.5,10.2-6.5,10.2L44.9,8.5L44.9,8.5z"/>
	<path class="st5" d="M32.8,30.1c0.1,2.4-1.8,4.4-4.2,4.5c-2.4,0.1-4.4-1.8-4.5-4.2c-0.1-2.4,1.8-4.4,4.2-4.5S32.8,27.7,32.8,30.1z"
		/>
	<path class="st6" d="M26,29.6c0,0,1.7-0.8,3.4,2.2"/>
	<path class="st5" d="M53.1,34.5c2.4,0,4.4-2,4.4-4.4c0-2.4-2-4.4-4.4-4.4c-2.4,0-4.4,2-4.4,4.4C48.8,32.6,50.7,34.5,53.1,34.5z"/>
	<path class="st6" d="M55.6,29.5c0,0-1.8-0.8-3.3,2.3"/>
	<path class="st5" d="M46.4,40.2c0,0-2.5,1.7-4.7,2.2c-2.2,0.4-4.4-0.9-4.4-0.9c0,0-2.6-1.5-2.6-1.5l-1.1,14.3l0.3,0.2
		c3.8,3.1,9.3,3.2,13.1,0.1l0.6-0.5L46.4,40.2L46.4,40.2z"/>
	<path class="st4" d="M33.6,38.5c0,0,2.4,8,8.1,7.9c4.6-0.1,5.4-7.9,5.4-7.9H33.6z"/>
	<path class="st5" d="M52.6,22.6c0,4.9-0.7,9.2-1.3,12.2c-0.7,3-2.6,5-5.3,6.7l-0.5,0.3c-2.9,1.8-6.6,1.8-9.6,0.2
		c-3-1.7-5.1-3.9-5.7-7.1c-1.2-5.8-1.4-12.1-1.4-12.1S27.1,9.4,39.9,9.6C52.8,9.7,52.6,22.6,52.6,22.6L52.6,22.6z"/>
	<path class="st4" d="M35.1,27.5c0.6,0,1-0.5,1-1s-0.5-1-1-1c-0.6,0-1,0.5-1,1S34.6,27.5,35.1,27.5z"/>
	<path class="st4" d="M45.3,27.5c0.6,0,1-0.5,1-1s-0.5-1-1-1c-0.6,0-1,0.5-1,1S44.7,27.5,45.3,27.5z"/>
	<path class="st6" d="M39.3,28v2.9h1.8"/>
	<path class="st7" d="M37,33.3h6.7c0,0-0.3,2.1-3.4,2.1S37,33.3,37,33.3z"/>
	<path class="st4" d="M29.2,29c0,0,1.9-14.4,1-16.8C30.2,12.2,23.7,17.6,29.2,29z"/>
	<path class="st4" d="M52.1,28.9c0,0-2.1-13.8-1.5-17.7C50.5,11.2,56.8,16.7,52.1,28.9z"/>
	<path class="st4" d="M50.1,10.2l-5.9-0.9l-0.5-1l-3.1,0.5l-3.1-0.5l-0.5,1L31,10.2l-0.8,3.2l0.2,3.7c0,0,0.9-4.1,4.2-3.3
		c0.8,0.2,1.7,0.5,2.8,0.7c1,0.2,2,0.3,2.9,0.3c0.1,0,0.2,0,0.3,0c0.1,0,0.2,0,0.3,0c0.9,0,1.9-0.1,2.9-0.3c1.1-0.2,2-0.5,2.8-0.7
		c3-1.1,4.1,3.1,4.1,3.1l0.3-3.5L50.1,10.2L50.1,10.2z"/>
	<path class="st4" d="M50,13.8c0,0-3.8,3.4-8.8,0.8c0,0-12.5,7.7-16.1-0.7c-3-7,9.3-16.5,21.9-5.8L50,13.8L50,13.8z"/>
	<path class="st5" d="M33.6,54.3l-4.1,1.9c0,0,0,6.9,11.1,6.5C52,62.4,52,56.3,52,56.3l-4.4-2.1L33.6,54.3z"/>
</g>
</svg>
