<?xml version="1.0" encoding="utf-8"?>
<!-- Generator: Adobe Illustrator 27.6.1, SVG Export Plug-In . SVG Version: 6.00 Build 0)  -->
<svg version="1.1" id="Layer_1" xmlns="http://www.w3.org/2000/svg" xmlns:xlink="http://www.w3.org/1999/xlink" x="0px" y="0px"
	 viewBox="0 0 80 80" style="enable-background:new 0 0 80 80;" xml:space="preserve">
<style type="text/css">
	.st0{fill:#E5F3F6;}
	.st1{fill:#FFFFFF;filter:url(#Adobe_OpacityMaskFilter);}
	.st2{mask:url(#mask0_821_347_00000075126534956798091890000011337800385015604623_);}
	.st3{fill:#1E0B02;}
	.st4{fill:#9C93E1;}
	.st5{fill:#E0A78F;}
	.st6{fill:none;stroke:#B9635E;stroke-width:0.66;stroke-linecap:round;stroke-linejoin:round;}
	.st7{fill:#B9635E;}
	.st8{fill:none;stroke:#000000;stroke-width:0.66;stroke-linecap:round;stroke-linejoin:round;}
</style>
<path class="st0" d="M40,80c22.1,0,40-17.9,40-40S62.1,0,40,0S0,17.9,0,40S17.9,80,40,80z"/>
<defs>
	<filter id="Adobe_OpacityMaskFilter" filterUnits="userSpaceOnUse" x="7.4" y="8.3" width="65.5" height="73.3">
		<feColorMatrix  type="matrix" values="1 0 0 0 0  0 1 0 0 0  0 0 1 0 0  0 0 0 1 0"/>
	</filter>
</defs>
<mask maskUnits="userSpaceOnUse" x="7.4" y="8.3" width="65.5" height="73.3" id="mask0_821_347_00000075126534956798091890000011337800385015604623_">
	<path class="st1" d="M40,80c22.1,0,40-17.9,40-40S62.1,0,40,0S0,17.9,0,40S17.9,80,40,80z"/>
</mask>
<g class="st2">
	<path class="st3" d="M28.1,19.8c0,0-1.8,10.3-14.2,17.8c-13.2,8-5.7,33.3,17.5,33.9C56.5,72.1,69.3,40.6,54.7,15L28.1,19.8z"/>
	<path class="st4" d="M69.8,63.9c-1.3-3.5-5.3-8-12.9-9.2l-14.3-2.8l-14.3,2.8c-7.7,1.2-11.6,5.7-12.9,9.2l-3,13.5h13.1l1,1.1
		l15.9,3.1l16.4-4.2h14.1L69.8,63.9L69.8,63.9z"/>
	<path class="st5" d="M27.9,54.8l15.5-3.1l14.5,3.1L57.5,55C48.7,61.4,36.8,61.1,27.9,54.8L27.9,54.8z"/>
	<path class="st5" d="M34.9,31.9c0.1,2.3-1.7,4.3-4,4.3s-4.3-1.7-4.3-4c-0.1-2.3,1.7-4.3,4-4.3C32.8,27.8,34.8,29.6,34.9,31.9z"/>
	<path class="st6" d="M28.3,31.5c0,0,1.7-0.8,3.3,2"/>
	<path class="st5" d="M50.2,31.9c0,2.3,1.9,4.2,4.2,4.1c2.3,0,4.2-1.9,4.1-4.2c0-2.3-1.9-4.2-4.2-4.1C52,27.7,50.1,29.6,50.2,31.9z"
		/>
	<path class="st6" d="M56.7,31.1c0,0-1.7-0.7-3.2,2.2"/>
	<path class="st3" d="M42.4,35.2c7.9-0.1,14.3-6.2,14.3-13.6S50.1,8.3,42.1,8.3c-7.9,0.1-14.3,6.2-14.3,13.6
		C28,29.3,34.5,35.3,42.4,35.2z"/>
	<path class="st5" d="M46.6,40.3c0,0-1.8,1.7-3.4,2.1c-1.6,0.4-3.3-0.8-3.3-0.8c0,0-1.9-1.4-1.9-1.4l-0.6,13.8l0.2,0.2
		c2.8,3,6.9,3,9.7,0l0.4-0.4L46.6,40.3z"/>
	<path class="st3" d="M36.6,38.3c0,0,2.4,8,6.5,7.9c3.4-0.1,4.3-7.6,4.3-7.6L36.6,38.3L36.6,38.3z"/>
	<path class="st5" d="M53.7,24c0.1,4.5-0.5,8.4-1.2,11.2c-0.6,2.7-2.4,4.6-5.1,6.2L47,41.7c-2.8,1.7-6.3,1.7-9.2,0.2
		c-2.9-1.5-4.9-3.6-5.6-6.5c-1.2-5.3-1.4-11.1-1.4-11.1s-1.1-12.2,11.2-12.2C54.4,12.2,53.7,24,53.7,24L53.7,24z"/>
	<path class="st6" d="M41.4,30.4l0,1.8l1.2,0"/>
	<path class="st7" d="M33.2,24.1l6.5-0.7c0,0-0.6-1.7-3.2-1.4C33.8,22.4,33.2,24.1,33.2,24.1z"/>
	<path class="st7" d="M51.4,23.9l-6.5-0.5c0,0,0.6-1.7,3.2-1.5C50.8,22.2,51.4,23.9,51.4,23.9L51.4,23.9z"/>
	<path class="st3" d="M38,28c0,0.6-0.4,1-1,1c-0.5,0-1-0.4-1-1c0-0.6,0.4-1,1-1C37.6,27,38,27.5,38,28z"/>
	<path class="st3" d="M47.8,27.9c0,0.6-0.4,1-1,1c-0.6,0-1-0.4-1-1c0-0.6,0.4-1,1-1C47.4,26.9,47.8,27.4,47.8,27.9z"/>
	<path class="st8" d="M38.4,34.7c0,0,2.8,1.5,7.2-0.1"/>
	<path class="st3" d="M53.7,21.2c0,0-18.1,0.9-17.5-9.8C36.2,11.4,52,6.8,53.7,21.2z"/>
	<path class="st3" d="M30.6,21.5c0,0,6.3-2.7,6.3-9.3C36.9,12.2,30.3,13,30.6,21.5z"/>
</g>
</svg>
