<svg width="100" height="100" viewBox="0 0 100 100" fill="none" xmlns="http://www.w3.org/2000/svg">
<g clip-path="url(#clip0_2119_2948)">
<path d="M50 100C77.6142 100 100 77.6142 100 50C100 22.3858 77.6142 0 50 0C22.3858 0 0 22.3858 0 50C0 77.6142 22.3858 100 50 100Z" fill="#E5F3F6"/>
<mask id="mask0_2119_2948" style="mask-type:luminance" maskUnits="userSpaceOnUse" x="0" y="0" width="100" height="100">
<path d="M50 100C77.6142 100 100 77.6142 100 50C100 22.3858 77.6142 0 50 0C22.3858 0 0 22.3858 0 50C0 77.6142 22.3858 100 50 100Z" fill="white"/>
</mask>
<g mask="url(#mask0_2119_2948)">
<path d="M15.9481 34.6899C15.9481 34.6899 14.1021 45.2371 1.41216 52.8959C-12.1175 61.0615 -4.40797 87.0062 19.2852 87.5707C45.0197 88.1932 58.1004 56.0377 43.2246 29.7819L15.9481 34.6899Z" fill="#1E0B02"/>
<path d="M58.6867 79.8374C57.3623 76.3047 53.3084 71.6644 45.4614 70.4337L30.8313 67.5601L16.2014 70.4337C8.35428 71.6644 4.30044 76.3047 2.97571 79.8374L-0.0935974 93.6782H13.3275L14.3047 94.7928L30.5924 98L47.336 93.6782H61.7417L58.6725 79.8374H58.6867Z" fill="#7E6CFB"/>
<path d="M15.7453 70.5808L31.6132 67.3664L46.417 70.5375L46.091 70.7764C37.0424 77.2841 24.8737 76.9872 15.7526 70.5879L15.7453 70.5808Z" fill="#E0A78F"/>
<path d="M22.9192 47.1113C23.0133 49.4712 21.1674 51.462 18.8074 51.556C16.4475 51.6502 14.4568 49.8042 14.3627 47.4443C14.2686 45.0844 16.1145 43.0937 18.4745 42.9996C20.8344 42.9055 22.8251 44.7514 22.9192 47.1113Z" fill="#E0A78F"/>
<path d="M16.2015 46.7067C16.2015 46.7067 17.8954 45.8597 19.5459 48.7987" stroke="#B9635E" stroke-width="0.314108" stroke-linecap="round" stroke-linejoin="round"/>
<path d="M38.5553 47.0744C38.5772 49.4415 40.517 51.3382 42.8843 51.3092C45.2515 51.2875 47.148 49.3474 47.119 46.9803C47.0971 44.6131 45.1573 42.7165 42.79 42.7455C40.4228 42.7672 38.5263 44.7073 38.5553 47.0744Z" fill="#E0A78F"/>
<path d="M45.2372 46.3366C45.2372 46.3366 43.5068 45.5765 41.9938 48.5952" stroke="#B9635E" stroke-width="0.314108" stroke-linecap="round" stroke-linejoin="round"/>
<path d="M30.6499 50.493C38.7813 50.4093 45.31 44.1871 45.2315 36.5953C45.1534 29.0036 38.4982 22.9171 30.3668 23.0009C22.2354 23.0846 15.7069 29.3068 15.7851 36.8986C15.8633 44.4903 22.5185 50.5768 30.6499 50.493Z" fill="#1E0B02"/>
<path d="M34.9578 55.6617C34.9578 55.6617 33.1262 57.3846 31.4396 57.8189C29.7529 58.2533 28.0951 56.9937 28.0734 56.9792C28.0517 56.9647 26.0827 55.5169 26.0827 55.5169L25.4384 69.6185L25.6628 69.8502C28.5657 72.9052 32.6919 72.9052 35.5513 69.8502L35.971 69.4014L34.9578 55.6617Z" fill="#E0A78F"/>
<path d="M24.7289 53.6635C24.7289 53.6635 27.1902 61.8724 31.425 61.7494C34.9069 61.648 35.7973 53.9603 35.7973 53.9603L24.7217 53.6635H24.7289Z" fill="#1E0B02"/>
<path d="M42.2108 39.0315C42.2836 43.6644 41.6535 47.6676 41.0091 50.5197C40.3795 53.3067 38.5048 55.2757 35.8406 56.8828L35.3557 57.1723C32.5398 58.8663 28.8696 58.9604 25.9523 57.4185C23.0133 55.8548 20.9429 53.77 20.2697 50.802C19.0463 45.4018 18.8291 39.4006 18.8291 39.4006C18.8291 39.4006 17.7216 26.8845 30.3319 26.9134C42.9423 26.9496 42.2037 39.0387 42.2037 39.0387L42.2108 39.0315Z" fill="#E0A78F"/>
<path d="M29.5718 45.5653L29.5936 47.3751L30.8314 47.3679" stroke="#B9635E" stroke-width="0.314108" stroke-linecap="round" stroke-linejoin="round"/>
<path d="M21.2542 39.151L27.9141 38.4777C27.9141 38.4777 27.2988 36.7549 24.6059 37.0662C21.8478 37.3846 21.2542 39.151 21.2542 39.151Z" fill="#B9635E"/>
<path d="M39.8222 38.9513L33.1479 38.4157C33.1479 38.4157 33.727 36.6856 36.427 36.9317C39.1926 37.1923 39.8222 38.9441 39.8222 38.9441V38.9513Z" fill="#B9635E"/>
<path d="M26.1622 43.1453C26.1622 43.71 25.7134 44.1733 25.156 44.1733C24.5986 44.1733 24.1281 43.7244 24.1281 43.167C24.1281 42.6024 24.5768 42.1391 25.1342 42.1391C25.6989 42.1391 26.1622 42.5879 26.1622 43.1453Z" fill="#1E0B02"/>
<path d="M36.1738 43.0449C36.1738 43.6096 35.725 44.0728 35.1672 44.0728C34.6028 44.0728 34.1395 43.6241 34.1395 43.0667C34.1395 42.502 34.5883 42.0387 35.1458 42.0387C35.7103 42.0387 36.1738 42.4875 36.1738 43.0449Z" fill="#1E0B02"/>
<path d="M26.4953 49.9822C26.4953 49.9822 29.3474 51.4951 33.9008 49.9026" stroke="black" stroke-width="0.314108" stroke-linecap="round" stroke-linejoin="round"/>
<path d="M42.1823 36.1811C42.1823 36.1811 23.6286 37.0642 24.3019 26.1768C24.3019 26.1768 40.4304 21.428 42.1823 36.1811Z" fill="#1E0B02"/>
<path d="M18.525 36.4338C18.525 36.4338 25.0184 33.6396 24.946 26.958C24.946 26.958 18.2717 27.7977 18.525 36.4338Z" fill="#1E0B02"/>
<path d="M106.206 100H32.7936C36.1786 84.8047 45.2635 81.7696 45.2635 81.7696L62.7738 73.5797L69.4091 73.5192H69.5908L76.2329 73.5797L93.7432 81.7696C93.7432 81.7696 102.821 84.8047 106.206 100Z" fill="#3E8F9C"/>
<path d="M73.5142 29.9318C73.5142 29.9318 79.6246 27.2064 81.7915 32.3545C83.8777 37.3142 75.5936 42.0316 75.5936 42.0316L73.5142 29.9251V29.9318Z" fill="#1E0B02"/>
<path d="M62.0874 50.4772C62.1547 52.7652 60.3512 54.6764 58.0631 54.737C55.7751 54.7976 53.8639 53.0008 53.8033 50.7127C53.7427 48.4247 55.5395 46.5135 57.8276 46.4529C60.1156 46.3923 62.0268 48.1891 62.0874 50.4772Z" fill="#C67D69"/>
<path d="M55.5866 50.0128C55.5866 50.0128 57.2354 49.212 58.8101 52.0721" stroke="#A8523F" stroke-width="0.570734" stroke-linecap="round" stroke-linejoin="round"/>
<path d="M81.3676 54.737C83.657 54.737 85.513 52.881 85.513 50.5916C85.513 48.3021 83.657 46.4462 81.3676 46.4462C79.0781 46.4462 77.2222 48.3021 77.2222 50.5916C77.2222 52.881 79.0781 54.737 81.3676 54.737Z" fill="#C67D69"/>
<path d="M83.7027 49.9455C83.7027 49.9455 82.0338 49.1918 80.5398 52.099" stroke="#A8523F" stroke-width="0.570734" stroke-linecap="round" stroke-linejoin="round"/>
<path d="M74.9745 60.1475C74.9745 60.1475 72.6393 61.7963 70.5061 62.2068C68.3728 62.6173 66.3068 61.379 66.2799 61.3656C66.253 61.3521 63.79 59.9322 63.79 59.9322L62.7738 73.5797L63.0497 73.8085C66.6635 76.7897 71.8654 76.8234 75.5196 73.896L76.0512 73.4653L74.9745 60.1543V60.1475Z" fill="#C67D69"/>
<path d="M62.7738 58.4921C62.7738 58.4921 65.0955 66.0965 70.4455 66.0157C74.8399 65.9484 75.5465 58.4921 75.5465 58.4921H62.7738Z" fill="#1E0B02"/>
<path d="M80.8494 43.3775C80.8763 48.0613 80.2235 52.1125 79.5708 54.986C78.9315 57.7989 77.101 59.7707 74.5034 61.3656L74.0323 61.655C71.2867 63.3441 67.7335 63.3979 64.9273 61.803C62.1008 60.1947 60.1156 58.0614 59.4898 55.0466C58.3592 49.5687 58.2044 43.4919 58.2044 43.4919C58.2044 43.4919 56.6162 30.8134 68.8237 30.9816C81.0378 31.1499 80.8427 43.3775 80.8427 43.3775H80.8494Z" fill="#C67D69"/>
<path d="M64.261 48.0815C64.8074 48.0815 65.2502 47.6386 65.2502 47.0922C65.2502 46.5459 64.8074 46.103 64.261 46.103C63.7147 46.103 63.2718 46.5459 63.2718 47.0922C63.2718 47.6386 63.7147 48.0815 64.261 48.0815Z" fill="#1E0B02"/>
<path d="M73.9583 48.0815C74.5046 48.0815 74.9475 47.6386 74.9475 47.0922C74.9475 46.5459 74.5046 46.103 73.9583 46.103C73.412 46.103 72.9691 46.5459 72.9691 47.0922C72.9691 47.6386 73.412 48.0815 73.9583 48.0815Z" fill="#1E0B02"/>
<path d="M68.218 48.5391V51.2645H69.9744" stroke="#A8523F" stroke-width="0.570734" stroke-linecap="round" stroke-linejoin="round"/>
<path d="M66.004 53.5189H72.3702C72.3702 53.5189 72.0673 55.4705 69.0929 55.4705C66.1184 55.4705 66.004 53.5189 66.004 53.5189Z" fill="white"/>
<path d="M58.6284 49.4879C58.6284 49.4879 60.4386 35.7798 59.5503 33.5187C59.5503 33.5187 53.3995 38.6062 58.6284 49.4879Z" fill="#1E0B02"/>
<path d="M80.3918 49.3803C80.3918 49.3803 78.3594 36.2845 78.9247 32.5227C78.9247 32.5227 84.8669 37.7852 80.3918 49.3803Z" fill="#1E0B02"/>
<path d="M78.494 31.5873L72.8614 30.7394L72.3634 29.7636L69.3889 30.2144L66.4145 29.7636L65.9165 30.7394L60.2906 31.5873L59.5369 34.6021L59.7186 38.0746C59.7186 38.0746 60.6069 34.1378 63.7092 34.9184C64.4427 35.1068 65.3176 35.4097 66.3405 35.6183C67.296 35.8269 68.2113 35.9211 69.0659 35.9346C69.1669 35.9346 69.2745 35.9346 69.3755 35.9346C69.4764 35.9346 69.5841 35.9346 69.685 35.9346C70.5464 35.9211 71.4549 35.8269 72.4105 35.6183C73.4334 35.4097 74.3284 35.1674 75.0418 34.9184C77.9153 33.9157 78.9786 37.8929 78.9786 37.8929L79.2208 34.6021L78.4738 31.5873H78.494Z" fill="#1E0B02"/>
<path d="M78.3796 35.0126C78.3796 35.0126 74.7188 38.2832 70.0282 35.7663C70.0282 35.7663 58.0967 43.1218 54.7252 35.1136C51.919 28.4379 63.5746 19.3866 75.6003 29.5886L78.3796 35.0059V35.0126Z" fill="#1E0B02"/>
<path d="M62.7738 73.5797L58.8639 75.3765C58.8639 75.3765 58.8235 81.9379 69.4495 81.5947C80.3514 81.2447 80.2841 75.4775 80.2841 75.4775L76.0512 73.4653L62.7738 73.5797Z" fill="#C67D69"/>
</g>
</g>
<defs>
<clipPath id="clip0_2119_2948">
<rect width="100" height="100" fill="white"/>
</clipPath>
</defs>
</svg>
