<svg width="100" height="100" viewBox="0 0 100 100" fill="none" xmlns="http://www.w3.org/2000/svg">
<g clip-path="url(#clip0_2119_2742)">
<path d="M50 100C77.6142 100 100 77.6142 100 50C100 22.3858 77.6142 0 50 0C22.3858 0 0 22.3858 0 50C0 77.6142 22.3858 100 50 100Z" fill="#3E8F9C"/>
<mask id="mask0_2119_2742" style="mask-type:luminance" maskUnits="userSpaceOnUse" x="0" y="0" width="100" height="100">
<path d="M50 100C77.6142 100 100 77.6142 100 50C100 22.3858 77.6142 0 50 0C22.3858 0 0 22.3858 0 50C0 77.6142 22.3858 100 50 100Z" fill="white"/>
</mask>
<g mask="url(#mask0_2119_2742)">
<path d="M15.9481 34.6899C15.9481 34.6899 14.1021 45.2371 1.41217 52.8959C-12.1175 61.0615 -4.40796 87.0062 19.2852 87.5707C45.0197 88.1932 58.1004 56.0377 43.2246 29.7819L15.9481 34.6899Z" fill="#1E0B02"/>
<path d="M58.6867 79.8374C57.3623 76.3047 53.3084 71.6644 45.4614 70.4337L30.8313 67.5601L16.2014 70.4337C8.35429 71.6644 4.30044 76.3047 2.97572 79.8374L-0.0935898 93.6782H13.3275L14.3047 94.7928L30.5924 98L47.336 93.6782H61.7417L58.6725 79.8374H58.6867Z" fill="#9C93E1"/>
<path d="M15.7453 70.5808L31.6132 67.3664L46.417 70.5375L46.091 70.7764C37.0424 77.2841 24.8737 76.9872 15.7526 70.5879L15.7453 70.5808Z" fill="#E0A78F"/>
<path d="M22.9192 47.1113C23.0133 49.4712 21.1674 51.462 18.8075 51.556C16.4476 51.6502 14.4568 49.8042 14.3627 47.4443C14.2686 45.0844 16.1145 43.0937 18.4745 42.9996C20.8344 42.9055 22.8251 44.7514 22.9192 47.1113Z" fill="#E0A78F"/>
<path d="M16.2015 46.7067C16.2015 46.7067 17.8954 45.8597 19.5459 48.7987" stroke="#B9635E" stroke-width="0.314108" stroke-linecap="round" stroke-linejoin="round"/>
<path d="M38.5553 47.0744C38.5772 49.4415 40.517 51.3382 42.8843 51.3092C45.2515 51.2875 47.1481 49.3474 47.119 46.9803C47.0971 44.6131 45.1573 42.7165 42.79 42.7455C40.4228 42.7672 38.5263 44.7073 38.5553 47.0744Z" fill="#E0A78F"/>
<path d="M45.2372 46.3366C45.2372 46.3366 43.5068 45.5765 41.9938 48.5952" stroke="#B9635E" stroke-width="0.314108" stroke-linecap="round" stroke-linejoin="round"/>
<path d="M30.65 50.493C38.7813 50.4093 45.31 44.1871 45.2315 36.5953C45.1535 29.0036 38.4982 22.9171 30.3668 23.0009C22.2354 23.0846 15.7069 29.3068 15.7851 36.8986C15.8633 44.4903 22.5185 50.5768 30.65 50.493Z" fill="#1E0B02"/>
<path d="M34.9578 55.6617C34.9578 55.6617 33.1262 57.3846 31.4396 57.8189C29.7529 58.2533 28.0951 56.9937 28.0734 56.9792C28.0517 56.9647 26.0827 55.5169 26.0827 55.5169L25.4384 69.6185L25.6628 69.8502C28.5657 72.9052 32.6919 72.9052 35.5513 69.8502L35.971 69.4014L34.9578 55.6617Z" fill="#E0A78F"/>
<path d="M24.729 53.6635C24.729 53.6635 27.1902 61.8724 31.425 61.7494C34.9069 61.648 35.7973 53.9603 35.7973 53.9603L24.7217 53.6635H24.729Z" fill="#1E0B02"/>
<path d="M42.2108 39.0315C42.2836 43.6644 41.6535 47.6676 41.0091 50.5197C40.3795 53.3067 38.5048 55.2757 35.8406 56.8828L35.3557 57.1723C32.5398 58.8663 28.8696 58.9604 25.9523 57.4185C23.0133 55.8548 20.9429 53.77 20.2697 50.802C19.0463 45.4018 18.8291 39.4006 18.8291 39.4006C18.8291 39.4006 17.7216 26.8845 30.3319 26.9134C42.9423 26.9496 42.2037 39.0387 42.2037 39.0387L42.2108 39.0315Z" fill="#E0A78F"/>
<path d="M29.5718 45.5653L29.5936 47.3751L30.8314 47.3679" stroke="#B9635E" stroke-width="0.314108" stroke-linecap="round" stroke-linejoin="round"/>
<path d="M21.2542 39.151L27.9141 38.4777C27.9141 38.4777 27.2988 36.7549 24.6059 37.0662C21.8478 37.3846 21.2542 39.151 21.2542 39.151Z" fill="#B9635E"/>
<path d="M39.8222 38.9513L33.1479 38.4157C33.1479 38.4157 33.727 36.6856 36.427 36.9317C39.1926 37.1923 39.8222 38.9441 39.8222 38.9441V38.9513Z" fill="#B9635E"/>
<path d="M26.1622 43.1453C26.1622 43.71 25.7134 44.1733 25.156 44.1733C24.5986 44.1733 24.1281 43.7244 24.1281 43.167C24.1281 42.6024 24.5769 42.1391 25.1343 42.1391C25.6989 42.1391 26.1622 42.5879 26.1622 43.1453Z" fill="#1E0B02"/>
<path d="M36.1738 43.0449C36.1738 43.6096 35.725 44.0728 35.1672 44.0728C34.6028 44.0728 34.1395 43.6241 34.1395 43.0667C34.1395 42.502 34.5883 42.0387 35.1458 42.0387C35.7103 42.0387 36.1738 42.4875 36.1738 43.0449Z" fill="#1E0B02"/>
<path d="M26.4953 49.9822C26.4953 49.9822 29.3474 51.4951 33.9008 49.9026" stroke="black" stroke-width="0.314108" stroke-linecap="round" stroke-linejoin="round"/>
<path d="M42.1823 36.1811C42.1823 36.1811 23.6286 37.0642 24.3019 26.1768C24.3019 26.1768 40.4304 21.428 42.1823 36.1811Z" fill="#1E0B02"/>
<path d="M18.525 36.4338C18.525 36.4338 25.0184 33.6396 24.946 26.958C24.946 26.958 18.2717 27.7977 18.525 36.4338Z" fill="#1E0B02"/>
<path d="M106 99.5783H33C36.3659 84.4684 45.3998 81.4504 45.3998 81.4504L62.8116 73.3066L69.4097 73.2464H69.5903L76.1951 73.3066L93.6069 81.4504C93.6069 81.4504 102.634 84.4684 106 99.5783Z" fill="#E5F3F6"/>
<path d="M73.4916 29.9041C73.4916 29.9041 79.5677 27.1939 81.7224 32.3131C83.7969 37.2449 75.5593 41.9358 75.5593 41.9358L73.4916 29.8974V29.9041Z" fill="#1E0B02"/>
<path d="M62.1291 50.3339C62.196 52.6091 60.4026 54.5096 58.1274 54.5698C55.8522 54.63 53.9518 52.8433 53.8916 50.5681C53.8313 48.293 55.618 46.3925 57.8932 46.3323C60.1684 46.272 62.0688 48.0587 62.1291 50.3339Z" fill="#C67D69"/>
<path d="M55.6649 49.8722C55.6649 49.8722 57.3043 49.0759 58.8702 51.9199" stroke="#A8523F" stroke-width="0.567525" stroke-linecap="round" stroke-linejoin="round"/>
<path d="M81.3008 54.5698C83.5774 54.5698 85.4229 52.7243 85.4229 50.4477C85.4229 48.1711 83.5774 46.3256 81.3008 46.3256C79.0243 46.3256 77.1787 48.1711 77.1787 50.4477C77.1787 52.7243 79.0243 54.5698 81.3008 54.5698Z" fill="#C67D69"/>
<path d="M83.6229 49.8053C83.6229 49.8053 81.9633 49.0558 80.4778 51.9466" stroke="#A8523F" stroke-width="0.567525" stroke-linecap="round" stroke-linejoin="round"/>
<path d="M74.9437 59.9499C74.9437 59.9499 72.6217 61.5894 70.5004 61.9976C68.3791 62.4058 66.3248 61.1745 66.298 61.1611C66.2712 61.1477 63.8221 59.7358 63.8221 59.7358L62.8116 73.3066L63.086 73.5341C66.6794 76.4985 71.8521 76.532 75.4857 73.6211L76.0144 73.1928L74.9437 59.9566V59.9499Z" fill="#C67D69"/>
<path d="M62.8116 58.3038C62.8116 58.3038 65.1203 65.8654 70.4402 65.7851C74.8099 65.7182 75.5125 58.3038 75.5125 58.3038H62.8116Z" fill="#1E0B02"/>
<path d="M80.7856 43.2742C80.8124 47.9316 80.1633 51.96 79.5142 54.8174C78.8785 57.6145 77.0583 59.5752 74.4753 61.1611L74.0069 61.4489C71.2767 63.1285 67.7434 63.182 64.953 61.5961C62.1425 59.9968 60.1684 57.8755 59.5461 54.8776C58.4219 49.4305 58.2679 43.3879 58.2679 43.3879C58.2679 43.3879 56.6887 30.7807 68.8275 30.948C80.973 31.1153 80.7789 43.2742 80.7789 43.2742H80.7856Z" fill="#C67D69"/>
<path d="M64.2905 47.9517C64.8338 47.9517 65.2742 47.5113 65.2742 46.968C65.2742 46.4247 64.8338 45.9843 64.2905 45.9843C63.7472 45.9843 63.3068 46.4247 63.3068 46.968C63.3068 47.5113 63.7472 47.9517 64.2905 47.9517Z" fill="#1E0B02"/>
<path d="M73.9333 47.9517C74.4765 47.9517 74.917 47.5113 74.917 46.968C74.917 46.4247 74.4765 45.9843 73.9333 45.9843C73.39 45.9843 72.9496 46.4247 72.9496 46.968C72.9496 47.5113 73.39 47.9517 73.9333 47.9517Z" fill="#1E0B02"/>
<path d="M68.2252 48.4067V51.1169H69.9718" stroke="#A8523F" stroke-width="0.567525" stroke-linecap="round" stroke-linejoin="round"/>
<path d="M66.0237 53.3586H72.354C72.354 53.3586 72.0529 55.2992 69.0952 55.2992C66.1374 55.2992 66.0237 53.3586 66.0237 53.3586Z" fill="white"/>
<path d="M58.6895 49.3502C58.6895 49.3502 60.4896 35.7192 59.6063 33.4708C59.6063 33.4708 53.4901 38.5297 58.6895 49.3502Z" fill="#1E0B02"/>
<path d="M80.3306 49.2432C80.3306 49.2432 78.3097 36.2211 78.8718 32.4804C78.8718 32.4804 84.7806 37.7133 80.3306 49.2432Z" fill="#1E0B02"/>
<path d="M78.4435 31.5502L72.8425 30.7071L72.3473 29.7368L69.3896 30.1851L66.4318 29.7368L65.9366 30.7071L60.3424 31.5502L59.5929 34.5481L59.7736 38.0011C59.7736 38.0011 60.6569 34.0864 63.7418 34.8626C64.4712 35.05 65.3411 35.3511 66.3582 35.5586C67.3085 35.766 68.2185 35.8597 69.0684 35.8731C69.1688 35.8731 69.2758 35.8731 69.3762 35.8731C69.4766 35.8731 69.5836 35.8731 69.684 35.8731C70.5406 35.8597 71.4439 35.766 72.3942 35.5586C73.4113 35.3511 74.3013 35.1102 75.0106 34.8626C77.868 33.8656 78.9253 37.8204 78.9253 37.8204L79.1662 34.5481L78.4234 31.5502H78.4435Z" fill="#1E0B02"/>
<path d="M78.3297 34.9563C78.3297 34.9563 74.6894 38.2085 70.0253 35.7058C70.0253 35.7058 58.1609 43.0199 54.8083 35.0567C52.0179 28.4185 63.6079 19.4182 75.566 29.5628L78.3297 34.9496V34.9563Z" fill="#1E0B02"/>
<path d="M62.8116 73.3066L58.9237 75.0933C58.9237 75.0933 58.8836 81.6177 69.4498 81.2764C80.2904 80.9285 80.2235 75.1937 80.2235 75.1937L76.0144 73.1928L62.8116 73.3066Z" fill="#C67D69"/>
</g>
</g>
<defs>
<clipPath id="clip0_2119_2742">
<rect width="100" height="100" fill="white"/>
</clipPath>
</defs>
</svg>
