<?xml version="1.0" encoding="UTF-8"?>
<svg id="Layer_2" data-name="Layer 2" xmlns="http://www.w3.org/2000/svg" viewBox="0 0 287.43 296.34">
  <defs>
    <style>
      .cls-1 {
        fill: #fff;
      }

      .cls-2 {
        opacity: .2;
      }

      .cls-2, .cls-3, .cls-4, .cls-5 {
        fill: none;
      }

      .cls-3 {
        opacity: .4;
      }

      .cls-6 {
        fill: #fafafa;
      }

      .cls-7 {
        fill: #455a64;
      }

      .cls-8 {
        fill: #eb996e;
      }

      .cls-9 {
        fill: #ffbe9d;
      }

      .cls-4 {
        opacity: .5;
      }

      .cls-10 {
        fill: #ebebeb;
      }

      .cls-5 {
        opacity: .3;
      }

      .cls-11 {
        fill: #3e8f9c;
      }

      .cls-12 {
        fill: #263238;
      }
    </style>
  </defs>
  <g id="Layer_1-2" data-name="Layer 1">
    <g id="Device">
      <g>
        <g>
          <path class="cls-7" d="m176.09,289.62H11.55c-6.38,0-11.55-5.17-11.55-11.55V11.55C0,5.17,5.17,0,11.55,0h164.54c6.38,0,11.55,5.17,11.55,11.55v266.52c0,6.38-5.17,11.55-11.55,11.55Z"/>
          <path class="cls-12" d="m99.57,276.16c0,4.28-3.22,7.74-7.2,7.74s-7.2-3.47-7.2-7.74,3.22-7.74,7.2-7.74,7.2,3.47,7.2,7.74Z"/>
          <path class="cls-12" d="m120.86,11.54h-54.08c-.67,0-1.21-.54-1.21-1.21v-.77c0-.67.54-1.21,1.21-1.21h54.08c.67,0,1.21.54,1.21,1.21v.77c0,.67-.54,1.21-1.21,1.21Z"/>
        </g>
        <rect class="cls-12" x="6.4" y="16.62" width="175.8" height="244.35"/>
        <g>
          <path class="cls-1" d="m136.56,235.75s.22-.03.65-.06c.43,0,1.06-.1,1.88-.25.81-.2,1.81-.46,2.9-1.01,1.09-.52,2.3-1.29,3.41-2.41,1.12-1.11,2.17-2.56,2.86-4.35.7-1.78,1.01-3.89.81-6.12-.21-2.21-1.03-4.56-2.6-6.55-1.54-2-3.82-3.63-6.52-4.38-.67-.2-1.37-.31-2.08-.4-.71-.04-1.44-.08-2.19-.06-1.49,0-3.01,0-4.56,0-3.1,0-6.33.01-9.67.02-6.69,0-13.83.02-21.35.02-15.04,0-31.56.01-48.91.02-2.12.02-4.23.55-6.07,1.58-1.81,1.04-3.4,2.49-4.48,4.26-1.1,1.75-1.77,3.76-1.87,5.8-.14,2.05.15,4.09.91,5.95.77,1.85,2,3.48,3.49,4.76,1.5,1.27,3.3,2.15,5.18,2.59,1.87.48,3.83.3,5.76.34,1.93,0,3.83,0,5.71,0,15.03.02,28.57.04,39.95.06,11.36.04,20.55.06,26.93.08,3.17.02,5.63.04,7.32.05.82.01,1.46.02,1.9.03.43.01.65.03.65.03,0,0-.22.02-.65.03-.45,0-1.08.02-1.9.03-1.69.01-4.15.03-7.32.05-6.38.02-15.57.05-26.93.08-11.38.02-24.91.04-39.95.06-1.88,0-3.78,0-5.71,0-.96,0-1.93,0-2.9,0-.49-.03-.99-.03-1.49-.09-.49-.09-.99-.12-1.48-.26-1.95-.46-3.82-1.37-5.39-2.69-1.55-1.33-2.83-3.02-3.64-4.95-.8-1.93-1.1-4.08-.95-6.18.11-2.12.8-4.22,1.95-6.04,1.12-1.85,2.77-3.36,4.67-4.44,1.91-1.07,4.11-1.62,6.32-1.64,17.35,0,33.88.01,48.91.02,7.52,0,14.66.02,21.35.02,3.34,0,6.57.01,9.67.02,1.55,0,3.07,0,4.56,0,.74-.01,1.49.03,2.23.08.73.1,1.45.22,2.14.42,2.78.78,5.12,2.47,6.69,4.53,1.6,2.05,2.42,4.46,2.62,6.73.19,2.27-.14,4.43-.87,6.24-.71,1.82-1.8,3.29-2.94,4.41-1.14,1.13-2.37,1.89-3.49,2.4-1.11.54-2.13.79-2.95.97-.83.13-1.47.21-1.9.2-.43.01-.65,0-.65,0Z"/>
          <g>
            <path class="cls-1" d="m71.75,221.17l-.62.77c-.46-.49-1.12-.8-1.76-.8-1.26,0-2.25.97-2.25,2.21s.99,2.22,2.25,2.22c.63,0,1.28-.29,1.76-.75l.63.7c-.64.63-1.55,1.04-2.44,1.04-1.85,0-3.28-1.4-3.28-3.2s1.45-3.17,3.31-3.17c.89,0,1.78.37,2.39.97Z"/>
            <path class="cls-1" d="m78.86,223.37c0,1.8-1.46,3.2-3.34,3.2s-3.34-1.4-3.34-3.2,1.46-3.18,3.34-3.18c1.88,0,3.34,1.38,3.34,3.18Zm-5.6,0c0,1.25,1.04,2.24,2.27,2.24s2.24-.99,2.24-2.24-1.01-2.22-2.24-2.22c-1.24,0-2.27.97-2.27,2.22Z"/>
            <path class="cls-1" d="m84.41,226.52l-3.36-4.52v4.52h-1.06v-6.3h1.04l3.38,4.53v-4.53h1.04v6.3h-1.04Z"/>
            <path class="cls-1" d="m88.18,221.18v1.82h2.86v.95h-2.86v2.58h-1.06v-6.3h4.23v.95h-3.17Z"/>
            <path class="cls-1" d="m92.3,226.52v-6.3h1.06v6.3h-1.06Z"/>
            <path class="cls-1" d="m97.86,224.62c-.09,0-.19,0-.29,0h-1.49v1.9h-1.06v-6.3h2.56c1.61,0,2.54.78,2.54,2.15,0,1.01-.47,1.72-1.31,2.04l1.41,2.11h-1.21l-1.15-1.91Zm-.29-.95c.97,0,1.53-.41,1.53-1.27s-.56-1.23-1.53-1.23h-1.49v2.49h1.49Z"/>
            <path class="cls-1" d="m107.2,226.52v-4.71s-2,4.05-2,4.05h-.69l-1.99-4.05v4.71h-1v-6.3h1.26l2.08,4.19,2.07-4.19h1.25v6.3h-.98Z"/>
            <path class="cls-1" d="m110.91,221.18v1.7h3.08v.95h-3.08v1.74h3.55v.95h-4.61v-6.3h4.5v.95h-3.44Z"/>
            <path class="cls-1" d="m118.33,220.22c1.89,0,3.26,1.32,3.26,3.15s-1.38,3.15-3.29,3.15h-2.56v-6.3h2.58Zm-1.52,5.35h1.55c1.22,0,2.16-.91,2.16-2.19s-.96-2.21-2.21-2.21h-1.5v4.39h0Z"/>
          </g>
        </g>
      </g>
    </g>
    <g id="Envelope">
      <g>
        <g>
          <g>
            <polygon class="cls-11" points="26.37 101.81 159.53 100.84 163.24 191.37 25.36 190.09 26.37 101.81"/>
            <polyline class="cls-11" points="26.37 101.81 93.97 47.11 159.53 100.84"/>
            <g class="cls-5">
              <polyline points="26.37 101.81 93.97 47.11 159.53 100.84"/>
            </g>
            <path class="cls-12" d="m25.36,190.09c-.17-.16,10.49-11.8,23.81-25.99,13.32-14.2,24.24-25.59,24.41-25.43s-10.49,11.79-23.81,26c-13.31,14.2-24.24,25.59-24.41,25.43Z"/>
            <path class="cls-12" d="m163.24,191.37c-.17.15-10.55-11.25-23.18-25.47-12.64-14.22-22.74-25.87-22.57-26.02s10.55,11.25,23.19,25.47c12.63,14.22,22.74,25.87,22.57,26.02Z"/>
            <g class="cls-4">
              <polyline points="159.53 100.84 92.66 154.26 26.37 101.81"/>
            </g>
          </g>
          <polygon class="cls-10" points="33.07 106.75 32.88 68.02 149.51 65.17 150.78 107.55 92.66 153.56 33.07 106.75"/>
        </g>
        <g>
          <path class="cls-11" d="m94.28,139.64c-1.1,0-2.21-.06-3.32-.19-7.7-.87-14.6-4.69-19.43-10.75-4.83-6.06-7.01-13.64-6.13-21.34,1.8-15.9,16.2-27.37,32.1-25.56,7.7.87,14.6,4.69,19.43,10.75,4.83,6.06,7.01,13.64,6.13,21.34h0c-.87,7.7-4.69,14.6-10.75,19.43-5.19,4.13-11.48,6.32-18.02,6.32Zm-.08-57.03c-14.05,0-26.2,10.58-27.82,24.86-.84,7.43,1.26,14.75,5.92,20.61,4.66,5.85,11.32,9.54,18.76,10.38,7.43.85,14.75-1.26,20.61-5.92,5.85-4.66,9.54-11.32,10.38-18.76h0c.84-7.43-1.26-14.75-5.92-20.61-4.66-5.85-11.32-9.54-18.76-10.38-1.06-.12-2.13-.18-3.17-.18Z"/>
          <polygon class="cls-11" points="74.51 114.65 79.35 108.71 90.7 116.91 109.13 95.18 114.69 100.07 90.98 127.39 74.51 114.65"/>
        </g>
      </g>
    </g>
    <g id="Character">
      <g>
        <path class="cls-12" d="m219.75,153.92c.1.75,1.12,1.1,1.77.71s.89-1.23.79-1.97c-.11-.74-.51-1.41-.89-2.05,1.17.66,2.87-.05,3.21-1.35.35-1.29-.77-2.76-2.11-2.78.94-.19,1.9-.46,2.62-1.09.72-.63,1.14-1.7.74-2.57-.39-.87-1.75-1.21-2.35-.46.49-.32,1-.66,1.33-1.15.33-.49.42-1.19.07-1.66-.41-.55-1.24-.59-1.88-.35s-1.17.71-1.76,1.04c-1.43.78-3.28.71-4.64-.18l-3.73,3.09,6.83,10.77Z"/>
        <path class="cls-12" d="m199.81,137c-2.08.64-3.68,2.61-3.89,4.77-.08.79.04,1.65.56,2.25.62.73,1.7.92,2.63.72s1.75-.75,2.52-1.31c1.08-.8,2.2-1.79,2.35-3.13.15-1.31-.75-2.6-1.96-3.12-1.21-.52-2.64-.36-3.83.22"/>
        <path class="cls-12" d="m203.05,155.46c-.39,1.31-.85,2.62-1.65,3.72s-2.01,1.97-3.37,2.1-2.83-.65-3.25-1.95c-.23.78-.87,1.44-1.66,1.61-.79.17-1.69-.2-2.06-.92-.37-.72-.12-1.72.59-2.11-.8.45-1.8.91-2.59.44-.34-.2-.58-.56-.7-.94-.4-1.26.38-2.57,1.24-3.57s1.89-1.98,2.11-3.29c.17-1.05-.22-2.09-.47-3.11-.29-1.15-.41-2.36-.14-3.51s.94-2.24,1.97-2.82,2.42-.56,3.33.19l.17,1.7,6.5,12.46"/>
        <g>
          <path class="cls-8" d="m218.6,175.28s2.33,24.65.37,27.86-25.96,36.76-25.96,36.76l.06.04c-.47.19-.96.39-1.52.59-.83.3-1.72.45-2.61.46-1.08,0-2.51-.04-3.28-.31-.96-.33-1.83.67-1.3,1.43.52.76,3.15,1.74,6.4,1.43,3.26-.32-.4,3.3-1.71,4.65-1.31,1.34-5.17,5.69-5.08,6.42.14,1.07,1.31,1.12,2.59-.25,1.29-1.39,5.4-5.22,6.07-4.49.67.71-6.1,7.46-6.1,7.46,0,0-1.68,1.21-.93,2.07,1.36,1.56,8.02-6.14,8.64-6.89.43-.52,1.19.24.7.78-.5.55-6.9,6.57-5.54,8.17,1.05,1.23,5.54-6.28,7.56-6.8,2.02-.51-3.98,5.35-2.93,6.48.39.42.74.68,3.7-3.18,1.66-2.17,4.36-6.77,6.45-10.48,3.15-3.41,34.2-37.12,34.43-43.42.25-6.63,1.44-29.07,1.44-29.07l-21.46.28Z"/>
          <g>
            <g>
              <path class="cls-11" d="m181.56,285l-.28-9.15,17.14-.64.56,13.38-1.06.11c-4.72.44-24.03,1.9-27.22,1.06-3.57-.94,10.87-4.76,10.87-4.76Z"/>
              <g class="cls-3">
                <path class="cls-1" d="m174.52,287.12s-5.05,1.66-4.38,2.48c.67.82,20.23.07,28.84-1.01l-.04-.38-22.82,1.06s-.6-2.15-1.6-2.15Z"/>
              </g>
              <path class="cls-12" d="m199.2,288.19s-.1.02-.29.04c-.25.02-.53.05-.84.08-.85.07-1.88.15-3.11.25-2.63.2-6.26.42-10.28.57-4.02.15-7.66.22-10.29.23-1.23,0-2.27,0-3.12-.01-.32,0-.59-.01-.85-.02-.19,0-.3-.01-.3-.02s.1-.02.3-.02c.26,0,.53-.01.85-.02.85-.02,1.89-.03,3.12-.05,2.63-.05,6.27-.13,10.29-.29,4.01-.16,7.65-.35,10.27-.51,1.23-.07,2.27-.14,3.11-.19.31-.02.59-.03.85-.04.19,0,.3-.01.3,0Z"/>
              <path class="cls-12" d="m176.13,289.54c-.06.01-.14-.73-.64-1.46-.49-.74-1.14-1.1-1.11-1.15.01-.05.76.24,1.28,1.04.53.79.52,1.59.46,1.58Z"/>
              <path class="cls-12" d="m181.09,286.78s-.3-.25-.57-.64-.44-.72-.39-.76c.05-.03.3.25.57.64.26.39.44.72.39.76Z"/>
              <path class="cls-12" d="m182.45,285.99s-.31-.13-.62-.38-.52-.5-.49-.54c.04-.04.31.13.62.38.3.25.52.5.49.54Z"/>
              <path class="cls-12" d="m183.27,284.34c0,.06-.4.12-.89.15-.49.02-.9,0-.9-.06s.4-.12.89-.15c.49-.02.9,0,.9.06Z"/>
              <path class="cls-12" d="m183.52,283.19s-.41.26-.99.33c-.58.07-1.05-.04-1.04-.1,0-.06.46-.04,1.01-.11.55-.06.99-.18,1.01-.12Z"/>
              <path class="cls-12" d="m180.45,285.31s-.42.09-1.1.04c-.34-.03-.74-.09-1.18-.21-.22-.07-.44-.12-.68-.25-.11-.07-.24-.17-.29-.33-.05-.16.03-.35.15-.45,1.03-.58,2.11-.03,2.52.5.23.27.33.54.39.72.05.19.05.29.04.3-.04.02-.09-.43-.54-.92-.22-.24-.55-.47-.96-.58-.39-.1-.95-.11-1.31.14-.17.14-.09.34.11.45.19.11.42.17.63.24.42.13.81.21,1.14.25.66.09,1.08.08,1.09.11Z"/>
              <path class="cls-12" d="m180.17,285.37s-.19-.26-.16-.76c.02-.24.1-.54.27-.82.18-.25.42-.6.9-.6.26.02.39.31.36.5-.01.19-.09.36-.17.5-.15.28-.33.51-.49.69-.33.35-.6.49-.61.47-.02-.03.21-.21.5-.57.14-.18.3-.41.44-.68.14-.24.23-.66-.05-.7-.28-.02-.55.27-.71.49-.16.24-.25.51-.28.73-.07.45.05.73.01.74Z"/>
              <path class="cls-12" d="m198.67,283.51s-.49-.03-1.26.09c-.76.11-1.82.47-2.72,1.24-.9.77-1.41,1.77-1.63,2.51-.23.74-.24,1.24-.28,1.24-.01,0-.02-.12-.01-.35,0-.22.05-.54.15-.93.2-.77.7-1.81,1.64-2.62.94-.81,2.05-1.15,2.83-1.23.4-.04.72-.04.94-.01.22.02.34.05.34.07Z"/>
              <path class="cls-12" d="m196.63,276.45c.06,0,.18,1.57.28,3.51.1,1.94.13,3.52.08,3.52-.06,0-.18-1.57-.28-3.51-.1-1.94-.13-3.52-.08-3.52Z"/>
              <path class="cls-12" d="m190.54,287.1c0,.05-1.1.28-2.49.34-1.39.07-2.52-.05-2.51-.11,0-.06,1.12-.03,2.5-.1,1.38-.06,2.49-.2,2.5-.14Z"/>
              <path class="cls-12" d="m193.89,286.97s-.08.24-.19.5c-.11.26-.16.49-.22.49-.06,0-.1-.27.02-.57.12-.3.34-.46.38-.42Z"/>
              <path class="cls-12" d="m195.1,285.35s-.06.22-.23.41c-.17.19-.34.31-.39.27-.04-.04.06-.22.23-.41.17-.19.34-.31.39-.27Z"/>
              <path class="cls-12" d="m196.88,284.56c-.01.06-.24.07-.49.16-.25.09-.42.24-.47.2-.05-.03.09-.28.4-.4.31-.12.57-.02.56.03Z"/>
              <path class="cls-12" d="m198.16,284.17c.02.05-.07.14-.21.2-.14.06-.27.07-.3.01-.02-.05.07-.14.21-.2.14-.06.27-.07.3-.01Z"/>
            </g>
            <g class="cls-5">
              <polygon points="198.63 283.06 181.5 283.42 181.45 281.36 198.73 281.97 198.63 283.06"/>
            </g>
          </g>
          <path class="cls-12" d="m246.09,222.92l-54.18-.74s-15.08,1.44-15.08,21.04l1.91,38.67h23.08l-1.58-37.06c1.3.02,18.77.58,18.77.58l27.07-22.49Z"/>
          <path class="cls-7" d="m178.74,281.89s-.04-.23-.07-.67c-.03-.49-.06-1.13-.11-1.92-.1-1.73-.24-4.13-.41-7.06-.36-5.96-1.03-14.19-1.48-23.3-.16-4.55-.51-8.91.04-12.88.15-.99.31-1.94.6-2.86.29-.91.67-1.76,1.1-2.54.89-1.55,2-2.81,3.14-3.8,1.15-.99,2.33-1.69,3.4-2.23,1.09-.49,2.06-.84,2.88-1.05.4-.1.76-.18,1.08-.26.3-.05.57-.09.81-.12.44-.06.67-.09.67-.07s-.22.08-.65.17c-.23.05-.49.11-.79.17-.32.09-.67.19-1.06.3-.8.23-1.75.6-2.81,1.11-1.04.55-2.18,1.26-3.29,2.24-1.1.98-2.16,2.23-3.01,3.73-.41.76-.77,1.58-1.04,2.46-.26.87-.42,1.83-.56,2.79-.51,3.89-.15,8.24,0,12.79.45,9.1,1.07,17.33,1.33,23.31.14,2.99.21,5.4.24,7.08,0,.79,0,1.43.01,1.92,0,.44-.01.67-.03.67Z"/>
          <g>
            <g>
              <path class="cls-11" d="m282.14,285.02l-9.14.61-1.24-17.1,13.36-1.03.14,1.06c.61,4.7,2.75,23.94,2.02,27.17-.81,3.6-5.14-10.7-5.14-10.7Z"/>
              <g class="cls-3">
                <path class="cls-1" d="m284.51,291.98s1.84,4.99,2.63,4.29c.79-.7-.64-20.22-2.02-28.78l-.38.05,1.86,22.76s-2.12.67-2.09,1.67Z"/>
              </g>
              <path class="cls-12" d="m284.71,267.28s.02.1.05.29c.03.25.07.53.11.84.1.84.22,1.88.36,3.1.29,2.62.64,6.24.93,10.25.3,4.01.49,7.64.59,10.28.04,1.23.07,2.27.1,3.12,0,.32,0,.59.01.85,0,.19,0,.3-.01.3s-.02-.1-.03-.29c-.02-.25-.03-.53-.05-.85-.05-.85-.1-1.89-.17-3.11-.14-2.63-.35-6.26-.65-10.27-.3-4.01-.62-7.63-.87-10.25-.12-1.22-.22-2.26-.3-3.11-.03-.31-.05-.59-.07-.85-.01-.19-.02-.3-.01-.3Z"/>
              <path class="cls-12" d="m286.87,290.29c.01.06-.73.17-1.44.69-.72.51-1.06,1.18-1.11,1.15-.05,0,.22-.77.99-1.32.77-.56,1.57-.57,1.56-.52Z"/>
              <path class="cls-12" d="m283.94,285.43s-.24.31-.62.59-.71.47-.74.42c-.03-.05.24-.31.62-.59.38-.28.71-.47.74-.42Z"/>
              <path class="cls-12" d="m283.11,284.1s-.11.32-.36.63-.48.54-.52.51.11-.32.36-.63.48-.54.52-.51Z"/>
              <path class="cls-12" d="m281.43,283.34c.06,0,.14.39.18.88s.03.9-.03.9c-.06,0-.14-.39-.18-.88-.04-.49-.03-.9.03-.9Z"/>
              <path class="cls-12" d="m280.27,283.12s.28.4.36.97c.09.58,0,1.05-.06,1.04-.06,0-.06-.46-.14-1.01-.08-.55-.21-.98-.16-1Z"/>
              <path class="cls-12" d="m282.49,286.12s.11.42.07,1.1c-.02.34-.07.75-.17,1.19-.06.22-.1.45-.23.69-.07.11-.16.24-.32.3-.16.06-.35-.02-.45-.13-.62-1.01-.11-2.11.41-2.54.26-.23.52-.35.71-.41.18-.06.29-.06.3-.05.02.04-.43.11-.9.57-.23.23-.45.57-.54.98-.09.4-.08.95.18,1.3.14.17.34.08.44-.12.1-.19.16-.43.22-.64.11-.43.18-.82.21-1.15.07-.67.04-1.09.07-1.09Z"/>
              <path class="cls-12" d="m282.57,286.4s-.26.2-.75.18c-.24,0-.54-.08-.83-.24-.26-.18-.61-.4-.63-.87.01-.26.3-.4.48-.38.19,0,.37.08.51.15.29.14.52.31.7.47.36.32.51.58.49.6-.02.02-.21-.2-.58-.48-.18-.14-.42-.29-.69-.41-.24-.13-.67-.21-.7.07,0,.28.29.54.52.69.25.15.51.23.74.26.45.05.73-.07.74-.04Z"/>
              <path class="cls-12" d="m280.06,267.97s-.01.49.14,1.26c.14.76.53,1.8,1.34,2.67.81.87,1.82,1.34,2.56,1.54.75.21,1.25.2,1.24.23,0,.01-.12.03-.35.03s-.55-.03-.94-.12c-.77-.17-1.84-.64-2.68-1.55-.84-.91-1.22-2-1.33-2.79-.06-.4-.06-.72-.05-.94.02-.22.04-.34.05-.34Z"/>
              <path class="cls-12" d="m273.07,270.27c0-.06,1.56-.24,3.5-.41,1.94-.17,3.52-.26,3.52-.2,0,.06-1.56.24-3.5.41-1.94.17-3.51.26-3.52.2Z"/>
              <path class="cls-12" d="m283.93,275.98c.05-.01.32,1.09.43,2.48.12,1.39.04,2.52-.02,2.52-.06,0-.07-1.12-.19-2.5-.11-1.38-.28-2.48-.22-2.49Z"/>
              <path class="cls-12" d="m283.68,272.63s.24.07.51.17c.26.1.5.14.5.2,0,.05-.26.11-.57,0-.31-.11-.48-.33-.44-.36Z"/>
              <path class="cls-12" d="m282.01,271.48s.22.05.42.22c.19.16.32.33.28.38s-.22-.05-.42-.22c-.19-.16-.32-.33-.28-.38Z"/>
              <path class="cls-12" d="m281.16,269.72c.06,0,.07.23.18.48.1.25.25.42.22.46-.03.05-.28-.08-.41-.38-.13-.31-.04-.58.01-.56Z"/>
              <path class="cls-12" d="m280.73,268.46c.05-.02.15.07.21.2s.08.27.02.29c-.05.02-.15-.07-.21-.2-.07-.14-.08-.27-.02-.29Z"/>
            </g>
            <g class="cls-5">
              <polygon points="279.6 268.03 280.57 285.13 278.51 285.26 278.51 267.97 279.6 268.03"/>
            </g>
          </g>
          <g>
            <g>
              <path class="cls-12" d="m226.12,268.1v.02s46.18-25.21,51.41-33.41c5.39-8.46,1.55-16.4,1.55-16.4l-38.85,5.18-27.63,27.67h0c-6.02,4.77-16.88,14.74-16.88,24.57,0,16.82,21.75,14.07,37.36,14.11,21.35.05,45.29.15,45.29.15l.06-22.93-52.31,1.05Z"/>
              <path class="cls-7" d="m215.15,272.9c.05.11,2.6-.89,5.69-2.23,3.09-1.35,5.56-2.53,5.51-2.64-.05-.11-2.6.89-5.69,2.23-3.09,1.35-5.56,2.53-5.51,2.64Z"/>
              <path class="cls-7" d="m218.78,267.28c0,.12,1.8.28,4.04.36,2.23.07,4.05.03,4.05-.09,0-.12-1.8-.28-4.04-.36-2.23-.07-4.05-.03-4.05.09Z"/>
            </g>
            <path class="cls-7" d="m237.17,227.36s-.14.18-.43.48c-.34.34-.78.77-1.32,1.3-1.21,1.16-2.87,2.77-4.91,4.73-4.22,3.99-9.98,9.44-16.33,15.45-3.19,3.02-6.29,5.83-8.98,8.51-2.68,2.68-4.88,5.31-6.36,7.76-1.52,2.43-2.25,4.65-2.62,6.2-.08.38-.16.73-.23,1.04-.04.29-.08.55-.11.77-.06.42-.1.64-.12.64s-.01-.22.02-.65c.02-.23.04-.49.06-.79.04-.31.11-.66.18-1.06.31-1.58,1.01-3.86,2.51-6.35,1.46-2.51,3.66-5.19,6.34-7.91,2.69-2.71,5.78-5.52,8.97-8.55,6.4-5.97,12.19-11.38,16.44-15.34,2.08-1.91,3.79-3.48,5.02-4.61.57-.51,1.03-.92,1.38-1.23.32-.28.5-.42.51-.41Z"/>
          </g>
          <g>
            <g>
              <g>
                <path class="cls-9" d="m223.3,177.27h0c-4.13,2.23-9.28.39-11.07-3.95-.97-2.36-1.75-4.28-1.75-4.28,0,0-5.96,2.11-9-3.35-1.71-3.07-4.11-8.32-5.89-12.32-1.51-3.39-1.14-7.31.96-10.36h0c4.89-6.17,8.77-5.14,16.54-3.88l1.15.19,12.51,27.75c1.71,3.78.2,8.24-3.45,10.21Z"/>
                <g>
                  <path class="cls-12" d="m199.4,156.07c.17-.47-.08-.99-.55-1.16s-.99.08-1.16.55.08.99.55,1.16c.47.17.99-.08,1.16-.55Z"/>
                  <path class="cls-12" d="m196.94,155.16c.14.05.45-.66,1.21-1.07.75-.42,1.52-.32,1.55-.46.02-.07-.16-.19-.5-.24-.33-.05-.83-.01-1.3.25-.47.26-.77.66-.9.97-.14.32-.12.53-.06.55Z"/>
                </g>
                <g>
                  <path class="cls-12" d="m205.97,151.61c-.25.43-.1.99.33,1.24.43.25.99.1,1.24-.33.25-.43.1-.99-.33-1.24-.43-.25-.99-.1-1.24.33Z"/>
                  <path class="cls-12" d="m205.22,151.41c.14.05.45-.66,1.21-1.07.75-.42,1.52-.32,1.55-.46.02-.07-.16-.19-.5-.24-.33-.05-.83-.01-1.3.25-.47.26-.77.66-.9.97-.13.32-.12.53-.06.55Z"/>
                </g>
                <path class="cls-12" d="m205.86,159.43c-.03-.06-.55.1-1.36.4-.21.08-.39.12-.46.03-.1-.1-.14-.35-.16-.64-.08-.61-.15-1.22-.23-1.86-.36-2.64-.75-4.76-.89-4.75s.05,2.17.4,4.81c.09.64.18,1.25.27,1.86.05.27.06.61.34.88.14.13.36.17.51.13.15-.03.27-.09.36-.14.78-.39,1.25-.66,1.23-.72Z"/>
                <path class="cls-8" d="m210.43,168.96s3.63-1.59,6.07-5.91c0,0,.44,4.87-5.31,7.34l-.76-1.43Z"/>
              </g>
              <g>
                <path class="cls-9" d="m216.74,145.47c.09-.09,4.4-2.65,5.68,2.05,1.11,4.07-3.49,4.77-3.55,4.64-.06-.13-2.13-6.7-2.13-6.7Z"/>
                <path class="cls-8" d="m219.71,149.78s.08.02.22.03c.13.01.33-.03.51-.18.36-.3.46-1.08.22-1.79-.12-.36-.32-.67-.55-.9-.22-.24-.48-.37-.7-.33-.22.03-.32.21-.33.33-.01.13.04.2.02.21,0,.01-.11-.03-.14-.21-.01-.08,0-.19.06-.3.07-.11.19-.2.34-.24.31-.09.68.09.93.34.27.25.5.6.63,1,.26.79.13,1.67-.37,2.04-.25.17-.51.17-.66.13-.16-.05-.21-.13-.2-.14Z"/>
              </g>
            </g>
            <g>
              <path class="cls-11" d="m214.75,176.6s10.75-18.04,27.37-2.86c10.85,9.91,28.54,30.32,34.87,38.32,1.42,1.79,3.64,4.52,2.08,6.2-4.74,5.13-17.66,16.61-41.57,8.04l-22.66-31.59c-3.88-5.41-3.91-12.67-.09-18.11h0Z"/>
              <polygon class="cls-11" points="228.53 168.01 225.5 163.05 210.02 175.37 212.91 180.02 228.53 168.01"/>
              <g class="cls-5">
                <path d="m227.87,168.65s-12.19,10.54-12.36,10.37c-.18-.17-4.87-3.56-4.87-3.56l4.3,2.41,12.94-9.21Z"/>
              </g>
              <path class="cls-12" d="m228.66,167.95s-.29.13-.78.42c-.48.3-1.17.75-2.01,1.33-1.67,1.15-3.93,2.82-6.41,4.66-1.69,1.25-3.28,2.4-4.64,3.34h.2c-1.45-.79-2.65-1.43-3.51-1.87s-1.35-.67-1.37-.63.44.34,1.26.83c.82.49,2,1.18,3.43,2l.1.06.1-.07c1.39-.91,3-2.05,4.69-3.3,2.42-1.82,4.62-3.47,6.33-4.76.75-.56,1.39-1.04,1.92-1.44.45-.34.69-.54.68-.57Z"/>
            </g>
            <g>
              <g>
                <path class="cls-9" d="m162.57,215.27l-2.94-1.2s-1.89-.44-4.98-1.91c-.8-.38-1.53-.91-2.15-1.54-.76-.76-1.73-1.82-2.08-2.56-.43-.92-1.76-.83-1.93.08-.17.91.96,3.47,3.47,5.57,2.51,2.1-2.64,2.03-4.52,2.03-1.88,0-7.68.3-8.14.88-.67.85.12,1.72,1.99,1.67,1.9-.05,7.5.19,7.46,1.18-.04.98-9.6.88-9.6.88,0,0-2.04-.35-2.13.79-.16,2.06,10,1.42,10.97,1.33.67-.06.66,1.02-.06,1.04-.74.03-9.53-.32-9.71,1.78-.14,1.61,8.36-.45,10.15.63,1.78,1.08-6.61.91-6.68,2.45-.03.58.03,1.01,4.87.41,4.95-.61,18.09-4.45,18.09-4.45l-2.22-9.2"/>
                <path class="cls-9" d="m220.01,182.86s-15.81,21.8-19.48,22.65c-3.67.85-44.42,7.25-44.42,7.25l2.04,13.3s50.58-1.42,55.49-5.89c4.91-4.47,19.7-27.2,19.7-27.2l-13.34-10.12Z"/>
                <path class="cls-8" d="m208.88,219.8s.11.18.42.37c.31.18.83.37,1.49.32.65-.04,1.46-.42,1.95-1.17.5-.72.67-1.85.13-2.77-.26-.45-.67-.82-1.17-.97-.48-.15-1-.11-1.42.11-.88.46-1.01,1.57-.6,2.14.45.61,1.14.57,1.47.44.36-.15.44-.37.42-.38-.03-.03-.16.14-.47.21-.29.08-.86.02-1.15-.44-.29-.44-.14-1.3.52-1.61.32-.16.73-.18,1.1-.06.37.12.7.41.91.78.44.75.32,1.69-.09,2.33-.4.66-1.06,1-1.64,1.08-1.2.16-1.85-.45-1.88-.37Z"/>
              </g>
              <path class="cls-11" d="m238.06,189.5l-15.01,25.75-17.29-14.32s11.98-19.61,17.64-25.7l14.67,14.27Z"/>
            </g>
          </g>
          <path class="cls-7" d="m195.04,238.66c.02-.13,2,.58,3.5,2.57,1.53,1.97,1.7,4.06,1.56,4.05-.16.04-.54-1.89-1.98-3.73-1.41-1.87-3.17-2.74-3.09-2.88Z"/>
        </g>
        <path class="cls-12" d="m212.95,147.81c.18.42.63.67,1.08.77s.91.09,1.36.17c.71.14,1.37.52,1.84,1.07.2.24.38.51.63.7.25.19.62.27.88.09.4-.29.22-.92,0-1.36-.93-1.86-1.87-3.72-2.8-5.58l-5.3,1.15,2.28,2.65"/>
        <path class="cls-12" d="m195.63,141.48c.61-.73,1.53-1.33,2.24-.7s1.03,1.6,1.24,2.54c.22.93.39,1.91.93,2.7.68,1,1.93,1.57,3.12,1.45,1.2-.13,2.3-.96,2.75-2.08.72,1.08,1.46,2.19,2.5,2.97,1.04.78,2.46,1.19,3.67.71,1.21-.48,1.99-2.03,1.36-3.17.7.53,1.53.93,2.4.92s1.78-.48,2.1-1.3c.32-.81-.12-1.9-.98-2.09.97.64,2.35.65,3.27-.07.92-.71,1.24-2.14.63-3.13s-2.11-1.33-3.04-.62c.65-.4,1.34-.83,1.7-1.51.36-.68.22-1.68-.47-2-.83-.39-1.73.38-2.63.55-1.48.27-2.69-1.06-3.88-1.97-2.16-1.64-5.08-2.08-7.74-1.54-2.66.54-5.07,1.98-7.11,3.77-1.34,1.17-2.63,2.87-2.09,4.56"/>
        <path class="cls-12" d="m198.77,152.26c.01.43-.42.8-.91,1-.5.19-1.06.22-1.35-.1-.29-.31,0-1.04.77-1.35s1.48.02,1.49.45Z"/>
        <path class="cls-12" d="m206.69,148.47c-.08.43-.62.7-1.15.95-.54.23-1.1.44-1.48.22-.17-.12-.24-.39-.11-.72.13-.33.46-.71.94-.92.48-.21.98-.21,1.32-.09.34.13.5.35.47.56Z"/>
        <path class="cls-12" d="m208.99,157.68c.13-.05.46.96-.04,2.1-.49,1.14-1.47,1.58-1.52,1.45-.08-.13.62-.68,1.04-1.66.44-.97.37-1.87.51-1.89Z"/>
        <path class="cls-7" d="m220.53,141.7s-.07.07-.23.14c-.16.07-.42.15-.76.16-.64.02-1.81-.24-2.42-1.43l.27.06c-.75.71-1.92,1.28-3.3,1.31-1.35.04-2.94-.43-4.04-1.67l.44-.18c.04.69-.38,1.34-.94,1.7-.56.37-1.25.55-1.94.47-1.17-.18-2.04-.94-2.72-1.66-.69-.74-1.24-1.52-1.88-2.14-.63-.62-1.34-1.08-2.09-1.21-.75-.14-1.48.02-2.1.26-1.24.51-2.03,1.34-2.57,1.87-.54.55-.83.87-.86.84-.02-.02.21-.38.7-.98.5-.58,1.26-1.48,2.57-2.08.65-.28,1.45-.48,2.31-.34.87.13,1.68.64,2.35,1.29.69.64,1.26,1.43,1.92,2.14.65.7,1.46,1.36,2.41,1.5,1.1.15,2.37-.63,2.31-1.63l-.04-.73.49.56c.96,1.11,2.4,1.57,3.64,1.56,1.27,0,2.36-.49,3.07-1.12l.18-.15.1.21c.47,1.04,1.51,1.36,2.11,1.39.64.03.97-.16.99-.11Z"/>
        <path class="cls-12" d="m240.57,185.52s-.05-.6-.23-1.65c-.19-1.04-.61-2.55-1.63-4.15-1-1.58-2.64-3.28-4.94-4.24-2.28-.96-5.18-1.19-7.9-.27-1.36.46-2.57,1.2-3.64,2.04-1.07.84-1.99,1.79-2.8,2.75-1.61,1.93-2.78,3.91-3.8,5.53-1,1.64-1.82,2.96-2.43,3.85-.3.45-.55.79-.71,1.02-.17.23-.26.34-.28.33-.03-.02.27-.53.82-1.45.58-1.01,1.35-2.33,2.28-3.93.98-1.65,2.12-3.65,3.74-5.65,1.62-1.96,3.77-3.98,6.64-4.98,2.86-.96,5.88-.7,8.25.33,2.41,1.03,4.07,2.83,5.07,4.48,1.01,1.68,1.39,3.24,1.52,4.32.06.54.08.96.07,1.24,0,.29-.02.43-.04.43Z"/>
        <path class="cls-6" d="m236.16,194.94s.08-.41-.4-.81c-.23-.2-.57-.33-1.01-.38-.43-.06-.98-.03-1.56-.28-1.18-.49-1.95-1.86-2.35-3.33-.21-.74-.37-1.52-.64-2.26-.27-.75-.69-1.47-1.35-1.94-.66-.48-1.47-.69-2.26-.79-.8-.1-1.58-.06-2.34-.04-1.51.06-2.97,0-4.04-.6-1.06-.58-1.62-1.46-1.77-2.11-.08-.33-.07-.59-.05-.76.03-.17.06-.26.08-.25.05,0-.04.37.17.96.19.58.75,1.35,1.74,1.84.98.5,2.35.53,3.85.45,1.48-.06,3.33-.2,4.92.89.78.55,1.25,1.39,1.52,2.18.29.8.44,1.59.63,2.32.36,1.42,1.04,2.67,2.03,3.12.48.23,1,.24,1.46.33.46.07.87.27,1.1.52.24.25.33.52.33.7,0,.18-.05.26-.06.26Z"/>
        <path class="cls-6" d="m230.19,203.5c-.05.01-.08-.34-.43-.8-.33-.46-1.04-.97-2.04-1.27-.98-.33-2.28-.29-3.69-.75-.69-.23-1.43-.66-1.9-1.35-.48-.67-.73-1.45-1.16-2.08-.88-1.28-2.46-1.71-3.8-2.04-1.36-.32-2.66-.66-3.56-1.35-.9-.68-1.33-1.54-1.42-2.15-.09-.62.06-.95.08-.94.05,0-.03.34.12.9.14.55.59,1.32,1.43,1.9.85.59,2.08.89,3.46,1.18.69.15,1.43.34,2.16.66.73.32,1.46.81,1.95,1.55.48.72.73,1.49,1.15,2.08.4.59,1,.97,1.64,1.19,1.28.45,2.6.46,3.64.86,1.04.35,1.78.96,2.09,1.5.16.27.23.51.26.66.02.16.02.24,0,.25Z"/>
        <path class="cls-6" d="m257.79,189.94s.01.15-.03.42c-.05.27-.17.66-.43,1.12-.51.92-1.67,2.01-3.37,2.79-.84.4-1.79.74-2.77,1.18-.97.43-1.98.97-2.8,1.82-1.7,1.68-2.54,4.28-3.73,6.82-.6,1.27-1.31,2.52-2.32,3.45-.25.23-.5.46-.79.64-.27.2-.55.38-.85.52-.59.29-1.21.49-1.81.63-2.43.52-4.64.39-6.37.93-1.75.48-2.87,1.56-3.35,2.42-.5.88-.45,1.49-.52,1.48-.01,0-.03-.14,0-.42.02-.27.11-.68.34-1.15.45-.94,1.6-2.14,3.42-2.68,1.79-.61,4.05-.53,6.37-1.05.58-.14,1.15-.33,1.7-.61.28-.13.53-.3.79-.49.27-.17.49-.38.73-.6.93-.88,1.61-2.06,2.2-3.31,1.18-2.49,2.03-5.16,3.86-6.94.89-.9,1.97-1.45,2.97-1.88,1.01-.42,1.96-.75,2.79-1.12,1.67-.72,2.81-1.71,3.35-2.56.55-.85.59-1.45.64-1.43Z"/>
        <path class="cls-6" d="m267.86,202.32s-.02.64-.64,1.56c-.59.93-1.86,1.99-3.65,2.77-1.78.82-4.1,1.19-6.3,2.38-1.1.59-2.07,1.48-2.73,2.66-.67,1.17-1.1,2.54-1.69,3.91-1.16,2.78-3.26,4.93-5.51,6.22-2.26,1.31-4.64,1.74-6.59,1.68-1.96-.05-3.5-.5-4.5-.92-.5-.2-.88-.4-1.12-.54-.25-.14-.37-.23-.36-.24.02-.04.55.24,1.56.6,1,.35,2.52.74,4.43.74,1.89,0,4.18-.45,6.34-1.73,2.15-1.26,4.15-3.34,5.27-6.01.57-1.33,1.01-2.72,1.72-3.96.7-1.25,1.78-2.23,2.94-2.83,2.32-1.21,4.64-1.54,6.39-2.29,1.77-.71,3.01-1.69,3.63-2.55.64-.85.74-1.47.8-1.44Z"/>
        <path class="cls-6" d="m276.94,212.09c.05.11-1.78.57-4.02,2.44-1.1.94-2.28,2.24-3.17,3.93-.45.84-.78,1.79-1.2,2.78-.42.98-.99,2.04-2.01,2.71-1,.67-2.16.89-3.21,1.01-1.07.12-2.08.15-3.02.31-1.9.3-3.54.89-4.85,1.53-2.62,1.29-3.91,2.64-3.98,2.55-.02-.02.28-.37.9-.91.62-.54,1.59-1.27,2.91-1.96,1.31-.69,2.99-1.34,4.94-1.67.98-.17,2.01-.22,3.04-.34,1.03-.12,2.1-.34,2.98-.93.88-.59,1.42-1.54,1.83-2.48.41-.95.76-1.94,1.24-2.81.95-1.74,2.2-3.06,3.36-3.99,1.17-.92,2.26-1.48,3.03-1.78.39-.15.69-.26.9-.31.21-.06.32-.08.33-.06Z"/>
        <path class="cls-6" d="m236.79,193.58c-.04-.1,1.1-.22,2.29-1.44.59-.6,1.16-1.43,1.6-2.45.45-1.02.75-2.22,1.07-3.49.32-1.27.66-2.5,1.19-3.55.52-1.05,1.19-1.89,1.88-2.45.69-.57,1.36-.86,1.85-.97.48-.11.76-.08.76-.06.03.1-1.12.14-2.36,1.3-.61.57-1.22,1.38-1.69,2.38-.47,1-.79,2.2-1.11,3.47-.32,1.27-.64,2.5-1.14,3.56-.49,1.06-1.12,1.92-1.78,2.52-.66.6-1.32.93-1.79,1.07-.47.14-.75.13-.75.11Z"/>
        <path class="cls-6" d="m233.92,175.62c-.13-.02.19-1.51,1.43-2.85,1.23-1.35,2.68-1.81,2.71-1.68.07.14-1.19.77-2.33,2.03-1.15,1.24-1.67,2.55-1.81,2.5Z"/>
        <path class="cls-6" d="m226.91,165.34c.06.04-.55.94-1.57,2.35-.53.7-1.08,1.56-1.88,2.44-.41.43-.9.86-1.52,1.13-.63.28-1.33.33-2,.33-.67,0-1.31-.04-1.9.04-.59.08-1.14.27-1.61.54-.96.54-1.6,1.36-1.92,2.12-.66,1.57-.3,2.7-.41,2.7-.03,0-.14-.25-.2-.74-.06-.49-.05-1.24.27-2.09.31-.85.98-1.79,2.03-2.4.52-.31,1.12-.54,1.78-.63.66-.09,1.32-.05,1.97-.05.65,0,1.27-.05,1.8-.28.53-.23.99-.6,1.38-.99.77-.81,1.38-1.67,1.94-2.33,1.1-1.36,1.8-2.17,1.86-2.13Z"/>
        <g class="cls-2">
          <polygon points="240.19 188.76 232.6 219.51 225.96 210.25 240.19 188.76"/>
        </g>
        <path class="cls-7" d="m273.11,289.98c-.14,0-.26-5.11-.26-11.41s.12-11.41.26-11.41.26,5.11.26,11.41c0,6.3-.12,11.41-.26,11.41Z"/>
      </g>
    </g>
  </g>
</svg>