<svg width="66" height="63" viewBox="0 0 66 63" fill="none" xmlns="http://www.w3.org/2000/svg">
<path d="M65.5695 25.3301H0.61142V26.8123H65.5695V25.3301Z" fill="#E5F3F6"/>
<path d="M0.61142 60.856C0.61142 62.0402 1.4882 63.0002 2.57057 63.0002H63.6114C64.6927 63.0002 65.5706 62.0402 65.5706 60.856V26.8115H0.61142V60.856ZM27.2809 33.1803L44.9872 45.1829L27.2809 57.1844V33.1803Z" fill="#3E8F9C"/>
<path d="M40.8849 11.9222L45.9739 3.21191L37.5751 4.78663L32.484 13.4979L40.8849 11.9222Z" fill="#3E8F9C"/>
<path d="M23.2299 15.2308L28.32 6.51953L19.9212 8.09425L14.8311 16.8056L23.2299 15.2308Z" fill="#3E8F9C"/>
<path d="M55.2269 1.47707L50.1379 10.1894L58.5377 8.61572L63.5579 0.0226194C63.3688 -0.0051334 63.1694 -0.0113007 62.9659 0.026731L55.2259 1.47605L55.2269 1.47707Z" fill="#3E8F9C"/>
<path d="M0.0131952 13.9643L0.630953 19.4676L5.57816 18.5404L10.6703 9.8291L1.74312 11.5015C0.658706 11.705 -0.116318 12.8069 0.0142231 13.9643H0.0131952Z" fill="#3E8F9C"/>
<path d="M14.8312 16.806L19.9212 8.09473L10.6693 9.82979L5.57816 18.5401L14.8312 16.806Z" fill="#AAD4C8"/>
<path d="M32.484 13.4984L37.5751 4.78711L28.32 6.52012L23.2299 15.2314L32.484 13.4984Z" fill="#AAD4C8"/>
<path d="M50.1379 10.1889L55.2269 1.47656L45.9739 3.21163L40.8849 11.9219L50.1379 10.1889Z" fill="#AAD4C8"/>
<path d="M63.5579 0.0234375L58.5367 8.61551L65.7823 7.25768L65.1625 1.75439C65.0586 0.814908 64.3874 0.139588 63.5569 0.0234375H63.5579Z" fill="#AAD4C8"/>
<path d="M0.618591 25.3216H1.09142L5.54935 19.4668H0.630926H0.618591V25.3216Z" fill="#3E8F9C"/>
<path d="M18.6908 25.3216L23.1508 19.4668H14.7756L10.3156 25.3216H18.6908Z" fill="#3E8F9C"/>
<path d="M65.5788 22.0957L63.119 25.3222H65.5788V22.0957Z" fill="#3E8F9C"/>
<path d="M53.8917 25.3216L58.3528 19.4668H49.9776L45.5176 25.3216H53.8917Z" fill="#3E8F9C"/>
<path d="M36.2934 25.3216L40.7534 19.4668H32.3782L27.9161 25.3216H36.2934Z" fill="#3E8F9C"/>
<path d="M1.09143 25.3216H10.3157L14.7756 19.4668H5.54936L1.09143 25.3216Z" fill="#AAD4C8"/>
<path d="M27.9161 25.3216L32.3781 19.4668H23.1508L18.6908 25.3216H27.9161Z" fill="#AAD4C8"/>
<path d="M45.5176 25.3216L49.9775 19.4668H40.7533L36.2933 25.3216H45.5176Z" fill="#AAD4C8"/>
<path d="M63.119 25.3216L65.5788 22.0951V19.4668H58.3528L53.8917 25.3216H63.119Z" fill="#AAD4C8"/>
<path d="M44.9871 45.1842L27.2808 33.1816V57.1858L44.9871 45.1842Z" fill="#E5F3F6"/>
</svg>
